<?xml version="1.0" encoding="UTF-8"?>
<svg version="1.1" xmlns="http://www.w3.org/2000/svg" width="48" height="48">
<path d="M0 0 C4.01684726 2.93915653 6.95784056 6.06102168 8.5625 10.875 C9.22725679 18.32899418 9.20683645 23.84991487 4.5625 29.875 C-0.78804386 34.83404065 -5.26806894 35.29197386 -12.35546875 35.21484375 C-18.61525985 34.52460062 -22.05351734 31.57037876 -25.9375 26.8125 C-28.3868395 21.78201798 -28.25955097 16.30486301 -27.4375 10.875 C-25.60083069 5.86073025 -22.47438893 1.90430375 -17.59375 -0.50390625 C-11.7768508 -2.17942613 -5.70449848 -1.86692677 0 0 Z " fill="#F19654" transform="translate(33.4375,7.125)"/>
<path d="M0 0 C2.08268593 -0.08126087 4.16628658 -0.13930839 6.25 -0.1875 C7.99023438 -0.23970703 7.99023438 -0.23970703 9.765625 -0.29296875 C13.26302875 0.02382507 14.57094698 0.51889584 17 3 C18.78468529 8.35405587 19.04514547 14.79640194 17.28125 20.203125 C14.67164299 25.0435251 11.19110583 28.26963139 6 30 C-0.87407029 30.71286655 -6.66777818 30.76376359 -12.375 26.5546875 C-15.93171314 23.1518706 -17.72639018 19.74426261 -18.5 14.8125 C-18 12 -18 12 -16.375 9.5625 C-14 8 -14 8 -11.08203125 8.1015625 C-7.23834228 9.2220295 -6.41359129 10.46740594 -4.3125 13.8125 C-3.75175781 14.68519531 -3.19101562 15.55789062 -2.61328125 16.45703125 C-2.08089844 17.29621094 -1.54851563 18.13539062 -1 19 C-0.01341541 20.34329023 0.98188406 21.68044792 2 23 C5.93673644 21.68775452 8.22719294 20.08089673 11 17 C10.33029489 13.93600134 10.33029489 13.93600134 8.15234375 12.83203125 C7.42144531 12.49558594 6.69054687 12.15914062 5.9375 11.8125 C5.20402344 11.46832031 4.47054688 11.12414063 3.71484375 10.76953125 C3.14894531 10.51558594 2.58304688 10.26164062 2 10 C5 9 5 9 6.97265625 9.77734375 C7.66230469 10.16019531 8.35195313 10.54304688 9.0625 10.9375 C11.87126501 12.57217278 11.87126501 12.57217278 15 13 C14.8864371 11.35333797 14.75882619 9.70763918 14.625 8.0625 C14.52058594 6.68771484 14.52058594 6.68771484 14.4140625 5.28515625 C14.20910156 4.15400391 14.20910156 4.15400391 14 3 C11.29816945 1.64908472 8.88191794 1.66141942 5.875 1.4375 C4.23144531 1.31181641 4.23144531 1.31181641 2.5546875 1.18359375 C1.71164063 1.12300781 0.86859375 1.06242188 0 1 C0 0.67 0 0.34 0 0 Z " fill="#8E4022" transform="translate(24,12)"/>
<path d="M0 0 C0.66 0 1.32 0 2 0 C2.33 0.66 2.66 1.32 3 2 C3.99 2 4.98 2 6 2 C7.30273438 3.3293457 7.30273438 3.3293457 8.59375 5.17578125 C9.06683594 5.83900391 9.53992187 6.50222656 10.02734375 7.18554688 C10.51332031 7.88744141 10.99929687 8.58933594 11.5 9.3125 C12.46642494 10.68523357 13.43510284 12.05638437 14.40625 13.42578125 C14.83228516 14.03848877 15.25832031 14.65119629 15.69726562 15.2824707 C17.01149968 17.01516122 18.42833676 18.50032352 20 20 C13.08115974 20.51891302 7.38464592 20.8144135 1.6328125 16.5546875 C-1.20967703 13.84820226 -2.56961486 11.70599787 -4 8 C-3.31194417 4.35330412 -2.61823374 2.61823374 0 0 Z " fill="#BF4D1E" transform="translate(10,22)"/>
<path d="M0 0 C1.4370809 -0.05422947 2.87475462 -0.09289723 4.3125 -0.125 C5.11300781 -0.14820313 5.91351563 -0.17140625 6.73828125 -0.1953125 C9 0 9 0 12 2 C12.51171875 4.3828125 12.51171875 4.3828125 12.6875 7.125 C12.78611328 8.49011719 12.78611328 8.49011719 12.88671875 9.8828125 C12.92410156 10.58148438 12.96148437 11.28015625 13 12 C10 13 10 13 7.08203125 11.78515625 C6.00308594 11.21667969 4.92414062 10.64820313 3.8125 10.0625 C2.72582031 9.49660156 1.63914062 8.93070313 0.51953125 8.34765625 C-0.31191406 7.90292969 -1.14335937 7.45820313 -2 7 C-1.34 6.34 -0.68 5.68 0 5 C0.16687448 2.41645782 0.16687448 2.41645782 0 0 Z " fill="#F76D24" transform="translate(27,13)"/>
<path d="M0 0 C0.66 0.433125 1.32 0.86625 2 1.3125 C2 5.3125 2 5.3125 0.46875 7.015625 C-0.1809375 7.52609375 -0.830625 8.0365625 -1.5 8.5625 C-2.1496875 9.08328125 -2.799375 9.6040625 -3.46875 10.140625 C-3.9740625 10.52734375 -4.479375 10.9140625 -5 11.3125 C-8.84375 9.640625 -8.84375 9.640625 -10.25 6.6875 C-10.4975 5.90375 -10.745 5.12 -11 4.3125 C-3.9452954 -0.9041302 -3.9452954 -0.9041302 0 0 Z " fill="#ED641F" transform="translate(33,24.6875)"/>
<path d="M0 0 C10.55808656 2.89066059 10.55808656 2.89066059 15 6 C12.16569547 9.2542015 10.31392226 10.5206753 6 11 C4.99126984 9.73608512 3.99328178 8.46359117 3 7.1875 C2.443125 6.47980469 1.88625 5.77210937 1.3125 5.04296875 C0 3 0 3 0 0 Z " fill="#FA762D" transform="translate(15,18)"/>
<path d="M0 0 C3.83201825 1.05910052 4.5912886 2.16546368 6.671875 5.484375 C7.25582031 6.38542969 7.83976562 7.28648438 8.44140625 8.21484375 C9.26705078 9.52388672 9.26705078 9.52388672 10.109375 10.859375 C12.5594539 14.43213156 14.97927227 17.8462014 18.109375 20.859375 C12.54474365 19.49868047 10.42082733 15.70690104 7.359375 11.234375 C5.62969187 8.75952812 3.88195413 6.30410662 2.109375 3.859375 C1.779375 3.859375 1.449375 3.859375 1.109375 3.859375 C0.779375 7.819375 0.449375 11.779375 0.109375 15.859375 C-0.220625 15.859375 -0.550625 15.859375 -0.890625 15.859375 C-0.890625 11.239375 -0.890625 6.619375 -0.890625 1.859375 C-4.90911501 4.52655488 -4.90911501 4.52655488 -6.890625 7.859375 C-6.53363997 5.21768579 -6.138317 3.25046764 -4.703125 0.984375 C-2.890625 -0.140625 -2.890625 -0.140625 0 0 Z " fill="#714F39" transform="translate(12.890625,20.140625)"/>
<path d="M0 0 C1.9453125 -0.29296875 1.9453125 -0.29296875 4.125 -0.1875 C5.40375 -0.125625 6.6825 -0.06375 8 0 C8 0.66 8 1.32 8 2 C8.62648438 2.12117188 9.25296875 2.24234375 9.8984375 2.3671875 C10.71570312 2.53476562 11.53296875 2.70234375 12.375 2.875 C13.59316406 3.11863281 13.59316406 3.11863281 14.8359375 3.3671875 C17 4 17 4 19 6 C17 7 17 7 14.6171875 6.22265625 C13.25980469 5.64837891 13.25980469 5.64837891 11.875 5.0625 C10.96492188 4.68222656 10.05484375 4.30195313 9.1171875 3.91015625 C8.41851562 3.60980469 7.71984375 3.30945313 7 3 C6.67 3.99 6.34 4.98 6 6 C5.236875 6.12375 4.47375 6.2475 3.6875 6.375 C0.79732864 6.88102792 0.79732864 6.88102792 -2 9 C-2.25 3.375 -2.25 3.375 0 0 Z " fill="#8D6D4E" transform="translate(8,15)"/>
<path d="M0 0 C1.953125 0.6796875 1.953125 0.6796875 4 2 C4.609375 4.3828125 4.609375 4.3828125 4.75 7.125 C4.80671875 8.03507812 4.8634375 8.94515625 4.921875 9.8828125 C4.96054687 10.93082031 4.96054687 10.93082031 5 12 C2 13 2 13 -1.1875 11.5625 C-2.115625 11.046875 -3.04375 10.53125 -4 10 C-3.34 9.01 -2.68 8.02 -2 7 C-1.34 7 -0.68 7 0 7 C0 4.69 0 2.38 0 0 Z " fill="#CD541D" transform="translate(35,13)"/>
<path d="M0 0 C2.64752004 2.57784846 4.94432065 4.91648098 7 8 C6.67 8.99 6.34 9.98 6 11 C3.69 11 1.38 11 -1 11 C-1.02688151 9.35425434 -1.04634123 7.70838587 -1.0625 6.0625 C-1.07410156 5.14597656 -1.08570313 4.22945312 -1.09765625 3.28515625 C-1 1 -1 1 0 0 Z " fill="#F6732C" transform="translate(14,23)"/>
<path d="M0 0 C6.14689273 0.36881356 8.69027374 1.90050429 13 6 C10.39888792 7.30055604 8.81258678 6.93112435 5.9375 6.625 C5.03902344 6.53476563 4.14054687 6.44453125 3.21484375 6.3515625 C1 6 1 6 0 5 C-0.04063832 3.33382885 -0.042721 1.66611905 0 0 Z " fill="#ED6C27" transform="translate(26,6)"/>
<path d="M0 0 C3.63 0 7.26 0 11 0 C10.67 1.65 10.34 3.3 10 5 C2.375 4.125 2.375 4.125 -1 3 C-0.67 2.01 -0.34 1.02 0 0 Z " fill="#F99B54" transform="translate(17,14)"/>
<path d="M0 0 C0.99 0.66 1.98 1.32 3 2 C1.4169423 6.2742558 -1.50568404 8.26531794 -5 11 C-6.32 10.34 -7.64 9.68 -9 9 C-8.43410156 8.51789062 -7.86820313 8.03578125 -7.28515625 7.5390625 C-6.55167969 6.90742187 -5.81820313 6.27578125 -5.0625 5.625 C-4.33160156 4.99851562 -3.60070313 4.37203125 -2.84765625 3.7265625 C-0.91619094 2.12252286 -0.91619094 2.12252286 0 0 Z " fill="#B2451A" transform="translate(36,27)"/>
<path d="M0 0 C0.99 0.66 1.98 1.32 3 2 C1.4169423 6.2742558 -1.50568404 8.26531794 -5 11 C-8.875 9.25 -8.875 9.25 -10 7 C-8.906875 6.773125 -7.81375 6.54625 -6.6875 6.3125 C-2.87511789 5.34252805 -2.87511789 5.34252805 -1.0625 2.375 C-0.711875 1.59125 -0.36125 0.8075 0 0 Z " fill="#CF551D" transform="translate(33,25)"/>
<path d="M0 0 C0.66 0 1.32 0 2 0 C1.67 3.63 1.34 7.26 1 11 C-0.32 10.67 -1.64 10.34 -3 10 C-3.6875 8.3125 -3.6875 8.3125 -4 6 C-2.85213059 3.75643706 -1.7904233 1.7904233 0 0 Z " fill="#F8742D" transform="translate(10,22)"/>
<path d="M0 0 C0.66 0.33 1.32 0.66 2 1 C0.515 2.485 0.515 2.485 -1 4 C1.31 4.66 3.62 5.32 6 6 C6 6.33 6 6.66 6 7 C2.37 7.33 -1.26 7.66 -5 8 C-5 7.34 -5 6.68 -5 6 C-5.66 6 -6.32 6 -7 6 C-6.67 5.01 -6.34 4.02 -6 3 C-5.01 3 -4.02 3 -3 3 C-1.31201173 1.56249809 -1.31201173 1.56249809 0 0 Z " fill="#A07752" transform="translate(21,7)"/>
<path d="M0 0 C2.64 0 5.28 0 8 0 C8.33 1.98 8.66 3.96 9 6 C6.36 6 3.72 6 1 6 C1.99 4.68 2.98 3.36 4 2 C2.68 1.34 1.36 0.68 0 0 Z " fill="#F38C48" transform="translate(18,6)"/>
<path d="M0 0 C2.31 0.33 4.62 0.66 7 1 C5.5901639 5.2295083 2.83578153 6.08210924 -1 8 C-1.125 2.25 -1.125 2.25 0 0 Z " fill="#F68B45" transform="translate(7,16)"/>
<path d="M0 0 C3.3 0.99 6.6 1.98 10 3 C5.90909091 5.72727273 5.90909091 5.72727273 3 6 C1.25 4.75 1.25 4.75 0 3 C0 2.01 0 1.02 0 0 Z " fill="#F79C57" transform="translate(15,18)"/>
<path d="M0 0 C0.33 0 0.66 0 1 0 C1 4.29 1 8.58 1 13 C-0.65 11.35 -2.3 9.7 -4 8 C-3.34 7.67 -2.68 7.34 -2 7 C-1.34 7.33 -0.68 7.66 0 8 C0 5.36 0 2.72 0 0 Z " fill="#CA5A24" transform="translate(11,25)"/>
<path d="M0 0 C0.66 0.33 1.32 0.66 2 1 C2.25 6.625 2.25 6.625 0 10 C-1.32 9.67 -2.64 9.34 -4 9 C-2.68 8.34 -1.36 7.68 0 7 C0 4.69 0 2.38 0 0 Z " fill="#E7611F" transform="translate(35,13)"/>
<path d="M0 0 C-1.65 1.65 -3.3 3.3 -5 5 C-6.32 4.34 -7.64 3.68 -9 3 C-5.92807025 0.26939578 -4.09590633 -0.34132553 0 0 Z " fill="#FA8942" transform="translate(27,22)"/>
<path d="M0 0 C1.98 0 3.96 0 6 0 C4.35 1.65 2.7 3.3 1 5 C0.67 3.35 0.34 1.7 0 0 Z " fill="#FB9D4B" transform="translate(15,7)"/>
<path d="M0 0 C0.33 0.99 0.66 1.98 1 3 C0 4 0 4 -1.84765625 4.09765625 C-3.8984375 4.06510417 -5.94921875 4.03255208 -8 4 C-5.33333333 2.66666667 -2.66666667 1.33333333 0 0 Z " fill="#C9511D" transform="translate(23,35)"/>
<path d="M0 0 C0.99 0 1.98 0 3 0 C3 1.98 3 3.96 3 6 C1.35 6.33 -0.3 6.66 -2 7 C-1.34 6.34 -0.68 5.68 0 5 C0.16687448 2.41645782 0.16687448 2.41645782 0 0 Z " fill="#FB8239" transform="translate(27,13)"/>
</svg>
