<?xml version="1.0" encoding="UTF-8"?>
<svg version="1.1" xmlns="http://www.w3.org/2000/svg" width="216" height="233">
<path d="M0 0 C25.90200892 -0.53568632 47.84546039 8.04597348 66.53564453 25.66894531 C82.64428086 41.39165107 91.73736884 64.06507623 92.30712891 86.32641602 C92.57881394 110.91391154 84.42669483 132.66920692 67.48046875 150.68359375 C50.43093258 167.59760102 28.22281151 177.55345585 3.9609375 177.49609375 C-18.67013041 177.36603014 -38.99739181 169.05515424 -55.9765625 154.12109375 C-56.79382813 153.4146875 -57.61109375 152.70828125 -58.453125 151.98046875 C-73.95385648 137.59834676 -83.32558038 115.635208 -84.4296875 94.67578125 C-84.768563 82.28429406 -84.08944386 70.86445237 -79.9765625 59.12109375 C-79.6259375 58.0846875 -79.2753125 57.04828125 -78.9140625 55.98046875 C-74.94983708 45.46425965 -68.51662493 35.44029596 -60.9765625 27.12109375 C-60.3165625 27.12109375 -59.6565625 27.12109375 -58.9765625 27.12109375 C-58.77289063 26.5590625 -58.56921875 25.99703125 -58.359375 25.41796875 C-56.45830669 22.26026206 -53.81971601 20.44701512 -50.8515625 18.37109375 C-50.23410156 17.93716309 -49.61664063 17.50323242 -48.98046875 17.05615234 C-34.02259842 6.82320047 -18.2050111 0.74062381 0 0 Z " fill="#8E191E" transform="translate(103.9765625,9.87890625)"/>
<path d="M0 0 C13.94690192 -0.28843958 27.1273534 1.79185105 40.0234375 7.12109375 C41.0134375 8.11109375 41.0134375 8.11109375 42.0234375 9.12109375 C41.0334375 9.45109375 40.0434375 9.78109375 39.0234375 10.12109375 C39.0234375 9.46109375 39.0234375 8.80109375 39.0234375 8.12109375 C38.0334375 8.45109375 37.0434375 8.78109375 36.0234375 9.12109375 C36.0234375 8.46109375 36.0234375 7.80109375 36.0234375 7.12109375 C34.3734375 7.12109375 32.7234375 7.12109375 31.0234375 7.12109375 C31.0234375 6.46109375 31.0234375 5.80109375 31.0234375 5.12109375 C29.0434375 5.45109375 27.0634375 5.78109375 25.0234375 6.12109375 C24.5284375 4.63609375 24.5284375 4.63609375 24.0234375 3.12109375 C22.3734375 3.45109375 20.7234375 3.78109375 19.0234375 4.12109375 C19.0234375 3.46109375 19.0234375 2.80109375 19.0234375 2.12109375 C16.39783906 2.42910815 13.77303944 2.74229557 11.1484375 3.05859375 C10.02888672 3.18911133 10.02888672 3.18911133 8.88671875 3.32226562 C4.8281144 3.75435438 4.8281144 3.75435438 1.0234375 5.12109375 C-0.98613308 5.0891958 -2.99627326 5.05475213 -5.00390625 4.9609375 C-7.30105865 4.98674953 -7.30105865 4.98674953 -9.9765625 7.12109375 C-10.2653125 8.21421875 -10.5540625 9.30734375 -10.8515625 10.43359375 C-12.13395936 14.63700568 -13.75717885 16.22364847 -16.9765625 19.12109375 C-17.6365625 20.11109375 -18.2965625 21.10109375 -18.9765625 22.12109375 C-21.578125 22.4140625 -21.578125 22.4140625 -24.6015625 22.30859375 C-26.10589844 22.26798828 -26.10589844 22.26798828 -27.640625 22.2265625 C-28.41148438 22.19175781 -29.18234375 22.15695313 -29.9765625 22.12109375 C-30.26789063 22.92417969 -30.55921875 23.72726563 -30.859375 24.5546875 C-32.20148787 27.63779295 -33.00004587 27.80792465 -35.9765625 29.12109375 C-38.86595077 31.59771227 -40.43159519 33.30632259 -40.9765625 37.12109375 C-41.5540625 37.24484375 -42.1315625 37.36859375 -42.7265625 37.49609375 C-47.75815993 38.8937597 -49.78296949 41.00032857 -52.9765625 45.12109375 C-53.9665625 45.78109375 -54.9565625 46.44109375 -55.9765625 47.12109375 C-56.5790995 41.09572377 -56.5790995 41.09572377 -54.86328125 38.3203125 C-53.63034397 36.8650992 -52.30847317 35.48630218 -50.9765625 34.12109375 C-51.6365625 34.12109375 -52.2965625 34.12109375 -52.9765625 34.12109375 C-52.9765625 33.46109375 -52.9765625 32.80109375 -52.9765625 32.12109375 C-52.3165625 32.12109375 -51.6565625 32.12109375 -50.9765625 32.12109375 C-50.9765625 31.13109375 -50.9765625 30.14109375 -50.9765625 29.12109375 C-49.4453125 27.515625 -49.4453125 27.515625 -47.4765625 25.93359375 C-46.50203125 25.13888672 -46.50203125 25.13888672 -45.5078125 24.328125 C-45.0025 23.92980469 -44.4971875 23.53148438 -43.9765625 23.12109375 C-45.2965625 22.46109375 -46.6165625 21.80109375 -47.9765625 21.12109375 C-48.3065625 21.78109375 -48.6365625 22.44109375 -48.9765625 23.12109375 C-49.6365625 22.79109375 -50.2965625 22.46109375 -50.9765625 22.12109375 C-53.07477465 22.52048142 -53.07477465 22.52048142 -54.9765625 23.12109375 C-42.76163981 9.68467879 -23.51571259 1.41289775 -5.515625 0.2109375 C-3.67689008 0.14587457 -1.83836501 0.07478913 0 0 Z " fill="#AB1D26" transform="translate(103.9765625,9.87890625)"/>
<path d="M0 0 C1.32 0.33 2.64 0.66 4 1 C4 1.66 4 2.32 4 3 C5.32 3 6.64 3 8 3 C8 3.99 8 4.98 8 6 C9.98 5.67 11.96 5.34 14 5 C13.67 6.65 13.34 8.3 13 10 C12.01 10 11.02 10 10 10 C10.01160156 10.91523437 10.02320313 11.83046875 10.03515625 12.7734375 C10.04417969 13.96195313 10.05320313 15.15046875 10.0625 16.375 C10.07410156 17.55835937 10.08570313 18.74171875 10.09765625 19.9609375 C10 23 10 23 9 25 C12.12455058 23.35820641 12.12455058 23.35820641 12.73046875 20.8359375 C12.88128906 20.02382812 13.03210938 19.21171875 13.1875 18.375 C13.42533203 17.14910156 13.42533203 17.14910156 13.66796875 15.8984375 C13.83232422 14.95871094 13.83232422 14.95871094 14 14 C15.32 13.67 16.64 13.34 18 13 C17.48636193 16.76667915 16.73730949 19.64120164 15 23 C15 23.99 15 24.98 15 26 C11.49408652 28.68099266 8.34159496 29.49516338 4 30 C3.67 28.68 3.34 27.36 3 26 C2.38640625 25.91878906 1.7728125 25.83757812 1.140625 25.75390625 C-1 25 -1 25 -2.265625 23.21484375 C-5.32112008 16.14598012 -5.89930282 10.59721129 -4 3 C-2.68 3 -1.36 3 0 3 C0 2.01 0 1.02 0 0 Z " fill="#660F12" transform="translate(164,75)"/>
<path d="M0 0 C0 0.66 0 1.32 0 2 C-4.455 2.495 -4.455 2.495 -9 3 C-6.525 3.495 -6.525 3.495 -4 4 C-5.98 6.97 -5.98 6.97 -8 10 C-6.35 10 -4.7 10 -3 10 C-3 10.66 -3 11.32 -3 12 C-3.639375 12.268125 -4.27875 12.53625 -4.9375 12.8125 C-7.33131686 13.88667752 -7.33131686 13.88667752 -8 17 C-9.92578125 18.6484375 -9.92578125 18.6484375 -12.3125 20.375 C-15.80030214 22.97981426 -18.29144417 25.58922599 -21 29 C-23.25 29.8125 -23.25 29.8125 -25 30 C-25 30.66 -25 31.32 -25 32 C-26.32 31.67 -27.64 31.34 -29 31 C-28.34 30.01 -27.68 29.02 -27 28 C-27.66 28 -28.32 28 -29 28 C-29 27.34 -29 26.68 -29 26 C-28.34 26 -27.68 26 -27 26 C-27 25.01 -27 24.02 -27 23 C-25.46875 21.39453125 -25.46875 21.39453125 -23.5 19.8125 C-22.52546875 19.01779297 -22.52546875 19.01779297 -21.53125 18.20703125 C-21.0259375 17.80871094 -20.520625 17.41039063 -20 17 C-21.32 16.34 -22.64 15.68 -24 15 C-24.33 15.66 -24.66 16.32 -25 17 C-25.66 16.67 -26.32 16.34 -27 16 C-29.09821215 16.39938767 -29.09821215 16.39938767 -31 17 C-24.69626284 10.06588912 -9.62574843 -3.20858281 0 0 Z " fill="#BB4149" transform="translate(80,16)"/>
<path d="M0 0 C1.98 0.66 3.96 1.32 6 2 C6.66 1.34 7.32 0.68 8 0 C8.66 1.98 9.32 3.96 10 6 C12.97 6.495 12.97 6.495 16 7 C16 12.28 16 17.56 16 23 C14.35 22.67 12.7 22.34 11 22 C9.989375 22.144375 8.97875 22.28875 7.9375 22.4375 C2.61418118 23.19797412 -2.6323204 23.07932531 -8 23 C-8.22384382 21.27277272 -8.42839969 19.54303993 -8.625 17.8125 C-8.74101563 16.84957031 -8.85703125 15.88664062 -8.9765625 14.89453125 C-9.00224857 11.72230157 -8.4615906 9.79889628 -7 7 C-6.34 6.67 -5.68 6.34 -5 6 C-4.34 6.66 -3.68 7.32 -3 8 C-3.99 8.495 -3.99 8.495 -5 9 C-5.40129063 13.06994471 -5.40129063 13.06994471 -3.80078125 16.6484375 C-1.49746663 18.37717255 0.14588205 18.56191524 3 18.8125 C3.86625 18.90144531 4.7325 18.99039063 5.625 19.08203125 C8.27101745 19.19895649 8.27101745 19.19895649 11 17 C11.2502157 13.91634129 11.2502157 13.91634129 11 11 C10.34 10.67 9.68 10.34 9 10 C9 9.34 9 8.68 9 8 C7.700625 7.855625 6.40125 7.71125 5.0625 7.5625 C1.125 7.125 1.125 7.125 0 6 C-0.04080783 4.00041636 -0.04254356 1.99954746 0 0 Z " fill="#AC2F35" transform="translate(104,33)"/>
<path d="M0 0 C2.046875 3.71875 2.046875 3.71875 1.625 6.25 C1.41875 6.8275 1.2125 7.405 1 8 C1.66 8 2.32 8 3 8 C3 10.31 3 12.62 3 15 C3.66 15.33 4.32 15.66 5 16 C5.40729228 18.32156597 5.74438677 20.6568787 6 23 C7.32 23.33 8.64 23.66 10 24 C10 25.66666667 10 27.33333333 10 29 C9.34 29 8.68 29 8 29 C8.309375 29.556875 8.61875 30.11375 8.9375 30.6875 C10.43705598 33.95123948 10.87597424 37.22040951 11.4375 40.75 C11.623125 41.4925 11.80875 42.235 12 43 C12.66 43.33 13.32 43.66 14 44 C17.66666667 46.66666667 17.66666667 46.66666667 19 48 C19.04080783 49.99958364 19.04254356 52.00045254 19 54 C17.515 53.505 17.515 53.505 16 53 C16 52.34 16 51.68 16 51 C15.01 51 14.02 51 13 51 C3.105443 34.13260382 -0.96871311 19.61105868 0 0 Z " fill="#5D0609" transform="translate(21,97)"/>
<path d="M0 0 C3.22290201 0.0289309 5.44294723 0.35779815 8.1875 2.1875 C7.8575 3.5075 7.5275 4.8275 7.1875 6.1875 C8.5075 6.1875 9.8275 6.1875 11.1875 6.1875 C11.1875 6.8475 11.1875 7.5075 11.1875 8.1875 C12.1775 8.1875 13.1675 8.1875 14.1875 8.1875 C14.1875 8.8475 14.1875 9.5075 14.1875 10.1875 C15.1775 10.1875 16.1675 10.1875 17.1875 10.1875 C17.5175 9.5275 17.8475 8.8675 18.1875 8.1875 C19.1775 9.1775 20.1675 10.1675 21.1875 11.1875 C23.1675 10.5275 25.1475 9.8675 27.1875 9.1875 C26.5275 10.8375 25.8675 12.4875 25.1875 14.1875 C33.03458472 16.0495201 40.38219346 16.34216606 48.390625 16.16015625 C52.13669124 16.18713409 55.50404641 16.57200063 59.1875 17.1875 C56.36864649 20.00635351 54.26842735 19.5012191 50.40966797 19.56860352 C32.7278288 19.52984795 10.39507842 16.59638066 -2.859375 3.40234375 C-3.50390625 2.67144531 -4.1484375 1.94054687 -4.8125 1.1875 C-3.8125 0.1875 -3.8125 0.1875 0 0 Z " fill="#4B1415" transform="translate(60.8125,167.8125)"/>
<path d="M0 0 C-0.1796875 1.81640625 -0.1796875 1.81640625 -1 4 C-3.2578125 5.52734375 -3.2578125 5.52734375 -6.125 6.9375 C-10.75799462 9.31138121 -14.85118794 11.865342 -19 15 C-18.67 13.68 -18.34 12.36 -18 11 C-16.68 10.67 -15.36 10.34 -14 10 C-14 9.34 -14 8.68 -14 8 C-14.78375 8.20625 -15.5675 8.4125 -16.375 8.625 C-17.24125 8.74875 -18.1075 8.8725 -19 9 C-19.66 8.34 -20.32 7.68 -21 7 C-14.38512764 3.38184434 -7.71125749 0 0 0 Z M-19 15 C-19.125 16.75 -19.125 16.75 -20 19 C-20.969375 19.61875 -21.93875 20.2375 -22.9375 20.875 C-26.55974623 23.38839534 -26.73386236 24.93027188 -28 29 C-29.875 29.75 -29.875 29.75 -32 30 C-35.8471074 31.44266528 -37.51940202 33.79922841 -40 37 C-40.99 37.66 -41.98 38.32 -43 39 C-43.125 35.625 -43.125 35.625 -43 32 C-41 30 -41 30 -38.375 29.875 C-37.59125 29.91625 -36.8075 29.9575 -36 30 C-36 29.34 -36 28.68 -36 28 C-35.071875 27.87625 -35.071875 27.87625 -34.125 27.75 C-33.42375 27.5025 -32.7225 27.255 -32 27 C-31.71898437 26.4121875 -31.43796875 25.824375 -31.1484375 25.21875 C-29.70005358 22.42051167 -27.8634439 20.82185017 -25.5 18.75 C-24.7059375 18.04359375 -23.911875 17.3371875 -23.09375 16.609375 C-21 15 -21 15 -19 15 Z " fill="#D35252" transform="translate(91,18)"/>
<path d="M0 0 C4.24116501 0.84003751 6.96791187 1.57858106 9.86328125 4.91796875 C8.87328125 5.24796875 7.88328125 5.57796875 6.86328125 5.91796875 C6.53328125 4.92796875 6.20328125 3.93796875 5.86328125 2.91796875 C3.88328125 3.90796875 1.90328125 4.89796875 -0.13671875 5.91796875 C0.52328125 6.24796875 1.18328125 6.57796875 1.86328125 6.91796875 C1.53328125 8.23796875 1.20328125 9.55796875 0.86328125 10.91796875 C1.85328125 11.24796875 2.84328125 11.57796875 3.86328125 11.91796875 C3.86328125 12.57796875 3.86328125 13.23796875 3.86328125 13.91796875 C-0.13671875 11.91796875 -0.13671875 11.91796875 -1.91796875 10.88671875 C-4.62194029 9.70611146 -6.94982603 9.5027468 -9.88671875 9.29296875 C-10.8715625 9.21820313 -11.85640625 9.1434375 -12.87109375 9.06640625 C-13.61875 9.01742188 -14.36640625 8.9684375 -15.13671875 8.91796875 C-15.35057807 11.32644816 -15.35057807 11.32644816 -15.13671875 13.91796875 C-11.10586337 17.35894286 -7.17595801 18.70855133 -2.13671875 19.91796875 C-3.46710324 20.26288325 -4.80128936 20.59313457 -6.13671875 20.91796875 C-7.37421875 21.25828125 -7.37421875 21.25828125 -8.63671875 21.60546875 C-11.13671875 21.91796875 -11.13671875 21.91796875 -13.38671875 21.29296875 C-15.13671875 19.91796875 -15.13671875 19.91796875 -15.88671875 17.29296875 C-15.96921875 16.50921875 -16.05171875 15.72546875 -16.13671875 14.91796875 C-17.12671875 14.91796875 -18.11671875 14.91796875 -19.13671875 14.91796875 C-19.79671875 12.93796875 -20.45671875 10.95796875 -21.13671875 8.91796875 C-19.15671875 7.92796875 -17.17671875 6.93796875 -15.13671875 5.91796875 C-15.13671875 6.57796875 -15.13671875 7.23796875 -15.13671875 7.91796875 C-14.47671875 7.91796875 -13.81671875 7.91796875 -13.13671875 7.91796875 C-13.13671875 7.25796875 -13.13671875 6.59796875 -13.13671875 5.91796875 C-12.06421875 5.67046875 -10.99171875 5.42296875 -9.88671875 5.16796875 C-6.09538642 4.26971534 -6.09538642 4.26971534 -4.26171875 1.66796875 C-2.13671875 -0.08203125 -2.13671875 -0.08203125 0 0 Z M-23.13671875 7.91796875 C-22.14671875 9.40296875 -22.14671875 9.40296875 -21.13671875 10.91796875 C-21.79671875 10.91796875 -22.45671875 10.91796875 -23.13671875 10.91796875 C-23.13671875 9.92796875 -23.13671875 8.93796875 -23.13671875 7.91796875 Z " fill="#981B20" transform="translate(143.13671875,18.08203125)"/>
<path d="M0 0 C2.84209194 0.33892067 4.56625159 0.61596208 6.73828125 2.5390625 C14.78644827 13.20338307 24.59790872 28.19827372 24 42 C23.01 42 22.02 42 21 42 C20.42902179 39.79765548 19.92591813 37.6110702 19.5 35.375 C19.10412687 32.99712092 19.10412687 32.99712092 18 31 C17.01 31.33 16.02 31.66 15 32 C15 31.01 15 30.02 15 29 C14.89687349 27.47752703 14.77014742 25.95654287 14.625 24.4375 C14.55539063 23.65246094 14.48578125 22.86742188 14.4140625 22.05859375 C14.15451059 19.78531779 14.15451059 19.78531779 12 18 C12 17.01 12 16.02 12 15 C10.35 15.33 8.7 15.66 7 16 C7 13.33333333 7 10.66666667 7 8 C4.69 8 2.38 8 0 8 C-0.33 7.34 -0.66 6.68 -1 6 C-0.67 5.01 -0.34 4.02 0 3 C0 2.01 0 1.02 0 0 Z " fill="#5D171B" transform="translate(170,40)"/>
<path d="M0 0 C0.66 0.33 1.32 0.66 2 1 C2.42351876 7.14438334 1.64892839 10.76838921 -1.9375 15.875 C-2.34137939 16.4743335 -2.74525879 17.07366699 -3.16137695 17.69116211 C-8.39266102 25.27920906 -14.46152705 32.61537646 -22 38 C-22.99 38 -23.98 38 -25 38 C-24.37312706 35.07459296 -23.64872507 32.5164751 -22 30 C-21.34 29.87625 -20.68 29.7525 -20 29.625 C-19.34 29.41875 -18.68 29.2125 -18 29 C-17.566875 27.5459375 -17.566875 27.5459375 -17.125 26.0625 C-16.75375 25.051875 -16.3825 24.04125 -16 23 C-12.9375 21.8125 -12.9375 21.8125 -10 21 C-9.67 20.01 -9.34 19.02 -9 18 C-8.34 18 -7.68 18 -7 18 C-7.33 17.01 -7.66 16.02 -8 15 C-7.01 14.34 -6.02 13.68 -5 13 C-4.27617533 10.94074861 -4.27617533 10.94074861 -4 9 C-3.34 9 -2.68 9 -2 9 C-1.34 6.03 -0.68 3.06 0 0 Z " fill="#480D0F" transform="translate(185,130)"/>
<path d="M0 0 C1 1 1 1 1.11352539 2.76586914 C1.10828857 3.51473389 1.10305176 4.26359863 1.09765625 5.03515625 C1.09443359 5.84404297 1.09121094 6.65292969 1.08789062 7.48632812 C1.07951172 8.33646484 1.07113281 9.18660156 1.0625 10.0625 C1.05798828 10.91650391 1.05347656 11.77050781 1.04882812 12.65039062 C1.03700373 14.76695663 1.01906769 16.88348685 1 19 C-4.75 18.125 -4.75 18.125 -7 17 C-9.39273492 12.61331931 -9.46419922 8.87409182 -9 4 C-6.46416015 0.24320022 -4.47279287 -0.60443147 0 0 Z " fill="#080B0D" transform="translate(170,79)"/>
<path d="M0 0 C0.66 0.33 1.32 0.66 2 1 C1.34 1.66 0.68 2.32 0 3 C-1.36763024 6.62019769 -2.32795196 10.19172777 -3 14 C-2.34 14.33 -1.68 14.66 -1 15 C-4.28291815 21.68742586 -4.28291815 21.68742586 -7.4375 23.0625 C-10.36933144 22.99099192 -12.37530403 22.27485233 -15 21 C-14.67 22.32 -14.34 23.64 -14 25 C-14.639375 25.2475 -15.27875 25.495 -15.9375 25.75 C-18.18741541 26.81562433 -18.18741541 26.81562433 -18.75 29.125 C-18.8325 29.74375 -18.915 30.3625 -19 31 C-19.33 30.34 -19.66 29.68 -20 29 C-16.94108525 21.09369212 -12.38371277 14.46566958 -7 8 C-6.47792969 7.2575 -5.95585938 6.515 -5.41796875 5.75 C-4.95003906 5.1725 -4.48210938 4.595 -4 4 C-3.34 4 -2.68 4 -2 4 C-1.34 2.68 -0.68 1.36 0 0 Z " fill="#A2191F" transform="translate(47,33)"/>
<path d="M0 0 C1.77049689 -0.05410687 3.54146849 -0.09284119 5.3125 -0.125 C6.29863281 -0.14820313 7.28476563 -0.17140625 8.30078125 -0.1953125 C11 0 11 0 14 2 C14.4375 4.9375 14.4375 4.9375 14 8 C11.8517062 10.12382577 10.59380671 10.94766127 7.5625 11.21484375 C0.70973612 10.47315742 0.70973612 10.47315742 -2.625 8.25 C-4.24183566 5.60426893 -4.33870915 4.04838235 -4 1 C-2.68 1.33 -1.36 1.66 0 2 C0 1.34 0 0.68 0 0 Z " fill="#48080A" transform="translate(102,42)"/>
<path d="M0 0 C0.66 0.99 1.32 1.98 2 3 C2.33 2.01 2.66 1.02 3 0 C5.475 0.99 5.475 0.99 8 2 C7.04882866 3.1725131 6.08882991 4.33787015 5.125 5.5 C4.32449219 6.47453125 4.32449219 6.47453125 3.5078125 7.46875 C3.01023437 7.9740625 2.51265625 8.479375 2 9 C1.34 9 0.68 9 0 9 C0 9.99 0 10.98 0 12 C-0.66 12 -1.32 12 -2 12 C-2.09152344 12.55171875 -2.18304688 13.1034375 -2.27734375 13.671875 C-3.2019476 16.65059876 -4.73720977 18.72778078 -6.5625 21.25 C-7.52349609 22.58804688 -7.52349609 22.58804688 -8.50390625 23.953125 C-8.99761719 24.62859375 -9.49132813 25.3040625 -10 26 C-10.33 25.34 -10.66 24.68 -11 24 C-10.06553465 21.96855359 -9.06775224 19.96466413 -8 18 C-8.66 18 -9.32 18 -10 18 C-9.23164612 11.69949816 -7.80996352 6.23491058 -2.8125 2.0625 C-1.884375 1.381875 -0.95625 0.70125 0 0 Z " fill="#B71E25" transform="translate(53,30)"/>
<path d="M0 0 C10.73953078 -0.68794147 10.73953078 -0.68794147 14.625 1.75 C16.94013421 3.94328504 17.77626111 4.8676555 18 8 C14.07693202 9.96153399 9.28690635 9.34641667 5 9 C1.875 7.75 1.875 7.75 0 6 C-0.875 3.9375 -0.875 3.9375 -1 2 C-0.67 1.34 -0.34 0.68 0 0 Z " fill="#440306" transform="translate(128,27)"/>
<path d="M0 0 C2.00720923 0.28674418 4.0085944 0.61866701 6 1 C5.32930848 5.58894201 4.23877704 9.92547207 2.9375 14.375 C2.57527344 15.62023437 2.21304688 16.86546875 1.83984375 18.1484375 C1.42412109 19.55996094 1.42412109 19.55996094 1 21 C0.67 20.34 0.34 19.68 0 19 C-2.52733235 18.34444881 -2.52733235 18.34444881 -5 18 C-4.06451613 4.06451613 -4.06451613 4.06451613 0 0 Z " fill="#BB4E51" transform="translate(35,67)"/>
<path d="M0 0 C0.99 0.99 0.99 0.99 2 2 C1.01 2.33 0.02 2.66 -1 3 C-1 2.34 -1 1.68 -1 1 C-1.99 1.33 -2.98 1.66 -4 2 C-4 1.34 -4 0.68 -4 0 C-5.65 0 -7.3 0 -9 0 C-9 -0.66 -9 -1.32 -9 -2 C-10.98 -1.67 -12.96 -1.34 -15 -1 C-15.495 -2.485 -15.495 -2.485 -16 -4 C-17.65 -3.67 -19.3 -3.34 -21 -3 C-21 -3.66 -21 -4.32 -21 -5 C-22.485 -4.75636719 -22.485 -4.75636719 -24 -4.5078125 C-27.99931433 -3.93849361 -31.96551869 -3.85181333 -36 -3.875 C-36.67289063 -3.87113281 -37.34578125 -3.86726562 -38.0390625 -3.86328125 C-42.46889635 -3.87183305 -46.64341336 -4.2852475 -51 -5 C-51.33 -4.34 -51.66 -3.68 -52 -3 C-53.98985949 -2.61067967 -55.99199544 -2.28112064 -58 -2 C-58.99 -1.67 -59.98 -1.34 -61 -1 C-61.99 -1.66 -62.98 -2.32 -64 -3 C-42.88216885 -9.38352691 -20.45707207 -8.45378342 0 0 Z " fill="#BD767B" transform="translate(144,17)"/>
<path d="M0 0 C0.99 0.33 1.98 0.66 3 1 C2.67 2.32 2.34 3.64 2 5 C1.01 5 0.02 5 -1 5 C-0.98839844 5.91523437 -0.97679687 6.83046875 -0.96484375 7.7734375 C-0.95582031 8.96195313 -0.94679687 10.15046875 -0.9375 11.375 C-0.92589844 12.55835937 -0.91429687 13.74171875 -0.90234375 14.9609375 C-1 18 -1 18 -2 20 C1.12455058 18.35820641 1.12455058 18.35820641 1.73046875 15.8359375 C1.88128906 15.02382812 2.03210938 14.21171875 2.1875 13.375 C2.34605469 12.55773437 2.50460938 11.74046875 2.66796875 10.8984375 C2.77753906 10.27195312 2.88710937 9.64546875 3 9 C4.32 8.67 5.64 8.34 7 8 C6.48636193 11.76667915 5.73730949 14.64120164 4 18 C4 18.99 4 19.98 4 21 C0.49408652 23.68099266 -2.65840504 24.49516338 -7 25 C-7.12375 24.360625 -7.2475 23.72125 -7.375 23.0625 C-7.58125 22.381875 -7.7875 21.70125 -8 21 C-8.66 20.67 -9.32 20.34 -10 20 C-6.535 19.505 -6.535 19.505 -3 19 C-2.505 10.09 -2.505 10.09 -2 1 C-1.34 0.67 -0.68 0.34 0 0 Z " fill="#5F0406" transform="translate(175,80)"/>
<path d="M0 0 C3.15390818 4.73086227 3.02138612 7.62987927 2.5625 13.1875 C2.46066406 14.45980469 2.35882813 15.73210937 2.25390625 17.04296875 C2.17011719 18.01878906 2.08632813 18.99460937 2 20 C1.67 20 1.34 20 1 20 C0.34 17.69 -0.32 15.38 -1 13 C-1.66 13 -2.32 13 -3 13 C-2.01 14.485 -2.01 14.485 -1 16 C-1.34824311 19.48243113 -3.08473035 22.12709552 -5 25 C-5.33 25 -5.66 25 -6 25 C-5.85946128 22.37461716 -5.71281053 19.74982573 -5.5625 17.125 C-5.52318359 16.37863281 -5.48386719 15.63226563 -5.44335938 14.86328125 C-5.11328125 9.2265625 -5.11328125 9.2265625 -4 7 C-3.34 7 -2.68 7 -2 7 C-2 5.02 -2 3.04 -2 1 C-1.34 0.67 -0.68 0.34 0 0 Z " fill="#890D13" transform="translate(27,69)"/>
<path d="M0 0 C0 0.66 0 1.32 0 2 C-0.639375 2.268125 -1.27875 2.53625 -1.9375 2.8125 C-4.33131686 3.88667752 -4.33131686 3.88667752 -5 7 C-6.92578125 8.71875 -6.92578125 8.71875 -9.3125 10.5 C-10.48232422 11.38171875 -10.48232422 11.38171875 -11.67578125 12.28125 C-12.44277344 12.8484375 -13.20976563 13.415625 -14 14 C-15.33360591 14.99963646 -16.66703279 15.99951202 -18 17 C-18.39918183 13.50715897 -18.22907865 12.30297499 -16.0625 9.4375 C-15.381875 8.633125 -14.70125 7.82875 -14 7 C-13.835 6.29875 -13.67 5.5975 -13.5 4.875 C-13 3 -13 3 -11.5 1.25 C-7.74442761 -0.62778619 -4.12353394 -0.23789619 0 0 Z " fill="#DA5F62" transform="translate(77,26)"/>
<path d="M0 0 C-0.125 1.75 -0.125 1.75 -1 4 C-1.969375 4.61875 -2.93875 5.2375 -3.9375 5.875 C-7.55974623 8.38839534 -7.73386236 9.93027188 -9 14 C-10.875 14.75 -10.875 14.75 -13 15 C-16.8471074 16.44266528 -18.51940202 18.79922841 -21 22 C-21.99 22.66 -22.98 23.32 -24 24 C-24.125 20.625 -24.125 20.625 -24 17 C-22 15 -22 15 -19.375 14.875 C-18.59125 14.91625 -17.8075 14.9575 -17 15 C-17 14.34 -17 13.68 -17 13 C-16.071875 12.87625 -16.071875 12.87625 -15.125 12.75 C-14.42375 12.5025 -13.7225 12.255 -13 12 C-12.71898437 11.4121875 -12.43796875 10.824375 -12.1484375 10.21875 C-10.70005358 7.42051167 -8.8634439 5.82185017 -6.5 3.75 C-5.7059375 3.04359375 -4.911875 2.3371875 -4.09375 1.609375 C-2 0 -2 0 0 0 Z " fill="#C83139" transform="translate(72,33)"/>
<path d="M0 0 C0.99 0.66 1.98 1.32 3 2 C2.01 2.495 2.01 2.495 1 3 C0.60056374 7.07258552 0.60056374 7.07258552 2.19921875 10.65625 C4.51592619 12.38498614 6.13344756 12.49554336 9 12.6875 C9.86625 12.75324219 10.7325 12.81898437 11.625 12.88671875 C13.4150295 12.97209845 15.20793547 13 17 13 C17 13.99 17 14.98 17 16 C10.65758005 17.15316726 4.43311296 17.09507063 -2 17 C-2.22384382 15.27277272 -2.42839969 13.54303993 -2.625 11.8125 C-2.74101563 10.84957031 -2.85703125 9.88664062 -2.9765625 8.89453125 C-3.00211681 5.73857418 -2.38777545 3.81049488 -1 1 C-0.67 0.67 -0.34 0.34 0 0 Z " fill="#CF5156" transform="translate(98,39)"/>
<path d="M0 0 C-0.25436414 4.32419041 -0.51659195 6.45461656 -3.4375 9.75 C-4.7059375 10.86375 -4.7059375 10.86375 -6 12 C-6.99 13.485 -6.99 13.485 -8 15 C-10.3828125 15.29296875 -10.3828125 15.29296875 -13.125 15.1875 C-14.03507812 15.16042969 -14.94515625 15.13335937 -15.8828125 15.10546875 C-16.58148438 15.07066406 -17.28015625 15.03585938 -18 15 C-16.69999237 11.09997711 -14.41912384 9.94334816 -11 8 C-8.89146461 6.97651384 -6.77905774 5.9781342 -4.63671875 5.02734375 C-2.65545313 4.02534859 -2.65545313 4.02534859 -2 1 C-2.7425 1.350625 -3.485 1.70125 -4.25 2.0625 C-7.1322726 3.04509293 -8.21176345 3.0326802 -11 2 C-7.17679443 0.57741188 -4.08718695 -0.24042276 0 0 Z " fill="#C72A34" transform="translate(93,17)"/>
<path d="M0 0 C0.33 0.66 0.66 1.32 1 2 C1.66 1.67 2.32 1.34 3 1 C4.54613014 1.08651631 6.08909387 1.24002636 7.625 1.4375 C8.85089844 1.59025391 8.85089844 1.59025391 10.1015625 1.74609375 C11.04128906 1.87177734 11.04128906 1.87177734 12 2 C12 2.33 12 2.66 12 3 C8.37 3 4.74 3 1 3 C1 4.65 1 6.3 1 8 C5.03085538 11.44097411 8.96076074 12.79058258 14 14 C12.66961551 14.3449145 11.33542939 14.67516582 10 15 C8.7625 15.3403125 8.7625 15.3403125 7.5 15.6875 C5 16 5 16 2.75 15.375 C1 14 1 14 0.25 11.375 C0.1675 10.59125 0.085 9.8075 0 9 C-0.99 9 -1.98 9 -3 9 C-3.66 7.02 -4.32 5.04 -5 3 C-3.35 2.01 -1.7 1.02 0 0 Z M-7 2 C-6.01 3.485 -6.01 3.485 -5 5 C-5.66 5 -6.32 5 -7 5 C-7 4.01 -7 3.02 -7 2 Z " fill="#AB1B27" transform="translate(127,24)"/>
<path d="M0 0 C0.66 0.66 1.32 1.32 2 2 C2.99 2.33 3.98 2.66 5 3 C6.84499398 4.87617698 8.3683599 6.92737609 10 9 C7.66666667 9 5.33333333 9 3 9 C2.67 9.66 2.34 10.32 2 11 C-0.96175123 10.38722388 -2.38058783 9.74627478 -5 8 C-5.6875 4.375 -5.6875 4.375 -6 1 C-3.92446352 0.4465236 -2.15634036 0 0 0 Z " fill="#8D0C11" transform="translate(149,21)"/>
<path d="M0 0 C2.01822917 0.26041667 4.03645833 0.52083333 6.0546875 0.78125 C8.00498344 1.0372485 8.00498344 1.0372485 10 1 C11.625 3.75 11.625 3.75 13 7 C12.3125 9.1875 12.3125 9.1875 11 11 C10.01 12.485 10.01 12.485 9 14 C7.74458443 10.23375329 8.62938042 8.62811066 10 5 C8.02 5 6.04 5 4 5 C3.319375 6.85625 3.319375 6.85625 2.625 8.75 C1.57860403 11.60380719 0.39841262 14.30045564 -1 17 C-1.36256858 15.5437328 -1.71479793 14.08488815 -2.0625 12.625 C-2.35833984 11.40683594 -2.35833984 11.40683594 -2.66015625 10.1640625 C-3 8 -3 8 -2 6 C-1.67 6 -1.34 6 -1 6 C-0.67 4.02 -0.34 2.04 0 0 Z " fill="#99161F" transform="translate(31,63)"/>
<path d="M0 0 C0.33 0.99 0.66 1.98 1 3 C-1 6 -1 6 -3 9 C-3.79070548 12.23038842 -3.79070548 12.23038842 -4 15 C-5.32 15.33 -6.64 15.66 -8 16 C-8 16.66 -8 17.32 -8 18 C-9.32 17.67 -10.64 17.34 -12 17 C-11.01 15.515 -11.01 15.515 -10 14 C-10.66 14 -11.32 14 -12 14 C-12 13.34 -12 12.68 -12 12 C-11.34 12 -10.68 12 -10 12 C-10 11.01 -10 10.02 -10 9 C-8.57421875 7.5 -8.57421875 7.5 -6.6875 6 C-4.32513256 4.09821992 -2.10983214 2.18124184 0 0 Z " fill="#D65458" transform="translate(63,30)"/>
<path d="M0 0 C0.2475 0.598125 0.495 1.19625 0.75 1.8125 C1.8720306 4.13424058 1.8720306 4.13424058 4.125 5.5 C4.74375 5.995 5.3625 6.49 6 7 C6 8.32 6 9.64 6 11 C6.66 11.33 7.32 11.66 8 12 C11.66666667 14.66666667 11.66666667 14.66666667 13 16 C13.04080783 17.99958364 13.04254356 20.00045254 13 22 C12.01 21.67 11.02 21.34 10 21 C10 20.34 10 19.68 10 19 C9.01 19 8.02 19 7 19 C5.63063499 16.59087645 4.27958007 14.17425815 2.9375 11.75 C2.54755859 11.06808594 2.15761719 10.38617188 1.75585938 9.68359375 C1.39169922 9.01972656 1.02753906 8.35585937 0.65234375 7.671875 C0.31195068 7.0644043 -0.02844238 6.45693359 -0.37915039 5.83105469 C-1.15628879 3.53906176 -0.76849965 2.25542675 0 0 Z " fill="#612A2E" transform="translate(27,129)"/>
<path d="M0 0 C1.32 0.33 2.64 0.66 4 1 C4 1.66 4 2.32 4 3 C4.66 3 5.32 3 6 3 C5.953125 4.76953125 5.953125 4.76953125 5 7 C2.57167704 8.43034145 0.31764463 9.57775529 -2.25 10.6875 C-3.25353516 11.14866211 -3.25353516 11.14866211 -4.27734375 11.61914062 C-7.82405344 13.21132759 -11.12270845 14.43644018 -15 15 C-14.67 14.34 -14.34 13.68 -14 13 C-13.34 13 -12.68 13 -12 13 C-12 12.34 -12 11.68 -12 11 C-8.535 10.505 -8.535 10.505 -5 10 C-4.67 8.68 -4.34 7.36 -4 6 C-3.34 6.33 -2.68 6.66 -2 7 C-2 5.35 -2 3.7 -2 2 C-1.34 2 -0.68 2 0 2 C0 1.34 0 0.68 0 0 Z " fill="#53151A" transform="translate(149,168)"/>
<path d="M0 0 C1.0209375 0.2165625 1.0209375 0.2165625 2.0625 0.4375 C8.09093135 1.59188047 13.86654558 2.11749913 20 2 C25.11685168 1.90197602 29.95586083 2.15931014 35 3 C32.144934 5.855066 29.92080849 5.28787132 26.0144043 5.328125 C25.08152588 5.32296875 24.14864746 5.3178125 23.1875 5.3125 C22.24366455 5.31121094 21.2998291 5.30992187 20.32739258 5.30859375 C12.86096246 5.2065672 6.15420498 4.22988207 -1 2 C-0.67 1.34 -0.34 0.68 0 0 Z " fill="#562C2C" transform="translate(85,182)"/>
<path d="M0 0 C0.33 1.65 0.66 3.3 1 5 C-2.21451269 6.60725635 -5.43612536 6.05748185 -9 6 C-9.66 4.68 -10.32 3.36 -11 2 C-7.17679443 0.57741188 -4.08718695 -0.24042276 0 0 Z " fill="#260203" transform="translate(142,30)"/>
<path d="M0 0 C5.40489519 1.52012677 8.98492628 5.27385218 13 9 C12.1875 11.4375 12.1875 11.4375 11 14 C10.01 14.33 9.02 14.66 8 15 C6.875 11.25 6.875 11.25 8 9 C7.34 9 6.68 9 6 9 C5.67 8.01 5.34 7.02 5 6 C3.35353315 4.31337542 1.68816933 2.64488294 0 1 C0 0.67 0 0.34 0 0 Z " fill="#7C141B" transform="translate(153,23)"/>
<path d="M0 0 C1.32 0 2.64 0 4 0 C5.18637743 3.55913229 5.14615346 6.798145 5.125 10.5 C5.12886719 11.17675781 5.13273438 11.85351562 5.13671875 12.55078125 C5.13062416 15.64073767 4.9844023 18.04679311 4 21 C2.02 21.33 0.04 21.66 -2 22 C-2 21.34 -2 20.68 -2 20 C-2.66 20 -3.32 20 -4 20 C-3.67 19.34 -3.34 18.68 -3 18 C-2.01 18 -1.02 18 0 18 C0 18.66 0 19.32 0 20 C0.99 20 1.98 20 3 20 C2.88641524 17.04081802 2.75966914 14.08323217 2.625 11.125 C2.5940625 10.28324219 2.563125 9.44148438 2.53125 8.57421875 C2.49257812 7.76855469 2.45390625 6.96289062 2.4140625 6.1328125 C2.3826416 5.38918457 2.3512207 4.64555664 2.31884766 3.87939453 C2.14580449 1.75989026 2.14580449 1.75989026 0 0 Z " fill="#430E0D" transform="translate(168,78)"/>
<path d="M0 0 C0.33 1.32 0.66 2.64 1 4 C0.34 3.67 -0.32 3.34 -1 3 C-1 2.34 -1 1.68 -1 1 C-2.65 1.33 -4.3 1.66 -6 2 C-6 6.95 -6 11.9 -6 17 C-8.92321194 12.61518209 -9.74952191 9.26747345 -9 4 C-6.43823763 0.20479649 -4.49728961 -0.49969885 0 0 Z " fill="#270202" transform="translate(170,79)"/>
<path d="M0 0 C1.23556641 0.01740234 1.23556641 0.01740234 2.49609375 0.03515625 C3.32238281 0.04417969 4.14867188 0.05320313 5 0.0625 C5.63808594 0.07410156 6.27617188 0.08570313 6.93359375 0.09765625 C6.93359375 1.41765625 6.93359375 2.73765625 6.93359375 4.09765625 C5.93359375 5.09765625 5.93359375 5.09765625 4.0859375 5.1953125 C2.03515625 5.16276042 -0.015625 5.13020833 -2.06640625 5.09765625 C-2.62890625 3.16015625 -2.62890625 3.16015625 -3.06640625 1.09765625 C-2.06640625 0.09765625 -2.06640625 0.09765625 0 0 Z " fill="#120505" transform="translate(105.06640625,45.90234375)"/>
<path d="M0 0 C0.66 0.33 1.32 0.66 2 1 C1.34 1.66 0.68 2.32 0 3 C-0.309375 3.969375 -0.61875 4.93875 -0.9375 5.9375 C-1.95288438 8.86419617 -2.5222848 10.21604506 -5 12 C-5.99 12 -6.98 12 -8 12 C-10.18777466 13.9375006 -10.18777466 13.9375006 -12 16 C-10.53289058 11.15853891 -7.6487256 7.44051028 -4 4 C-3.34 4 -2.68 4 -2 4 C-1.34 2.68 -0.68 1.36 0 0 Z " fill="#C88285" transform="translate(47,33)"/>
<path d="M0 0 C0.66 0 1.32 0 2 0 C2.67610423 1.89248819 3.34050439 3.7891602 4 5.6875 C4.37125 6.74324219 4.7425 7.79898438 5.125 8.88671875 C5.9391857 11.78362056 6.17709796 14.01700623 6 17 C5.01 17 4.02 17 3 17 C2.22678118 14.01758453 1.58803797 11.02419525 1 8 C0.67 8 0.34 8 0 8 C0 5.36 0 2.72 0 0 Z " fill="#522223" transform="translate(188,65)"/>
<path d="M0 0 C0.99 0.33 1.98 0.66 3 1 C2.67 2.32 2.34 3.64 2 5 C1.01 5 0.02 5 -1 5 C-0.98839844 5.90363281 -0.97679687 6.80726562 -0.96484375 7.73828125 C-0.95582031 8.91777344 -0.94679687 10.09726563 -0.9375 11.3125 C-0.92589844 12.48425781 -0.91429687 13.65601562 -0.90234375 14.86328125 C-1 18 -1 18 -2 21 C-3.65 21 -5.3 21 -7 21 C-6.67 20.34 -6.34 19.68 -6 19 C-5.01 19 -4.02 19 -3 19 C-2.505 10.09 -2.505 10.09 -2 1 C-1.34 0.67 -0.68 0.34 0 0 Z " fill="#6A1519" transform="translate(175,80)"/>
<path d="M0 0 C6.00051731 0.3158167 11.26613931 1.55429563 16.9375 3.4375 C17.93148804 3.7636731 17.93148804 3.7636731 18.94555664 4.09643555 C21.84646601 5.09132147 23.80374692 5.80374692 26 8 C25.01 8.33 24.02 8.66 23 9 C23 8.34 23 7.68 23 7 C22.01 7.33 21.02 7.66 20 8 C20 7.34 20 6.68 20 6 C18.35 6 16.7 6 15 6 C15 5.34 15 4.68 15 4 C13.02 4.33 11.04 4.66 9 5 C8.67 4.01 8.34 3.02 8 2 C6.35 2.33 4.7 2.66 3 3 C3 2.34 3 1.68 3 1 C2.01 0.67 1.02 0.34 0 0 Z " fill="#C4888C" transform="translate(120,11)"/>
<path d="M0 0 C-0.1875 1.8125 -0.1875 1.8125 -1 4 C-3.25 5.8125 -3.25 5.8125 -6 7 C-8.8125 6.6875 -8.8125 6.6875 -11 6 C-11 4.68 -11 3.36 -11 2 C-9.5422647 1.664061 -8.08378894 1.33133376 -6.625 1 C-5.40683594 0.7215625 -5.40683594 0.7215625 -4.1640625 0.4375 C-2 0 -2 0 0 0 Z " fill="#CF4447" transform="translate(91,18)"/>
<path d="M0 0 C2.046875 3.71875 2.046875 3.71875 1.625 6.25 C1.41875 6.8275 1.2125 7.405 1 8 C1.66 8 2.32 8 3 8 C3 18.5 3 18.5 2 23 C0.27793812 20.00873681 -0.24179923 17.89314287 -0.1953125 14.453125 C-0.18886719 13.60878906 -0.18242187 12.76445313 -0.17578125 11.89453125 C-0.15902344 11.02183594 -0.14226563 10.14914063 -0.125 9.25 C-0.11597656 8.36183594 -0.10695313 7.47367187 -0.09765625 6.55859375 C-0.07414577 4.37211942 -0.04128499 2.18619906 0 0 Z " fill="#6A191D" transform="translate(21,97)"/>
<path d="M0 0 C0.66666667 2.66666667 1.33333333 5.33333333 2 8 C2.268125 8.61875 2.53625 9.2375 2.8125 9.875 C3.12106795 13.37210348 1.06130244 15.33243213 -1 18 C-1.33 18 -1.66 18 -2 18 C-1.85946128 15.37461716 -1.71281053 12.74982573 -1.5625 10.125 C-1.52318359 9.37863281 -1.48386719 8.63226563 -1.44335938 7.86328125 C-1.11328125 2.2265625 -1.11328125 2.2265625 0 0 Z " fill="#750E16" transform="translate(23,76)"/>
<path d="M0 0 C1.13888672 0.10828125 1.13888672 0.10828125 2.30078125 0.21875 C3.29464844 0.3115625 4.28851563 0.404375 5.3125 0.5 C6.79169922 0.63921875 6.79169922 0.63921875 8.30078125 0.78125 C11.04702139 1.04038857 11.04702139 1.04038857 14 1 C14 1.99 14 2.98 14 4 C9.02936879 4.91297308 4.97063121 4.91297308 0 4 C0 2.68 0 1.36 0 0 Z " fill="#D24E54" transform="translate(101,51)"/>
<path d="M0 0 C1.65 0.33 3.3 0.66 5 1 C5.33 3.31 5.66 5.62 6 8 C4.02 8 2.04 8 0 8 C-0.33 7.34 -0.66 6.68 -1 6 C-0.67 5.01 -0.34 4.02 0 3 C0 2.01 0 1.02 0 0 Z " fill="#6B0D0E" transform="translate(170,40)"/>
<path d="M0 0 C0.33 0.66 0.66 1.32 1 2 C1.66 1.67 2.32 1.34 3 1 C4.54613014 1.08651631 6.08909387 1.24002636 7.625 1.4375 C8.85089844 1.59025391 8.85089844 1.59025391 10.1015625 1.74609375 C11.04128906 1.87177734 11.04128906 1.87177734 12 2 C12 2.33 12 2.66 12 3 C8.37 3 4.74 3 1 3 C0.34 4.32 -0.32 5.64 -1 7 C-1.33 6.34 -1.66 5.68 -2 5 C-2.99 5.495 -2.99 5.495 -4 6 C-4.33 5.01 -4.66 4.02 -5 3 C-3.35 2.01 -1.7 1.02 0 0 Z M-7 2 C-6.01 3.485 -6.01 3.485 -5 5 C-5.66 5 -6.32 5 -7 5 C-7 4.01 -7 3.02 -7 2 Z " fill="#AD3238" transform="translate(127,24)"/>
<path d="M0 0 C2.8551592 4.2827388 3.11672494 7.14458058 3.0625 12.1875 C3.05347656 13.27417969 3.04445312 14.36085938 3.03515625 15.48046875 C3.02355469 16.31191406 3.01195312 17.14335938 3 18 C2.01 17.67 1.02 17.34 0 17 C0.020625 15.824375 0.04125 14.64875 0.0625 13.4375 C0.07277843 10.54412275 -0.14236257 8.01928005 -0.5625 5.125 C-1 2 -1 2 0 0 Z " fill="#4A1819" transform="translate(193,83)"/>
<path d="M0 0 C0.66 0 1.32 0 2 0 C4.45391569 3.68087353 4.22802759 6.44355588 4.125 10.6875 C4.11597656 11.38939453 4.10695312 12.09128906 4.09765625 12.81445312 C4.07413704 14.54311525 4.03826713 16.27160145 4 18 C3.01 18 2.02 18 1 18 C0.8735363 12.43559719 0.8735363 12.43559719 1.5625 10.0625 C2.08117358 7.61732453 1.73965311 6.13995216 1.0625 3.75 C0.711875 2.5125 0.36125 1.275 0 0 Z " fill="#1D0D0E" transform="translate(167,80)"/>
<path d="M0 0 C1.37562854 1.28965176 2.70766393 2.62689293 4 4 C4 4.66 4 5.32 4 6 C4.66 6 5.32 6 6 6 C5.67 7.98 5.34 9.96 5 12 C4.67 11.34 4.34 10.68 4 10 C1.47266765 9.34444881 1.47266765 9.34444881 -1 9 C-0.67 6.03 -0.34 3.06 0 0 Z " fill="#AF4545" transform="translate(31,76)"/>
<path d="M0 0 C0 3.52398786 -0.55115107 4.01504367 -2.8125 6.5625 C-3.59560547 7.46162109 -3.59560547 7.46162109 -4.39453125 8.37890625 C-6 10 -6 10 -9 12 C-9.125 8.625 -9.125 8.625 -9 5 C-7 3 -7 3 -4.375 2.875 C-3.59125 2.91625 -2.8075 2.9575 -2 3 C-2 2.34 -2 1.68 -2 1 C-1.34 0.67 -0.68 0.34 0 0 Z " fill="#CA3D44" transform="translate(57,45)"/>
<path d="M0 0 C0.66 0 1.32 0 2 0 C5.27137992 5.23420787 5.10643764 8.16605611 4 14 C3.01 14.33 2.02 14.66 1 15 C1 14.01 1 13.02 1 12 C0.84531159 9.93656705 0.67734275 7.87410946 0.5 5.8125 C0.4071875 4.72582031 0.314375 3.63914063 0.21875 2.51953125 C0.1465625 1.68808594 0.074375 0.85664062 0 0 Z " fill="#5B1217" transform="translate(184,57)"/>
<path d="M0 0 C0.99 0.33 1.98 0.66 3 1 C3.29162929 5.95769796 3.12940055 9.02806853 0 13 C-0.66 13 -1.32 13 -2 13 C-1.34 8.71 -0.68 4.42 0 0 Z " fill="#A63036" transform="translate(175,87)"/>
<path d="M0 0 C1.625 2.75 1.625 2.75 3 6 C2.3125 8.1875 2.3125 8.1875 1 10 C0.01 11.485 0.01 11.485 -1 13 C-2.25541557 9.23375329 -1.37061958 7.62811066 0 4 C-2.97 3.505 -2.97 3.505 -6 3 C-4.60722783 0.21445565 -3.01148006 0 0 0 Z " fill="#AA242A" transform="translate(41,64)"/>
<path d="M0 0 C2 2 2 2 2 5 C0.68 5 -0.64 5 -2 5 C-1.67 6.32 -1.34 7.64 -1 9 C-1.639375 9.2475 -2.27875 9.495 -2.9375 9.75 C-5.18741541 10.81562433 -5.18741541 10.81562433 -5.75 13.125 C-5.8325 13.74375 -5.915 14.3625 -6 15 C-6.33 14.34 -6.66 13.68 -7 13 C-5.8203125 10.21484375 -5.8203125 10.21484375 -4.125 6.9375 C-3.57070313 5.85339844 -3.01640625 4.76929688 -2.4453125 3.65234375 C-1 1 -1 1 0 0 Z " fill="#B17173" transform="translate(34,49)"/>
<path d="M0 0 C1.44010481 0.25662245 2.8770687 0.53090821 4.3125 0.8125 C5.11300781 0.96332031 5.91351563 1.11414063 6.73828125 1.26953125 C9.23445587 2.07572236 10.32422106 3.02052002 12 5 C11.01 5.33 10.02 5.66 9 6 C8.67 5.01 8.34 4.02 8 3 C7.278125 3.37125 6.55625 3.7425 5.8125 4.125 C2.39011689 5.18974141 1.11771927 4.60339848 -2 3 C-1.34 2.01 -0.68 1.02 0 0 Z " fill="#9A353F" transform="translate(141,18)"/>
<path d="M0 0 C4.875 1.75 4.875 1.75 6 4 C5.34 4 4.68 4 4 4 C4 4.66 4 5.32 4 6 C5.65 6.33 7.3 6.66 9 7 C5.23375329 8.25541557 3.62811066 7.37061958 0 6 C0 4.02 0 2.04 0 0 Z " fill="#DB585F" transform="translate(104,33)"/>
<path d="M0 0 C0.99 0.495 0.99 0.495 2 1 C2.6328125 3.72265625 2.6328125 3.72265625 3.125 7.0625 C3.29257813 8.16722656 3.46015625 9.27195312 3.6328125 10.41015625 C3.75398437 11.26480469 3.87515625 12.11945313 4 13 C2.68 13 1.36 13 0 13 C0 8.71 0 4.42 0 0 Z " fill="#070202" transform="translate(164,83)"/>
<path d="M0 0 C2 2 2 2 2 5 C2.99 4.67 3.98 4.34 5 4 C4.67 5.98 4.34 7.96 4 10 C3.34 10 2.68 10 2 10 C2 9.34 2 8.68 2 8 C1.01 7.67 0.02 7.34 -1 7 C-0.67 4.69 -0.34 2.38 0 0 Z " fill="#BE585A" transform="translate(33,72)"/>
<path d="M0 0 C2.35171131 0.59861742 4.6859378 1.26924352 7 2 C8.35439668 4.70879335 8.06501451 7.00933268 8 10 C7.01 9.67 6.02 9.34 5 9 C5 8.34 5 7.68 5 7 C4.34 7 3.68 7 3 7 C3.33 5.68 3.66 4.36 4 3 C2.68 2.34 1.36 1.68 0 1 C0 0.67 0 0.34 0 0 Z " fill="#450304" transform="translate(32,141)"/>
<path d="M0 0 C2.31 0.66 4.62 1.32 7 2 C7 2.99 7 3.98 7 5 C7.66 5 8.32 5 9 5 C9.66 6.32 10.32 7.64 11 9 C8 9 8 9 5.95703125 7.28515625 C5.24933594 6.55167969 4.54164062 5.81820312 3.8125 5.0625 C3.09707031 4.33160156 2.38164063 3.60070312 1.64453125 2.84765625 C0 1 0 1 0 0 Z " fill="#653A39" transform="translate(41,156)"/>
<path d="M0 0 C0.7734375 -0.00515625 1.546875 -0.0103125 2.34375 -0.015625 C4.5 0.25 4.5 0.25 7.5 2.25 C3.51803543 3.30404945 0.51804691 3.09098656 -3.5 2.25 C-3.5 2.91 -3.5 3.57 -3.5 4.25 C-4.82 3.59 -6.14 2.93 -7.5 2.25 C-4.377998 0.16866533 -3.56733011 -0.0237822 0 0 Z " fill="#750E16" transform="translate(105.5,39.75)"/>
<path d="M0 0 C1 3 1 3 0 6 C-3.5625 7.6875 -3.5625 7.6875 -7 9 C-6.82374165 6.62051228 -6.30280227 5.29774151 -4.59765625 3.62109375 C-3.09350908 2.37884514 -1.54870149 1.18623944 0 0 Z " fill="#971F29" transform="translate(53,30)"/>
<path d="M0 0 C3.7952131 1.49097658 5.61042731 3.75700849 8 7 C6.35 7.33 4.7 7.66 3 8 C2.67 6.68 2.34 5.36 2 4 C1.34 4 0.68 4 0 4 C0 2.68 0 1.36 0 0 Z " fill="#8A4043" transform="translate(166,33)"/>
<path d="M0 0 C0.66 0.66 1.32 1.32 2 2 C1.67342446 5.75561867 0.8830622 8.73602552 -1 12 C-1.66 12 -2.32 12 -3 12 C-3.33 12.66 -3.66 13.32 -4 14 C-3.00956295 9.16371695 -2.04301154 4.52381127 0 0 Z " fill="#AA686B" transform="translate(26,64)"/>
<path d="M0 0 C5.57142857 5.14285714 5.57142857 5.14285714 6 9 C4.68 9.33 3.36 9.66 2 10 C0.68373308 6.38026598 0 3.90432869 0 0 Z " fill="#6D292C" transform="translate(175,42)"/>
<path d="M0 0 C0.33 0 0.66 0 1 0 C1.2475 0.86625 1.495 1.7325 1.75 2.625 C3.06778613 6.18302254 4.80186822 8.9226155 7 12 C4.525 11.01 4.525 11.01 2 10 C2 9.01 2 8.02 2 7 C0.35 6.67 -1.3 6.34 -3 6 C-3 5.34 -3 4.68 -3 4 C-2.34 4 -1.68 4 -1 4 C-0.67 2.68 -0.34 1.36 0 0 Z " fill="#C23C46" transform="translate(111,33)"/>
<path d="M0 0 C0.66 0 1.32 0 2 0 C2.66 0.66 3.32 1.32 4 2 C4.99 2.33 5.98 2.66 7 3 C8.84499398 4.87617698 10.3683599 6.92737609 12 9 C10.68 9 9.36 9 8 9 C8 8.34 8 7.68 8 7 C7.34 7 6.68 7 6 7 C6 6.01 6 5.02 6 4 C3.03 3.505 3.03 3.505 0 3 C0 2.01 0 1.02 0 0 Z " fill="#7A0D15" transform="translate(147,21)"/>
<path d="M0 0 C1.32 0.66 2.64 1.32 4 2 C2.04578965 2.86355778 0.08648653 3.71559934 -1.875 4.5625 C-2.96554688 5.03816406 -4.05609375 5.51382813 -5.1796875 6.00390625 C-6.11039063 6.33261719 -7.04109375 6.66132813 -8 7 C-8.66 6.67 -9.32 6.34 -10 6 C-9.01 5.67 -8.02 5.34 -7 5 C-7 4.34 -7 3.68 -7 3 C-3.535 2.505 -3.535 2.505 0 2 C0 1.34 0 0.68 0 0 Z " fill="#5D383A" transform="translate(144,176)"/>
<path d="M0 0 C0.33 0.66 0.66 1.32 1 2 C1.66 2 2.32 2 3 2 C3.33 1.34 3.66 0.68 4 0 C4 1.98 4 3.96 4 6 C2.68 6.33 1.36 6.66 0 7 C0 6.01 0 5.02 0 4 C-0.66 4 -1.32 4 -2 4 C-2 3.01 -2 2.02 -2 1 C-1.34 0.67 -0.68 0.34 0 0 Z " fill="#4B0506" transform="translate(187,122)"/>
<path d="M0 0 C0.99 0 1.98 0 3 0 C3.125 6.75 3.125 6.75 2 9 C0.68 8.67 -0.64 8.34 -2 8 C-1.34 7.01 -0.68 6.02 0 5 C-0.66 5 -1.32 5 -2 5 C-2 4.34 -2 3.68 -2 3 C-1.34 3 -0.68 3 0 3 C0 2.01 0 1.02 0 0 Z " fill="#D04A51" transform="translate(53,39)"/>
<path d="M0 0 C0.33 0.66 0.66 1.32 1 2 C0.01 2 -0.98 2 -2 2 C-2 2.66 -2 3.32 -2 4 C-5 6 -5 6 -9 6 C-8.67 4.68 -8.34 3.36 -8 2 C-5.36 1.34 -2.72 0.68 0 0 Z " fill="#410608" transform="translate(139,177)"/>
<path d="M0 0 C2.5 1.1875 2.5 1.1875 5 3 C5.3125 5.6875 5.3125 5.6875 5 8 C3.35 8 1.7 8 0 8 C0 5.36 0 2.72 0 0 Z " fill="#ED5056" transform="translate(96,48)"/>
<path d="M0 0 C2.00720923 0.28674418 4.0085944 0.61866701 6 1 C6 2.32 6 3.64 6 5 C5.401875 4.835 4.80375 4.67 4.1875 4.5 C1.88655664 3.8885876 1.88655664 3.8885876 -1 4 C-1 1 -1 1 0 0 Z " fill="#B53A3E" transform="translate(35,67)"/>
<path d="M0 0 C0.66 0 1.32 0 2 0 C2 2.64 2 5.28 2 8 C-0.475 7.01 -0.475 7.01 -3 6 C-3 5.34 -3 4.68 -3 4 C-2.34 4 -1.68 4 -1 4 C-0.67 2.68 -0.34 1.36 0 0 Z " fill="#D42E37" transform="translate(118,48)"/>
<path d="M0 0 C0.12375 0.639375 0.2475 1.27875 0.375 1.9375 C0.684375 2.9584375 0.684375 2.9584375 1 4 C1.66 4.33 2.32 4.66 3 5 C2.195625 5.28875 1.39125 5.5775 0.5625 5.875 C-2.1326468 6.73262568 -2.1326468 6.73262568 -3 9 C-3.66 7.35 -4.32 5.7 -5 4 C-3.68 4 -2.36 4 -1 4 C-0.67 2.68 -0.34 1.36 0 0 Z " fill="#770909" transform="translate(165,33)"/>
<path d="M0 0 C0 3.83764027 -1.26535335 5.11486085 -3.5 8.1875 C-4.1496875 9.08855469 -4.799375 9.98960938 -5.46875 10.91796875 C-5.9740625 11.60503906 -6.479375 12.29210938 -7 13 C-7.33 12.34 -7.66 11.68 -8 11 C-5.81389118 6.62778237 -3.67758005 3.28355362 0 0 Z " fill="#BA3035" transform="translate(50,43)"/>
<path d="M0 0 C6.81818182 1.96969697 6.81818182 1.96969697 9 5 C9 5.99 9 6.98 9 8 C7.35 8.33 5.7 8.66 4 9 C4.66 8.67 5.32 8.34 6 8 C5.87822312 6.08533633 5.87822312 6.08533633 5 4 C2.50240018 2.30117552 2.50240018 2.30117552 0 1 C0 0.67 0 0.34 0 0 Z " fill="#530607" transform="translate(137,27)"/>
<path d="M0 0 C0.8353125 1.1446875 0.8353125 1.1446875 1.6875 2.3125 C3.96679369 4.96140888 5.93599872 6.38288822 9 8 C6 9 6 9 3.8125 8.0625 C3.214375 7.711875 2.61625 7.36125 2 7 C2 6.34 2 5.68 2 5 C1.01 5 0.02 5 -1 5 C-0.67 3.35 -0.34 1.7 0 0 Z " fill="#A1232B" transform="translate(125,28)"/>
<path d="M0 0 C1.67381019 0.29537827 3.33911955 0.63893903 5 1 C7.33177975 1.34403308 9.66487041 1.67949202 12 2 C12 2.66 12 3.32 12 4 C10.58249437 3.88490339 9.16598831 3.75746342 7.75 3.625 C6.96109375 3.55539063 6.1721875 3.48578125 5.359375 3.4140625 C2.914123 2.98492887 1.15163097 2.21399362 -1 1 C-0.67 0.67 -0.34 0.34 0 0 Z " fill="#4E2323" transform="translate(85,182)"/>
<path d="M0 0 C0.66 0.33 1.32 0.66 2 1 C0.4169423 5.2742558 -2.50568404 7.26531794 -6 10 C-5.40312566 6.65750371 -4.26396123 4.53563658 -2 2 C-1.34 2 -0.68 2 0 2 C0 1.34 0 0.68 0 0 Z " fill="#693E40" transform="translate(174,153)"/>
<path d="M0 0 C0.66 0.33 1.32 0.66 2 1 C2 4 2 4 0.5 5.6875 C0.005 6.120625 -0.49 6.55375 -1 7 C-1.66 6.67 -2.32 6.34 -3 6 C-5.09821215 6.39938767 -5.09821215 6.39938767 -7 7 C-4.66666667 4.66666667 -2.33333333 2.33333333 0 0 Z " fill="#C77B7C" transform="translate(56,26)"/>
<path d="M0 0 C4.43458973 1.3937282 6.87378374 3.60582235 10 7 C5.94654898 7 4.1784671 5.41839888 1 3 C0.67 2.01 0.34 1.02 0 0 Z " fill="#96555B" transform="translate(153,23)"/>
<path d="M0 0 C0.33 0.99 0.66 1.98 1 3 C1.6599679 4.66933058 2.32558869 6.3364521 3 8 C1.125 7.8125 1.125 7.8125 -1 7 C-2.25 4.4375 -2.25 4.4375 -3 2 C-2.01 1.34 -1.02 0.68 0 0 Z " fill="#420B0C" transform="translate(53,160)"/>
<path d="M0 0 C1.9375 0.3125 1.9375 0.3125 4 1 C4.33 1.99 4.66 2.98 5 4 C4.34 4.66 3.68 5.32 3 6 C1.68 5.34 0.36 4.68 -1 4 C-0.67 2.68 -0.34 1.36 0 0 Z " fill="#420707" transform="translate(42,152)"/>
<path d="M0 0 C0.99 0 1.98 0 3 0 C3.75 1.75 3.75 1.75 4 4 C2.0625 6.25 2.0625 6.25 0 8 C-0.33 6.35 -0.66 4.7 -1 3 C-0.34 3 0.32 3 1 3 C0.67 2.01 0.34 1.02 0 0 Z " fill="#552020" transform="translate(177,145)"/>
<path d="M0 0 C0.99 0 1.98 0 3 0 C3.625 3.375 3.625 3.375 4 7 C3.34 7.66 2.68 8.32 2 9 C1.34 6.03 0.68 3.06 0 0 Z " fill="#62282C" transform="translate(23,121)"/>
<path d="M0 0 C4.95 0.99 4.95 0.99 10 2 C9.67 2.66 9.34 3.32 9 4 C5.9375 4.625 5.9375 4.625 3 5 C2.87625 4.360625 2.7525 3.72125 2.625 3.0625 C2.315625 2.0415625 2.315625 2.0415625 2 1 C1.34 0.67 0.68 0.34 0 0 Z " fill="#67050F" transform="translate(165,100)"/>
<path d="M0 0 C2.60018816 3.90028225 2.15085514 7.47434569 2 12 C-0.07804617 10.28335317 -0.95027053 9.14918841 -1.8125 6.5625 C-2.02316906 3.68335622 -1.51754003 2.41021064 0 0 Z " fill="#890E16" transform="translate(29,60)"/>
<path d="M0 0 C1.98 0 3.96 0 6 0 C6.33 0.99 6.66 1.98 7 3 C6.67 3.66 6.34 4.32 6 5 C4.68 5 3.36 5 2 5 C1.34 3.35 0.68 1.7 0 0 Z " fill="#9B161C" transform="translate(138,37)"/>
<path d="M0 0 C0.99 0.33 1.98 0.66 3 1 C1.54634731 2.17249353 0.08692581 3.33783816 -1.375 4.5 C-2.18710938 5.1496875 -2.99921875 5.799375 -3.8359375 6.46875 C-6 8 -6 8 -8 8 C-7.34 6.68 -6.68 5.36 -6 4 C-5.01 4 -4.02 4 -3 4 C-3 3.34 -3 2.68 -3 2 C-2.01 1.34 -1.02 0.68 0 0 Z " fill="#DB4C55" transform="translate(80,24)"/>
<path d="M0 0 C0 0.66 0 1.32 0 2 C-2.64 2.66 -5.28 3.32 -8 4 C-8 3.01 -8 2.02 -8 1 C-2.25 -1.125 -2.25 -1.125 0 0 Z " fill="#480A0D" transform="translate(177,152)"/>
<path d="M0 0 C1.65 0 3.3 0 5 0 C5 2.31 5 4.62 5 7 C3.29115995 5.37660195 1.62553283 3.70680947 0 2 C0 1.34 0 0.68 0 0 Z " fill="#C6252F" transform="translate(115,40)"/>
<path d="M0 0 C2.375 0.8125 2.375 0.8125 3.375 2.8125 C-0.10323115 3.97191038 -2.08395578 3.52070884 -5.625 2.8125 C-3.74442913 0.33806465 -3.19312156 -0.22808011 0 0 Z " fill="#B65758" transform="translate(68.625,20.1875)"/>
<path d="M0 0 C0.66 0 1.32 0 2 0 C2 0.66 2 1.32 2 2 C4.475 2.99 4.475 2.99 7 4 C6.34 5.32 5.68 6.64 5 8 C4.16382818 6.8562364 3.33113541 5.70992861 2.5 4.5625 C2.0359375 3.92441406 1.571875 3.28632813 1.09375 2.62890625 C0 1 0 1 0 0 Z " fill="#734A4B" transform="translate(35,148)"/>
<path d="M0 0 C0.66 0 1.32 0 2 0 C0.90931332 3.77545388 0.0916909 6.47043472 -3 9 C-3 5.30581799 -1.71820705 3.22163822 0 0 Z " fill="#623B3B" transform="translate(185,137)"/>
<path d="M0 0 C-0.99 2.97 -1.98 5.94 -3 9 C-3.33 9 -3.66 9 -4 9 C-4 6.36 -4 3.72 -4 1 C-2 0 -2 0 0 0 Z " fill="#5C2C2D" transform="translate(191,128)"/>
<path d="M0 0 C0.99 0.33 1.98 0.66 3 1 C2.67 2.32 2.34 3.64 2 5 C0.68 5 -0.64 5 -2 5 C-2 3.68 -2 2.36 -2 1 C-1.34 0.67 -0.68 0.34 0 0 Z " fill="#710909" transform="translate(175,80)"/>
<path d="M0 0 C1.98 0.66 3.96 1.32 6 2 C5.67 2.99 5.34 3.98 5 5 C3.68 4.67 2.36 4.34 1 4 C0.67 2.68 0.34 1.36 0 0 Z " fill="#4A0304" transform="translate(63,168)"/>
<path d="M0 0 C0.66 0 1.32 0 2 0 C2.08096803 1.45742463 2.13917774 2.91612807 2.1875 4.375 C2.22230469 5.18710938 2.25710937 5.99921875 2.29296875 6.8359375 C2.19628906 7.55007812 2.09960938 8.26421875 2 9 C1.01 9.66 0.02 10.32 -1 11 C-0.67 7.37 -0.34 3.74 0 0 Z " fill="#400909" transform="translate(193,104)"/>
<path d="M0 0 C0 0.99 0 1.98 0 3 C-1.98 3.33 -3.96 3.66 -6 4 C-6 3.01 -6 2.02 -6 1 C-3 0 -3 0 0 0 Z " fill="#CD424A" transform="translate(115,52)"/>
<path d="M0 0 C-2.35953094 2.35953094 -3.77895617 2.49141413 -7 3 C-7 2.34 -7 1.68 -7 1 C-7.66 0.67 -8.32 0.34 -9 0 C-5.67465243 -1.10844919 -3.37817425 -0.84454356 0 0 Z " fill="#9E1F29" transform="translate(93,14)"/>
</svg>
