<?xml version="1.0" encoding="UTF-8"?>
<!DOCTYPE svg PUBLIC "-//W3C//DTD SVG 1.1//EN" "http://www.w3.org/Graphics/SVG/1.1/DTD/svg11.dtd">
<svg xmlns="http://www.w3.org/2000/svg" version="1.1" width="512px" height="512px" style="shape-rendering:geometricPrecision; text-rendering:geometricPrecision; image-rendering:optimizeQuality; fill-rule:evenodd; clip-rule:evenodd" xmlns:xlink="http://www.w3.org/1999/xlink">
<g><path style="opacity:0.999" fill="#97da7c" d="M 232.5,-0.5 C 234.833,-0.5 237.167,-0.5 239.5,-0.5C 245.144,8.66871 250.644,18.002 256,27.5C 259.331,35.512 259.331,43.512 256,51.5C 252.39,60.9975 248.39,70.3308 244,79.5C 240.021,84.5743 234.854,87.741 228.5,89C 219.833,89.6667 211.167,89.6667 202.5,89C 198.385,87.7765 194.718,85.7765 191.5,83C 187.521,77.0235 182.854,71.6902 177.5,67C 169.61,62.9419 161.61,62.6085 153.5,66C 141.5,72.6667 129.5,79.3333 117.5,86C 110.957,92.598 109.791,100.098 114,108.5C 120.559,115.057 128.059,116.224 136.5,112C 143.714,106.703 151.714,104.703 160.5,106C 163.902,107.4 166.736,109.567 169,112.5C 174.749,122.334 180.749,132.001 187,141.5C 189.197,150.941 186.03,157.774 177.5,162C 164.908,166.531 152.241,170.864 139.5,175C 130.333,178.833 123.833,185.333 120,194.5C 117.88,203.89 115.546,213.223 113,222.5C 110.383,226.148 106.883,227.648 102.5,227C 98.5533,224.72 94.8866,222.053 91.5,219C 87.6818,217.056 83.6818,216.389 79.5,217C 57.1285,226.781 51.9619,242.281 64,263.5C 73.3389,271.162 83.8389,276.662 95.5,280C 111.833,280.333 128.167,280.667 144.5,281C 153.983,285.46 158.15,292.96 157,303.5C 158.07,306.242 159.57,308.742 161.5,311C 171.637,315.715 181.97,320.048 192.5,324C 200.854,330.537 204.354,339.037 203,349.5C 193.876,369.081 184.209,388.414 174,407.5C 169.871,417.792 168.538,428.459 170,439.5C 171.941,447.82 173.774,456.153 175.5,464.5C 175.5,465.5 175.5,466.5 175.5,467.5C 163.021,467.479 150.688,466.146 138.5,463.5C 138.5,462.833 138.167,462.5 137.5,462.5C 125.233,433.961 112.399,405.628 99,377.5C 95.9166,372.412 92.0833,367.912 87.5,364C 77.6667,358.167 69.8333,350.333 64,340.5C 61.6118,333.686 60.9451,326.686 62,319.5C 64.1372,313.421 66.4706,307.421 69,301.5C 69.6667,297.833 69.6667,294.167 69,290.5C 63.0217,284.19 56.6884,278.19 50,272.5C 47.1394,268.112 44.8061,263.446 43,258.5C 37.8442,219.235 32.0108,180.235 25.5,141.5C 62.1122,71.4091 118.779,26.2424 195.5,6C 207.897,3.37954 220.23,1.21287 232.5,-0.5 Z"/></g>
<g><path style="opacity:1" fill="#008cde" d="M 239.5,-0.5 C 252.5,-0.5 265.5,-0.5 278.5,-0.5C 299.401,1.61411 319.735,6.28077 339.5,13.5C 330.871,20.9595 322.371,28.6262 314,36.5C 308.85,47.7157 311.683,56.2157 322.5,62C 325.833,62.6667 329.167,62.6667 332.5,62C 343.687,54.686 352.854,56.5193 360,67.5C 362.193,75.5363 360.027,82.0363 353.5,87C 334.833,98 316.167,109 297.5,120C 283.335,131.158 279.835,144.992 287,161.5C 289.956,166.231 294.123,169.398 299.5,171C 310.868,173.965 320.368,171.132 328,162.5C 331.369,155.137 336.202,148.971 342.5,144C 353.5,143.833 364.5,143.667 375.5,143.5C 387.887,143.374 400.22,143.874 412.5,145C 424.424,151.762 426.591,160.928 419,172.5C 416.531,174.652 413.698,176.152 410.5,177C 383.167,177.333 355.833,177.667 328.5,178C 296.787,185.273 281.954,205.107 284,237.5C 288.487,256.652 299.987,269.486 318.5,276C 329.106,277.821 339.772,279.155 350.5,280C 357.451,283.619 362.284,289.119 365,296.5C 365.174,330.238 365.674,363.905 366.5,397.5C 366.833,398.167 367.167,398.833 367.5,399.5C 353.905,410.917 339.572,421.417 324.5,431C 278.99,457.46 229.99,470.293 177.5,469.5C 176.833,467.833 176.167,466.167 175.5,464.5C 173.774,456.153 171.941,447.82 170,439.5C 168.538,428.459 169.871,417.792 174,407.5C 184.209,388.414 193.876,369.081 203,349.5C 204.354,339.037 200.854,330.537 192.5,324C 181.97,320.048 171.637,315.715 161.5,311C 159.57,308.742 158.07,306.242 157,303.5C 158.15,292.96 153.983,285.46 144.5,281C 128.167,280.667 111.833,280.333 95.5,280C 83.8389,276.662 73.3389,271.162 64,263.5C 51.9619,242.281 57.1285,226.781 79.5,217C 83.6818,216.389 87.6818,217.056 91.5,219C 94.8866,222.053 98.5533,224.72 102.5,227C 106.883,227.648 110.383,226.148 113,222.5C 115.546,213.223 117.88,203.89 120,194.5C 123.833,185.333 130.333,178.833 139.5,175C 152.241,170.864 164.908,166.531 177.5,162C 186.03,157.774 189.197,150.941 187,141.5C 180.749,132.001 174.749,122.334 169,112.5C 166.736,109.567 163.902,107.4 160.5,106C 151.714,104.703 143.714,106.703 136.5,112C 128.059,116.224 120.559,115.057 114,108.5C 109.791,100.098 110.957,92.598 117.5,86C 129.5,79.3333 141.5,72.6667 153.5,66C 161.61,62.6085 169.61,62.9419 177.5,67C 182.854,71.6902 187.521,77.0235 191.5,83C 194.718,85.7765 198.385,87.7765 202.5,89C 211.167,89.6667 219.833,89.6667 228.5,89C 234.854,87.741 240.021,84.5743 244,79.5C 248.39,70.3308 252.39,60.9975 256,51.5C 259.331,43.512 259.331,35.512 256,27.5C 250.644,18.002 245.144,8.66871 239.5,-0.5 Z"/></g>
<g><path style="opacity:1" fill="#97da7c" d="M 339.5,13.5 C 348.228,16.0374 356.562,19.3708 364.5,23.5C 438.836,97.4897 462.67,185.49 436,287.5C 424.005,324.177 405.339,356.844 380,385.5C 375.906,390.102 371.406,394.102 366.5,397.5C 365.674,363.905 365.174,330.238 365,296.5C 362.284,289.119 357.451,283.619 350.5,280C 339.772,279.155 329.106,277.821 318.5,276C 299.987,269.486 288.487,256.652 284,237.5C 281.954,205.107 296.787,185.273 328.5,178C 355.833,177.667 383.167,177.333 410.5,177C 413.698,176.152 416.531,174.652 419,172.5C 426.591,160.928 424.424,151.762 412.5,145C 400.22,143.874 387.887,143.374 375.5,143.5C 364.5,143.667 353.5,143.833 342.5,144C 336.202,148.971 331.369,155.137 328,162.5C 320.368,171.132 310.868,173.965 299.5,171C 294.123,169.398 289.956,166.231 287,161.5C 279.835,144.992 283.335,131.158 297.5,120C 316.167,109 334.833,98 353.5,87C 360.027,82.0363 362.193,75.5363 360,67.5C 352.854,56.5193 343.687,54.686 332.5,62C 329.167,62.6667 325.833,62.6667 322.5,62C 311.683,56.2157 308.85,47.7157 314,36.5C 322.371,28.6262 330.871,20.9595 339.5,13.5 Z"/></g>
<g><path style="opacity:0.996" fill="#76cb7d" d="M 364.5,23.5 C 434.632,57.8083 480.798,112.475 503,187.5C 505.874,198.037 508.041,208.704 509.5,219.5C 504.273,224.221 498.607,228.388 492.5,232C 490.5,232.667 488.5,233.333 486.5,234C 480.167,234.333 473.833,234.667 467.5,235C 463.788,237.602 462.622,241.102 464,245.5C 465.663,251.484 467.33,257.484 469,263.5C 469.801,270.889 469.467,278.223 468,285.5C 446.521,325.125 424.521,364.458 402,403.5C 393.66,412.229 384.16,413.729 373.5,408C 370.619,405.721 368.619,402.888 367.5,399.5C 367.167,398.833 366.833,398.167 366.5,397.5C 371.406,394.102 375.906,390.102 380,385.5C 405.339,356.844 424.005,324.177 436,287.5C 462.67,185.49 438.836,97.4897 364.5,23.5 Z"/></g>
<g><path style="opacity:0.992" fill="#018cde" d="M 25.5,141.5 C 32.0108,180.235 37.8442,219.235 43,258.5C 44.8061,263.446 47.1394,268.112 50,272.5C 56.6884,278.19 63.0217,284.19 69,290.5C 69.6667,294.167 69.6667,297.833 69,301.5C 66.4706,307.421 64.1372,313.421 62,319.5C 60.9451,326.686 61.6118,333.686 64,340.5C 69.8333,350.333 77.6667,358.167 87.5,364C 92.0833,367.912 95.9166,372.412 99,377.5C 112.399,405.628 125.233,433.961 137.5,462.5C 118.846,458.837 100.846,453.17 83.5,445.5C 34.5231,400.547 6.52311,344.88 -0.5,278.5C -0.5,263.167 -0.5,247.833 -0.5,232.5C 2.85987,200.742 11.5265,170.408 25.5,141.5 Z"/></g>
<g><path style="opacity:0.993" fill="#0069cf" d="M 509.5,219.5 C 509.884,224.01 510.551,228.343 511.5,232.5C 511.5,247.833 511.5,263.167 511.5,278.5C 500.612,368.144 456.279,435.644 378.5,481C 347.029,497.695 313.696,507.861 278.5,511.5C 263.5,511.5 248.5,511.5 233.5,511.5C 216.814,509.963 200.481,506.63 184.5,501.5C 182.164,490.823 179.83,480.157 177.5,469.5C 229.99,470.293 278.99,457.46 324.5,431C 339.572,421.417 353.905,410.917 367.5,399.5C 368.619,402.888 370.619,405.721 373.5,408C 384.16,413.729 393.66,412.229 402,403.5C 424.521,364.458 446.521,325.125 468,285.5C 469.467,278.223 469.801,270.889 469,263.5C 467.33,257.484 465.663,251.484 464,245.5C 462.622,241.102 463.788,237.602 467.5,235C 473.833,234.667 480.167,234.333 486.5,234C 488.5,233.333 490.5,232.667 492.5,232C 498.607,228.388 504.273,224.221 509.5,219.5 Z"/></g>
<g><path style="opacity:0.962" fill="#0269cf" d="M 83.5,445.5 C 100.846,453.17 118.846,458.837 137.5,462.5C 138.167,462.5 138.5,462.833 138.5,463.5C 142.498,472.162 146.498,480.829 150.5,489.5C 125.591,478.559 103.258,463.893 83.5,445.5 Z"/></g>
<g><path style="opacity:0.993" fill="#76cb7d" d="M 138.5,463.5 C 150.688,466.146 163.021,467.479 175.5,467.5C 175.5,466.5 175.5,465.5 175.5,464.5C 176.167,466.167 176.833,467.833 177.5,469.5C 179.83,480.157 182.164,490.823 184.5,501.5C 172.662,498.888 161.328,494.888 150.5,489.5C 146.498,480.829 142.498,472.162 138.5,463.5 Z"/></g>
</svg>
