<?xml version="1.0" encoding="UTF-8"?>
<svg version="1.1" xmlns="http://www.w3.org/2000/svg" width="225" height="225">
<path d="M0 0 C1.36125 1.11375 1.36125 1.11375 2.75 2.25 C2.75 2.91 2.75 3.57 2.75 4.25 C3.31847656 4.45753906 3.88695312 4.66507813 4.47265625 4.87890625 C13.24670949 10.161398 18.65569345 24.21129277 21.85546875 33.4375 C25.40689764 48.57372093 22.89618815 64.01084221 15.5 77.5 C6.81724977 91.44002726 -5.50579841 101.24758701 -21.25 106.25 C-37.25356304 109.76133029 -53.86408071 107.48726716 -68.015625 99.37890625 C-80.98140435 90.84466743 -91.60255031 78.36830181 -95.66015625 63.12890625 C-98.28011601 45.89963447 -97.25196264 29.53305496 -87.2265625 14.87890625 C-77.67242726 2.17152875 -65.10544522 -8.45914334 -49.015625 -11.46875 C-30.85006702 -13.31609488 -15.32799259 -10.4242686 0 0 Z " fill="#D0D9E9" transform="translate(149.25,64.75)"/>
<path d="M0 0 C-0.33 1.32 -0.66 2.64 -1 4 C0.32 3.34 1.64 2.68 3 2 C3 2.66 3 3.32 3 4 C3.85271484 4.03867188 3.85271484 4.03867188 4.72265625 4.078125 C10.56316749 4.50714419 14.07059394 5.88139617 19 9 C19.66 9 20.32 9 21 9 C21.495 9.99 21.495 9.99 22 11 C24.02463255 11.65213292 24.02463255 11.65213292 26 12 C26 12.66 26 13.32 26 14 C26.99 14.495 26.99 14.495 28 15 C27.67 15.33 27.34 15.66 27 16 C28.485 16.495 28.485 16.495 30 17 C30 19.97 30 22.94 30 26 C30.99 26 31.98 26 33 26 C33.33 25.34 33.66 24.68 34 24 C33.34 24 32.68 24 32 24 C32.33 22.35 32.66 20.7 33 19 C35.66384509 22.04439438 36.93181346 25.14520999 38.25390625 28.90234375 C38.99185145 31.07030148 38.99185145 31.07030148 40.07421875 33.3671875 C43.93707521 44.35269491 39.79934596 57.51380515 36 68 C37.485 68.495 37.485 68.495 39 69 C38.01 69.66 37.02 70.32 36 71 C34.79549696 73.55183404 34.79549696 73.55183404 34 76 C33.67 75.01 33.34 74.02 33 73 C32.21625 73.474375 31.4325 73.94875 30.625 74.4375 C26.68444538 76.13601492 23.50504785 76.51580336 19.26953125 76.7890625 C16.8356065 76.92864482 16.8356065 76.92864482 14 78 C14 78.66 14 79.32 14 80 C14.5775 79.505 15.155 79.01 15.75 78.5 C18 77 18 77 22 77 C21.34 79.64 20.68 82.28 20 85 C18.906875 84.835 17.81375 84.67 16.6875 84.5 C13.22032177 84.02987414 10.11850566 83.99629241 6.62890625 84.10546875 C-1.80206623 84.31092417 -10.08209108 84.34485921 -18 81 C-20.625 78.3125 -20.625 78.3125 -22 76 C-22.66 76 -23.32 76 -24 76 C-24 75.01 -24 74.02 -24 73 C-25.32 73 -26.64 73 -28 73 C-28 72.34 -28 71.68 -28 71 C-29.485 71.495 -29.485 71.495 -31 72 C-30.53199289 67.94393835 -30.12046792 64.53411321 -28 61 C-28.66 61 -29.32 61 -30 61 C-30.33 62.32 -30.66 63.64 -31 65 C-31.99 65 -32.98 65 -34 65 C-36.07749627 60.60059613 -36.07749627 60.60059613 -35.75 58.0625 C-35.5025 57.381875 -35.255 56.70125 -35 56 C-34.731875 54.989375 -34.46375 53.97875 -34.1875 52.9375 C-32.90752775 49.77125286 -31.88033424 48.72820054 -29 47 C-30.65 47 -32.3 47 -34 47 C-34 47.66 -34 48.32 -34 49 C-36.475 49.495 -36.475 49.495 -39 50 C-39.02699725 47.72923158 -39.04639453 45.45837179 -39.0625 43.1875 C-39.07410156 41.92292969 -39.08570313 40.65835938 -39.09765625 39.35546875 C-39 36 -39 36 -38 33 C-38.66 33 -39.32 33 -40 33 C-40 33.99 -40 34.98 -40 36 C-40.928125 36.1546875 -40.928125 36.1546875 -41.875 36.3125 C-44.36526484 36.87525373 -44.36526484 36.87525373 -46 40 C-45.25 34.25 -45.25 34.25 -43 32 C-41.6078125 31.7525 -41.6078125 31.7525 -40.1875 31.5 C-35.25813602 29.1802993 -34.0278683 24.86329477 -32 20 C-32.66 19.67 -33.32 19.34 -34 19 C-32.4375 16.5625 -32.4375 16.5625 -30 14 C-28.845 13.855625 -27.69 13.71125 -26.5 13.5625 C-25.345 13.376875 -24.19 13.19125 -23 13 C-21.6273318 11.02678947 -20.29572383 9.02456848 -19 7 C-15.70283772 5.32249638 -12.49983336 4.16661112 -9 3 C-8.566875 2.484375 -8.13375 1.96875 -7.6875 1.4375 C-5.21416874 -0.66941181 -3.1362632 -0.20908421 0 0 Z M-31 72 C-30.67 72.66 -30.34 73.32 -30 74 C-30.66 74 -31.32 74 -32 74 C-32.33 74.99 -32.66 75.98 -33 77 C-34.98 77.33 -36.96 77.66 -39 78 C-38.625 75.5625 -38.625 75.5625 -38 73 C-35.53721199 71.768606 -33.7204945 71.92840804 -31 72 Z M-22 78 C-21.01 79.485 -21.01 79.485 -20 81 C-20.99 81.495 -20.99 81.495 -22 82 C-22 80.68 -22 79.36 -22 78 Z " fill="#E4EBF4" transform="translate(102,60)"/>
<path d="M0 0 C-0.66 0 -1.32 0 -2 0 C-2.33 0.99 -2.66 1.98 -3 3 C-0.36 3.66 2.28 4.32 5 5 C3.68 5.33 2.36 5.66 1 6 C0.67 6.99 0.34 7.98 0 9 C-0.66 9 -1.32 9 -2 9 C-2 8.01 -2 7.02 -2 6 C-3.65 6 -5.3 6 -7 6 C-7.165 6.639375 -7.33 7.27875 -7.5 7.9375 C-9 10 -9 10 -12.9375 10.6875 C-13.62714844 10.73261719 -14.31679687 10.77773437 -15.02734375 10.82421875 C-17.21182596 10.94239909 -17.21182596 10.94239909 -20 12 C-21.37334617 14.28891028 -22.15250816 16.45752447 -23 19 C-25.64 19 -28.28 19 -31 19 C-32.57273568 21.8424854 -32.57273568 21.8424854 -33 25 C-33.92238698 29.32255858 -35.31843773 33.4459294 -38 37 C-39.7634375 37.433125 -39.7634375 37.433125 -41.5625 37.875 C-45.11489176 38.59047615 -45.11489176 38.59047615 -46.1171875 41.1875 C-47.36719405 45.28275954 -48 48.69543231 -48 53 C-47.01 51.68 -46.02 50.36 -45 49 C-44.01 49.33 -43.02 49.66 -42 50 C-42.99 50.680625 -42.99 50.680625 -44 51.375 C-47.0151012 55.33232033 -46.33045517 59.19004145 -46 64 C-46.33 64 -46.66 64 -47 64 C-47 66.97 -47 69.94 -47 73 C-45.55314991 71.76946545 -45.55314991 71.76946545 -45.6875 68.0625 C-45.453125 65.87890625 -45.453125 65.87890625 -45 64 C-42.9375 62.5 -42.9375 62.5 -41 62 C-41.33 62.99 -41.66 63.98 -42 65 C-42.66 65 -43.32 65 -44 65 C-43.34 69.62 -42.68 74.24 -42 79 C-42.66 78.67 -43.32 78.34 -44 78 C-44.66 78.99 -45.32 79.98 -46 81 C-52.04497458 67.59592592 -52.52058171 49.6144237 -47.3203125 35.77734375 C-39.32270067 18.95396502 -26.51129281 6.50957429 -9 0 C-5.56718248 -0.84569411 -3.37935764 -1.12645255 0 0 Z " fill="#C3CEE5" transform="translate(103,55)"/>
<path d="M0 0 C2.12038635 2.61514317 4.13091744 5.19637616 6 8 C5.6875 9.875 5.6875 9.875 5 12 C4.33280887 14.81702922 4 17.21703857 4 20.125 C4 23 4 23 3 26 C2.01 26.66 1.02 27.32 0 28 C0.56739868 32.12973628 0.56739868 32.12973628 2 36 C2.33 35.34 2.66 34.68 3 34 C4.98 34.33 6.96 34.66 9 35 C8.34 35.99 7.68 36.98 7 38 C6.60612212 40.32387947 6.26513915 42.65793749 6 45 C5.01 44.67 4.02 44.34 3 44 C3.66 44.99 4.32 45.98 5 47 C4.625 49.6875 4.625 49.6875 4 52 C1.03 52.495 1.03 52.495 -2 53 C-2.495 55.475 -2.495 55.475 -3 58 C-3.33 58 -3.66 58 -4 58 C-4.36458333 53.50347222 -4.36458333 53.50347222 -2.6875 51.1875 C-1 50 -1 50 2 50 C1.773125 49.0925 1.54625 48.185 1.3125 47.25 C1 44 1 44 2.4375 41.625 C2.953125 41.08875 3.46875 40.5525 4 40 C3.4225 40.350625 2.845 40.70125 2.25 41.0625 C-0.41846792 42.17436163 -1.30380114 41.78276741 -4 41 C-5.485 41.495 -5.485 41.495 -7 42 C-7.33 44.64 -7.66 47.28 -8 50 C-8.66 49.67 -9.32 49.34 -10 49 C-10.125 41.25 -10.125 41.25 -9 39 C-8.65008413 31.91934955 -8.94393739 24.93615836 -9.9765625 17.92578125 C-9.98429688 17.29027344 -9.99203125 16.65476562 -10 16 C-9.34 15.34 -8.68 14.68 -8 14 C-8.66 13.67 -9.32 13.34 -10 13 C-10 12.34 -10 11.68 -10 11 C-9.01 11 -8.02 11 -7 11 C-7.33 8.69 -7.66 6.38 -8 4 C-7 5.33333333 -6 6.66666667 -5 8 C-4.443125 8.680625 -3.88625 9.36125 -3.3125 10.0625 C-2 12 -2 12 -2 15 C-3.65 15.66 -5.3 16.32 -7 17 C-7 19.31 -7 21.62 -7 24 C-4.23723823 23.47731534 -1.6739124 22.89130413 1 22 C0.98839844 21.37351562 0.97679687 20.74703125 0.96484375 20.1015625 C0.95582031 19.28429687 0.94679687 18.46703125 0.9375 17.625 C0.92589844 16.81289062 0.91429687 16.00078125 0.90234375 15.1640625 C1 13 1 13 2 11 C2.66 11 3.32 11 4 11 C3.34 9.9275 2.68 8.855 2 7.75 C0.11704193 4.69019314 0 3.8664136 0 0 Z M7 5 C10.46089107 8.13091697 12.58515258 11.41105905 14.8125 15.5 C15.43769531 16.6240625 16.06289062 17.748125 16.70703125 18.90625 C18 22 18 22 17.69921875 24.40625 C17.35310547 25.19515625 17.35310547 25.19515625 17 26 C17 25.01 17 24.02 17 23 C15.35 23 13.7 23 12 23 C11.20046862 26.28696233 10.90341064 27.71023192 12 31 C11.01 30.67 10.02 30.34 9 30 C8.83197949 28.54182203 8.66562857 27.0834516 8.5 25.625 C8.4071875 24.81289062 8.314375 24.00078125 8.21875 23.1640625 C8 21 8 21 8 19 C6.0399719 17.36323743 6.0399719 17.36323743 4 16 C4.66 15.34 5.32 14.68 6 14 C6.46006346 11.79749008 6.46006346 11.79749008 6.625 9.375 C6.69976562 8.55773437 6.77453125 7.74046875 6.8515625 6.8984375 C6.90054688 6.27195312 6.94953125 5.64546875 7 5 Z " fill="#CDD6E7" transform="translate(151,70)"/>
<path d="M0 0 C1.32 0.99 2.64 1.98 4 3 C3.814375 4.0725 3.62875 5.145 3.4375 6.25 C2.93676362 10.26807607 2.93676362 10.26807607 4 14 C4.66 14.33 5.32 14.66 6 15 C5.34 14.01 4.68 13.02 4 12 C4.375 9.3125 4.375 9.3125 5 7 C6.75 6.3125 6.75 6.3125 9 6 C11.44895686 7.32943373 12.72400089 8.20370878 13.64819336 10.87011719 C14.23240251 14.40699477 13.28169437 17.7856254 12.5625 21.25 C12.41490234 21.99507812 12.26730469 22.74015625 12.11523438 23.5078125 C11.7511306 25.34007665 11.37658591 27.17026053 11 29 C10.38125 28.79375 9.7625 28.5875 9.125 28.375 C8.42375 28.25125 7.7225 28.1275 7 28 C6.34 28.66 5.68 29.32 5 30 C2.875 29.625 2.875 29.625 1 29 C0.375 25.625 0.375 25.625 0 22 C0.66 21.34 1.32 20.68 2 20 C0.05396726 19.40929986 0.05396726 19.40929986 -2 19 C-2.33 19.33 -2.66 19.66 -3 20 C-3.66 20.66 -4.32 21.32 -5 22 C-6.62950412 17.87831311 -7.26264601 15.29299643 -6 11 C-5.01 10.67 -4.02 10.34 -3 10 C-3.33 8.68 -3.66 7.36 -4 6 C-3.67 6 -3.34 6 -3 6 C-2.814375 4.7934375 -2.814375 4.7934375 -2.625 3.5625 C-2.41875 2.716875 -2.2125 1.87125 -2 1 C-1.34 0.67 -0.68 0.34 0 0 Z M-7 22 C-5 23 -5 23 -5 23 Z " fill="#D6DDEE" transform="translate(157,86)"/>
<path d="M0 0 C2.97 0.495 2.97 0.495 6 1 C6.33 1.99 6.66 2.98 7 4 C7.99 4.66 8.98 5.32 10 6 C9.34 8.64 8.68 11.28 8 14 C8.66 13.67 9.32 13.34 10 13 C12.3329866 12.95977609 14.66706666 12.95679753 17 13 C17.33 13.99 17.66 14.98 18 16 C14.7 16 11.4 16 8 16 C8.66 17.98 9.32 19.96 10 22 C9.34 22 8.68 22 8 22 C8 21.34 8 20.68 8 20 C6.35 20.33 4.7 20.66 3 21 C3 21.66 3 22.32 3 23 C5.33317216 23.77772405 7.61435923 24.42415568 10 25 C10 25.66 10 26.32 10 27 C16.69860922 28.02250405 23.2315198 28.11756273 30 28.0625 C31.06089844 28.05798828 32.12179688 28.05347656 33.21484375 28.04882812 C35.80995598 28.03713843 38.40494709 28.02075276 41 28 C41 28.33 41 28.66 41 29 C25.7021271 32.83219442 9.4065653 29.99872646 -4.015625 22.20703125 C-4.67046875 21.80871094 -5.3253125 21.41039062 -6 21 C-5.34 20.67 -4.68 20.34 -4 20 C-3.34 20.33 -2.68 20.66 -2 21 C-2 20.34 -2 19.68 -2 19 C-1.34 19 -0.68 19 0 19 C-2.11326526 14.29157376 -2.11326526 14.29157376 -6 11 C-3.6739143 10.61936779 -1.33944736 10.28730055 1 10 C1.33 10.33 1.66 10.66 2 11 C4.00720923 10.71325582 6.0085944 10.38133299 8 10 C7.67 9.01 7.34 8.02 7 7 C4.03 6.67 1.06 6.34 -2 6 C-2 3 -2 3 0 0 Z " fill="#CAD1E1" transform="translate(86,142)"/>
<path d="M0 0 C0.99 0.33 1.98 0.66 3 1 C2.01 2.32 1.02 3.64 0 5 C0.99 5 1.98 5 3 5 C3 5.66 3 6.32 3 7 C2.34 7 1.68 7 1 7 C1 7.66 1 8.32 1 9 C2.98 8.34 4.96 7.68 7 7 C6.34 8.65 5.68 10.3 5 12 C6.32 11.67 7.64 11.34 9 11 C9 11.99 9 12.98 9 14 C5.13923295 15.24380382 1.26338138 15.19120922 -2.75 15.1875 C-3.81927734 15.1884668 -3.81927734 15.1884668 -4.91015625 15.18945312 C-9.94542014 15.13882433 -14.2405038 14.58649873 -19 13 C-19 12.34 -19 11.68 -19 11 C-20.32 11.33 -21.64 11.66 -23 12 C-27 7.125 -27 7.125 -27 6 C-25.02 6 -23.04 6 -21 6 C-21 7.32 -21 8.64 -21 10 C-20.19175781 9.7834375 -19.38351563 9.566875 -18.55078125 9.34375 C-17.48214844 9.0653125 -16.41351563 8.786875 -15.3125 8.5 C-14.25675781 8.2215625 -13.20101562 7.943125 -12.11328125 7.65625 C-9.28857328 7.0608285 -6.87163292 6.87213508 -4 7 C-4.33 6.01 -4.66 5.02 -5 4 C-4.34 4 -3.68 4 -3 4 C-3 3.34 -3 2.68 -3 2 C-2.01 1.34 -1.02 0.68 0 0 Z " fill="#D3DCEF" transform="translate(115,156)"/>
<path d="M0 0 C0.33 0.66 0.66 1.32 1 2 C0.22265625 3.7265625 0.22265625 3.7265625 -0.9375 5.625 C-1.618125 6.73875 -2.29875 7.8525 -3 9 C-2.01 9.66 -1.02 10.32 0 11 C-0.99 11 -1.98 11 -3 11 C-4.80996216 16.65755469 -6.35729017 22.0870696 -7 28 C-6.01 26.68 -5.02 25.36 -4 24 C-3.01 24.33 -2.02 24.66 -1 25 C-1.99 25.680625 -1.99 25.680625 -3 26.375 C-6.0151012 30.33232033 -5.33045517 34.19004145 -5 39 C-5.33 39 -5.66 39 -6 39 C-6 41.97 -6 44.94 -6 48 C-4.55314991 46.76946545 -4.55314991 46.76946545 -4.6875 43.0625 C-4.453125 40.87890625 -4.453125 40.87890625 -4 39 C-1.9375 37.5 -1.9375 37.5 0 37 C-0.33 37.99 -0.66 38.98 -1 40 C-1.66 40 -2.32 40 -3 40 C-2.34 44.62 -1.68 49.24 -1 54 C-1.66 53.67 -2.32 53.34 -3 53 C-3.66 53.99 -4.32 54.98 -5 56 C-11.11806321 42.43385983 -11.40009474 24.60926142 -6.22265625 10.6171875 C-4.44468098 6.81129795 -2.42304942 3.43265334 0 0 Z " fill="#BEC9E0" transform="translate(62,80)"/>
<path d="M0 0 C4.29 0.33 8.58 0.66 13 1 C13 2.65 13 4.3 13 6 C13.99 5.34 14.98 4.68 16 4 C18.1875 4.375 18.1875 4.375 20 5 C19.9375 6.8125 19.9375 6.8125 19 9 C13.54410028 12.13424026 8.21029173 12.63762885 2 13 C2.33 10.36 2.66 7.72 3 5 C2.01 4.34 1.02 3.68 0 3 C0 2.01 0 1.02 0 0 Z " fill="#D2D9E9" transform="translate(92,143)"/>
<path d="M0 0 C1.98 0.66 3.96 1.32 6 2 C4.5 5 4.5 5 3 8 C3.66 8 4.32 8 5 8 C5.33 8.99 5.66 9.98 6 11 C6.66 11 7.32 11 8 11 C11.06603774 16.27358491 11.06603774 16.27358491 10.75 19.75 C10 22 10 22 9 24 C9.66 24.33 10.32 24.66 11 25 C10.67 26.32 10.34 27.64 10 29 C10.66 29 11.32 29 12 29 C11.34 30.32 10.68 31.64 10 33 C10 32.34 10 31.68 10 31 C9.34 31 8.68 31 8 31 C7.67 31.66 7.34 32.32 7 33 C7.33 29.37 7.66 25.74 8 22 C6.68 21.67 5.36 21.34 4 21 C4 20.34 4 19.68 4 19 C3.67 18.34 3.34 17.68 3 17 C1.68 17 0.36 17 -1 17 C-1 16.01 -1 15.02 -1 14 C-1.99 14.33 -2.98 14.66 -4 15 C-4 14.34 -4 13.68 -4 13 C-4.66 12.67 -5.32 12.34 -6 12 C-5.67 10.35 -5.34 8.7 -5 7 C-4.34 7 -3.68 7 -3 7 C-3 8.98 -3 10.96 -3 13 C-2.01 12.67 -1.02 12.34 0 12 C0.33 12.66 0.66 13.32 1 14 C1.66 13.67 2.32 13.34 3 13 C3 11.68 3 10.36 3 9 C2.34 9 1.68 9 1 9 C1.020625 7.88625 1.04125 6.7725 1.0625 5.625 C1.26380718 2.16784079 1.26380718 2.16784079 0 0 Z " fill="#D5DDEC" transform="translate(124,55)"/>
<path d="M0 0 C0.66 0.99 1.32 1.98 2 3 C2.66 2.34 3.32 1.68 4 1 C6.32275177 0.59952556 8.65739357 0.2602896 11 0 C11 0.66 11 1.32 11 2 C9.35 2.33 7.7 2.66 6 3 C6 4.32 6 5.64 6 7 C7.65 7 9.3 7 11 7 C10.67 7.66 10.34 8.32 10 9 C5.52459016 10.26229508 5.52459016 10.26229508 3 9 C3 9.66 3 10.32 3 11 C4.0725 11.12375 5.145 11.2475 6.25 11.375 C10 12 10 12 14 14 C14 17.96 14 21.92 14 26 C9.14907954 22.4628705 5.74142864 18.6056035 2.5 13.5625 C1.8090625 12.49128906 1.118125 11.42007813 0.40625 10.31640625 C-1.26649389 6.37151857 -0.95789342 4.1179005 0 0 Z " fill="#C8D3E8" transform="translate(58,130)"/>
<path d="M0 0 C0.66 0 1.32 0 2 0 C2 7.26 2 14.52 2 22 C1.01 22.33 0.02 22.66 -1 23 C-2.17571451 19.32589215 -2.07366746 15.83070817 -2 12 C-2.99 12.33 -3.98 12.66 -5 13 C-6.22520264 16.00847418 -6.22520264 16.00847418 -7 19 C-7.33 19 -7.66 19 -8 19 C-8.45028522 12.69600687 -7.61202629 8.28621366 -4 3 C-3.34 2.67 -2.68 2.34 -2 2 C-1.34 2.33 -0.68 2.66 0 3 C0 2.01 0 1.02 0 0 Z " fill="#D1DAEB" transform="translate(62,93)"/>
<path d="M0 0 C2.18703385 -0.37907282 2.18703385 -0.37907282 4 -1 C3.67 -0.0925 3.34 0.815 3 1.75 C1.80394277 5.07045807 1.80394277 5.07045807 2 9 C0.02 9.99 -1.96 10.98 -4 12 C-4 11.01 -4 10.02 -4 9 C-5.32 9.33 -6.64 9.66 -8 10 C-8 7.03 -8 4.06 -8 1 C-3.84 -1.08 -3.84 -1.08 0 0 Z " fill="#D7DEEE" transform="translate(151,111)"/>
<path d="M0 0 C1.32 0.33 2.64 0.66 4 1 C3.63433997 6.67403488 2.92897793 10.99632936 0 16 C-0.33 16.66 -0.66 17.32 -1 18 C-1.928125 16.824375 -1.928125 16.824375 -2.875 15.625 C-4.89858661 13.03162353 -4.89858661 13.03162353 -7 11 C-5.68 11 -4.36 11 -3 11 C-3 9.68 -3 8.36 -3 7 C-2.34 7 -1.68 7 -1 7 C-0.67 4.69 -0.34 2.38 0 0 Z " fill="#D7DEEE" transform="translate(164,118)"/>
<path d="M0 0 C0.66 0.33 1.32 0.66 2 1 C1.57847656 1.53109375 1.15695313 2.0621875 0.72265625 2.609375 C0.17480469 3.31578125 -0.37304688 4.0221875 -0.9375 4.75 C-1.48277344 5.44609375 -2.02804688 6.1421875 -2.58984375 6.859375 C-3.99714366 8.99566406 -4.63766674 10.48437197 -5 13 C-4.814375 13.86625 -4.62875 14.7325 -4.4375 15.625 C-4.293125 16.40875 -4.14875 17.1925 -4 18 C-6 20 -6 20 -8.625 20.125 C-9.40875 20.08375 -10.1925 20.0425 -11 20 C-11.33 19.01 -11.66 18.02 -12 17 C-11.05355162 15.23764785 -10.09738563 13.47821576 -9.05078125 11.7734375 C-7.76701824 9.60678915 -6.91128958 7.34331606 -6 5 C-4.00856305 2.01284458 -3.23356015 1.21258505 0 0 Z " fill="#CBDAF1" transform="translate(70,72)"/>
<path d="M0 0 C0.33 0.66 0.66 1.32 1 2 C0.22265625 3.7265625 0.22265625 3.7265625 -0.9375 5.625 C-1.618125 6.73875 -2.29875 7.8525 -3 9 C-2.01 9.66 -1.02 10.32 0 11 C-0.99 11 -1.98 11 -3 11 C-3.30744141 12.03060547 -3.30744141 12.03060547 -3.62109375 13.08203125 C-3.89050781 13.98308594 -4.15992188 14.88414063 -4.4375 15.8125 C-4.70433594 16.70582031 -4.97117187 17.59914063 -5.24609375 18.51953125 C-5.80387873 20.35473055 -6.39344575 22.18033726 -7 24 C-7.14492123 25.40664926 -7.24628931 26.8181133 -7.31640625 28.23046875 C-7.35830078 29.03291016 -7.40019531 29.83535156 -7.44335938 30.66210938 C-7.48267578 31.49548828 -7.52199219 32.32886719 -7.5625 33.1875 C-7.60568359 34.03248047 -7.64886719 34.87746094 -7.69335938 35.74804688 C-7.79931518 37.83184433 -7.9001502 39.91590103 -8 42 C-8.33 42 -8.66 42 -9 42 C-9.58085091 26.24777005 -9.41522983 13.33824226 0 0 Z " fill="#B4C0DF" transform="translate(62,80)"/>
<path d="M0 0 C6.75 0.75 6.75 0.75 9 3 C7.68 3 6.36 3 5 3 C5 4.32 5 5.64 5 7 C5.66 7 6.32 7 7 7 C7.33 7.66 7.66 8.32 8 9 C8.99 9 9.98 9 11 9 C9 15 9 15 8 17 C7.34 15.02 6.68 13.04 6 11 C5.34 11 4.68 11 4 11 C3.67 11.66 3.34 12.32 3 13 C3 11.35 3 9.7 3 8 C2.34 8 1.68 8 1 8 C1.875 3.125 1.875 3.125 3 2 C2.01 1.34 1.02 0.68 0 0 Z " fill="#C7D0E3" transform="translate(126,55)"/>
<path d="M0 0 C2.97 0.33 5.94 0.66 9 1 C9 1.99 9 2.98 9 4 C8.01 4.33 7.02 4.66 6 5 C6.99 5.33 7.98 5.66 9 6 C9.33 6.66 9.66 7.32 10 8 C8.68 8 7.36 8 6 8 C4.25 6 4.25 6 3 4 C2.67 4.66 2.34 5.32 2 6 C2.66 6.33 3.32 6.66 4 7 C1.36 6.67 -1.28 6.34 -4 6 C-3.34 4.68 -2.68 3.36 -2 2 C-1.34 2 -0.68 2 0 2 C0 1.34 0 0.68 0 0 Z M10 1 C10.99 1 11.98 1 13 1 C13 1.66 13 2.32 13 3 C12.34 3 11.68 3 11 3 C10.67 4.32 10.34 5.64 10 7 C10 5.02 10 3.04 10 1 Z " fill="#D5DEF2" transform="translate(103,53)"/>
<path d="M0 0 C0.99 0.33 1.98 0.66 3 1 C2.34 1.66 1.68 2.32 1 3 C0.59952556 5.32275177 0.2602896 7.65739357 0 10 C-0.99 9.67 -1.98 9.34 -3 9 C-2.01 10.485 -2.01 10.485 -1 12 C-1.375 14.6875 -1.375 14.6875 -2 17 C-3.98 17.33 -5.96 17.66 -8 18 C-8.33 19.65 -8.66 21.3 -9 23 C-9.33 23 -9.66 23 -10 23 C-10.36458333 18.50347222 -10.36458333 18.50347222 -8.6875 16.1875 C-7 15 -7 15 -4 15 C-4.20625 14.05125 -4.4125 13.1025 -4.625 12.125 C-4.74875 11.09375 -4.8725 10.0625 -5 9 C-4.34 8.34 -3.68 7.68 -3 7 C-2.30899447 5.00827818 -1.64097297 3.00838196 -1 1 C-0.67 0.67 -0.34 0.34 0 0 Z " fill="#C2C9D9" transform="translate(157,105)"/>
<path d="M0 0 C2.82812495 4.24218742 2.38326651 7.8802858 2.375 12.875 C2.37411377 13.81794922 2.37322754 14.76089844 2.37231445 15.73242188 C2.20784547 25.4903581 0.27476472 33.65710565 -5 42 C-5.33 41.34 -5.66 40.68 -6 40 C-5.29296875 38.1875 -5.29296875 38.1875 -4.1875 36 C0.34763612 26.13216934 0.49648035 15.67991678 1 5 C0.34 5 -0.32 5 -1 5 C-0.67 3.35 -0.34 1.7 0 0 Z " fill="#B1C4E4" transform="translate(170,99)"/>
<path d="M0 0 C2.31 0 4.62 0 7 0 C7 0.66 7 1.32 7 2 C8.32 2 9.64 2 11 2 C11 2.66 11 3.32 11 4 C17.69860922 5.02250405 24.2315198 5.11756273 31 5.0625 C32.06089844 5.05798828 33.12179688 5.05347656 34.21484375 5.04882812 C36.80995598 5.03713843 39.40494709 5.02075276 42 5 C42 5.33 42 5.66 42 6 C28.63122379 9.34894596 11.9323326 7.96052735 0 1 C0 0.67 0 0.34 0 0 Z " fill="#B0BFDD" transform="translate(85,165)"/>
<path d="M0 0 C1 1.33333333 2 2.66666667 3 4 C3.8353125 5.0209375 3.8353125 5.0209375 4.6875 6.0625 C6 8 6 8 6 11 C4.35 11.66 2.7 12.32 1 13 C0.67 15.31 0.34 17.62 0 20 C-2 18 -2 18 -2.25 15 C-2 12 -2 12 0 10 C-0.66 9.67 -1.32 9.34 -2 9 C-2 8.34 -2 7.68 -2 7 C-1.01 7 -0.02 7 1 7 C0.67 4.69 0.34 2.38 0 0 Z " fill="#C7CEDE" transform="translate(143,74)"/>
<path d="M0 0 C0.66 0.33 1.32 0.66 2 1 C1.67 3.64 1.34 6.28 1 9 C-0.98 9 -2.96 9 -5 9 C-5 9.66 -5 10.32 -5 11 C-5.66 11 -6.32 11 -7 11 C-7.33 12.32 -7.66 13.64 -8 15 C-7.88590407 13.54077307 -7.75834456 12.08259402 -7.625 10.625 C-7.55539063 9.81289062 -7.48578125 9.00078125 -7.4140625 8.1640625 C-7 6 -7 6 -5 4 C-3.68 4 -2.36 4 -1 4 C-0.67 2.68 -0.34 1.36 0 0 Z " fill="#CFD6E6" transform="translate(143,127)"/>
<path d="M0 0 C-0.32432407 3.06382739 -0.98901487 3.98970965 -3.28515625 6.140625 C-4.65994141 7.18476563 -4.65994141 7.18476563 -6.0625 8.25 C-6.98160156 8.95640625 -7.90070313 9.6628125 -8.84765625 10.390625 C-9.91306641 11.18726563 -9.91306641 11.18726563 -11 12 C-11 9 -11 9 -9 7 C-9 6.01 -9 5.02 -9 4 C-9.99 4.33 -10.98 4.66 -12 5 C-11.67 4.01 -11.34 3.02 -11 2 C-9.25 1.375 -9.25 1.375 -7 1 C-6.13375 0.814375 -5.2675 0.62875 -4.375 0.4375 C-2 0 -2 0 0 0 Z " fill="#C4D2E9" transform="translate(156,151)"/>
<path d="M0 0 C2.4375 0.0625 2.4375 0.0625 5 1 C6.8125 3.5625 6.8125 3.5625 8 6 C5.42786866 7.61949011 4.32330841 8.04408751 1.25 7.625 C0.5075 7.41875 -0.235 7.2125 -1 7 C-1.625 4.625 -1.625 4.625 -2 2 C-1.34 1.34 -0.68 0.68 0 0 Z " fill="#DBE3F4" transform="translate(163,92)"/>
<path d="M0 0 C-0.66 0 -1.32 0 -2 0 C-2.33 0.99 -2.66 1.98 -3 3 C-0.36 3.66 2.28 4.32 5 5 C3.68 5.33 2.36 5.66 1 6 C0.67 6.99 0.34 7.98 0 9 C-0.66 9 -1.32 9 -2 9 C-2 8.01 -2 7.02 -2 6 C-5.04386724 5.91773332 -7.07175348 6.02391783 -10 7 C-10.33 6.01 -10.66 5.02 -11 4 C-9.02 3.67 -7.04 3.34 -5 3 C-5 2.34 -5 1.68 -5 1 C-6.98 1.33 -8.96 1.66 -11 2 C-7.72338241 -1.27661759 -4.29690696 -1.43230232 0 0 Z " fill="#C2CCE0" transform="translate(103,55)"/>
<path d="M0 0 C1.98 0 3.96 0 6 0 C6.375 2.25 6.375 2.25 6 5 C3 7.3125 3 7.3125 0 9 C-2 6 -2 6 -2 2 C-1.34 2 -0.68 2 0 2 C0 1.34 0 0.68 0 0 Z " fill="#DCE3F3" transform="translate(138,136)"/>
<path d="M0 0 C1.4540625 0.0309375 1.4540625 0.0309375 2.9375 0.0625 C2.1640625 0.43375 2.1640625 0.43375 1.375 0.8125 C-0.0442981 1.54034518 -1.45081876 2.29687502 -2.81640625 3.12109375 C-4.53298188 4.15677299 -6.29627351 5.11397096 -8.0625 6.0625 C-8.7225 5.7325 -9.3825 5.4025 -10.0625 5.0625 C-10.0625 5.7225 -10.0625 6.3825 -10.0625 7.0625 C-9.4025 7.3925 -8.7425 7.7225 -8.0625 8.0625 C-10.7025 8.0625 -13.3425 8.0625 -16.0625 8.0625 C-16.0625 7.0725 -16.0625 6.0825 -16.0625 5.0625 C-12.5975 4.5675 -12.5975 4.5675 -9.0625 4.0625 C-9.0625 3.4025 -9.0625 2.7425 -9.0625 2.0625 C-9.7225 1.7325 -10.3825 1.4025 -11.0625 1.0625 C-9.928125 1.083125 -8.79375 1.10375 -7.625 1.125 C-3.70384291 1.05620777 -3.73763955 0.07627836 0 0 Z " fill="#C8D0E0" transform="translate(136.0625,159.9375)"/>
<path d="M0 0 C-0.78375 0.0825 -1.5675 0.165 -2.375 0.25 C-5.11983754 0.73044197 -5.11983754 0.73044197 -6.3125 2.9375 C-7.10540926 4.95388345 -7.10540926 4.95388345 -7 7 C-7.56062898 10.36377389 -8.84671769 12.37861284 -11 15 C-13.07794508 11.57750221 -13.07794508 11.57750221 -12.7421875 9.08984375 C-11.88222802 6.66837889 -10.7635638 5.22983597 -9.0625 3.3125 C-8.53785156 2.71050781 -8.01320313 2.10851562 -7.47265625 1.48828125 C-4.81010285 -1.20252205 -3.47248692 -1.04174608 0 0 Z " fill="#C4CBDA" transform="translate(77,73)"/>
<path d="M0 0 C3.37462715 0.54723683 5.08235 1.0549 8 3 C7.01 3 6.02 3 5 3 C5 3.66 5 4.32 5 5 C5.99 5.33 6.98 5.66 8 6 C7.34 6.66 6.68 7.32 6 8 C5.35232207 10.57061311 5.35232207 10.57061311 5 13 C1.42988974 9.267612 0.89086558 4.9050011 0 0 Z " fill="#D5DDE9" transform="translate(136,78)"/>
<path d="M0 0 C2.92437502 2.54945514 4.77471137 4.22758183 5.875 8 C5.99925111 10.98202657 6.01496636 13.18932393 5 16 C2.9375 17.3125 2.9375 17.3125 1 18 C1.94672131 13.13114754 1.94672131 13.13114754 2.8125 11 C3.25895077 8.73016681 3.25895077 8.73016681 1 6.5 C-1 4 -1 4 -0.75 1.6875 C-0.5025 1.130625 -0.255 0.57375 0 0 Z " fill="#DAE3F5" transform="translate(153,69)"/>
<path d="M0 0 C0.66 0.66 1.32 1.32 2 2 C1.8125 5 1.8125 5 1 8 C0.01 8.66 -0.98 9.32 -2 10 C-1.67 12.31 -1.34 14.62 -1 17 C-1.99 17 -2.98 17 -4 17 C-5.0070238 11.96488101 -4.97387813 8.76052962 -3 4 C-2.34 4 -1.68 4 -1 4 C-0.67 2.68 -0.34 1.36 0 0 Z " fill="#C0C7D7" transform="translate(153,88)"/>
<path d="M0 0 C0.598125 0.20625 1.19625 0.4125 1.8125 0.625 C1.5 2.5 1.5 2.5 0.8125 4.625 C-2.1875 6.625 -2.1875 6.625 -6.1875 6.625 C-5.875 4.25 -5.875 4.25 -5.1875 1.625 C-2.1875 -0.375 -2.1875 -0.375 0 0 Z M-8.1875 6.625 C-6.1875 7.625 -6.1875 7.625 -6.1875 7.625 Z " fill="#DAE1F1" transform="translate(110.1875,147.375)"/>
<path d="M0 0 C2.375 -0.1875 2.375 -0.1875 5 0 C7 3 7 3 7 6 C6.34 6 5.68 6 5 6 C5 6.66 5 7.32 5 8 C3.35 8 1.7 8 0 8 C-0.33 7.01 -0.66 6.02 -1 5 C-0.01 4.67 0.98 4.34 2 4 C1.34 2.68 0.68 1.36 0 0 Z " fill="#D6DFF0" transform="translate(79,155)"/>
<path d="M0 0 C0.99 0 1.98 0 3 0 C3.33 2.97 3.66 5.94 4 9 C3.67 8.34 3.34 7.68 3 7 C1.02 7.33 -0.96 7.66 -3 8 C-2.67 6.02 -2.34 4.04 -2 2 C-1.34 2 -0.68 2 0 2 C0 1.34 0 0.68 0 0 Z " fill="#D7E0EF" transform="translate(157,132)"/>
<path d="M0 0 C0.99 0 1.98 0 3 0 C5 3 5 3 5 6 C5.66 6.33 6.32 6.66 7 7 C6.67 8.32 6.34 9.64 6 11 C6.66 11 7.32 11 8 11 C7.34 12.32 6.68 13.64 6 15 C6 14.34 6 13.68 6 13 C5.34 13 4.68 13 4 13 C3.67 13.66 3.34 14.32 3 15 C3.33 11.37 3.66 7.74 4 4 C2.68 3.67 1.36 3.34 0 3 C0 2.01 0 1.02 0 0 Z " fill="#DBE0ED" transform="translate(128,73)"/>
<path d="M0 0 C6.05504587 7.46788991 6.05504587 7.46788991 5.8125 9.8125 C4.75488765 12.65991787 3.40604378 15.31017712 2 18 C1.67 18 1.34 18 1 18 C1.33 15.69 1.66 13.38 2 11 C2.66 11 3.32 11 4 11 C3.34 9.9275 2.68 8.855 2 7.75 C0.11704193 4.69019314 0 3.8664136 0 0 Z " fill="#C0CAD9" transform="translate(151,70)"/>
<path d="M0 0 C0.99 0.33 1.98 0.66 3 1 C2.01 1.33 1.02 1.66 0 2 C0 1.34 0 0.68 0 0 Z M0 2 C0.33 2.66 0.66 3.32 1 4 C0.34 4 -0.32 4 -1 4 C-1.33 4.99 -1.66 5.98 -2 7 C-3.98 7.33 -5.96 7.66 -8 8 C-7.625 5.5625 -7.625 5.5625 -7 3 C-4.53721199 1.768606 -2.7204945 1.92840804 0 2 Z " fill="#DBE2F2" transform="translate(71,130)"/>
<path d="M0 0 C2.31 0 4.62 0 7 0 C7 0.66 7 1.32 7 2 C5.8553125 2.4021875 5.8553125 2.4021875 4.6875 2.8125 C1.98210334 3.79559745 1.98210334 3.79559745 0.4375 5.6875 C-0.036875 6.120625 -0.51125 6.55375 -1 7 C-3.1875 6.6875 -3.1875 6.6875 -5 6 C-5 5.34 -5 4.68 -5 4 C-4.360625 3.71125 -3.72125 3.4225 -3.0625 3.125 C-0.84793921 2.17176549 -0.84793921 2.17176549 0 0 Z " fill="#D0DDF1" transform="translate(91,56)"/>
<path d="M0 0 C0.66 1.32 1.32 2.64 2 4 C-2.455 4.495 -2.455 4.495 -7 5 C-7.33 3.68 -7.66 2.36 -8 1 C-5.29120665 -0.35439668 -2.99066732 -0.06501451 0 0 Z " fill="#DDE4F4" transform="translate(102,157)"/>
<path d="M0 0 C0.598125 0.20625 1.19625 0.4125 1.8125 0.625 C0.8225 1.285 -0.1675 1.945 -1.1875 2.625 C-1.43765873 6.20857241 -1.43765873 6.20857241 -1.1875 9.625 C-2.1775 9.955 -3.1675 10.285 -4.1875 10.625 C-5.70900158 7.58199684 -5.42649393 4.970915 -5.1875 1.625 C-2.1875 -0.375 -2.1875 -0.375 0 0 Z " fill="#D5DCE4" transform="translate(118.1875,100.375)"/>
<path d="M0 0 C2.97 0.495 2.97 0.495 6 1 C6 2.65 6 4.3 6 6 C2.89448334 6 1.64738916 5.4606285 -1 4 C-0.67 2.68 -0.34 1.36 0 0 Z " fill="#D4E0F2" transform="translate(142,63)"/>
<path d="M0 0 C0.66 1.32 1.32 2.64 2 4 C1.484375 4.350625 0.96875 4.70125 0.4375 5.0625 C-1.40146383 7.09468727 -1.40146383 7.09468727 -0.6875 10.6875 C-0.460625 11.780625 -0.23375 12.87375 0 14 C-0.99 13.67 -1.98 13.34 -3 13 C-3.22174933 11.54364629 -3.42698698 10.08477044 -3.625 8.625 C-3.74101562 7.81289062 -3.85703125 7.00078125 -3.9765625 6.1640625 C-3.98429688 5.44992188 -3.99203125 4.73578125 -4 4 C-3.34 3.34 -2.68 2.68 -2 2 C-1.67 2.33 -1.34 2.66 -1 3 C-0.67 2.01 -0.34 1.02 0 0 Z " fill="#BDC3D3" transform="translate(163,87)"/>
<path d="M0 0 C0.99 0 1.98 0 3 0 C3.33 1.98 3.66 3.96 4 6 C1.04335481 7.4783226 -1.74229737 7.06032783 -5 7 C-5 6.34 -5 5.68 -5 5 C-3.68 4.67 -2.36 4.34 -1 4 C-0.67 2.68 -0.34 1.36 0 0 Z " fill="#C6CEDD" transform="translate(77,137)"/>
<path d="M0 0 C0.1875 2.875 0.1875 2.875 0 6 C-0.99 6.66 -1.98 7.32 -3 8 C-3.66 8.99 -4.32 9.98 -5 11 C-5.36717663 3.5340751 -5.36717663 3.5340751 -3.625 1 C-2 0 -2 0 0 0 Z " fill="#DCE4F5" transform="translate(61,106)"/>
<path d="M0 0 C0 0.66 0 1.32 0 2 C-0.7115625 2.6496875 -0.7115625 2.6496875 -1.4375 3.3125 C-3.41383086 5.44693733 -3.61663236 7.16307947 -4 10 C-4.99 10 -5.98 10 -7 10 C-7.3327958 6.33924624 -7.46170299 4.60499012 -5.1875 1.625 C-3 0 -3 0 0 0 Z " fill="#D5DCE4" transform="translate(138,97)"/>
<path d="M0 0 C0.94875 0.04125 1.8975 0.0825 2.875 0.125 C2.545 1.445 2.215 2.765 1.875 4.125 C-0.435 4.455 -2.745 4.785 -5.125 5.125 C-5.125 0.85616396 -4.22482433 0.16899297 0 0 Z " fill="#D7DEEB" transform="translate(99.125,59.875)"/>
<path d="M0 0 C0.99 0.66 1.98 1.32 3 2 C3 2.66 3 3.32 3 4 C2.278125 3.9175 1.55625 3.835 0.8125 3.75 C-2.83548794 4.07426559 -4.34568298 5.57319587 -7 8 C-6.67 6.02 -6.34 4.04 -6 2 C-3.1875 0.875 -3.1875 0.875 0 0 Z " fill="#D6DDE5" transform="translate(95,122)"/>
<path d="M0 0 C0.66 0.33 1.32 0.66 2 1 C2 1.99 2 2.98 2 4 C2.99 3.67 3.98 3.34 5 3 C5 4.98 5 6.96 5 9 C3.125 8.875 3.125 8.875 1 8 C-0.3125 5.0625 -0.3125 5.0625 -1 2 C-0.67 1.34 -0.34 0.68 0 0 Z " fill="#DBE3F2" transform="translate(145,72)"/>
<path d="M0 0 C2.31 0 4.62 0 7 0 C7.33 1.32 7.66 2.64 8 4 C6.25 4.6875 6.25 4.6875 4 5 C1.75 3.6875 1.75 3.6875 0 2 C0 1.34 0 0.68 0 0 Z " fill="#DEE5F4" transform="translate(86,148)"/>
<path d="M0 0 C0.99 0.33 1.98 0.66 3 1 C1.515 2.485 1.515 2.485 0 4 C0.66 4.33 1.32 4.66 2 5 C-0.375 6.5625 -0.375 6.5625 -3 8 C-3.66 7.67 -4.32 7.34 -5 7 C-5 6.01 -5 5.02 -5 4 C-2.6875 1.75 -2.6875 1.75 0 0 Z " fill="#C6CDDD" transform="translate(133,150)"/>
<path d="M0 0 C0 0.66 0 1.32 0 2 C-0.99 2.33 -1.98 2.66 -3 3 C-4.01187895 4.65948148 -5.0126546 6.32580562 -6 8 C-6.66 8 -7.32 8 -8 8 C-7.6875 5.125 -7.6875 5.125 -7 2 C-4 0 -4 0 0 0 Z " fill="#D4D8E3" transform="translate(136,122)"/>
<path d="M0 0 C-0.875 6.75 -0.875 6.75 -2 9 C-2.66 9 -3.32 9 -4 9 C-4 6.36 -4 3.72 -4 1 C-2 0 -2 0 0 0 Z " fill="#DDE5F4" transform="translate(63,119)"/>
<path d="M0 0 C-0.33 0.99 -0.66 1.98 -1 3 C-1.99 3.33 -2.98 3.66 -4 4 C-4 3.34 -4 2.68 -4 2 C-4.99 1.67 -5.98 1.34 -7 1 C-7.66 0.34 -8.32 -0.32 -9 -1 C-5.38055101 -2.34053666 -3.42632833 -1.61798838 0 0 Z " fill="#DBE1EE" transform="translate(95,66)"/>
<path d="M0 0 C0.33 1.32 0.66 2.64 1 4 C0.030625 4.12375 -0.93875 4.2475 -1.9375 4.375 C-3.4534375 4.684375 -3.4534375 4.684375 -5 5 C-5.33 5.66 -5.66 6.32 -6 7 C-6.66 7 -7.32 7 -8 7 C-7.42655063 4.13275314 -7.1385485 3.1385485 -5 1 C-2.375 0.375 -2.375 0.375 0 0 Z " fill="#D3DAE3" transform="translate(104,133)"/>
<path d="M0 0 C0.33 1.32 0.66 2.64 1 4 C1.66 4 2.32 4 3 4 C3.33 5.32 3.66 6.64 4 8 C2.02 8.99 2.02 8.99 0 10 C-1.125 8.375 -1.125 8.375 -2 6 C-1.125 2.75 -1.125 2.75 0 0 Z " fill="#CBD2DF" transform="translate(124,60)"/>
<path d="M0 0 C2.31 0 4.62 0 7 0 C7 0.66 7 1.32 7 2 C8.32 2 9.64 2 11 2 C11 2.66 11 3.32 11 4 C11.99 4.33 12.98 4.66 14 5 C13.01 5.495 13.01 5.495 12 6 C9.92803369 5.26821134 7.8891448 4.44100997 5.875 3.5625 C4.77929688 3.08941406 3.68359375 2.61632812 2.5546875 2.12890625 C1.71164063 1.75636719 0.86859375 1.38382813 0 1 C0 0.67 0 0.34 0 0 Z " fill="#B6C7E0" transform="translate(85,165)"/>
<path d="M0 0 C0 0.33 0 0.66 0 1 C-2.31 1.33 -4.62 1.66 -7 2 C-7.66 3.65 -8.32 5.3 -9 7 C-9.6875 5.1875 -9.6875 5.1875 -10 3 C-6.91492144 -0.96652957 -4.71179449 -1.11595133 0 0 Z " fill="#D6DDE5" transform="translate(119,124)"/>
<path d="M0 0 C0.99 0.66 1.98 1.32 3 2 C2.34 3.32 1.68 4.64 1 6 C-0.65 6 -2.3 6 -4 6 C-4.33 5.01 -4.66 4.02 -5 3 C-3.35 2.01 -1.7 1.02 0 0 Z " fill="#CCD6E5" transform="translate(63,86)"/>
<path d="M0 0 C1.99701936 0.26556108 3.97764818 0.64787339 5.953125 1.04296875 C4.963125 2.52796875 4.963125 2.52796875 3.953125 4.04296875 C0.515625 4.23046875 0.515625 4.23046875 -3.046875 4.04296875 C-4.036875 4.04296875 -5.026875 4.04296875 -6.046875 4.04296875 C-4.28243726 1.61686685 -3.12317824 0.0655629 0 0 Z " fill="#C2D0E9" transform="translate(73.046875,68.95703125)"/>
<path d="M0 0 C0.66 0 1.32 0 2 0 C2 3.96 2 7.92 2 12 C0.68 10.68 -0.64 9.36 -2 8 C-1.67 7.67 -1.34 7.34 -1 7 C-0.63239269 4.67182036 -0.29758419 2.3381615 0 0 Z " fill="#BDCBE0" transform="translate(70,144)"/>
<path d="M0 0 C0.94875 0.04125 1.8975 0.0825 2.875 0.125 C3.205 0.785 3.535 1.445 3.875 2.125 C1.895 2.125 -0.085 2.125 -2.125 2.125 C-2.125 2.785 -2.125 3.445 -2.125 4.125 C-2.785 4.125 -3.445 4.125 -4.125 4.125 C-4.455 5.445 -4.785 6.765 -5.125 8.125 C-5.25 5.25 -5.25 5.25 -5.125 2.125 C-3.125 0.125 -3.125 0.125 0 0 Z " fill="#B6BDCD" transform="translate(140.125,133.875)"/>
<path d="M0 0 C0 0.66 0 1.32 0 2 C-0.99 2.495 -0.99 2.495 -2 3 C-2 4.98 -2 6.96 -2 9 C-2.99 9 -3.98 9 -5 9 C-5 6.36 -5 3.72 -5 1 C-2 0 -2 0 0 0 Z " fill="#D3DAE2" transform="translate(112,89)"/>
<path d="M0 0 C0.99 1.32 1.98 2.64 3 4 C1 5 1 5 -2.5625 4.1875 C-6 3 -6 3 -7 1 C-3.535 0.505 -3.535 0.505 0 0 Z " fill="#C8D5EB" transform="translate(87,161)"/>
<path d="M0 0 C1.65 1.32 3.3 2.64 5 4 C3.02 4.66 1.04 5.32 -1 6 C-2.65 4.35 -4.3 2.7 -6 1 C-4.02 1.66 -2.04 2.32 0 3 C0 2.01 0 1.02 0 0 Z " fill="#C4D2E8" transform="translate(78,155)"/>
<path d="M0 0 C2.64 0.33 5.28 0.66 8 1 C6.875 2.5 6.875 2.5 5 4 C1.8125 4.1875 1.8125 4.1875 -1 4 C-0.67 2.68 -0.34 1.36 0 0 Z " fill="#C8D3EB" transform="translate(105,167)"/>
<path d="M0 0 C1.98 0.495 1.98 0.495 4 1 C3.34 1.66 2.68 2.32 2 3 C1.83322718 6.58343976 1.83322718 6.58343976 2 10 C1.34 10 0.68 10 0 10 C-0.74926071 6.33694766 -1.2380014 3.57644848 0 0 Z " fill="#D1D8E0" transform="translate(102,112)"/>
<path d="M0 0 C0.598125 0.20625 1.19625 0.4125 1.8125 0.625 C0.4925 2.275 -0.8275 3.925 -2.1875 5.625 C-3.1775 5.295 -4.1675 4.965 -5.1875 4.625 C-5.1875 3.635 -5.1875 2.645 -5.1875 1.625 C-2.1875 -0.375 -2.1875 -0.375 0 0 Z " fill="#DDE4F3" transform="translate(133.1875,156.375)"/>
<path d="M0 0 C2.475 0.495 2.475 0.495 5 1 C4.34 2.98 3.68 4.96 3 7 C0 3.375 0 3.375 0 0 Z " fill="#DDE4F1" transform="translate(136,78)"/>
<path d="M0 0 C2.31 0 4.62 0 7 0 C7 3 7 3 6 6 C5.34 6 4.68 6 4 6 C3.67 5.01 3.34 4.02 3 3 C2.01 2.67 1.02 2.34 0 2 C0 1.34 0 0.68 0 0 Z " fill="#D2DDE9" transform="translate(74,68)"/>
<path d="M0 0 C2.475 0.99 2.475 0.99 5 2 C4.67 2.66 4.34 3.32 4 4 C3.34 4 2.68 4 2 4 C2 4.66 2 5.32 2 6 C0.68 5.34 -0.64 4.68 -2 4 C-1.34 3.67 -0.68 3.34 0 3 C0 2.01 0 1.02 0 0 Z " fill="#D3DEEF" transform="translate(81,61)"/>
<path d="M0 0 C0.66 0 1.32 0 2 0 C2.33 0.66 2.66 1.32 3 2 C3.99 1.67 4.98 1.34 6 1 C6 3.31 6 5.62 6 8 C1.125 3.375 1.125 3.375 0 0 Z " fill="#BCCAE7" transform="translate(62,144)"/>
<path d="M0 0 C0.66 0.33 1.32 0.66 2 1 C1.67 2.65 1.34 4.3 1 6 C-0.32 6.33 -1.64 6.66 -3 7 C-2.625 4.0625 -2.625 4.0625 -2 1 C-1.34 0.67 -0.68 0.34 0 0 Z " fill="#DDE6F4" transform="translate(157,133)"/>
<path d="M0 0 C1.98 0.99 1.98 0.99 4 2 C4 2.99 4 3.98 4 5 C3.01 5.66 2.02 6.32 1 7 C0.67 4.69 0.34 2.38 0 0 Z " fill="#DEE6F6" transform="translate(149,124)"/>
<path d="M0 0 C1.32 0.33 2.64 0.66 4 1 C3.505 1.4125 3.01 1.825 2.5 2.25 C0.56613908 4.12202338 0.56613908 4.12202338 1 8 C0.34 8 -0.32 8 -1 8 C-1.93065133 5.39417629 -2.14917407 4.35801776 -1.0625 1.75 C-0.711875 1.1725 -0.36125 0.595 0 0 Z " fill="#D0D7DF" transform="translate(122,112)"/>
<path d="M0 0 C0.99 0 1.98 0 3 0 C3 0.66 3 1.32 3 2 C2.34 2 1.68 2 1 2 C0.67 4.31 0.34 6.62 0 9 C-0.66 8.34 -1.32 7.68 -2 7 C-1.43181818 1.43181818 -1.43181818 1.43181818 0 0 Z " fill="#D5DCE4" transform="translate(85,110)"/>
<path d="M0 0 C0.99 0.33 1.98 0.66 3 1 C2.34 1.66 1.68 2.32 1 3 C0.59952556 5.32275177 0.2602896 7.65739357 0 10 C-2.14915785 6.77626323 -2.38286803 5.73296326 -2 2 C-1.34 1.34 -0.68 0.68 0 0 Z " fill="#B3BACA" transform="translate(157,105)"/>
<path d="M0 0 C0.99 0 1.98 0 3 0 C3 0.66 3 1.32 3 2 C2.0409375 2.680625 2.0409375 2.680625 1.0625 3.375 C-1.2676157 5.21084873 -1.60401298 6.12909413 -2 9 C-2.66 9 -3.32 9 -4 9 C-2.25 2.25 -2.25 2.25 0 0 Z " fill="#D7DEE6" transform="translate(82,97)"/>
<path d="M0 0 C1.98 0.495 1.98 0.495 4 1 C3.67 2.32 3.34 3.64 3 5 C1.68 5 0.36 5 -1 5 C-0.67 3.35 -0.34 1.7 0 0 Z " fill="#DEE6F6" transform="translate(143,147)"/>
<path d="M0 0 C1.98 0.495 1.98 0.495 4 1 C3 3 2 5 1 7 C0.34 7 -0.32 7 -1 7 C-0.67 4.69 -0.34 2.38 0 0 Z " fill="#EBF1FC" transform="translate(132,125)"/>
<path d="M0 0 C-5.75 5 -5.75 5 -8 5 C-7.1875 2.5625 -7.1875 2.5625 -6 0 C-3 -1 -3 -1 0 0 Z " fill="#D6DDE6" transform="translate(74,107)"/>
<path d="M0 0 C0.66 0.33 1.32 0.66 2 1 C0 7 0 7 -1 9 C-1.66 7.02 -2.32 5.04 -3 3 C-2.01 2.01 -1.02 1.02 0 0 Z " fill="#C1C8D8" transform="translate(135,63)"/>
<path d="M0 0 C1.98 0 3.96 0 6 0 C6 1.32 6 2.64 6 4 C4.35 3.67 2.7 3.34 1 3 C0.67 2.01 0.34 1.02 0 0 Z " fill="#DBE5F4" transform="translate(88,162)"/>
<path d="M0 0 C0.99 0.33 1.98 0.66 3 1 C0.03 3.475 0.03 3.475 -3 6 C-3.66 5.34 -4.32 4.68 -5 4 C-4.34 4 -3.68 4 -3 4 C-3 3.34 -3 2.68 -3 2 C-2.01 1.34 -1.02 0.68 0 0 Z " fill="#DAE3F2" transform="translate(115,156)"/>
<path d="M0 0 C2.31 0 4.62 0 7 0 C7.33 0.99 7.66 1.98 8 3 C5.03 2.67 2.06 2.34 -1 2 C-0.67 1.34 -0.34 0.68 0 0 Z " fill="#BAC1D1" transform="translate(96,155)"/>
<path d="M0 0 C-0.86625 0.3403125 -0.86625 0.3403125 -1.75 0.6875 C-4.5663661 2.33038023 -6.08077114 4.39533227 -8 7 C-8.33 5.68 -8.66 4.36 -9 3 C-5.92807025 0.26939578 -4.09590633 -0.34132553 0 0 Z " fill="#BAC1CF" transform="translate(148,144)"/>
<path d="M0 0 C1.98 0.99 3.96 1.98 6 3 C5.67 3.66 5.34 4.32 5 5 C4.34 5 3.68 5 3 5 C2.67 5.99 2.34 6.98 2 8 C1.34 5.36 0.68 2.72 0 0 Z " fill="#CADDF3" transform="translate(137,58)"/>
<path d="M0 0 C0.66 0 1.32 0 2 0 C1.67 2.97 1.34 5.94 1 9 C-1 7 -1 7 -1.1875 3.9375 C-1 1 -1 1 0 0 Z " fill="#B2BAC7" transform="translate(142,85)"/>
<path d="M0 0 C1.65 1.65 3.3 3.3 5 5 C4.01 5.495 4.01 5.495 3 6 C3 5.34 3 4.68 3 4 C2.01 4.33 1.02 4.66 0 5 C-0.5625 3.0625 -0.5625 3.0625 -1 1 C-0.67 0.67 -0.34 0.34 0 0 Z " fill="#CEDFF7" transform="translate(153,69)"/>
</svg>
