<?xml version="1.0" encoding="UTF-8"?>
<!DOCTYPE svg PUBLIC "-//W3C//DTD SVG 1.1//EN" "http://www.w3.org/Graphics/SVG/1.1/DTD/svg11.dtd">
<svg xmlns="http://www.w3.org/2000/svg" version="1.1" width="512px" height="512px" style="shape-rendering:geometricPrecision; text-rendering:geometricPrecision; image-rendering:optimizeQuality; fill-rule:evenodd; clip-rule:evenodd" xmlns:xlink="http://www.w3.org/1999/xlink">
<g><path style="opacity:0.994" fill="#d16160" d="M 423.5,70.5 C 401.689,72.473 379.689,73.973 357.5,75C 316.178,76.458 274.844,77.458 233.5,78C 230.756,78.8035 228.089,79.8035 225.5,81C 219.833,85.3333 214.167,89.6667 208.5,94C 199.654,97.6007 190.988,97.2673 182.5,93C 177.866,89.3679 173.533,85.3679 169.5,81C 163.028,77.132 156.028,75.2986 148.5,75.5C 146.265,75.7947 144.265,75.4614 142.5,74.5C 145.247,74.8134 147.914,74.48 150.5,73.5C 176.329,43.6532 206.996,20.3199 242.5,3.5C 312.121,1.14684 372.454,23.4802 423.5,70.5 Z"/></g>
<g><path style="opacity:0.985" fill="#ca4646" d="M 242.5,3.5 C 206.996,20.3199 176.329,43.6532 150.5,73.5C 147.914,74.48 145.247,74.8134 142.5,74.5C 121.719,73.6264 101.052,71.9597 80.5,69.5C 126.193,27.8075 180.193,5.80752 242.5,3.5 Z"/></g>
<g><path style="opacity:0.951" fill="#ca4545" d="M 466.5,11.5 C 474.465,10.1343 478.465,13.4677 478.5,21.5C 484.651,21.1542 488.318,23.9875 489.5,30C 488.318,36.0125 484.651,38.8458 478.5,38.5C 477.81,48.5355 472.977,51.2022 464,46.5C 463.014,44.2222 462.18,41.8889 461.5,39.5C 452.431,38.0275 449.597,33.0275 453,24.5C 455.573,22.6936 458.407,21.3603 461.5,20.5C 461.601,16.4853 463.268,13.4853 466.5,11.5 Z"/></g>
<g><path style="opacity:0.967" fill="#e3e0e4" d="M 25.5,15.5 C 33.9549,14.2878 37.9549,17.9544 37.5,26.5C 43.7552,25.2607 47.4219,27.7607 48.5,34C 47.3131,40.0184 43.6464,42.8517 37.5,42.5C 36.6225,52.6143 31.7892,55.2809 23,50.5C 21.7475,47.9865 21.2475,45.3198 21.5,42.5C 11.2573,42.183 8.25732,37.3497 12.5,28C 15.3508,26.7114 18.3508,26.2114 21.5,26.5C 20.6561,21.8619 21.9894,18.1953 25.5,15.5 Z"/></g>
<g><path style="opacity:0.995" fill="#ecc42e" d="M 80.5,69.5 C 101.052,71.9597 121.719,73.6264 142.5,74.5C 144.265,75.4614 146.265,75.7947 148.5,75.5C 131.868,96.4084 118.535,119.408 108.5,144.5C 132.491,145.5 156.491,145.833 180.5,145.5C 156.339,146.498 132.006,146.831 107.5,146.5C 79.8207,146.237 52.154,145.57 24.5,144.5C 38.5778,116.087 57.2445,91.0868 80.5,69.5 Z"/></g>
<g><path style="opacity:0.999" fill="#f2d232" d="M 423.5,70.5 C 446.705,91.5908 465.038,116.257 478.5,144.5C 432.568,151.933 386.234,154.599 339.5,152.5C 339.833,151.167 340.167,149.833 340.5,148.5C 342.795,137.905 339.128,129.738 329.5,124C 319.657,119.246 309.657,118.413 299.5,121.5C 291.268,124.064 285.601,129.398 282.5,137.5C 281.532,139.607 281.198,141.941 281.5,144.5C 247.833,144.846 214.167,145.18 180.5,145.5C 156.491,145.833 132.491,145.5 108.5,144.5C 118.535,119.408 131.868,96.4084 148.5,75.5C 156.028,75.2986 163.028,77.132 169.5,81C 173.533,85.3679 177.866,89.3679 182.5,93C 190.988,97.2673 199.654,97.6007 208.5,94C 214.167,89.6667 219.833,85.3333 225.5,81C 228.089,79.8035 230.756,78.8035 233.5,78C 274.844,77.458 316.178,76.458 357.5,75C 379.689,73.973 401.689,72.473 423.5,70.5 Z"/></g>
<g><path style="opacity:1" fill="#d16160" d="M 340.5,148.5 C 340.03,147.307 339.03,146.64 337.5,146.5C 322.358,149.349 310.192,144.682 301,132.5C 299.763,128.94 299.263,125.273 299.5,121.5C 309.657,118.413 319.657,119.246 329.5,124C 339.128,129.738 342.795,137.905 340.5,148.5 Z"/></g>
<g><path style="opacity:1" fill="#ca4646" d="M 299.5,121.5 C 299.263,125.273 299.763,128.94 301,132.5C 310.192,144.682 322.358,149.349 337.5,146.5C 339.03,146.64 340.03,147.307 340.5,148.5C 340.167,149.833 339.833,151.167 339.5,152.5C 325.931,166.853 310.264,169.353 292.5,160C 284.061,154.873 280.728,147.373 282.5,137.5C 285.601,129.398 291.268,124.064 299.5,121.5 Z"/></g>
<g><path style="opacity:0.997" fill="#df6937" d="M 24.5,144.5 C 52.154,145.57 79.8207,146.237 107.5,146.5C 99.8258,168.2 94.8258,190.533 92.5,213.5C 62.9517,209.699 33.285,207.366 3.5,206.5C 8.10527,185.017 15.1053,164.351 24.5,144.5 Z"/></g>
<g><path style="opacity:0.999" fill="#e27c48" d="M 282.5,137.5 C 280.728,147.373 284.061,154.873 292.5,160C 310.264,169.353 325.931,166.853 339.5,152.5C 386.234,154.599 432.568,151.933 478.5,144.5C 489.002,165.006 496.336,186.673 500.5,209.5C 479.672,213.365 458.672,215.865 437.5,217C 396.165,217.185 354.832,217.185 313.5,217C 273.385,220.19 233.218,222.357 193,223.5C 184.167,223.333 175.333,223.167 166.5,223C 141.757,220.657 117.091,217.824 92.5,214.5C 92.5,214.167 92.5,213.833 92.5,213.5C 94.8258,190.533 99.8258,168.2 107.5,146.5C 132.006,146.831 156.339,146.498 180.5,145.5C 214.167,145.18 247.833,144.846 281.5,144.5C 281.198,141.941 281.532,139.607 282.5,137.5 Z"/></g>
<g><path style="opacity:0.997" fill="#e3dfe3" d="M 3.5,206.5 C 33.285,207.366 62.9517,209.699 92.5,213.5C 92.5,213.833 92.5,214.167 92.5,214.5C 91.3045,226.846 91.3045,239.179 92.5,251.5C 83.5842,253.759 77.5842,259.092 74.5,267.5C 49.54,265.28 24.54,263.613 -0.5,262.5C -0.5,252.833 -0.5,243.167 -0.5,233.5C 0.814908,224.634 2.14824,215.634 3.5,206.5 Z"/></g>
<g><path style="opacity:0.999" fill="#eeeced" d="M 500.5,209.5 C 503.379,228.048 504.712,246.715 504.5,265.5C 482.292,269.068 459.958,271.568 437.5,273C 391.167,273.333 344.833,273.667 298.5,274C 275.801,275.31 253.135,276.977 230.5,279C 194.663,280.751 158.996,279.251 123.5,274.5C 122.732,261.395 115.732,254.062 102.5,252.5C 99.3752,251.521 96.0419,251.187 92.5,251.5C 91.3045,239.179 91.3045,226.846 92.5,214.5C 117.091,217.824 141.757,220.657 166.5,223C 175.333,223.167 184.167,223.333 193,223.5C 233.218,222.357 273.385,220.19 313.5,217C 354.832,217.185 396.165,217.185 437.5,217C 458.672,215.865 479.672,213.365 500.5,209.5 Z"/></g>
<g><path style="opacity:1" fill="#ebc52f" d="M 102.5,252.5 C 115.732,254.062 122.732,261.395 123.5,274.5C 122.833,276.167 122.167,277.833 121.5,279.5C 108.063,281.695 97.8968,277.029 91,265.5C 87.6569,254.68 91.4902,250.347 102.5,252.5 Z"/></g>
<g><path style="opacity:1" fill="#dbb72e" d="M 92.5,251.5 C 96.0419,251.187 99.3752,251.521 102.5,252.5C 91.4902,250.347 87.6569,254.68 91,265.5C 97.8968,277.029 108.063,281.695 121.5,279.5C 115.663,286.789 107.996,290.456 98.5,290.5C 87.5415,290.119 79.7082,285.119 75,275.5C 74.5026,272.854 74.3359,270.187 74.5,267.5C 77.5842,259.092 83.5842,253.759 92.5,251.5 Z"/></g>
<g><path style="opacity:0.997" fill="#e27c48" d="M -0.5,262.5 C 24.54,263.613 49.54,265.28 74.5,267.5C 74.3359,270.187 74.5026,272.854 75,275.5C 79.7082,285.119 87.5415,290.119 98.5,290.5C 103.755,315.6 112.755,339.266 125.5,361.5C 89.7772,359.541 54.1105,356.874 18.5,353.5C 8.68928,328.924 2.35595,303.591 -0.5,277.5C -0.5,272.5 -0.5,267.5 -0.5,262.5 Z"/></g>
<g><path style="opacity:0.999" fill="#e5936a" d="M 504.5,265.5 C 502.932,296.346 496.265,326.013 484.5,354.5C 457.849,356.617 431.183,358.617 404.5,360.5C 384.232,360.246 366.565,353.413 351.5,340C 321.639,323.009 291.972,323.343 262.5,341C 242.106,359.52 218.106,367.353 190.5,364.5C 169.164,363.872 147.83,363.206 126.5,362.5C 126.5,361.833 126.167,361.5 125.5,361.5C 112.755,339.266 103.755,315.6 98.5,290.5C 107.996,290.456 115.663,286.789 121.5,279.5C 122.167,277.833 122.833,276.167 123.5,274.5C 158.996,279.251 194.663,280.751 230.5,279C 253.135,276.977 275.801,275.31 298.5,274C 344.833,273.667 391.167,273.333 437.5,273C 459.958,271.568 482.292,269.068 504.5,265.5 Z"/></g>
<g><path style="opacity:0.999" fill="#ebc42e" d="M 484.5,354.5 C 475.26,376.005 463.26,395.671 448.5,413.5C 427.691,414.437 407.024,416.604 386.5,420C 373.557,424.468 362.224,431.468 352.5,441C 327.32,456.147 300.987,458.48 273.5,448C 265.293,443.787 257.627,438.787 250.5,433C 237.491,425.581 223.491,421.581 208.5,421C 196.838,420.5 185.171,420.333 173.5,420.5C 172.833,420.167 172.167,419.833 171.5,419.5C 153.833,402.512 138.833,383.512 126.5,362.5C 147.83,363.206 169.164,363.872 190.5,364.5C 218.106,367.353 242.106,359.52 262.5,341C 291.972,323.343 321.639,323.009 351.5,340C 366.565,353.413 384.232,360.246 404.5,360.5C 431.183,358.617 457.849,356.617 484.5,354.5 Z"/></g>
<g><path style="opacity:0.998" fill="#dbb62b" d="M 18.5,353.5 C 54.1105,356.874 89.7772,359.541 125.5,361.5C 126.167,361.5 126.5,361.833 126.5,362.5C 138.833,383.512 153.833,402.512 171.5,419.5C 132.441,418.671 93.4414,416.671 54.5,413.5C 39.7193,395.337 27.7193,375.337 18.5,353.5 Z"/></g>
<g><path style="opacity:1" fill="#e27c47" d="M 349.5,397.5 C 334.084,402.817 318.75,402.651 303.5,397C 290.106,391.129 283.439,380.962 283.5,366.5C 302.079,357.993 320.412,358.826 338.5,369C 343.475,372.97 347.309,377.803 350,383.5C 350.815,388.352 350.648,393.019 349.5,397.5 Z"/></g>
<g><path style="opacity:1" fill="#df6a37" d="M 283.5,366.5 C 283.439,380.962 290.106,391.129 303.5,397C 318.75,402.651 334.084,402.817 349.5,397.5C 344.51,408.308 336.177,415.475 324.5,419C 302.736,426.016 283.903,421.516 268,405.5C 259.893,387.333 265.06,374.333 283.5,366.5 Z"/></g>
<g><path style="opacity:0.994" fill="#e27c48" d="M 54.5,413.5 C 93.4414,416.671 132.441,418.671 171.5,419.5C 172.167,419.833 172.833,420.167 173.5,420.5C 223.78,466.049 283.114,488.382 351.5,487.5C 286.172,514.864 220.505,515.364 154.5,489C 114.704,472.282 81.3708,447.115 54.5,413.5 Z"/></g>
<g><path style="opacity:0.996" fill="#e59369" d="M 448.5,413.5 C 422.503,446.501 390.169,471.167 351.5,487.5C 283.114,488.382 223.78,466.049 173.5,420.5C 185.171,420.333 196.838,420.5 208.5,421C 223.491,421.581 237.491,425.581 250.5,433C 257.627,438.787 265.293,443.787 273.5,448C 300.987,458.48 327.32,456.147 352.5,441C 362.224,431.468 373.557,424.468 386.5,420C 407.024,416.604 427.691,414.437 448.5,413.5 Z"/></g>
<g><path style="opacity:0.955" fill="#e3e0e4" d="M 511.5,433.5 C 511.5,436.167 511.5,438.833 511.5,441.5C 508.865,444.481 505.532,445.814 501.5,445.5C 500.84,455.536 496.007,458.203 487,453.5C 485.748,450.986 485.248,448.32 485.5,445.5C 476.826,445.994 473.326,441.994 475,433.5C 477.591,429.952 481.091,428.618 485.5,429.5C 485.729,418.434 490.562,415.767 500,421.5C 501.252,424.014 501.752,426.68 501.5,429.5C 505.82,428.749 509.153,430.083 511.5,433.5 Z"/></g>
<g><path style="opacity:0.936" fill="#c94646" d="M 26.5,464.5 C 34.5,463.833 38.1667,467.5 37.5,475.5C 43.9254,474.534 47.5921,477.201 48.5,483.5C 47.5921,489.799 43.9254,492.466 37.5,491.5C 38.4658,497.925 35.7991,501.592 29.5,502.5C 23.2009,501.592 20.5342,497.925 21.5,491.5C 15.0746,492.466 11.4079,489.799 10.5,483.5C 11.4079,477.201 15.0746,474.534 21.5,475.5C 20.7753,470.623 22.4419,466.956 26.5,464.5 Z"/></g>
</svg>
