<?xml version="1.0" encoding="UTF-8"?>
<!DOCTYPE svg PUBLIC "-//W3C//DTD SVG 1.1//EN" "http://www.w3.org/Graphics/SVG/1.1/DTD/svg11.dtd">
<svg xmlns="http://www.w3.org/2000/svg" version="1.1" width="512px" height="512px" style="shape-rendering:geometricPrecision; text-rendering:geometricPrecision; image-rendering:optimizeQuality; fill-rule:evenodd; clip-rule:evenodd" xmlns:xlink="http://www.w3.org/1999/xlink">
<g><path style="opacity:0.999" fill="#fd6738" d="M 232.5,-0.5 C 233.5,-0.5 234.5,-0.5 235.5,-0.5C 239.267,0.794675 243.267,1.46134 247.5,1.5C 247.5,17.8333 247.5,34.1667 247.5,50.5C 242.316,62.4693 242.316,74.4693 247.5,86.5C 247.5,123.5 247.5,160.5 247.5,197.5C 243.5,199.833 239.5,202.167 235.5,204.5C 229.496,207.169 223.496,209.836 217.5,212.5C 217.17,142.096 217.504,71.7623 218.5,1.5C 223.353,1.18729 228.02,0.520623 232.5,-0.5 Z"/></g>
<g><path style="opacity:0.999" fill="#fd6d38" d="M 218.5,1.5 C 217.504,71.7623 217.17,142.096 217.5,212.5C 210.761,215.516 204.094,218.516 197.5,221.5C 195.297,221.604 193.297,222.27 191.5,223.5C 191.5,151.5 191.5,79.5 191.5,7.5C 200.219,4.76283 209.219,2.76283 218.5,1.5 Z"/></g>
<g><path style="opacity:1" fill="#fb4030" d="M 235.5,-0.5 C 249.833,-0.5 264.167,-0.5 278.5,-0.5C 292.385,0.981176 306.052,3.64784 319.5,7.5C 318.167,7.5 316.833,7.5 315.5,7.5C 315.5,11.5 315.5,15.5 315.5,19.5C 309.845,17.5037 304.178,15.5037 298.5,13.5C 281.98,7.4626 264.98,3.4626 247.5,1.5C 243.267,1.46134 239.267,0.794675 235.5,-0.5 Z"/></g>
<g><path style="opacity:1" fill="#fc5c38" d="M 247.5,1.5 C 264.98,3.4626 281.98,7.4626 298.5,13.5C 298.5,19.8333 298.5,26.1667 298.5,32.5C 291.319,29.7259 283.985,29.0593 276.5,30.5C 270.205,30.9789 264.539,33.1456 259.5,37C 254.892,41.0995 250.892,45.5995 247.5,50.5C 247.5,34.1667 247.5,17.8333 247.5,1.5 Z"/></g>
<g><path style="opacity:0.999" fill="#fd7338" d="M 191.5,7.5 C 191.5,79.5 191.5,151.5 191.5,223.5C 174.773,231.304 170.939,243.304 180,259.5C 183.426,262.793 187.259,265.459 191.5,267.5C 191.823,291.241 191.489,314.908 190.5,338.5C 182.52,340.495 174.52,342.495 166.5,344.5C 166.832,303.33 166.499,262.33 165.5,221.5C 178.833,200.833 178.833,180.167 165.5,159.5C 166.499,111.336 166.832,63.0029 166.5,14.5C 174.666,11.5555 183,9.22212 191.5,7.5 Z"/></g>
<g><path style="opacity:1" fill="#fb5438" d="M 298.5,13.5 C 304.178,15.5037 309.845,17.5037 315.5,19.5C 318.304,21.4046 321.304,23.0713 324.5,24.5C 324.5,66.5 324.5,108.5 324.5,150.5C 321.81,153.185 318.81,155.518 315.5,157.5C 310.103,161.561 304.436,165.227 298.5,168.5C 298.5,147.167 298.5,125.833 298.5,104.5C 318.261,93.2935 325.094,76.6268 319,54.5C 314.651,44.9857 307.818,37.9857 298.5,33.5C 298.5,33.1667 298.5,32.8333 298.5,32.5C 298.5,26.1667 298.5,19.8333 298.5,13.5 Z"/></g>
<g><path style="opacity:0.997" fill="#fd7938" d="M 166.5,14.5 C 166.832,63.0029 166.499,111.336 165.5,159.5C 162.842,156.197 160.175,152.864 157.5,149.5C 164.495,138.423 164.162,127.756 156.5,117.5C 152.893,112.9 148.226,109.9 142.5,108.5C 142.158,107.662 141.492,107.328 140.5,107.5C 140.5,80.5 140.5,53.5 140.5,26.5C 148.863,21.9874 157.529,17.9874 166.5,14.5 Z"/></g>
<g><path style="opacity:0.998" fill="#d9ecfe" d="M 447.5,18.5 C 447.5,28.8333 447.5,39.1667 447.5,49.5C 437.719,40.7112 427.386,32.7112 416.5,25.5C 425.984,19.5465 436.317,17.2131 447.5,18.5 Z"/></g>
<g><path style="opacity:0.986" fill="#cce6fe" d="M 447.5,18.5 C 453.445,18.7365 459.112,20.0699 464.5,22.5C 463.684,36.7588 463.184,51.0922 463,65.5C 459.964,62.2956 456.797,59.2956 453.5,56.5C 451.5,54.1667 449.5,51.8333 447.5,49.5C 447.5,39.1667 447.5,28.8333 447.5,18.5 Z"/></g>
<g><path style="opacity:1" fill="#fa2c39" d="M 319.5,7.5 C 338.187,11.6861 355.854,18.3527 372.5,27.5C 371.167,51.1573 370.5,75.1573 370.5,99.5C 370.5,123.669 370.833,147.669 371.5,171.5C 360.808,180.186 349.808,188.519 338.5,196.5C 337.503,178.341 337.17,160.008 337.5,141.5C 366.597,107.705 367.763,73.0383 341,37.5C 335.912,32.5712 330.412,28.2379 324.5,24.5C 321.304,23.0713 318.304,21.4046 315.5,19.5C 315.5,15.5 315.5,11.5 315.5,7.5C 316.833,7.5 318.167,7.5 319.5,7.5 Z"/></g>
<g><path style="opacity:1" fill="#fb4d38" d="M 324.5,24.5 C 330.412,28.2379 335.912,32.5712 341,37.5C 367.763,73.0383 366.597,107.705 337.5,141.5C 333.37,144.737 329.037,147.737 324.5,150.5C 324.5,108.5 324.5,66.5 324.5,24.5 Z"/></g>
<g><path style="opacity:0.996" fill="#fd8037" d="M 140.5,26.5 C 140.5,53.5 140.5,80.5 140.5,107.5C 132.257,106.47 125.257,108.803 119.5,114.5C 115.029,117.463 112.029,121.463 110.5,126.5C 110.5,99.1667 110.5,71.8333 110.5,44.5C 119.709,37.3147 129.709,31.3147 140.5,26.5 Z"/></g>
<g><path style="opacity:1" fill="#fc412e" d="M 298.5,32.5 C 298.5,32.8333 298.5,33.1667 298.5,33.5C 296.51,56.8098 295.843,80.4764 296.5,104.5C 294.189,106.068 291.522,106.902 288.5,107C 284.311,107.812 280.311,107.645 276.5,106.5C 276.5,81.1667 276.5,55.8333 276.5,30.5C 283.985,29.0593 291.319,29.7259 298.5,32.5 Z"/></g>
<g><path style="opacity:1" fill="#f72840" d="M 372.5,27.5 C 381.666,31.6734 390.333,36.6734 398.5,42.5C 398.168,77.0041 398.502,111.337 399.5,145.5C 392.806,152.86 385.806,159.86 378.5,166.5C 376.02,167.912 373.687,169.578 371.5,171.5C 370.833,147.669 370.5,123.669 370.5,99.5C 370.5,75.1573 371.167,51.1573 372.5,27.5 Z"/></g>
<g><path style="opacity:1" fill="#fc492a" d="M 276.5,30.5 C 276.5,55.8333 276.5,81.1667 276.5,106.5C 263.537,104.525 253.87,97.8585 247.5,86.5C 242.316,74.4693 242.316,62.4693 247.5,50.5C 250.892,45.5995 254.892,41.0995 259.5,37C 264.539,33.1456 270.205,30.9789 276.5,30.5 Z"/></g>
<g><path style="opacity:1" fill="#fb3a31" d="M 298.5,33.5 C 307.818,37.9857 314.651,44.9857 319,54.5C 325.094,76.6268 318.261,93.2935 298.5,104.5C 297.833,104.5 297.167,104.5 296.5,104.5C 295.843,80.4764 296.51,56.8098 298.5,33.5 Z"/></g>
<g><path style="opacity:1" fill="#bddefd" d="M 416.5,25.5 C 427.386,32.7112 437.719,40.7112 447.5,49.5C 449.5,51.8333 451.5,54.1667 453.5,56.5C 452.505,67.988 452.172,79.6547 452.5,91.5C 451.061,89.6397 449.395,87.973 447.5,86.5C 439.833,76.8333 431.167,68.1667 421.5,60.5C 414.127,54.4894 406.794,48.4894 399.5,42.5C 403.5,35.1667 409.167,29.5 416.5,25.5 Z"/></g>
<g><path style="opacity:0.996" fill="#fd8637" d="M 110.5,44.5 C 110.5,71.8333 110.5,99.1667 110.5,126.5C 110.5,130.167 110.5,133.833 110.5,137.5C 106.168,137.279 102.168,138.279 98.5,140.5C 94.0074,142.579 89.674,144.912 85.5,147.5C 85.5,119.5 85.5,91.5 85.5,63.5C 92.9758,56.0223 101.309,49.689 110.5,44.5 Z"/></g>
<g><path style="opacity:1" fill="#f42547" d="M 398.5,42.5 C 398.833,42.5 399.167,42.5 399.5,42.5C 406.794,48.4894 414.127,54.4894 421.5,60.5C 421.5,85.5 421.5,110.5 421.5,135.5C 423.099,135.232 424.432,135.566 425.5,136.5C 415.247,135.139 406.58,138.139 399.5,145.5C 398.502,111.337 398.168,77.0041 398.5,42.5 Z"/></g>
<g><path style="opacity:0.999" fill="#b5dafd" d="M 464.5,22.5 C 487.643,35.4617 496.81,55.1284 492,81.5C 488.111,94.8804 480.278,105.214 468.5,112.5C 463.198,105.524 457.864,98.5239 452.5,91.5C 452.172,79.6547 452.505,67.988 453.5,56.5C 456.797,59.2956 459.964,62.2956 463,65.5C 463.184,51.0922 463.684,36.7588 464.5,22.5 Z"/></g>
<g><path style="opacity:1" fill="#f1234e" d="M 421.5,60.5 C 431.167,68.1667 439.833,76.8333 447.5,86.5C 447.5,107.167 447.5,127.833 447.5,148.5C 441.969,141.397 434.635,137.397 425.5,136.5C 424.432,135.566 423.099,135.232 421.5,135.5C 421.5,110.5 421.5,85.5 421.5,60.5 Z"/></g>
<g><path style="opacity:0.998" fill="#fe8c37" d="M 85.5,63.5 C 85.5,91.5 85.5,119.5 85.5,147.5C 62.4896,170.27 59.3229,195.603 76,223.5C 79.3709,226.703 82.5375,230.036 85.5,233.5C 85.5,253.167 85.5,272.833 85.5,292.5C 76.4974,289.381 67.8307,290.048 59.5,294.5C 59.5,226.5 59.5,158.5 59.5,90.5C 67.4662,80.8663 76.1329,71.8663 85.5,63.5 Z"/></g>
<g><path style="opacity:1" fill="#fc5e38" d="M 247.5,86.5 C 253.87,97.8585 263.537,104.525 276.5,106.5C 280.311,107.645 284.311,107.812 288.5,107C 291.522,106.902 294.189,106.068 296.5,104.5C 297.167,104.5 297.833,104.5 298.5,104.5C 298.5,125.833 298.5,147.167 298.5,168.5C 291.457,173.527 284.124,178.194 276.5,182.5C 269.968,185.929 263.634,189.596 257.5,193.5C 254.167,194.833 250.833,196.167 247.5,197.5C 247.5,160.5 247.5,123.5 247.5,86.5 Z"/></g>
<g><path style="opacity:1" fill="#ee2054" d="M 447.5,86.5 C 449.395,87.973 451.061,89.6397 452.5,91.5C 457.864,98.5239 463.198,105.524 468.5,112.5C 470.098,114.698 471.431,117.031 472.5,119.5C 471.883,119.389 471.383,119.056 471,118.5C 470.833,204.668 470.333,290.668 469.5,376.5C 461.078,373.561 452.411,371.894 443.5,371.5C 452.929,354.045 459.263,335.545 462.5,316C 461.833,304.163 456.833,294.663 447.5,287.5C 447.5,253.5 447.5,219.5 447.5,185.5C 455.446,173.1 455.446,160.767 447.5,148.5C 447.5,127.833 447.5,107.167 447.5,86.5 Z"/></g>
<g><path style="opacity:0.998" fill="#fe9237" d="M 59.5,90.5 C 59.5,158.5 59.5,226.5 59.5,294.5C 48.2832,303.586 45.4499,314.92 51,328.5C 59.2413,341.748 70.7413,345.748 85.5,340.5C 85.5,344.833 85.5,349.167 85.5,353.5C 84.5,353.5 83.5,353.5 82.5,353.5C 70.0241,353.232 57.6907,351.732 45.5,349C 41.1402,348.162 37.1402,346.662 33.5,344.5C 34.4992,271.669 34.8326,198.669 34.5,125.5C 41.6186,112.915 49.952,101.248 59.5,90.5 Z"/></g>
<g><path style="opacity:1" fill="#fd7314" d="M 140.5,107.5 C 141.492,107.328 142.158,107.662 142.5,108.5C 140.5,108.5 138.5,108.5 136.5,108.5C 136.5,153.167 136.5,197.833 136.5,242.5C 131.127,244.452 125.46,245.452 119.5,245.5C 119.5,201.833 119.5,158.167 119.5,114.5C 125.257,108.803 132.257,106.47 140.5,107.5 Z"/></g>
<g><path style="opacity:1" fill="#fd6d16" d="M 142.5,108.5 C 148.226,109.9 152.893,112.9 156.5,117.5C 155.167,155.5 155.167,193.5 156.5,231.5C 151.311,235.926 145.644,239.593 139.5,242.5C 138.5,242.5 137.5,242.5 136.5,242.5C 136.5,197.833 136.5,153.167 136.5,108.5C 138.5,108.5 140.5,108.5 142.5,108.5 Z"/></g>
<g><path style="opacity:1" fill="#fd7911" d="M 119.5,114.5 C 119.5,158.167 119.5,201.833 119.5,245.5C 116.098,245.658 112.764,245.324 109.5,244.5C 105.463,243.935 101.797,242.601 98.5,240.5C 98.5,207.167 98.5,173.833 98.5,140.5C 102.168,138.279 106.168,137.279 110.5,137.5C 110.5,133.833 110.5,130.167 110.5,126.5C 112.029,121.463 115.029,117.463 119.5,114.5 Z"/></g>
<g><path style="opacity:1" fill="#fd681a" d="M 156.5,117.5 C 164.162,127.756 164.495,138.423 157.5,149.5C 160.175,152.864 162.842,156.197 165.5,159.5C 178.833,180.167 178.833,200.833 165.5,221.5C 163.212,225.456 160.212,228.789 156.5,231.5C 155.167,193.5 155.167,155.5 156.5,117.5 Z"/></g>
<g><path style="opacity:1" fill="#eb1d5a" d="M 472.5,119.5 C 481.928,133.023 489.262,147.69 494.5,163.5C 493.167,224.833 493.167,286.167 494.5,347.5C 490.588,359.323 485.588,370.656 479.5,381.5C 475.849,380.341 472.515,378.674 469.5,376.5C 470.333,290.668 470.833,204.668 471,118.5C 471.383,119.056 471.883,119.389 472.5,119.5 Z"/></g>
<g><path style="opacity:1" fill="#fb3b3a" d="M 425.5,136.5 C 434.635,137.397 441.969,141.397 447.5,148.5C 455.446,160.767 455.446,173.1 447.5,185.5C 442.971,191.182 437.971,196.516 432.5,201.5C 429.769,197.766 426.436,194.766 422.5,192.5C 415.55,186.965 407.55,184.632 398.5,185.5C 395.813,185.336 393.146,185.503 390.5,186C 386.812,187.513 383.145,189.013 379.5,190.5C 379.826,182.316 379.492,174.316 378.5,166.5C 385.806,159.86 392.806,152.86 399.5,145.5C 406.58,138.139 415.247,135.139 425.5,136.5 Z"/></g>
<g><path style="opacity:1" fill="#fb3534" d="M 337.5,141.5 C 337.17,160.008 337.503,178.341 338.5,196.5C 333.167,200.167 327.833,203.833 322.5,207.5C 320.483,208.529 318.483,209.529 316.5,210.5C 315.503,193.008 315.17,175.341 315.5,157.5C 318.81,155.518 321.81,153.185 324.5,150.5C 329.037,147.737 333.37,144.737 337.5,141.5 Z"/></g>
<g><path style="opacity:0.979" fill="#fe9738" d="M 34.5,125.5 C 34.8326,198.669 34.4992,271.669 33.5,344.5C 25.0882,341.795 17.4215,337.795 10.5,332.5C 5.27233,314.693 1.60567,296.693 -0.5,278.5C -0.5,263.167 -0.5,247.833 -0.5,232.5C 3.35131,194.279 15.018,158.613 34.5,125.5 Z"/></g>
<g><path style="opacity:1" fill="#fe810c" d="M 98.5,140.5 C 98.5,173.833 98.5,207.167 98.5,240.5C 93.7156,238.942 89.3822,236.609 85.5,233.5C 82.5375,230.036 79.3709,226.703 76,223.5C 59.3229,195.603 62.4896,170.27 85.5,147.5C 89.674,144.912 94.0074,142.579 98.5,140.5 Z"/></g>
<g><path style="opacity:1" fill="#e91b5e" d="M 494.5,163.5 C 503.467,185.702 509.134,208.702 511.5,232.5C 511.5,247.833 511.5,263.167 511.5,278.5C 509.134,302.298 503.467,325.298 494.5,347.5C 493.167,286.167 493.167,224.833 494.5,163.5 Z"/></g>
<g><path style="opacity:1" fill="#fb3f2f" d="M 315.5,157.5 C 315.17,175.341 315.503,193.008 316.5,210.5C 310.5,214.5 304.5,218.5 298.5,222.5C 291.167,226.167 283.833,229.833 276.5,233.5C 276.5,216.5 276.5,199.5 276.5,182.5C 284.124,178.194 291.457,173.527 298.5,168.5C 304.436,165.227 310.103,161.561 315.5,157.5 Z"/></g>
<g><path style="opacity:1" fill="#f72741" d="M 398.5,185.5 C 398.168,220.337 398.502,255.004 399.5,289.5C 392.126,294.86 384.459,299.86 376.5,304.5C 375.502,268.004 375.168,231.337 375.5,194.5C 376.527,192.806 377.861,191.473 379.5,190.5C 383.145,189.013 386.812,187.513 390.5,186C 393.146,185.503 395.813,185.336 398.5,185.5 Z"/></g>
<g><path style="opacity:1" fill="#fc472a" d="M 276.5,182.5 C 276.5,199.5 276.5,216.5 276.5,233.5C 275.167,234.5 273.833,235.5 272.5,236.5C 268.313,238.76 263.979,240.76 259.5,242.5C 257.515,226.534 256.848,210.201 257.5,193.5C 263.634,189.596 269.968,185.929 276.5,182.5 Z"/></g>
<g><path style="opacity:1" fill="#fb4c39" d="M 378.5,166.5 C 379.492,174.316 379.826,182.316 379.5,190.5C 377.861,191.473 376.527,192.806 375.5,194.5C 368.507,199.801 364.007,206.801 362,215.5C 361.667,222.167 361.333,228.833 361,235.5C 359.493,240.864 357.993,246.197 356.5,251.5C 351.659,260.675 345.326,268.675 337.5,275.5C 333.334,278.417 329.001,281.084 324.5,283.5C 325.157,257.811 324.491,232.478 322.5,207.5C 327.833,203.833 333.167,200.167 338.5,196.5C 349.808,188.519 360.808,180.186 371.5,171.5C 373.687,169.578 376.02,167.912 378.5,166.5 Z"/></g>
<g><path style="opacity:1" fill="#f42547" d="M 398.5,185.5 C 407.55,184.632 415.55,186.965 422.5,192.5C 421.502,221.329 421.169,250.329 421.5,279.5C 424.713,279.19 427.713,279.523 430.5,280.5C 420.893,279.031 412.226,281.031 404.5,286.5C 402.668,287.248 401.001,288.248 399.5,289.5C 398.502,255.004 398.168,220.337 398.5,185.5 Z"/></g>
<g><path style="opacity:1" fill="#f1224e" d="M 447.5,185.5 C 447.5,219.5 447.5,253.5 447.5,287.5C 442.412,283.79 436.746,281.457 430.5,280.5C 427.713,279.523 424.713,279.19 421.5,279.5C 421.169,250.329 421.502,221.329 422.5,192.5C 426.436,194.766 429.769,197.766 432.5,201.5C 437.971,196.516 442.971,191.182 447.5,185.5 Z"/></g>
<g><path style="opacity:1" fill="#fc4e27" d="M 257.5,193.5 C 256.848,210.201 257.515,226.534 259.5,242.5C 255.039,244.564 250.706,246.898 246.5,249.5C 242.725,250.555 239.058,251.888 235.5,253.5C 235.5,237.167 235.5,220.833 235.5,204.5C 239.5,202.167 243.5,199.833 247.5,197.5C 250.833,196.167 254.167,194.833 257.5,193.5 Z"/></g>
<g><path style="opacity:1" fill="#fa2a3c" d="M 375.5,194.5 C 375.168,231.337 375.502,268.004 376.5,304.5C 370.505,309.503 363.838,313.503 356.5,316.5C 356.5,294.833 356.5,273.167 356.5,251.5C 357.993,246.197 359.493,240.864 361,235.5C 361.333,228.833 361.667,222.167 362,215.5C 364.007,206.801 368.507,199.801 375.5,194.5 Z"/></g>
<g><path style="opacity:1" fill="#fc5623" d="M 235.5,204.5 C 235.5,220.833 235.5,237.167 235.5,253.5C 229.252,256.693 222.919,259.693 216.5,262.5C 212.089,263.693 207.756,265.193 203.5,267C 201.527,267.495 199.527,267.662 197.5,267.5C 197.5,252.167 197.5,236.833 197.5,221.5C 204.094,218.516 210.761,215.516 217.5,212.5C 223.496,209.836 229.496,207.169 235.5,204.5 Z"/></g>
<g><path style="opacity:1" fill="#fb5438" d="M 322.5,207.5 C 324.491,232.478 325.157,257.811 324.5,283.5C 316.807,286.588 310.307,291.255 305,297.5C 298.66,310.14 301.16,320.64 312.5,329C 314.65,330.411 316.984,331.245 319.5,331.5C 320.919,332.451 322.585,332.784 324.5,332.5C 324.5,341.167 324.5,349.833 324.5,358.5C 321.615,358.194 318.948,358.527 316.5,359.5C 308.813,361.008 302.813,365.008 298.5,371.5C 298.5,321.833 298.5,272.167 298.5,222.5C 304.5,218.5 310.5,214.5 316.5,210.5C 318.483,209.529 320.483,208.529 322.5,207.5 Z"/></g>
<g><path style="opacity:1" fill="#fd601e" d="M 197.5,221.5 C 197.5,236.833 197.5,252.167 197.5,267.5C 195.5,267.5 193.5,267.5 191.5,267.5C 187.259,265.459 183.426,262.793 180,259.5C 170.939,243.304 174.773,231.304 191.5,223.5C 193.297,222.27 195.297,221.604 197.5,221.5 Z"/></g>
<g><path style="opacity:1" fill="#fd7938" d="M 165.5,221.5 C 166.499,262.33 166.832,303.33 166.5,344.5C 163.061,344.788 159.728,345.454 156.5,346.5C 151.111,347.245 145.778,348.245 140.5,349.5C 140.832,313.663 140.498,277.996 139.5,242.5C 145.644,239.593 151.311,235.926 156.5,231.5C 160.212,228.789 163.212,225.456 165.5,221.5 Z"/></g>
<g><path style="opacity:1" fill="#fc5a38" d="M 298.5,222.5 C 298.5,272.167 298.5,321.833 298.5,371.5C 294.553,380.515 294.553,389.515 298.5,398.5C 298.5,431.5 298.5,464.5 298.5,497.5C 297.508,497.328 296.842,497.662 296.5,498.5C 280.537,503.826 264.203,507.493 247.5,509.5C 247.5,502.833 247.5,496.167 247.5,489.5C 244.287,489.81 241.287,489.477 238.5,488.5C 242.846,488.666 247.179,488.499 251.5,488C 254.104,487.61 256.438,486.776 258.5,485.5C 276.716,477.058 284.549,462.724 282,442.5C 280.407,435.313 277.24,428.98 272.5,423.5C 273.833,361.167 273.833,298.833 272.5,236.5C 273.833,235.5 275.167,234.5 276.5,233.5C 283.833,229.833 291.167,226.167 298.5,222.5 Z"/></g>
<g><path style="opacity:1" fill="#fd8637" d="M 85.5,233.5 C 89.3822,236.609 93.7156,238.942 98.5,240.5C 101.797,242.601 105.463,243.935 109.5,244.5C 110.493,280.427 110.826,316.427 110.5,352.5C 102.178,353.055 93.8442,353.388 85.5,353.5C 85.5,349.167 85.5,344.833 85.5,340.5C 100.588,331.307 104.421,318.64 97,302.5C 94.0574,298.117 90.2241,294.783 85.5,292.5C 85.5,272.833 85.5,253.167 85.5,233.5 Z"/></g>
<g><path style="opacity:1" fill="#fc6038" d="M 272.5,236.5 C 273.833,298.833 273.833,361.167 272.5,423.5C 268.241,419.236 263.241,416.236 257.5,414.5C 255.981,413.59 254.315,412.757 252.5,412C 248.179,411.501 243.846,411.334 239.5,411.5C 241.948,410.527 244.615,410.194 247.5,410.5C 247.829,396.323 247.496,382.323 246.5,368.5C 260.82,360.836 264.653,349.502 258,334.5C 254.817,330.462 250.984,327.462 246.5,325.5C 247.833,300.167 247.833,274.833 246.5,249.5C 250.706,246.898 255.039,244.564 259.5,242.5C 263.979,240.76 268.313,238.76 272.5,236.5 Z"/></g>
<g><path style="opacity:1" fill="#fd8037" d="M 136.5,242.5 C 137.5,242.5 138.5,242.5 139.5,242.5C 140.498,277.996 140.832,313.663 140.5,349.5C 132.317,350.148 124.317,351.148 116.5,352.5C 114.5,352.5 112.5,352.5 110.5,352.5C 110.826,316.427 110.493,280.427 109.5,244.5C 112.764,245.324 116.098,245.658 119.5,245.5C 125.46,245.452 131.127,244.452 136.5,242.5 Z"/></g>
<g><path style="opacity:1" fill="#fc6638" d="M 246.5,249.5 C 247.833,274.833 247.833,300.167 246.5,325.5C 242.901,324.656 239.234,324.323 235.5,324.5C 229.421,326.304 223.421,328.304 217.5,330.5C 217.831,307.661 217.497,284.994 216.5,262.5C 222.919,259.693 229.252,256.693 235.5,253.5C 239.058,251.888 242.725,250.555 246.5,249.5 Z"/></g>
<g><path style="opacity:1" fill="#fd6d38" d="M 216.5,262.5 C 217.497,284.994 217.831,307.661 217.5,330.5C 210.833,332.5 204.167,334.5 197.5,336.5C 195.167,337.167 192.833,337.833 190.5,338.5C 191.489,314.908 191.823,291.241 191.5,267.5C 193.5,267.5 195.5,267.5 197.5,267.5C 199.527,267.662 201.527,267.495 203.5,267C 207.756,265.193 212.089,263.693 216.5,262.5 Z"/></g>
<g><path style="opacity:1" fill="#fb2e37" d="M 356.5,251.5 C 356.5,273.167 356.5,294.833 356.5,316.5C 355.694,317.728 354.694,318.728 353.5,319.5C 348.86,321.82 344.193,324.153 339.5,326.5C 337.514,309.866 336.848,292.866 337.5,275.5C 345.326,268.675 351.659,260.675 356.5,251.5 Z"/></g>
<g><path style="opacity:1" fill="#fb3634" d="M 337.5,275.5 C 336.848,292.866 337.514,309.866 339.5,326.5C 333.633,330.898 326.966,332.565 319.5,331.5C 316.984,331.245 314.65,330.411 312.5,329C 301.16,320.64 298.66,310.14 305,297.5C 310.307,291.255 316.807,286.588 324.5,283.5C 329.001,281.084 333.334,278.417 337.5,275.5 Z"/></g>
<g><path style="opacity:1" fill="#fb373a" d="M 430.5,280.5 C 436.746,281.457 442.412,283.79 447.5,287.5C 456.833,294.663 461.833,304.163 462.5,316C 459.263,335.545 452.929,354.045 443.5,371.5C 442.833,371.5 442.167,371.5 441.5,371.5C 435.066,371.327 428.733,371.994 422.5,373.5C 416.929,372.103 411.262,371.436 405.5,371.5C 405.831,342.995 405.498,314.662 404.5,286.5C 412.226,281.031 420.893,279.031 430.5,280.5 Z"/></g>
<g><path style="opacity:1" fill="#fb4339" d="M 404.5,286.5 C 405.498,314.662 405.831,342.995 405.5,371.5C 394.877,371.323 384.877,373.656 375.5,378.5C 368.239,381.958 361.906,386.625 356.5,392.5C 355.833,392.833 355.167,393.167 354.5,393.5C 354.831,368.661 354.498,343.994 353.5,319.5C 354.694,318.728 355.694,317.728 356.5,316.5C 363.838,313.503 370.505,309.503 376.5,304.5C 384.459,299.86 392.126,294.86 399.5,289.5C 401.001,288.248 402.668,287.248 404.5,286.5 Z"/></g>
<g><path style="opacity:1" fill="#fe830c" d="M 85.5,292.5 C 90.2241,294.783 94.0574,298.117 97,302.5C 104.421,318.64 100.588,331.307 85.5,340.5C 70.7413,345.748 59.2413,341.748 51,328.5C 45.4499,314.92 48.2832,303.586 59.5,294.5C 67.8307,290.048 76.4974,289.381 85.5,292.5 Z"/></g>
<g><path style="opacity:1" fill="#fb4d38" d="M 353.5,319.5 C 354.498,343.994 354.831,368.661 354.5,393.5C 334.263,418.421 330.929,445.588 344.5,475C 338.682,480.083 332.015,483.916 324.5,486.5C 324.5,461.5 324.5,436.5 324.5,411.5C 321.941,411.802 319.607,411.468 317.5,410.5C 335.623,411.543 345.623,403.043 347.5,385C 345.496,366.504 335.163,358.004 316.5,359.5C 318.948,358.527 321.615,358.194 324.5,358.5C 324.5,349.833 324.5,341.167 324.5,332.5C 322.585,332.784 320.919,332.451 319.5,331.5C 326.966,332.565 333.633,330.898 339.5,326.5C 344.193,324.153 348.86,321.82 353.5,319.5 Z"/></g>
<g><path style="opacity:1" fill="#fc4e27" d="M 235.5,324.5 C 239.234,324.323 242.901,324.656 246.5,325.5C 250.984,327.462 254.817,330.462 258,334.5C 264.653,349.502 260.82,360.836 246.5,368.5C 242.89,369.703 239.223,370.703 235.5,371.5C 235.5,355.833 235.5,340.167 235.5,324.5 Z"/></g>
<g><path style="opacity:1" fill="#fc5822" d="M 235.5,324.5 C 235.5,340.167 235.5,355.833 235.5,371.5C 223.537,376.152 211.204,379.818 198.5,382.5C 197.504,367.342 197.17,352.009 197.5,336.5C 204.167,334.5 210.833,332.5 217.5,330.5C 223.421,328.304 229.421,326.304 235.5,324.5 Z"/></g>
<g><path style="opacity:1" fill="#fe850b" d="M 10.5,332.5 C 17.4215,337.795 25.0882,341.795 33.5,344.5C 37.1402,346.662 41.1402,348.162 45.5,349C 57.6907,351.732 70.0241,353.232 82.5,353.5C 82.5,368.5 82.5,383.5 82.5,398.5C 82.1667,398.5 81.8333,398.5 81.5,398.5C 67.6794,398.631 54.0127,397.298 40.5,394.5C 27.3292,375.489 17.3292,354.822 10.5,332.5 Z"/></g>
<g><path style="opacity:1" fill="#fd651b" d="M 197.5,336.5 C 197.17,352.009 197.504,367.342 198.5,382.5C 195.833,383.5 193.167,384.5 190.5,385.5C 181.372,387.405 172.372,389.405 163.5,391.5C 160.833,391.833 158.167,392.167 155.5,392.5C 155.183,377.089 155.517,361.755 156.5,346.5C 159.728,345.454 163.061,344.788 166.5,344.5C 174.52,342.495 182.52,340.495 190.5,338.5C 192.833,337.833 195.167,337.167 197.5,336.5 Z"/></g>
<g><path style="opacity:1" fill="#fd7115" d="M 156.5,346.5 C 155.517,361.755 155.183,377.089 155.5,392.5C 150.316,393.193 145.316,394.193 140.5,395.5C 132.833,396.167 125.167,396.833 117.5,397.5C 117.829,382.324 117.496,367.324 116.5,352.5C 124.317,351.148 132.317,350.148 140.5,349.5C 145.778,348.245 151.111,347.245 156.5,346.5 Z"/></g>
<g><path style="opacity:1" fill="#fd7d0f" d="M 110.5,352.5 C 112.5,352.5 114.5,352.5 116.5,352.5C 117.496,367.324 117.829,382.324 117.5,397.5C 115.236,398.219 112.903,398.552 110.5,398.5C 101.167,398.5 91.8333,398.5 82.5,398.5C 82.5,383.5 82.5,368.5 82.5,353.5C 83.5,353.5 84.5,353.5 85.5,353.5C 93.8442,353.388 102.178,353.055 110.5,352.5 Z"/></g>
<g><path style="opacity:1" fill="#fb3634" d="M 316.5,359.5 C 335.163,358.004 345.496,366.504 347.5,385C 345.623,403.043 335.623,411.543 317.5,410.5C 309.447,409.303 303.114,405.303 298.5,398.5C 294.553,389.515 294.553,380.515 298.5,371.5C 302.813,365.008 308.813,361.008 316.5,359.5 Z"/></g>
<g><path style="opacity:1" fill="#fd6838" d="M 246.5,368.5 C 247.496,382.323 247.829,396.323 247.5,410.5C 244.615,410.194 241.948,410.527 239.5,411.5C 239.167,411.5 238.833,411.5 238.5,411.5C 230.815,412.344 224.148,415.344 218.5,420.5C 215.776,418.283 213.109,415.783 210.5,413C 206.797,410.646 202.797,409.146 198.5,408.5C 196.393,407.532 194.059,407.198 191.5,407.5C 191.825,399.981 191.492,392.648 190.5,385.5C 193.167,384.5 195.833,383.5 198.5,382.5C 211.204,379.818 223.537,376.152 235.5,371.5C 239.223,370.703 242.89,369.703 246.5,368.5 Z"/></g>
<g><path style="opacity:1" fill="#f72b44" d="M 405.5,371.5 C 411.262,371.436 416.929,372.103 422.5,373.5C 418.221,374.973 414.221,376.973 410.5,379.5C 394.354,387.645 382.687,399.978 375.5,416.5C 375.5,403.833 375.5,391.167 375.5,378.5C 384.877,373.656 394.877,371.323 405.5,371.5 Z"/></g>
<g><path style="opacity:0.998" fill="#daedfd" d="M 441.5,371.5 C 440.699,373.042 440.366,374.708 440.5,376.5C 448.605,378.715 455.605,382.715 461.5,388.5C 461.82,391.898 461.487,395.232 460.5,398.5C 447.636,392.433 439.636,396.266 436.5,410C 437.218,419.05 442.051,424.217 451,425.5C 454.551,424.639 458.051,423.639 461.5,422.5C 461.5,433.167 461.5,443.833 461.5,454.5C 458.287,454.19 455.287,454.523 452.5,455.5C 438.353,459.434 432.52,468.767 435,483.5C 436.37,487.245 438.037,490.912 440,494.5C 441.685,503.504 438.185,508.838 429.5,510.5C 422.573,510.079 416.24,508.079 410.5,504.5C 410.5,487.833 410.5,471.167 410.5,454.5C 394.326,454.492 388.826,446.826 394,431.5C 398.292,426.274 403.792,424.274 410.5,425.5C 410.5,410.167 410.5,394.833 410.5,379.5C 414.221,376.973 418.221,374.973 422.5,373.5C 428.733,371.994 435.066,371.327 441.5,371.5 Z"/></g>
<g><path style="opacity:0.996" fill="#b5dafd" d="M 441.5,371.5 C 442.167,371.5 442.833,371.5 443.5,371.5C 452.411,371.894 461.078,373.561 469.5,376.5C 472.515,378.674 475.849,380.341 479.5,381.5C 496.675,393.19 507.342,409.19 511.5,429.5C 511.5,437.5 511.5,445.5 511.5,453.5C 503.833,484.5 484.5,503.833 453.5,511.5C 445.5,511.5 437.5,511.5 429.5,511.5C 429.5,511.167 429.5,510.833 429.5,510.5C 438.185,508.838 441.685,503.504 440,494.5C 438.037,490.912 436.37,487.245 435,483.5C 432.52,468.767 438.353,459.434 452.5,455.5C 465.509,454.023 474.342,459.356 479,471.5C 490.297,447.298 488.631,423.965 474,401.5C 470.33,396.664 466.164,392.331 461.5,388.5C 455.605,382.715 448.605,378.715 440.5,376.5C 440.366,374.708 440.699,373.042 441.5,371.5 Z"/></g>
<g><path style="opacity:0.995" fill="#e4f2fe" d="M 410.5,379.5 C 410.5,394.833 410.5,410.167 410.5,425.5C 403.792,424.274 398.292,426.274 394,431.5C 388.826,446.826 394.326,454.492 410.5,454.5C 410.5,471.167 410.5,487.833 410.5,504.5C 398.688,498.69 389.021,490.357 381.5,479.5C 380.237,474.968 378.403,470.635 376,466.5C 370.273,449.864 370.106,433.197 375.5,416.5C 382.687,399.978 394.354,387.645 410.5,379.5 Z"/></g>
<g><path style="opacity:1" fill="#fa2b3c" d="M 375.5,378.5 C 375.5,391.167 375.5,403.833 375.5,416.5C 370.106,433.197 370.273,449.864 376,466.5C 378.403,470.635 380.237,474.968 381.5,479.5C 374.424,483.371 367.091,486.704 359.5,489.5C 358.5,489.5 357.5,489.5 356.5,489.5C 356.5,457.167 356.5,424.833 356.5,392.5C 361.906,386.625 368.239,381.958 375.5,378.5 Z"/></g>
<g><path style="opacity:0.997" fill="#fd7338" d="M 190.5,385.5 C 191.492,392.648 191.825,399.981 191.5,407.5C 169.27,414.3 163.103,428.3 173,449.5C 177.386,454.772 182.886,458.105 189.5,459.5C 191.458,473.924 192.124,488.59 191.5,503.5C 183.255,501.974 175.255,499.64 167.5,496.5C 166.507,461.573 166.174,426.573 166.5,391.5C 165.5,391.5 164.5,391.5 163.5,391.5C 172.372,389.405 181.372,387.405 190.5,385.5 Z"/></g>
<g><path style="opacity:0.998" fill="#fd7938" d="M 163.5,391.5 C 164.5,391.5 165.5,391.5 166.5,391.5C 166.174,426.573 166.507,461.573 167.5,496.5C 157.41,492.952 147.743,488.619 138.5,483.5C 140.492,454.519 141.159,425.186 140.5,395.5C 145.316,394.193 150.316,393.193 155.5,392.5C 158.167,392.167 160.833,391.833 163.5,391.5 Z"/></g>
<g><path style="opacity:0.997" fill="#fd7f37" d="M 140.5,395.5 C 141.159,425.186 140.492,454.519 138.5,483.5C 128.493,478.835 119.159,473.168 110.5,466.5C 110.5,443.833 110.5,421.167 110.5,398.5C 112.903,398.552 115.236,398.219 117.5,397.5C 125.167,396.833 132.833,396.167 140.5,395.5 Z"/></g>
<g><path style="opacity:0.987" fill="#fe8d37" d="M 40.5,394.5 C 54.0127,397.298 67.6794,398.631 81.5,398.5C 82.5676,399.434 83.901,399.768 85.5,399.5C 85.8296,415.342 85.4963,431.009 84.5,446.5C 67.2114,431.226 52.5447,413.892 40.5,394.5 Z"/></g>
<g><path style="opacity:0.994" fill="#fd8637" d="M 81.5,398.5 C 81.8333,398.5 82.1667,398.5 82.5,398.5C 91.8333,398.5 101.167,398.5 110.5,398.5C 110.5,421.167 110.5,443.833 110.5,466.5C 100.973,460.975 92.3059,454.308 84.5,446.5C 85.4963,431.009 85.8296,415.342 85.5,399.5C 83.901,399.768 82.5676,399.434 81.5,398.5 Z"/></g>
<g><path style="opacity:1" fill="#fc5438" d="M 298.5,398.5 C 303.114,405.303 309.447,409.303 317.5,410.5C 319.607,411.468 321.941,411.802 324.5,411.5C 324.5,436.5 324.5,461.5 324.5,486.5C 316.279,491.01 307.613,494.677 298.5,497.5C 298.5,464.5 298.5,431.5 298.5,398.5 Z"/></g>
<g><path style="opacity:1" fill="#fb3137" d="M 356.5,392.5 C 356.5,424.833 356.5,457.167 356.5,489.5C 357.5,489.5 358.5,489.5 359.5,489.5C 341.197,498.488 321.864,504.488 301.5,507.5C 299.833,507.5 298.167,507.5 296.5,507.5C 296.5,504.5 296.5,501.5 296.5,498.5C 296.842,497.662 297.508,497.328 298.5,497.5C 307.613,494.677 316.279,491.01 324.5,486.5C 332.015,483.916 338.682,480.083 344.5,475C 330.929,445.588 334.263,418.421 354.5,393.5C 355.167,393.167 355.833,392.833 356.5,392.5 Z"/></g>
<g><path style="opacity:1" fill="#c3e2fe" d="M 461.5,388.5 C 466.164,392.331 470.33,396.664 474,401.5C 488.631,423.965 490.297,447.298 479,471.5C 474.342,459.356 465.509,454.023 452.5,455.5C 455.287,454.523 458.287,454.19 461.5,454.5C 461.5,443.833 461.5,433.167 461.5,422.5C 458.051,423.639 454.551,424.639 451,425.5C 442.051,424.217 437.218,419.05 436.5,410C 439.636,396.266 447.636,392.433 460.5,398.5C 461.487,395.232 461.82,391.898 461.5,388.5 Z"/></g>
<g><path style="opacity:1" fill="#fd611d" d="M 191.5,407.5 C 194.059,407.198 196.393,407.532 198.5,408.5C 197.503,425.325 197.17,442.325 197.5,459.5C 194.833,459.5 192.167,459.5 189.5,459.5C 182.886,458.105 177.386,454.772 173,449.5C 163.103,428.3 169.27,414.3 191.5,407.5 Z"/></g>
<g><path style="opacity:1" fill="#fc5a21" d="M 198.5,408.5 C 202.797,409.146 206.797,410.646 210.5,413C 213.109,415.783 215.776,418.283 218.5,420.5C 216.532,439.265 215.866,458.265 216.5,477.5C 210.898,471.976 207.064,465.309 205,457.5C 202.618,458.554 200.118,459.221 197.5,459.5C 197.17,442.325 197.503,425.325 198.5,408.5 Z"/></g>
<g><path style="opacity:1" fill="#fc4e27" d="M 238.5,411.5 C 238.833,411.5 239.167,411.5 239.5,411.5C 243.846,411.334 248.179,411.501 252.5,412C 254.315,412.757 255.981,413.59 257.5,414.5C 257.169,438.339 257.502,462.006 258.5,485.5C 256.438,486.776 254.104,487.61 251.5,488C 247.179,488.499 242.846,488.666 238.5,488.5C 238.167,488.5 237.833,488.5 237.5,488.5C 235.524,463.394 234.857,438.061 235.5,412.5C 236.791,412.737 237.791,412.404 238.5,411.5 Z"/></g>
<g><path style="opacity:1" fill="#fc5424" d="M 238.5,411.5 C 237.791,412.404 236.791,412.737 235.5,412.5C 234.857,438.061 235.524,463.394 237.5,488.5C 229.193,487.181 222.193,483.515 216.5,477.5C 215.866,458.265 216.532,439.265 218.5,420.5C 224.148,415.344 230.815,412.344 238.5,411.5 Z"/></g>
<g><path style="opacity:1" fill="#fc472a" d="M 257.5,414.5 C 263.241,416.236 268.241,419.236 272.5,423.5C 277.24,428.98 280.407,435.313 282,442.5C 284.549,462.724 276.716,477.058 258.5,485.5C 257.502,462.006 257.169,438.339 257.5,414.5 Z"/></g>
<g><path style="opacity:0.993" fill="#fd6b38" d="M 216.5,477.5 C 222.193,483.515 229.193,487.181 237.5,488.5C 237.833,488.5 238.167,488.5 238.5,488.5C 241.287,489.477 244.287,489.81 247.5,489.5C 247.5,496.167 247.5,502.833 247.5,509.5C 243.267,509.539 239.267,510.205 235.5,511.5C 234.5,511.5 233.5,511.5 232.5,511.5C 218.645,509.862 204.978,507.196 191.5,503.5C 192.124,488.59 191.458,473.924 189.5,459.5C 192.167,459.5 194.833,459.5 197.5,459.5C 200.118,459.221 202.618,458.554 205,457.5C 207.064,465.309 210.898,471.976 216.5,477.5 Z"/></g>
<g><path style="opacity:1" fill="#fc452d" d="M 296.5,498.5 C 296.5,501.5 296.5,504.5 296.5,507.5C 298.167,507.5 299.833,507.5 301.5,507.5C 293.871,509.078 286.205,510.412 278.5,511.5C 264.167,511.5 249.833,511.5 235.5,511.5C 239.267,510.205 243.267,509.539 247.5,509.5C 264.203,507.493 280.537,503.826 296.5,498.5 Z"/></g>
</svg>
