<?xml version="1.0" encoding="UTF-8"?>
<!DOCTYPE svg PUBLIC "-//W3C//DTD SVG 1.1//EN" "http://www.w3.org/Graphics/SVG/1.1/DTD/svg11.dtd">
<svg xmlns="http://www.w3.org/2000/svg" version="1.1" width="512px" height="512px" style="shape-rendering:geometricPrecision; text-rendering:geometricPrecision; image-rendering:optimizeQuality; fill-rule:evenodd; clip-rule:evenodd" xmlns:xlink="http://www.w3.org/1999/xlink">
<g><path style="opacity:0.981" fill="#fdbe00" d="M 233.5,-0.5 C 240.833,-0.5 248.167,-0.5 255.5,-0.5C 255.5,13.5 255.5,27.5 255.5,41.5C 234.391,27.2787 211.724,16.2787 187.5,8.5C 202.749,4.44973 218.082,1.44973 233.5,-0.5 Z"/></g>
<g><path style="opacity:1" fill="#ff9100" d="M 255.5,-0.5 C 262.833,-0.5 270.167,-0.5 277.5,-0.5C 347.037,7.09872 404.704,37.0987 450.5,89.5C 378.565,100.599 313.565,84.5987 255.5,41.5C 255.5,27.5 255.5,13.5 255.5,-0.5 Z"/></g>
<g><path style="opacity:0.997" fill="#ff9100" d="M 187.5,8.5 C 211.724,16.2787 234.391,27.2787 255.5,41.5C 255.168,100.669 255.501,159.669 256.5,218.5C 256.5,219.167 256.167,219.5 255.5,219.5C 229.538,231.657 202.204,238.491 173.5,240C 115.501,240.5 57.501,240.667 -0.5,240.5C -0.5,239.833 -0.5,239.167 -0.5,238.5C 7.89087,152.522 47.8909,85.6886 119.5,38C 140.69,24.7697 163.357,14.9364 187.5,8.5 Z"/></g>
<g><path style="opacity:1" fill="#ff6419" d="M 255.5,41.5 C 313.565,84.5987 378.565,100.599 450.5,89.5C 480.457,124.426 499.457,164.759 507.5,210.5C 488.702,210.605 470.036,209.105 451.5,206C 427.328,199.248 403.328,191.915 379.5,184C 351.285,176.776 324.285,179.776 298.5,193C 284.936,202.279 270.936,210.779 256.5,218.5C 255.501,159.669 255.168,100.669 255.5,41.5 Z"/></g>
<g><path style="opacity:1" fill="#fdbe00" d="M 171.5,90.5 C 190.46,89.1201 207.794,93.6201 223.5,104C 242.352,119.115 245.519,136.948 233,157.5C 222.895,169.471 210.062,176.638 194.5,179C 166.627,184.463 143.794,176.296 126,154.5C 118.096,140.368 118.762,126.701 128,113.5C 139.714,100.395 154.214,92.7283 171.5,90.5 Z"/></g>
<g><path style="opacity:1" fill="#fe9000" d="M 507.5,210.5 C 509.03,218.232 510.363,225.899 511.5,233.5C 511.5,248.167 511.5,262.833 511.5,277.5C 510.206,286.893 508.539,296.226 506.5,305.5C 506.5,304.167 506.5,302.833 506.5,301.5C 469.647,301.095 433.313,305.262 397.5,314C 381.037,317.866 364.703,322.199 348.5,327C 317.062,333.609 286.396,331.109 256.5,319.5C 256.5,318.833 256.167,318.5 255.5,318.5C 255.5,285.5 255.5,252.5 255.5,219.5C 256.167,219.5 256.5,219.167 256.5,218.5C 270.936,210.779 284.936,202.279 298.5,193C 324.285,179.776 351.285,176.776 379.5,184C 403.328,191.915 427.328,199.248 451.5,206C 470.036,209.105 488.702,210.605 507.5,210.5 Z"/></g>
<g><path style="opacity:1" fill="#ff6419" d="M 318.5,210.5 C 338.748,208.846 357.415,213.346 374.5,224C 397.062,244.951 397.062,265.951 374.5,287C 349.551,302.423 323.551,304.423 296.5,293C 273.199,280.589 266.033,262.089 275,237.5C 282.125,227.047 291.625,219.547 303.5,215C 308.629,213.494 313.629,211.994 318.5,210.5 Z"/></g>
<g><path style="opacity:0.999" fill="#fdbe00" d="M 255.5,219.5 C 255.5,252.5 255.5,285.5 255.5,318.5C 225.907,311.009 195.907,305.509 165.5,302C 111.513,300.589 57.5134,300.089 3.5,300.5C 1.96986,292.768 0.636523,285.101 -0.5,277.5C -0.5,265.167 -0.5,252.833 -0.5,240.5C 57.501,240.667 115.501,240.5 173.5,240C 202.204,238.491 229.538,231.657 255.5,219.5 Z"/></g>
<g><path style="opacity:1" fill="#fe6419" d="M 421.5,240.5 C 431.5,240.5 441.5,240.5 451.5,240.5C 451.5,250.5 451.5,260.5 451.5,270.5C 441.5,270.5 431.5,270.5 421.5,270.5C 421.5,260.5 421.5,250.5 421.5,240.5 Z"/></g>
<g><path style="opacity:0.998" fill="#ff9100" d="M 3.5,300.5 C 57.5134,300.089 111.513,300.589 165.5,302C 195.907,305.509 225.907,311.009 255.5,318.5C 256.167,318.5 256.5,318.833 256.5,319.5C 255.501,362.997 255.168,406.663 255.5,450.5C 246.071,450.749 236.738,449.916 227.5,448C 206.411,442.083 185.411,435.749 164.5,429C 130.211,421.887 95.544,419.054 60.5,420.5C 30.2757,386.043 11.2757,346.043 3.5,300.5 Z"/></g>
<g><path style="opacity:1" fill="#ff6419" d="M 506.5,305.5 C 497.943,349.275 479.276,387.942 450.5,421.5C 412.787,418.428 375.454,421.594 338.5,431C 321.592,436.62 304.592,441.954 287.5,447C 276.905,448.857 266.238,450.024 255.5,450.5C 255.168,406.663 255.501,362.997 256.5,319.5C 286.396,331.109 317.062,333.609 348.5,327C 364.703,322.199 381.037,317.866 397.5,314C 433.313,305.262 469.647,301.095 506.5,301.5C 506.5,302.833 506.5,304.167 506.5,305.5 Z"/></g>
<g><path style="opacity:1" fill="#fcbf00" d="M 180.5,360.5 C 190.5,360.5 200.5,360.5 210.5,360.5C 210.5,370.5 210.5,380.5 210.5,390.5C 200.5,390.5 190.5,390.5 180.5,390.5C 180.5,380.5 180.5,370.5 180.5,360.5 Z"/></g>
<g><path style="opacity:0.991" fill="#fdbe00" d="M 60.5,420.5 C 95.544,419.054 130.211,421.887 164.5,429C 185.411,435.749 206.411,442.083 227.5,448C 236.738,449.916 246.071,450.749 255.5,450.5C 255.5,470.833 255.5,491.167 255.5,511.5C 248.167,511.5 240.833,511.5 233.5,511.5C 163.881,503.527 106.214,473.194 60.5,420.5 Z"/></g>
<g><path style="opacity:1" fill="#ff9100" d="M 450.5,421.5 C 404.704,473.901 347.037,503.901 277.5,511.5C 270.167,511.5 262.833,511.5 255.5,511.5C 255.5,491.167 255.5,470.833 255.5,450.5C 266.238,450.024 276.905,448.857 287.5,447C 304.592,441.954 321.592,436.62 338.5,431C 375.454,421.594 412.787,418.428 450.5,421.5 Z"/></g>
</svg>
