<?xml version="1.0" encoding="UTF-8"?>
<!DOCTYPE svg PUBLIC "-//W3C//DTD SVG 1.1//EN" "http://www.w3.org/Graphics/SVG/1.1/DTD/svg11.dtd">
<svg xmlns="http://www.w3.org/2000/svg" version="1.1" width="512px" height="512px" style="shape-rendering:geometricPrecision; text-rendering:geometricPrecision; image-rendering:optimizeQuality; fill-rule:evenodd; clip-rule:evenodd" xmlns:xlink="http://www.w3.org/1999/xlink">
<g><path style="opacity:0.994" fill="#4b5b74" d="M 322.5,50.5 C 328.33,79.7004 328.997,109.034 324.5,138.5C 323.508,145.982 323.175,153.648 323.5,161.5C 319.898,161.533 316.898,160.199 314.5,157.5C 314.167,157.667 313.833,157.833 313.5,158C 315.684,160.016 317.684,162.183 319.5,164.5C 319.291,165.086 318.957,165.586 318.5,166C 311.191,167.497 303.857,168.83 296.5,170C 303.833,170.333 311.167,170.667 318.5,171C 319.517,172.049 319.684,173.216 319,174.5C 316.92,177.065 315.087,179.732 313.5,182.5C 275.571,270.149 209.238,320.649 114.5,334C 94.047,335.24 73.7137,334.407 53.5,331.5C 29.5192,263.645 36.3525,198.978 74,137.5C 117.753,74.3651 178.253,41.6984 255.5,39.5C 278.621,39.1954 300.954,42.8621 322.5,50.5 Z"/></g>
<g><path style="opacity:1" fill="#32455c" d="M 289.5,50.5 C 293.792,50.8086 295.459,53.1419 294.5,57.5C 294.449,61.8209 293.282,65.8209 291,69.5C 285.538,71.5552 283.038,69.5552 283.5,63.5C 283.628,58.2477 285.628,53.9143 289.5,50.5 Z"/></g>
<g><path style="opacity:1" fill="#394d63" d="M 322.5,50.5 C 337.57,54.7056 351.57,61.0389 364.5,69.5C 368.722,81.9509 372.056,94.6175 374.5,107.5C 363.224,112.315 356.391,120.981 354,133.5C 352.697,143.442 353.697,153.109 357,162.5C 358.331,164.996 360.164,166.996 362.5,168.5C 366.089,172.38 370.422,173.38 375.5,171.5C 372.725,210.987 360.225,247.32 338,280.5C 337.241,282.063 336.074,283.063 334.5,283.5C 337.367,274.947 335.367,267.947 328.5,262.5C 320.093,259.542 311.76,260.042 303.5,264C 289.709,271.121 280.209,281.955 275,296.5C 274.188,300.689 274.355,304.689 275.5,308.5C 276.524,312.362 278.857,315.195 282.5,317C 292.888,319.267 302.555,317.433 311.5,311.5C 304.093,321.391 294.927,330.057 284,337.5C 282.214,334.098 279.714,333.598 276.5,336C 275.549,336.718 275.383,337.551 276,338.5C 277.399,339.227 278.899,339.727 280.5,340C 262.11,354.195 241.777,364.695 219.5,371.5C 212.059,363.278 202.726,358.444 191.5,357C 182.893,355.796 174.559,356.796 166.5,360C 162.725,361.611 159.725,364.111 157.5,367.5C 154.686,373.003 155.02,378.336 158.5,383.5C 131.883,386.015 105.55,383.682 79.5,376.5C 78.5836,376.543 77.9169,376.876 77.5,377.5C 66.9034,363.644 58.9034,348.311 53.5,331.5C 73.7137,334.407 94.047,335.24 114.5,334C 209.238,320.649 275.571,270.149 313.5,182.5C 315.963,180.539 318.297,178.372 320.5,176C 321.793,175.51 323.127,175.343 324.5,175.5C 325.296,180.816 325.963,186.149 326.5,191.5C 326.372,193.655 326.872,195.655 328,197.5C 328.499,193.179 328.666,188.846 328.5,184.5C 328.5,181.167 328.5,177.833 328.5,174.5C 331.81,174.461 334.476,175.794 336.5,178.5C 336.833,178.333 337.167,178.167 337.5,178C 336,176.5 334.5,175 333,173.5C 332.316,172.216 332.483,171.049 333.5,170C 339.463,168.791 345.463,167.791 351.5,167C 345.204,165.988 338.871,165.488 332.5,165.5C 333.162,161.18 335.162,157.513 338.5,154.5C 338.333,154.167 338.167,153.833 338,153.5C 335.5,156 333,158.5 330.5,161C 329.551,161.617 328.718,161.451 328,160.5C 326.507,153.209 325.34,145.875 324.5,138.5C 328.997,109.034 328.33,79.7004 322.5,50.5 Z"/></g>
<g><path style="opacity:1" fill="#32455c" d="M 214.5,60.5 C 213.93,64.9115 211.597,68.0782 207.5,70C 203.405,72.2202 199.072,72.8869 194.5,72C 193.944,71.6174 193.611,71.1174 193.5,70.5C 194.035,64.4513 197.368,60.618 203.5,59C 207.475,58.013 211.141,58.513 214.5,60.5 Z"/></g>
<g><path style="opacity:1" fill="#667389" d="M 291.5,97.5 C 291.767,99.9653 292.434,102.299 293.5,104.5C 298.307,124.087 292.64,139.754 276.5,151.5C 280.107,145.68 282.107,139.347 282.5,132.5C 281.128,119.289 273.795,114.122 260.5,117C 246.816,122.017 236.982,131.184 231,144.5C 229.524,149.076 229.19,153.743 230,158.5C 230.424,161.025 231.59,163.025 233.5,164.5C 235.193,167.682 237.859,169.348 241.5,169.5C 243.631,170.314 245.964,170.814 248.5,171C 238.655,177.533 231.821,186.367 228,197.5C 227.359,210.042 227.859,222.542 229.5,235C 230.073,248.292 225.739,259.626 216.5,269C 212.114,272.518 207.114,274.351 201.5,274.5C 206.879,264.517 209.046,253.85 208,242.5C 207.59,241.099 207.09,239.766 206.5,238.5C 205.449,235.039 203.449,232.373 200.5,230.5C 208.566,222.935 211.399,213.601 209,202.5C 203.396,184.255 206.396,167.588 218,152.5C 227.043,142.459 235.71,132.126 244,121.5C 249.371,112.378 251.037,102.711 249,92.5C 241.725,79.4438 230.558,73.6105 215.5,75C 191.671,81.744 170.671,93.4107 152.5,110C 132.8,126.682 117.3,146.516 106,169.5C 97.0423,188.917 94.0423,209.25 97,230.5C 97.5978,239.023 99.9312,247.023 104,254.5C 106.987,259.152 111.154,260.652 116.5,259C 126.324,250.085 137.657,243.752 150.5,240C 155.823,239.501 161.156,239.334 166.5,239.5C 163.822,242.873 161.156,246.206 158.5,249.5C 148.475,248.336 139.809,251.17 132.5,258C 126.217,265.621 120.717,273.787 116,282.5C 109.814,289.742 102.314,291.409 93.5,287.5C 94.0124,281.739 91.679,279.739 86.5,281.5C 80.3583,274.298 76.1916,265.964 74,256.5C 64.6148,229.129 65.6148,202.129 77,175.5C 90.4718,147.734 109.305,124.234 133.5,105C 151.421,90.1177 170.921,77.6177 192,67.5C 192.232,68.7375 192.732,69.7375 193.5,70.5C 193.611,71.1174 193.944,71.6174 194.5,72C 199.072,72.8869 203.405,72.2202 207.5,70C 211.597,68.0782 213.93,64.9115 214.5,60.5C 248.656,55.8527 274.322,68.186 291.5,97.5 Z"/></g>
<g><path style="opacity:1" fill="#31435a" d="M 364.5,69.5 C 378.24,76.5741 390.574,85.5741 401.5,96.5C 400.957,96.56 400.624,96.8933 400.5,97.5C 413.059,126.511 419.725,156.845 420.5,188.5C 419.861,202.53 418.861,216.53 417.5,230.5C 416.167,230.5 414.833,230.5 413.5,230.5C 409.208,230.035 405.208,230.868 401.5,233C 382.595,246.653 374.428,265.153 377,288.5C 377.941,290.727 379.108,292.727 380.5,294.5C 383.403,299.45 387.736,301.45 393.5,300.5C 382.424,321.752 368.424,340.918 351.5,358C 323.547,357.396 300.38,367.563 282,388.5C 277.024,394.64 274.19,401.64 273.5,409.5C 273.5,409.833 273.5,410.167 273.5,410.5C 268.216,411.595 263.216,413.261 258.5,415.5C 257.423,414.982 256.256,414.648 255,414.5C 244.664,416.943 234.164,418.11 223.5,418C 218.847,418.824 217.513,421.324 219.5,425.5C 216.833,425.5 214.167,425.5 211.5,425.5C 211.64,423.876 210.973,422.71 209.5,422C 190.309,421.596 171.309,419.429 152.5,415.5C 144.184,415.199 142.518,418.199 147.5,424.5C 136.169,422.534 125.002,419.867 114,416.5C 113.235,416.57 112.735,416.903 112.5,417.5C 98.6035,405.949 86.9369,392.615 77.5,377.5C 77.9169,376.876 78.5836,376.543 79.5,376.5C 105.55,383.682 131.883,386.015 158.5,383.5C 170.785,395.314 185.452,399.814 202.5,397C 210.395,395.81 216.561,391.976 221,385.5C 222.079,382.937 222.579,380.271 222.5,377.5C 221.877,375.289 220.877,373.289 219.5,371.5C 241.777,364.695 262.11,354.195 280.5,340C 278.899,339.727 277.399,339.227 276,338.5C 275.383,337.551 275.549,336.718 276.5,336C 279.714,333.598 282.214,334.098 284,337.5C 294.927,330.057 304.093,321.391 311.5,311.5C 322.128,304.545 329.794,295.211 334.5,283.5C 336.074,283.063 337.241,282.063 338,280.5C 360.225,247.32 372.725,210.987 375.5,171.5C 388.153,163.365 394.153,151.531 393.5,136C 394.481,125.6 391.148,116.934 383.5,110C 381.975,108.991 380.308,108.491 378.5,108.5C 377.432,107.566 376.099,107.232 374.5,107.5C 372.056,94.6175 368.722,81.9509 364.5,69.5 Z"/></g>
<g><path style="opacity:1" fill="#31445b" d="M 293.5,104.5 C 292.434,102.299 291.767,99.9653 291.5,97.5C 290.655,90.6066 292.155,84.2733 296,78.5C 300.522,72.9395 304.522,73.2729 308,79.5C 309.29,89.182 306.79,97.682 300.5,105C 298.071,105.703 295.738,105.537 293.5,104.5 Z"/></g>
<g><path style="opacity:1" fill="#838d9f" d="M 200.5,230.5 C 194.749,227.323 188.749,226.823 182.5,229C 176.625,231.765 171.291,235.265 166.5,239.5C 161.156,239.334 155.823,239.501 150.5,240C 137.657,243.752 126.324,250.085 116.5,259C 111.154,260.652 106.987,259.152 104,254.5C 99.9312,247.023 97.5978,239.023 97,230.5C 94.0423,209.25 97.0423,188.917 106,169.5C 117.3,146.516 132.8,126.682 152.5,110C 170.671,93.4107 191.671,81.744 215.5,75C 230.558,73.6105 241.725,79.4438 249,92.5C 251.037,102.711 249.371,112.378 244,121.5C 235.71,132.126 227.043,142.459 218,152.5C 206.396,167.588 203.396,184.255 209,202.5C 211.399,213.601 208.566,222.935 200.5,230.5 Z"/></g>
<g><path style="opacity:1" fill="#1e2a44" d="M 342.5,83.5 C 344.988,85.0556 345.988,87.3889 345.5,90.5C 345.333,92.1667 345.167,93.8333 345,95.5C 344.047,97.5922 342.714,97.9255 341,96.5C 338.743,91.8054 339.243,87.4721 342.5,83.5 Z"/></g>
<g><path style="opacity:1" fill="#1d2942" d="M 401.5,96.5 C 422.123,114.784 438.123,136.451 449.5,161.5C 448.903,161.735 448.57,162.235 448.5,163C 472.855,251.252 454.688,329.419 394,397.5C 350.434,441.696 297.6,466.03 235.5,470.5C 188.488,466.146 147.488,448.479 112.5,417.5C 112.735,416.903 113.235,416.57 114,416.5C 125.002,419.867 136.169,422.534 147.5,424.5C 165.385,430.635 183.719,432.135 202.5,429C 205.588,427.982 208.588,426.815 211.5,425.5C 214.167,425.5 216.833,425.5 219.5,425.5C 232.628,426.361 245.295,424.194 257.5,419C 258.337,417.989 258.67,416.822 258.5,415.5C 263.216,413.261 268.216,411.595 273.5,410.5C 274.487,419.652 279.154,426.152 287.5,430C 313.036,435.047 335.703,429.047 355.5,412C 367.443,402.285 372.943,389.785 372,374.5C 370.719,371.397 368.886,368.731 366.5,366.5C 358.353,386.146 344.353,399.979 324.5,408C 310.946,413.699 296.946,415.366 282.5,413C 279.516,411.729 276.516,410.562 273.5,409.5C 274.19,401.64 277.024,394.64 282,388.5C 300.38,367.563 323.547,357.396 351.5,358C 368.424,340.918 382.424,321.752 393.5,300.5C 403.337,298.171 411.171,292.838 417,284.5C 425.146,272.733 428.813,259.733 428,245.5C 426.552,238.913 423.052,233.913 417.5,230.5C 418.861,216.53 419.861,202.53 420.5,188.5C 419.725,156.845 413.059,126.511 400.5,97.5C 400.624,96.8933 400.957,96.56 401.5,96.5 Z"/></g>
<g><path style="opacity:1" fill="#1d2943" d="M 374.5,107.5 C 376.099,107.232 377.432,107.566 378.5,108.5C 377.325,108.281 376.325,108.614 375.5,109.5C 384.513,127.979 383.013,145.646 371,162.5C 368.264,164.752 365.431,166.752 362.5,168.5C 360.164,166.996 358.331,164.996 357,162.5C 353.697,153.109 352.697,143.442 354,133.5C 356.391,120.981 363.224,112.315 374.5,107.5 Z"/></g>
<g><path style="opacity:1" fill="#111d33" d="M 378.5,108.5 C 380.308,108.491 381.975,108.991 383.5,110C 391.148,116.934 394.481,125.6 393.5,136C 394.153,151.531 388.153,163.365 375.5,171.5C 370.422,173.38 366.089,172.38 362.5,168.5C 365.431,166.752 368.264,164.752 371,162.5C 383.013,145.646 384.513,127.979 375.5,109.5C 376.325,108.614 377.325,108.281 378.5,108.5 Z"/></g>
<g><path style="opacity:1" fill="#1e2a44" d="M 282.5,132.5 C 276.902,129.614 270.902,128.78 264.5,130C 247.916,136.074 237.583,147.574 233.5,164.5C 231.59,163.025 230.424,161.025 230,158.5C 229.19,153.743 229.524,149.076 231,144.5C 236.982,131.184 246.816,122.017 260.5,117C 273.795,114.122 281.128,119.289 282.5,132.5 Z"/></g>
<g><path style="opacity:1" fill="#31435a" d="M 282.5,132.5 C 282.107,139.347 280.107,145.68 276.5,151.5C 268.018,163.575 256.351,169.575 241.5,169.5C 237.859,169.348 235.193,167.682 233.5,164.5C 237.583,147.574 247.916,136.074 264.5,130C 270.902,128.78 276.902,129.614 282.5,132.5 Z"/></g>
<g><path style="opacity:1" fill="#eceef0" d="M 324.5,138.5 C 325.34,145.875 326.507,153.209 328,160.5C 328.718,161.451 329.551,161.617 330.5,161C 333,158.5 335.5,156 338,153.5C 338.167,153.833 338.333,154.167 338.5,154.5C 335.162,157.513 333.162,161.18 332.5,165.5C 338.871,165.488 345.204,165.988 351.5,167C 345.463,167.791 339.463,168.791 333.5,170C 332.483,171.049 332.316,172.216 333,173.5C 334.5,175 336,176.5 337.5,178C 337.167,178.167 336.833,178.333 336.5,178.5C 334.476,175.794 331.81,174.461 328.5,174.5C 328.5,177.833 328.5,181.167 328.5,184.5C 327.833,186.833 327.167,189.167 326.5,191.5C 325.963,186.149 325.296,180.816 324.5,175.5C 323.127,175.343 321.793,175.51 320.5,176C 318.297,178.372 315.963,180.539 313.5,182.5C 315.087,179.732 316.92,177.065 319,174.5C 319.684,173.216 319.517,172.049 318.5,171C 311.167,170.667 303.833,170.333 296.5,170C 303.857,168.83 311.191,167.497 318.5,166C 318.957,165.586 319.291,165.086 319.5,164.5C 317.684,162.183 315.684,160.016 313.5,158C 313.833,157.833 314.167,157.667 314.5,157.5C 316.898,160.199 319.898,161.533 323.5,161.5C 323.175,153.648 323.508,145.982 324.5,138.5 Z"/></g>
<g><path style="opacity:1" fill="#1e2b44" d="M 155.5,163.5 C 143.254,165.569 135.087,172.569 131,184.5C 130.126,188.965 129.293,193.298 128.5,197.5C 124.275,194.875 122.608,191.042 123.5,186C 124.604,173.129 130.937,163.795 142.5,158C 148.603,156.102 152.936,157.936 155.5,163.5 Z"/></g>
<g><path style="opacity:0.999" fill="#121e34" d="M 449.5,161.5 C 466.839,196.03 474.005,232.696 471,271.5C 463.933,343.511 430.433,399.344 370.5,439C 329.044,464.446 284.044,474.946 235.5,470.5C 297.6,466.03 350.434,441.696 394,397.5C 454.688,329.419 472.855,251.252 448.5,163C 448.57,162.235 448.903,161.735 449.5,161.5 Z"/></g>
<g><path style="opacity:1" fill="#32445b" d="M 155.5,163.5 C 158.408,175.931 154.741,186.431 144.5,195C 140.271,198.128 135.604,199.462 130.5,199C 129.584,198.722 128.918,198.222 128.5,197.5C 129.293,193.298 130.126,188.965 131,184.5C 135.087,172.569 143.254,165.569 155.5,163.5 Z"/></g>
<g><path style="opacity:1" fill="#34465d" d="M 189.5,182.5 C 191.144,182.286 192.644,182.62 194,183.5C 195.386,190.898 193.22,197.065 187.5,202C 182.996,204.718 180.329,203.551 179.5,198.5C 180.824,191.84 184.157,186.507 189.5,182.5 Z"/></g>
<g><path style="opacity:1" fill="#1e2b45" d="M 359.5,184.5 C 361.39,184.297 362.89,184.963 364,186.5C 364.826,191.529 363.826,196.195 361,200.5C 359.611,202.227 357.944,203.561 356,204.5C 354.739,204.241 353.739,203.574 353,202.5C 352.097,195.376 354.263,189.376 359.5,184.5 Z"/></g>
<g><path style="opacity:1" fill="#9aa5b0" d="M 328.5,184.5 C 328.666,188.846 328.499,193.179 328,197.5C 326.872,195.655 326.372,193.655 326.5,191.5C 327.167,189.167 327.833,186.833 328.5,184.5 Z"/></g>
<g><path style="opacity:1" fill="#121e34" d="M 391.5,207.5 C 395.156,207.823 397.156,209.823 397.5,213.5C 397.813,218.389 395.813,221.722 391.5,223.5C 388.406,222.326 387.072,219.993 387.5,216.5C 387.488,212.861 388.821,209.861 391.5,207.5 Z"/></g>
<g><path style="opacity:1" fill="#1e2a44" d="M 324.5,213.5 C 325.833,213.5 327.167,213.5 328.5,213.5C 328.479,218.067 326.812,221.901 323.5,225C 322.207,225.49 320.873,225.657 319.5,225.5C 319.523,220.791 321.19,216.791 324.5,213.5 Z"/></g>
<g><path style="opacity:1" fill="#31445b" d="M 259.5,218.5 C 264.993,217.178 267.493,219.178 267,224.5C 263.821,233.375 257.655,237.875 248.5,238C 247.196,237.196 246.529,236.029 246.5,234.5C 248.674,227.334 253.008,222 259.5,218.5 Z"/></g>
<g><path style="opacity:1" fill="#1d2a44" d="M 200.5,230.5 C 203.449,232.373 205.449,235.039 206.5,238.5C 194.17,238.414 184.003,243.081 176,252.5C 170.387,259.388 166.054,267.054 163,275.5C 161.573,283.008 161.073,290.342 161.5,297.5C 156.027,294.851 152.527,290.517 151,284.5C 149.243,271.869 151.743,260.202 158.5,249.5C 161.156,246.206 163.822,242.873 166.5,239.5C 171.291,235.265 176.625,231.765 182.5,229C 188.749,226.823 194.749,227.323 200.5,230.5 Z"/></g>
<g><path style="opacity:1" fill="#1d2943" d="M 413.5,230.5 C 418.764,253.859 412.097,273.359 393.5,289C 389.259,291.349 384.925,293.182 380.5,294.5C 379.108,292.727 377.941,290.727 377,288.5C 374.428,265.153 382.595,246.653 401.5,233C 405.208,230.868 409.208,230.035 413.5,230.5 Z"/></g>
<g><path style="opacity:1" fill="#111d33" d="M 413.5,230.5 C 414.833,230.5 416.167,230.5 417.5,230.5C 423.052,233.913 426.552,238.913 428,245.5C 428.813,259.733 425.146,272.733 417,284.5C 411.171,292.838 403.337,298.171 393.5,300.5C 387.736,301.45 383.403,299.45 380.5,294.5C 384.925,293.182 389.259,291.349 393.5,289C 412.097,273.359 418.764,253.859 413.5,230.5 Z"/></g>
<g><path style="opacity:1" fill="#31445b" d="M 206.5,238.5 C 207.09,239.766 207.59,241.099 208,242.5C 209.046,253.85 206.879,264.517 201.5,274.5C 195.071,285.759 185.738,293.593 173.5,298C 169.311,298.812 165.311,298.645 161.5,297.5C 161.073,290.342 161.573,283.008 163,275.5C 166.054,267.054 170.387,259.388 176,252.5C 184.003,243.081 194.17,238.414 206.5,238.5 Z"/></g>
<g><path style="opacity:1" fill="#1d2943" d="M 328.5,262.5 C 321.919,290.622 304.252,305.955 275.5,308.5C 274.355,304.689 274.188,300.689 275,296.5C 280.209,281.955 289.709,271.121 303.5,264C 311.76,260.042 320.093,259.542 328.5,262.5 Z"/></g>
<g><path style="opacity:1" fill="#35475e" d="M 106.5,261.5 C 109.243,261.077 110.576,262.244 110.5,265C 110.308,269.229 108.475,272.395 105,274.5C 103.266,273.534 102.432,272.034 102.5,270C 103.174,266.82 104.508,263.986 106.5,261.5 Z"/></g>
<g><path style="opacity:1" fill="#111d33" d="M 328.5,262.5 C 335.367,267.947 337.367,274.947 334.5,283.5C 329.794,295.211 322.128,304.545 311.5,311.5C 302.555,317.433 292.888,319.267 282.5,317C 278.857,315.195 276.524,312.362 275.5,308.5C 304.252,305.955 321.919,290.622 328.5,262.5 Z"/></g>
<g><path style="opacity:1" fill="#31445b" d="M 93.5,287.5 C 92.9793,293.239 90.646,298.073 86.5,302C 84.2992,302.825 82.4659,302.325 81,300.5C 79.3637,293.12 81.197,286.787 86.5,281.5C 91.679,279.739 94.0124,281.739 93.5,287.5 Z"/></g>
<g><path style="opacity:1" fill="#1e2a44" d="M 242.5,305.5 C 244.857,305.337 247.19,305.503 249.5,306C 250.517,307.049 250.684,308.216 250,309.5C 246.268,315.944 240.768,319.11 233.5,319C 232.154,316.206 232.654,313.706 235,311.5C 237.688,309.636 240.188,307.636 242.5,305.5 Z"/></g>
<g><path style="opacity:1" fill="#121e34" d="M 343.5,321.5 C 347.797,322.288 348.63,324.621 346,328.5C 343.434,332.232 339.934,334.566 335.5,335.5C 335.214,329.125 337.88,324.459 343.5,321.5 Z"/></g>
<g><path style="opacity:1" fill="#1e2a44" d="M 146.5,337.5 C 149.5,337.5 152.5,337.5 155.5,337.5C 155.762,338.978 155.429,340.311 154.5,341.5C 151.1,343.693 147.434,344.526 143.5,344C 142.978,343.439 142.645,342.772 142.5,342C 143.344,339.993 144.677,338.493 146.5,337.5 Z"/></g>
<g><path style="opacity:1" fill="#1e2a44" d="M 206.5,343.5 C 209.579,343.26 212.579,343.593 215.5,344.5C 216.631,346.074 216.798,347.741 216,349.5C 210.964,352.848 205.464,354.348 199.5,354C 197.675,352.534 197.175,350.701 198,348.5C 200.682,346.415 203.516,344.748 206.5,343.5 Z"/></g>
<g><path style="opacity:1" fill="#111d33" d="M 395.5,345.5 C 400.993,344.178 403.493,346.178 403,351.5C 400.762,359.072 396.262,364.905 389.5,369C 382.333,371.167 379.833,368.667 382,361.5C 385.297,355.045 389.797,349.712 395.5,345.5 Z"/></g>
<g><path style="opacity:1" fill="#132036" d="M 309.5,348.5 C 311.199,348.34 312.866,348.506 314.5,349C 315.711,350.113 315.711,351.28 314.5,352.5C 311.342,355.419 307.676,356.586 303.5,356C 302.549,355.282 302.383,354.449 303,353.5C 304.965,351.45 307.132,349.783 309.5,348.5 Z"/></g>
<g><path style="opacity:1" fill="#1e2a44" d="M 87.5,352.5 C 92.0814,351.923 96.2481,352.923 100,355.5C 100.667,356.5 100.667,357.5 100,358.5C 95.0765,360.269 90.7432,359.269 87,355.5C 86.5304,354.423 86.6971,353.423 87.5,352.5 Z"/></g>
<g><path style="opacity:1" fill="#1d2943" d="M 219.5,371.5 C 220.877,373.289 221.877,375.289 222.5,377.5C 210.775,384.257 198.108,386.424 184.5,384C 173.472,381.501 164.472,376.001 157.5,367.5C 159.725,364.111 162.725,361.611 166.5,360C 174.559,356.796 182.893,355.796 191.5,357C 202.726,358.444 212.059,363.278 219.5,371.5 Z"/></g>
<g><path style="opacity:1" fill="#111d33" d="M 273.5,410.5 C 273.5,410.167 273.5,409.833 273.5,409.5C 276.516,410.562 279.516,411.729 282.5,413C 296.946,415.366 310.946,413.699 324.5,408C 344.353,399.979 358.353,386.146 366.5,366.5C 368.886,368.731 370.719,371.397 372,374.5C 372.943,389.785 367.443,402.285 355.5,412C 335.703,429.047 313.036,435.047 287.5,430C 279.154,426.152 274.487,419.652 273.5,410.5 Z"/></g>
<g><path style="opacity:1" fill="#111d33" d="M 157.5,367.5 C 164.472,376.001 173.472,381.501 184.5,384C 198.108,386.424 210.775,384.257 222.5,377.5C 222.579,380.271 222.079,382.937 221,385.5C 216.561,391.976 210.395,395.81 202.5,397C 185.452,399.814 170.785,395.314 158.5,383.5C 155.02,378.336 154.686,373.003 157.5,367.5 Z"/></g>
<g><path style="opacity:1" fill="#121e34" d="M 254.5,369.5 C 267.441,370.496 267.774,373.996 255.5,380C 252.5,380.667 249.5,380.667 246.5,380C 245.328,378.132 245.495,376.298 247,374.5C 249.479,372.686 251.979,371.019 254.5,369.5 Z"/></g>
<g><path style="opacity:1" fill="#121e34" d="M 124.5,385.5 C 126.857,385.337 129.19,385.503 131.5,386C 134.816,387.251 135.15,388.918 132.5,391C 130.167,391.667 127.833,391.667 125.5,391C 123.365,389.444 123.032,387.611 124.5,385.5 Z"/></g>
<g><path style="opacity:1" fill="#121e35" d="M 214.5,402.5 C 217.85,402.335 221.183,402.502 224.5,403C 226.325,404.466 226.825,406.299 226,408.5C 222.126,411.675 217.959,412.175 213.5,410C 212.426,409.261 211.759,408.261 211.5,407C 212.315,405.357 213.315,403.857 214.5,402.5 Z"/></g>
<g><path style="opacity:1" fill="#f4f5f6" d="M 258.5,415.5 C 258.67,416.822 258.337,417.989 257.5,419C 245.295,424.194 232.628,426.361 219.5,425.5C 217.513,421.324 218.847,418.824 223.5,418C 234.164,418.11 244.664,416.943 255,414.5C 256.256,414.648 257.423,414.982 258.5,415.5 Z"/></g>
<g><path style="opacity:1" fill="#f7f8f9" d="M 211.5,425.5 C 208.588,426.815 205.588,427.982 202.5,429C 183.719,432.135 165.385,430.635 147.5,424.5C 142.518,418.199 144.184,415.199 152.5,415.5C 171.309,419.429 190.309,421.596 209.5,422C 210.973,422.71 211.64,423.876 211.5,425.5 Z"/></g>
</svg>
