<?xml version="1.0" encoding="UTF-8"?>
<!DOCTYPE svg PUBLIC "-//W3C//DTD SVG 1.1//EN" "http://www.w3.org/Graphics/SVG/1.1/DTD/svg11.dtd">
<svg xmlns="http://www.w3.org/2000/svg" version="1.1" width="512px" height="512px" style="shape-rendering:geometricPrecision; text-rendering:geometricPrecision; image-rendering:optimizeQuality; fill-rule:evenodd; clip-rule:evenodd" xmlns:xlink="http://www.w3.org/1999/xlink">
<g><path style="opacity:1" fill="#cecece" d="M 232.5,-0.5 C 244.833,-0.5 257.167,-0.5 269.5,-0.5C 166.539,10.8871 93.3725,63.5537 50,157.5C 19.2982,238.212 25.6316,315.878 69,390.5C 116.598,462.395 183.431,502.728 269.5,511.5C 257.167,511.5 244.833,511.5 232.5,511.5C 142.856,500.612 75.3562,456.279 30,378.5C 13.3053,347.029 3.1386,313.696 -0.5,278.5C -0.5,263.167 -0.5,247.833 -0.5,232.5C 10.3875,142.857 54.7208,75.3573 132.5,30C 163.971,13.3053 197.304,3.1386 232.5,-0.5 Z"/></g>
<g><path style="opacity:0.999" fill="#e6e6e6" d="M 269.5,-0.5 C 272.5,-0.5 275.5,-0.5 278.5,-0.5C 314.65,3.10445 348.65,13.7711 380.5,31.5C 357.205,68.0157 355.372,105.682 375,144.5C 398.533,181.518 432.366,198.852 476.5,196.5C 485.682,195.288 494.682,193.288 503.5,190.5C 507.258,204.396 509.925,218.396 511.5,232.5C 511.5,247.833 511.5,263.167 511.5,278.5C 507.413,318.762 494.746,356.095 473.5,390.5C 463.97,373.218 449.636,361.885 430.5,356.5C 398.272,351.696 374.772,363.696 360,392.5C 348.809,427.78 358.975,454.78 390.5,473.5C 356.095,494.746 318.762,507.413 278.5,511.5C 275.5,511.5 272.5,511.5 269.5,511.5C 183.431,502.728 116.598,462.395 69,390.5C 25.6316,315.878 19.2982,238.212 50,157.5C 93.3725,63.5537 166.539,10.8871 269.5,-0.5 Z"/></g>
<g><path style="opacity:1" fill="#bfbfbf" d="M 380.5,31.5 C 388.716,35.7669 396.382,40.7669 403.5,46.5C 383.267,95.504 392.601,138.004 431.5,174C 445.374,184.853 461.04,191.853 478.5,195C 477.584,195.278 476.918,195.778 476.5,196.5C 432.366,198.852 398.533,181.518 375,144.5C 355.372,105.682 357.205,68.0157 380.5,31.5 Z"/></g>
<g><path style="opacity:1" fill="#cecece" d="M 403.5,46.5 C 454.095,82.3054 487.428,130.305 503.5,190.5C 494.682,193.288 485.682,195.288 476.5,196.5C 476.918,195.778 477.584,195.278 478.5,195C 461.04,191.853 445.374,184.853 431.5,174C 392.601,138.004 383.267,95.504 403.5,46.5 Z"/></g>
<g><path style="opacity:1" fill="#bfbfbf" d="M 268.5,50.5 C 229.974,66.8913 216.808,95.2246 229,135.5C 237.221,152.844 250.388,164.51 268.5,170.5C 236.882,176.276 213.382,164.943 198,136.5C 187.063,108.279 192.563,83.7789 214.5,63C 230.57,50.3153 248.57,46.1486 268.5,50.5 Z"/></g>
<g><path style="opacity:1" fill="#cecece" d="M 268.5,50.5 C 298.126,59.4721 314.126,79.4721 316.5,110.5C 314.275,141.657 298.275,161.657 268.5,170.5C 250.388,164.51 237.221,152.844 229,135.5C 216.808,95.2246 229.974,66.8913 268.5,50.5 Z"/></g>
<g><path style="opacity:1" fill="#bfbfbf" d="M 424.5,242.5 C 409.549,253.971 406.049,268.305 414,285.5C 416.711,289.712 420.211,293.046 424.5,295.5C 407.35,304.337 393.184,300.67 382,284.5C 373.908,264.532 379.408,249.699 398.5,240C 407.538,237.53 416.205,238.364 424.5,242.5 Z"/></g>
<g><path style="opacity:1" fill="#bfbfbf" d="M 272.5,240.5 C 289.193,238.703 297.36,246.037 297,262.5C 291.925,275.789 282.759,279.955 269.5,275C 260.626,268.887 258.126,260.72 262,250.5C 264.738,246.26 268.238,242.926 272.5,240.5 Z"/></g>
<g><path style="opacity:1" fill="#cecece" d="M 424.5,242.5 C 440.495,253.952 443.995,268.619 435,286.5C 432.541,290.798 429.041,293.798 424.5,295.5C 420.211,293.046 416.711,289.712 414,285.5C 406.049,268.305 409.549,253.971 424.5,242.5 Z"/></g>
<g><path style="opacity:1" fill="#bfbfbf" d="M 430.5,356.5 C 413.495,363.328 400.661,374.994 392,391.5C 384.011,410.975 385.011,429.975 395,448.5C 398.745,453.398 402.245,458.398 405.5,463.5C 400.709,467.068 395.709,470.402 390.5,473.5C 358.975,454.78 348.809,427.78 360,392.5C 374.772,363.696 398.272,351.696 430.5,356.5 Z"/></g>
<g><path style="opacity:1" fill="#cecece" d="M 430.5,356.5 C 449.636,361.885 463.97,373.218 473.5,390.5C 455.72,419.283 433.054,443.617 405.5,463.5C 402.245,458.398 398.745,453.398 395,448.5C 385.011,429.975 384.011,410.975 392,391.5C 400.661,374.994 413.495,363.328 430.5,356.5 Z"/></g>
<g><path style="opacity:1" fill="#bfbfbf" d="M 287.5,403.5 C 301.652,402.151 307.818,408.484 306,422.5C 301.968,430.037 295.802,432.537 287.5,430C 279.958,426.016 277.458,419.849 280,411.5C 282.028,408.308 284.528,405.641 287.5,403.5 Z"/></g>
</svg>
