<?xml version="1.0" encoding="UTF-8"?>
<svg version="1.1" xmlns="http://www.w3.org/2000/svg" width="512" height="512">
<path d="M0 0 C1.45108658 0.00273422 1.45108658 0.00273422 2.93148804 0.00552368 C17.26440977 0.05095174 31.21023917 0.55983928 45.3125 3.3125 C46.65803955 3.55395752 46.65803955 3.55395752 48.03076172 3.80029297 C107.84088904 14.62287989 165.35495829 48.68064457 202.3125 97.3125 C202.72918945 97.85277832 203.14587891 98.39305664 203.57519531 98.94970703 C211.2584873 108.9447116 218.00092968 119.40459036 224.3125 130.3125 C224.70679199 130.98974121 225.10108398 131.66698242 225.50732422 132.36474609 C238.68961173 155.2833756 247.29510918 180.85822563 252.625 206.6875 C252.77243652 207.39817627 252.91987305 208.10885254 253.07177734 208.84106445 C256.05713787 224.48358366 256.6873098 240.11919606 256.625 256 C256.62226578 257.45108658 256.62226578 257.45108658 256.61947632 258.93148804 C256.57404826 273.26440977 256.06516072 287.21023917 253.3125 301.3125 C253.15152832 302.20952637 252.99055664 303.10655273 252.82470703 304.03076172 C242.00212011 363.84088904 207.94435543 421.35495829 159.3125 458.3125 C158.77222168 458.72918945 158.23194336 459.14587891 157.67529297 459.57519531 C147.6802884 467.2584873 137.22040964 474.00092968 126.3125 480.3125 C125.63525879 480.70679199 124.95801758 481.10108398 124.26025391 481.50732422 C101.3416244 494.68961173 75.76677437 503.29510918 49.9375 508.625 C49.22682373 508.77243652 48.51614746 508.91987305 47.78393555 509.07177734 C32.14141634 512.05713787 16.50580394 512.6873098 0.625 512.625 C-0.34239105 512.62317719 -1.3097821 512.62135437 -2.30648804 512.61947632 C-16.63940977 512.57404826 -30.58523917 512.06516072 -44.6875 509.3125 C-45.58452637 509.15152832 -46.48155273 508.99055664 -47.40576172 508.82470703 C-107.21588904 498.00212011 -164.72995829 463.94435543 -201.6875 415.3125 C-202.10418945 414.77222168 -202.52087891 414.23194336 -202.95019531 413.67529297 C-210.6334873 403.6802884 -217.37592968 393.22040964 -223.6875 382.3125 C-224.08179199 381.63525879 -224.47608398 380.95801758 -224.88232422 380.26025391 C-238.06461173 357.3416244 -246.67010918 331.76677437 -252 305.9375 C-252.14743652 305.22682373 -252.29487305 304.51614746 -252.44677734 303.78393555 C-255.43213787 288.14141634 -256.0623098 272.50580394 -256 256.625 C-255.99817719 255.65760895 -255.99635437 254.6902179 -255.99447632 253.69351196 C-255.94904826 239.36059023 -255.44016072 225.41476083 -252.6875 211.3125 C-252.44604248 209.96696045 -252.44604248 209.96696045 -252.19970703 208.59423828 C-241.37712011 148.78411096 -207.31935543 91.27004171 -158.6875 54.3125 C-158.14722168 53.89581055 -157.60694336 53.47912109 -157.05029297 53.04980469 C-147.0552884 45.3665127 -136.59540964 38.62407032 -125.6875 32.3125 C-125.01025879 31.91820801 -124.33301758 31.52391602 -123.63525391 31.11767578 C-100.7166244 17.93538827 -75.14177437 9.32989082 -49.3125 4 C-48.60182373 3.85256348 -47.89114746 3.70512695 -47.15893555 3.55322266 C-31.51641634 0.56786213 -15.88080394 -0.0623098 0 0 Z " fill="#4B6EDC" transform="translate(255.6875,-0.3125)"/>
<path d="M0 0 C124.41 0 248.82 0 377 0 C381.616663 22.15998239 384.39956838 41.49651225 384.3125 63.6875 C384.30976578 65.13858658 384.30976578 65.13858658 384.30697632 66.61898804 C384.26154826 80.95190977 383.75266072 94.89773917 381 109 C380.83902832 109.89702637 380.67805664 110.79405273 380.51220703 111.71826172 C378.39812629 123.40155328 375.34345349 134.66401838 371.625 145.9375 C371.27421387 147.00194336 370.92342773 148.06638672 370.56201172 149.16308594 C368.43654001 155.38365226 366.00419047 161.40971494 363.34521484 167.41625977 C362.86117439 168.51587414 362.86117439 168.51587414 362.36735535 169.63770294 C361.57992834 171.42588108 360.79020312 173.2130469 360 175 C331.71440197 175.03291512 303.42905694 175.02595789 275.14348602 174.97153378 C262.00997318 174.94719327 248.87669111 174.93590029 235.74316406 174.95532227 C224.29595166 174.97221741 212.84906202 174.96463266 201.40189219 174.92765242 C195.34059594 174.9089262 189.2798456 174.9024584 183.21855164 174.92530632 C177.51213067 174.94642976 171.80670954 174.93479549 166.10037613 174.89815521 C164.00742112 174.89046858 161.91438275 174.89469794 159.82148361 174.91181374 C142.0197599 175.04623143 142.0197599 175.04623143 136.88879395 170.56056213 C135.90981704 169.38690824 134.94434926 168.20169202 134 167 C118.14896466 157.63527141 99.92118429 156.63763852 82 156.625 C81.24828522 156.62300598 80.49657043 156.62101196 79.72207642 156.61895752 C71.52187529 156.6214192 63.58656932 156.94564109 55.515625 158.57568359 C52.90634449 159.0157971 50.63746331 159.25412338 48 159 C46.00380806 156.91985606 44.48755355 155.04124373 42.875 152.6875 C42.40199463 152.0167041 41.92898926 151.3459082 41.44165039 150.65478516 C27.04007271 129.83213705 16.32099339 107.1917604 9 83 C8.66331299 81.91307861 8.66331299 81.91307861 8.31982422 80.80419922 C4.90274893 69.75049825 4.90274893 69.75049825 5 64 C6.31194336 63.9906543 7.62388672 63.98130859 8.97558594 63.97167969 C13.84376971 63.93180339 18.71131995 63.86605087 23.57910156 63.79248047 C25.6857896 63.76425721 27.7925838 63.74304944 29.89941406 63.72900391 C32.9282878 63.70759339 35.95588331 63.6609524 38.984375 63.609375 C40.39707672 63.60753204 40.39707672 63.60753204 41.83831787 63.60565186 C47.04298157 63.53250266 47.04298157 63.53250266 51.55957031 61.17675781 C53.65207022 58.01460032 54.06638463 55.78392414 54 52 C51.96921098 49.02896569 50.33576299 47.27750543 46.72885132 46.52816772 C43.88609221 46.32391969 41.08056479 46.28178561 38.23046875 46.29296875 C37.19432938 46.27784744 36.15819 46.26272614 35.09065247 46.24714661 C31.78938069 46.20424465 28.48902287 46.19542884 25.1875 46.1875 C22.9459392 46.16435776 20.70440017 46.138993 18.46289062 46.11132812 C12.97525177 46.04845133 7.48797043 46.01353684 2 46 C2.144375 46.79664063 2.28875 47.59328125 2.4375 48.4140625 C2.623125 49.47367188 2.80875 50.53328125 3 51.625 C3.185625 52.66914063 3.37125 53.71328125 3.5625 54.7890625 C3.98758902 57.90891229 4.03070286 60.85679493 4 64 C-6.21392327 64.06953038 -16.42779017 64.12282675 -26.64190197 64.15543652 C-31.38480683 64.1710881 -36.1275497 64.19231715 -40.87036133 64.22631836 C-45.44800215 64.25892985 -50.02548721 64.27685684 -54.60323524 64.28463173 C-56.34913904 64.29017202 -58.09503438 64.30099089 -59.84087181 64.31719017 C-62.28757482 64.33898842 -64.73363533 64.34196595 -67.18041992 64.34057617 C-67.90115189 64.351362 -68.62188385 64.36214783 -69.36445618 64.3732605 C-73.75659739 64.34629 -76.51999439 63.71427164 -80 61 C-82.50031654 57.24952518 -82.53603554 55.44143734 -82 51 C-79.3217245 47.47445718 -77.85108875 46.14364713 -73.43754578 45.39872742 C-72.04913206 45.38433758 -70.66026198 45.39729758 -69.2722168 45.43237305 C-68.51070816 45.43164291 -67.74919952 45.43091278 -66.96461487 45.43016052 C-64.45874687 45.43363165 -61.95476015 45.47246682 -59.44921875 45.51171875 C-57.70759598 45.52104865 -55.96596006 45.52816393 -54.22431946 45.53315735 C-49.64878874 45.5522134 -45.07405642 45.60130172 -40.49884033 45.65667725 C-35.82681071 45.70790008 -31.15465159 45.73067784 -26.48242188 45.75585938 C-17.32126453 45.80942218 -8.16069875 45.89471778 1 46 C0.67 42.7 0.34 39.4 0 36 C0 24.12 0 12.24 0 0 Z " fill="#6386FE" transform="translate(128,192)"/>
<path d="M0 0 C1.45108658 0.00273422 1.45108658 0.00273422 2.93148804 0.00552368 C17.26440977 0.05095174 31.21023917 0.55983928 45.3125 3.3125 C46.65803955 3.55395752 46.65803955 3.55395752 48.03076172 3.80029297 C107.84088904 14.62287989 165.35495829 48.68064457 202.3125 97.3125 C202.72918945 97.85277832 203.14587891 98.39305664 203.57519531 98.94970703 C211.2584873 108.9447116 218.00092968 119.40459036 224.3125 130.3125 C224.70679199 130.98974121 225.10108398 131.66698242 225.50732422 132.36474609 C235.03708306 148.93311573 248.3125 172.84736071 248.3125 192.3125 C124.5625 192.3125 0.8125 192.3125 -126.6875 192.3125 C-125.52469503 172.54481549 -125.52469503 172.54481549 -123.5 163.9375 C-123.27860352 162.9676416 -123.05720703 161.9977832 -122.82910156 160.99853516 C-115.10328266 128.08568462 -100.71554648 96.50050992 -79.51245117 70.07885742 C-78.79522385 69.18446457 -78.07799652 68.29007172 -77.33903503 67.36857605 C-76.79402847 66.69007095 -76.24902191 66.01156586 -75.6875 65.3125 C-87.50093333 64.89282351 -99.31255629 64.5743365 -111.13196373 64.37988091 C-116.62258059 64.286475 -122.10804985 64.16015692 -127.59570312 63.95458984 C-154.67429009 61.57805983 -154.67429009 61.57805983 -178.37442017 71.83206177 C-181.59550204 75.42047243 -184.36709573 79.08231748 -186.6875 83.3125 C-187.3475 82.9825 -188.0075 82.6525 -188.6875 82.3125 C-168.24446881 61.45609285 -168.24446881 61.45609285 -158.6875 54.3125 C-157.56634859 53.45059584 -156.44525894 52.58861133 -155.32421875 51.7265625 C-145.87074054 44.54699475 -135.95734483 38.25487118 -125.6875 32.3125 C-125.01025879 31.91820801 -124.33301758 31.52391602 -123.63525391 31.11767578 C-100.7166244 17.93538827 -75.14177437 9.32989082 -49.3125 4 C-48.60182373 3.85256348 -47.89114746 3.70512695 -47.15893555 3.55322266 C-31.51641634 0.56786213 -15.88080394 -0.0623098 0 0 Z " fill="#4B6EDC" transform="translate(255.6875,-0.3125)"/>
<path d="M0 0 C2.08454617 0.0299171 4.1692064 0.052657 6.25390625 0.06860352 C11.6886969 0.12912301 17.11642509 0.28572158 22.54846191 0.46386719 C28.11206523 0.62882963 33.67683321 0.70088638 39.2421875 0.78125 C50.12286159 0.95182255 60.99833926 1.22413887 71.875 1.5625 C70.91429533 3.01338888 69.95229634 4.46342079 68.98974609 5.91308594 C68.45417084 6.72066345 67.91859558 7.52824097 67.36679077 8.36029053 C65.84482937 10.60703845 64.23003825 12.72240302 62.5 14.8125 C44.50400673 37.78777681 32.47911505 66.31519604 25.875 94.5625 C25.50157912 96.09381758 25.12788306 97.62506809 24.75390625 99.15625 C24.39647898 100.6662044 24.04093699 102.17660661 23.6875 103.6875 C23.53249023 104.33025879 23.37748047 104.97301758 23.21777344 105.63525391 C21.43438548 113.58279217 20.84052001 121.35557989 19.875 129.5625 C-19.725 129.5625 -59.325 129.5625 -100.125 129.5625 C-100.125 121.66854679 -100.125 121.66854679 -98.76171875 117.47265625 C-98.4577417 116.53574951 -98.15376465 115.59884277 -97.84057617 114.63354492 C-97.50131104 113.6407251 -97.1620459 112.64790527 -96.8125 111.625 C-96.27943237 110.05359253 -96.27943237 110.05359253 -95.7355957 108.45043945 C-85.33691075 78.66399895 -69.54287846 51.55960814 -49.125 27.5625 C-48.56039062 26.86382812 -47.99578125 26.16515625 -47.4140625 25.4453125 C-46.65222656 24.51332031 -46.65222656 24.51332031 -45.875 23.5625 C-45.45734375 23.046875 -45.0396875 22.53125 -44.609375 22 C-43.125 20.5625 -43.125 20.5625 -40.96533203 19.47827148 C-38.33269839 17.70259019 -36.89962511 16.24132738 -34.91455078 13.82446289 C-24.24217039 1.08219767 -16.16938994 -0.69052691 0 0 Z " fill="#3C55C3" transform="translate(109.125,62.4375)"/>
<path d="M0 0 C1.20960661 0.00436926 1.20960661 0.00436926 2.44364971 0.00882679 C3.29388303 0.00797237 4.14411634 0.00711794 5.0201143 0.00623763 C7.89149251 0.00458021 10.76281331 0.01010845 13.63418621 0.01555592 C15.68356872 0.01583776 17.73295134 0.01568012 19.78233379 0.01511341 C25.36474994 0.01482532 30.9471448 0.02072395 36.52955598 0.02768737 C42.35654081 0.03391895 48.18352607 0.03452455 54.01051372 0.03571278 C65.05318376 0.03882667 76.09584394 0.04704084 87.13850963 0.05706227 C99.70661161 0.0682216 112.27471405 0.0737334 124.84281975 0.0787577 C150.70418891 0.08922341 176.56554931 0.10682397 202.42691082 0.12908131 C201.16684586 3.35665979 199.87696906 6.20951996 197.95816082 9.09783131 C197.47379558 9.82824635 196.98943035 10.55866139 196.49038738 11.31121022 C195.97444011 12.07610768 195.45849285 12.84100514 194.92691082 13.62908131 C194.13365398 14.81316578 194.13365398 14.81316578 193.32437176 16.02117115 C188.63861024 22.94886344 183.64442726 29.59564258 178.42691082 36.12908131 C178.09691082 35.46908131 177.76691082 34.80908131 177.42691082 34.12908131 C175.83943035 34.85611256 175.83943035 34.85611256 174.21987957 35.59783131 C164.45831049 39.94627605 154.61711372 43.4816692 144.36441082 46.50408131 C142.67191204 47.00391529 142.67191204 47.00391529 140.94522136 47.51384693 C134.48377401 49.37430062 128.04284425 50.93376879 121.42691082 52.12908131 C120.40984051 52.32630787 119.39277019 52.52353443 118.34487957 52.72673756 C67.68857338 61.35062946 16.39619022 51.04850913 -28.76058918 27.44158131 C-29.44347004 27.08531666 -30.1263509 26.72905201 -30.82992512 26.36199147 C-35.35222606 23.93972983 -39.45007945 21.18256841 -43.57308918 18.12908131 C-40.85476885 15.41076097 -38.42731877 15.21266408 -34.69808918 14.31658131 C-23.17778324 11.38977843 -10.61272185 0.02908377 0 0 Z " fill="#6386FE" transform="translate(275.57308918237686,383.8709186911583)"/>
<path d="M0 0 C17.33697258 9.35084527 34.42283229 20.66404323 48.39111328 34.63232422 C-32.12888672 34.63232422 -112.64888672 34.63232422 -195.60888672 34.63232422 C-187.85151169 19.11757417 -169.61295567 5.37815846 -155.60888672 -4.36767578 C-155.05297852 -4.75874512 -154.49707031 -5.14981445 -153.92431641 -5.55273438 C-144.51918355 -12.13841393 -134.74642176 -17.93717898 -124.60205078 -23.31054688 C-122.87460714 -24.22674371 -121.15859846 -25.16443908 -119.44482422 -26.10595703 C-87.85282567 -42.2661292 -28.05003438 -14.70487484 0 0 Z " fill="#6386FE" transform="translate(377.60888671875,29.36767578125)"/>
<path d="M0 0 C1.859375 1.90625 1.859375 1.90625 3.75 4.5 C16.99487164 21.46583892 33.47444534 34.74490412 51 47 C47.35457811 49.43028126 45.53718676 49.28339833 41.19140625 49.3359375 C40.51709564 49.34436172 39.84278503 49.35278595 39.14804077 49.36146545 C36.95261766 49.38119687 34.75799698 49.3811642 32.5625 49.375 C31.81557892 49.37412384 31.06865784 49.37324768 30.29910278 49.37234497 C10.31770497 49.29476347 -11.4929342 46.85986005 -27.515625 33.53125 C-30.8066015 30.13634792 -32.661089 26.76986857 -33.5625 22.0625 C-32.28284919 15.09551226 -28.01461393 10.34500703 -22.3203125 6.3828125 C-7.39559992 -2.51171318 -7.39559992 -2.51171318 0 0 Z " fill="#4155D2" transform="translate(179,353)"/>
<path d="M0 0 C1.39335458 -0.0015035 2.78670829 -0.00493619 4.18005371 -0.01020813 C7.09556302 -0.01453366 10.00996396 0.00225002 12.92529297 0.03442383 C16.65490381 0.0742077 20.38243717 0.06490266 24.11211395 0.04018879 C26.98794464 0.02597865 29.86329331 0.03611315 32.73908997 0.0537014 C34.11374255 0.05953479 35.4884448 0.05827305 36.86308289 0.0496769 C48.93444394 -0.0006761 48.93444394 -0.0006761 52.25195312 3.08666992 C54.44788854 6.6375649 54.56626308 8.65497071 53.90625 12.76171875 C52.11062595 15.51500896 50.85370078 17.28799336 47.90625 18.76171875 C45.99295728 18.8784432 44.0756455 18.93142582 42.15893555 18.95458984 C40.9539592 18.97065277 39.74898285 18.9867157 38.50749207 19.00326538 C32.99433539 19.04761355 27.48131018 19.08921963 21.96801758 19.11181641 C19.05689043 19.12515304 16.14646473 19.15299909 13.2355957 19.19384766 C9.71891617 19.24319687 6.20287259 19.26793988 2.68586159 19.27504349 C0.69770832 19.28500721 -1.29027542 19.31924586 -3.27815247 19.35385132 C-13.32211303 19.3302801 -13.32211303 19.3302801 -16.38354492 16.44384766 C-18.58507442 12.99117056 -19.23793828 10.87108465 -19.09375 6.76171875 C-14.97687243 -1.27249386 -8.16055648 -0.10143235 0 0 Z " fill="#6386FE" transform="translate(348.09375,109.23828125)"/>
<path d="M0 0 C0.95769287 -0.00478363 1.91538574 -0.00956726 2.90209961 -0.01449585 C4.92270555 -0.01789151 6.94336668 -0.00871245 8.96386719 0.01220703 C12.05268111 0.0389774 15.1378613 0.01244798 18.2265625 -0.01953125 C20.19271634 -0.01622709 22.15886791 -0.00982074 24.125 0 C25.04595459 -0.01012115 25.96690918 -0.02024231 26.91577148 -0.03067017 C31.48257733 0.05259774 33.44134116 0.17708974 37.13989258 3.07666016 C38.98424076 5.55874295 39.76834789 6.63054458 39.75 9.6640625 C39.77449219 10.3034375 39.79898438 10.9428125 39.82421875 11.6015625 C38.57601312 14.98131928 36.10593686 16.92246829 33.0625 18.6640625 C29.92426615 19.35379731 26.88642029 19.31957787 23.68359375 19.2578125 C22.79390396 19.25785278 21.90421417 19.25789307 20.98756409 19.25793457 C19.11411441 19.25259222 17.24066432 19.23506457 15.36743164 19.20605469 C12.5053236 19.16414046 9.64556692 19.16499491 6.78320312 19.171875 C4.95831704 19.16138341 3.13344303 19.14844547 1.30859375 19.1328125 C0.45639755 19.13261108 -0.39579865 19.13240967 -1.27381897 19.13220215 C-7.18576272 19.01477707 -10.64916137 17.95240113 -14.9375 13.6640625 C-15.73196353 6.74088033 -15.73196353 6.74088033 -13.02368164 3.07006836 C-8.70062368 -0.30021375 -5.34002194 -0.05868605 0 0 Z " fill="#4B6EDC" transform="translate(243.9375,237.3359375)"/>
<path d="M0 0 C0.75792847 -0.00099701 1.51585693 -0.00199402 2.29675293 -0.00302124 C3.89374316 0.00164436 5.49075022 0.02100948 7.08740234 0.05419922 C9.52445675 0.10143084 11.95713473 0.09531272 14.39453125 0.08203125 C15.95054677 0.0931857 17.50654396 0.10740608 19.0625 0.125 C19.78659058 0.12317719 20.51068115 0.12135437 21.25671387 0.11947632 C26.09101298 0.25417353 28.69453444 1.20754294 32.03125 4.7265625 C33.18013518 8.67585529 33.46254396 10.75615109 31.78125 14.5390625 C30.03125 16.7265625 30.03125 16.7265625 27.03125 18.7265625 C24.4767369 18.9579696 22.03354074 19.07841196 19.4765625 19.09765625 C18.73800018 19.10668472 17.99943787 19.1157132 17.23849487 19.12501526 C15.67677866 19.1395128 14.11500178 19.14840328 12.55322266 19.15209961 C10.1711518 19.16398813 7.7916797 19.21316367 5.41015625 19.26367188 C3.89063761 19.27313769 2.37110309 19.28037197 0.8515625 19.28515625 C0.14307159 19.30468857 -0.56541931 19.32422089 -1.29537964 19.34434509 C-5.16071093 19.30931547 -6.82632206 18.83978759 -9.88720703 16.40649414 C-12.53536638 12.99705887 -13.12019001 11.04260266 -12.96875 6.7265625 C-9.40070166 1.08582136 -6.70879057 -0.17065894 0 0 Z " fill="#6386FE" transform="translate(277.96875,109.2734375)"/>
<path d="M0 0 C1.12792969 -0.01095703 2.25585938 -0.02191406 3.41796875 -0.03320312 C11.57466854 0.03919362 11.57466854 0.03919362 15.71875 2.3828125 C18.22481865 5.44944914 18.5 7.63425119 18.5 11.5625 C16.91161066 15.13637602 15.78365642 16.37339572 12.5 18.5625 C8.74396499 19.00024364 4.96626889 18.88665567 1.1875 18.875 C0.15431641 18.89111328 -0.87886719 18.90722656 -1.94335938 18.92382812 C-7.50437601 18.92739517 -11.75721654 18.82763233 -16.5 15.5625 C-18.07898053 12.40453893 -18.31928171 8.95579364 -17.5 5.5625 C-13.23663555 -1.10976096 -7.13245366 -0.15080045 0 0 Z " fill="#6386FE" transform="translate(100.5,365.4375)"/>
</svg>
