<?xml version="1.0" encoding="UTF-8"?>
<svg version="1.1" xmlns="http://www.w3.org/2000/svg" width="260" height="280">
<path d="M0 0 C0.7734375 0.63164063 1.546875 1.26328125 2.34375 1.9140625 C21.61459828 18.27049237 32.12104452 41.77130203 34.61914062 66.68481445 C36.36928842 89.26307418 29.56944056 111.29371718 14.9921875 128.68359375 C14.33476562 129.44800781 13.67734375 130.21242187 13 131 C12.22398437 131.97453125 11.44796875 132.9490625 10.6484375 133.953125 C-0.73456992 147.58465438 -19.00126439 156.92480643 -36 161 C-36.83917969 161.22300781 -37.67835938 161.44601563 -38.54296875 161.67578125 C-61.45150974 166.89679757 -87.09926015 161.44602781 -106.9296875 149.234375 C-128.31391499 133.67231632 -143.01267196 112.81937059 -147.578125 86.69140625 C-149.58522431 69.1292873 -148.08996309 51.30933489 -141 35 C-140.59136719 34.04867187 -140.18273437 33.09734375 -139.76171875 32.1171875 C-129.51376929 10.00471063 -110.5049745 -6.41334111 -87.95703125 -15.18359375 C-59.08993866 -24.97330341 -23.4038134 -20.32958367 0 0 Z " fill="#EBEBEB" transform="translate(187,58)"/>
<path d="M0 0 C3.89730729 1.47828897 4.94269008 3.48542888 7 7 C7.721875 7.53625 8.44375 8.0725 9.1875 8.625 C9.785625 9.07875 10.38375 9.5325 11 10 C11 10.99 11 11.98 11 13 C12.32 12.67 13.64 12.34 15 12 C15 12.99 15 13.98 15 15 C15.66 15 16.32 15 17 15 C17 15.66 17 16.32 17 17 C17.66 17 18.32 17 19 17 C20 18 21 19 22 20 C22.66 20 23.32 20 24 20 C24.33 20.66 24.66 21.32 25 22 C26.89533342 22.46523063 26.89533342 22.46523063 29.0625 22.625 C30.361875 22.74875 31.66125 22.8725 33 23 C33.495 25.475 33.495 25.475 34 28 C35.21236328 27.94779297 35.21236328 27.94779297 36.44921875 27.89453125 C37.51785156 27.86746094 38.58648437 27.84039062 39.6875 27.8125 C40.74324219 27.77769531 41.79898438 27.74289063 42.88671875 27.70703125 C46.40070518 28.03770751 48.24843792 28.8099812 51 31 C51 31.99 51 32.98 51 34 C51.66 34 52.32 34 53 34 C53 34.66 53 35.32 53 36 C53.78375 35.79375 54.5675 35.5875 55.375 35.375 C56.674375 35.189375 56.674375 35.189375 58 35 C58.66 35.66 59.32 36.32 60 37 C62.33294775 37.04241723 64.66702567 37.04092937 67 37 C68.485 37.495 68.485 37.495 70 38 C71.33525717 38.07973476 72.67412083 38.10771338 74.01171875 38.09765625 C74.76904297 38.09443359 75.52636719 38.09121094 76.30664062 38.08789062 C77.09232422 38.07951172 77.87800781 38.07113281 78.6875 38.0625 C79.48478516 38.05798828 80.28207031 38.05347656 81.10351562 38.04882812 C83.06904257 38.0370585 85.03453085 38.01912348 87 38 C87.495 37.01 87.495 37.01 88 36 C89.65 36 91.3 36 93 36 C93 35.01 93 34.02 93 33 C93.969375 33.020625 94.93875 33.04125 95.9375 33.0625 C98.87465895 33.35618499 98.87465895 33.35618499 100 32 C101.5781152 31.78958464 103.16335378 31.63143815 104.75 31.5 C108.22812239 31.18607205 111.59233666 30.79512145 115 30 C115 29.34 115 28.68 115 28 C117.64738916 26.5393715 118.89448334 26 122 26 C121 29 121 29 118.1484375 30.68359375 C116.89756946 31.2829434 115.63911866 31.86662797 114.375 32.4375 C113.70927979 32.74316895 113.04355957 33.04883789 112.35766602 33.36376953 C89.72734617 43.38686859 64.94339489 43.66372274 41.8125 35.25 C25.91561387 29.07220735 9.46448872 17.62024133 0 3 C0 2.01 0 1.02 0 0 Z " fill="#8B8B89" transform="translate(55,180)"/>
<path d="M0 0 C3.89730729 1.47828897 4.94269008 3.48542888 7 7 C7.721875 7.53625 8.44375 8.0725 9.1875 8.625 C9.785625 9.07875 10.38375 9.5325 11 10 C11 10.99 11 11.98 11 13 C12.32 12.67 13.64 12.34 15 12 C15 12.99 15 13.98 15 15 C15.66 15 16.32 15 17 15 C17 15.66 17 16.32 17 17 C17.66 17 18.32 17 19 17 C20 18 21 19 22 20 C22.66 20 23.32 20 24 20 C24.33 20.66 24.66 21.32 25 22 C26.89533342 22.46523063 26.89533342 22.46523063 29.0625 22.625 C30.361875 22.74875 31.66125 22.8725 33 23 C33.495 25.475 33.495 25.475 34 28 C35.21236328 27.94779297 35.21236328 27.94779297 36.44921875 27.89453125 C37.51785156 27.86746094 38.58648437 27.84039062 39.6875 27.8125 C40.74324219 27.77769531 41.79898438 27.74289063 42.88671875 27.70703125 C46.40070518 28.03770751 48.24843792 28.8099812 51 31 C51 31.99 51 32.98 51 34 C50.29875 33.67 49.5975 33.34 48.875 33 C45.73996884 31.90955438 43.29436818 31.84677357 40 32 C40 32.66 40 33.32 40 34 C24.77232073 29.25951835 8.72800108 16.4825542 0 3 C0 2.01 0 1.02 0 0 Z " fill="#A3A2A0" transform="translate(55,180)"/>
<path d="M0 0 C0.66 0 1.32 0 2 0 C0.53869514 10.00564031 -9.26683429 15.8893944 -16.79296875 21.6796875 C-19.19064404 23.41442456 -21.30316329 24.83560896 -24 26 C-23.45912682 22.21388773 -21.88277668 20.44599233 -19 18 C-18.34 18 -17.68 18 -17 18 C-16.896875 17.05125 -16.79375 16.1025 -16.6875 15.125 C-16 12 -16 12 -13 10 C-12.34 10.185625 -11.68 10.37125 -11 10.5625 C-10.01 10.7790625 -10.01 10.7790625 -9 11 C-7.35405861 9.60411246 -7.35405861 9.60411246 -6 8 C-5.34 8 -4.68 8 -4 8 C-4 7.34 -4 6.68 -4 6 C-4.99 6.33 -5.98 6.66 -7 7 C-6.67 6.01 -6.34 5.02 -6 4 C-5.01 3.67 -4.02 3.34 -3 3 C-2.34 3.33 -1.68 3.66 -1 4 C-0.67 2.68 -0.34 1.36 0 0 Z " fill="#C7C7C7" transform="translate(201,182)"/>
<path d="M0 0 C0 0.66 0 1.32 0 2 C0.78375 1.79375 1.5675 1.5875 2.375 1.375 C3.674375 1.189375 3.674375 1.189375 5 1 C5.66 1.66 6.32 2.32 7 3 C8.155 3 9.31 3 10.5 3 C11.655 3 12.81 3 14 3 C14.66 3.66 15.32 4.32 16 5 C18.73434962 5.3063859 21.38279821 5.5113336 24.125 5.625 C24.87910156 5.66367188 25.63320312 5.70234375 26.41015625 5.7421875 C28.27303184 5.83651031 30.13648255 5.91934662 32 6 C32 6.33 32 6.66 32 7 C16.08846035 7.43615388 1.7263299 6.82608703 -13 0 C-13 -0.66 -13 -1.32 -13 -2 C-8.1750546 -3.60831513 -4.54540006 -1.9480286 0 0 Z " fill="#979796" transform="translate(108,214)"/>
<path d="M0 0 C3.89730729 1.47828897 4.94269008 3.48542888 7 7 C7.721875 7.53625 8.44375 8.0725 9.1875 8.625 C9.785625 9.07875 10.38375 9.5325 11 10 C11 10.99 11 11.98 11 13 C12.32 12.67 13.64 12.34 15 12 C15 12.99 15 13.98 15 15 C15.66 15 16.32 15 17 15 C17 15.66 17 16.32 17 17 C17.66 17 18.32 17 19 17 C20 18 21 19 22 20 C22.66 20 23.32 20 24 20 C24.33 20.99 24.66 21.98 25 23 C25.66 23.66 26.32 24.32 27 25 C27 25.66 27 26.32 27 27 C21.73706518 25.48766241 18.47590297 22.07011666 14.625 18.375 C13.96105225 17.74489014 13.29710449 17.11478027 12.61303711 16.46557617 C2.37016623 6.66130737 2.37016623 6.66130737 0 3 C0 2.01 0 1.02 0 0 Z " fill="#B3B2B2" transform="translate(55,180)"/>
<path d="M0 0 C2.31 0.33 4.62 0.66 7 1 C6.67 1.99 6.34 2.98 6 4 C6.495 4.433125 6.99 4.86625 7.5 5.3125 C9 7 9 7 9 10 C8.01 10 7.02 10 6 10 C7.11854586 13.72614153 7.11854586 13.72614153 10 16 C9.34 16.33 8.68 16.66 8 17 C3.44255214 13.09361612 0.25254764 8.03057164 -0.25 2 C-0.1675 1.34 -0.085 0.68 0 0 Z " fill="#CBCBCB" transform="translate(46,162)"/>
<path d="M0 0 C-1 3 -1 3 -4.23828125 4.859375 C-5.59119695 5.50057988 -6.94956829 6.13036968 -8.3125 6.75 C-8.98990234 7.07871094 -9.66730469 7.40742188 -10.36523438 7.74609375 C-14.10324999 9.47807752 -16.09531814 10.1701634 -20 9 C-22.37041609 9.09003157 -22.37041609 9.09003157 -24.75 9.4375 C-25.54921875 9.53933594 -26.3484375 9.64117187 -27.171875 9.74609375 C-27.77515625 9.82988281 -28.3784375 9.91367188 -29 10 C-29 9.01 -29 8.02 -29 7 C-27.5459375 7.0309375 -27.5459375 7.0309375 -26.0625 7.0625 C-23.12534105 7.35618499 -23.12534105 7.35618499 -22 6 C-20.4218848 5.78958464 -18.83664622 5.63143815 -17.25 5.5 C-13.77187761 5.18607205 -10.40766334 4.79512145 -7 4 C-7 3.34 -7 2.68 -7 2 C-4.35261084 0.5393715 -3.10551666 0 0 0 Z " fill="#A8A8A8" transform="translate(177,206)"/>
<path d="M0 0 C0.66 0.33 1.32 0.66 2 1 C1.979375 1.7425 1.95875 2.485 1.9375 3.25 C1.99410174 5.74047648 2.31123061 7.6275721 3 10 C3.144375 10.61875 3.28875 11.2375 3.4375 11.875 C4.01281672 14.18176594 4.01281672 14.18176594 5.125 17.0625 C6 20 6 20 5 23 C4.34 21.68 3.68 20.36 3 19 C2.34 19 1.68 19 1 19 C-0.58869469 12.99984057 -1.59754554 7.22559073 -1 1 C-0.67 0.67 -0.34 0.34 0 0 Z " fill="#DADADA" transform="translate(41,138)"/>
<path d="M0 0 C0.33 0 0.66 0 1 0 C0.83552405 6.35475248 -0.45113839 12.06327218 -2.4375 18.0625 C-2.65494873 18.72967041 -2.87239746 19.39684082 -3.09643555 20.08422852 C-4.74342991 24.87171496 -4.74342991 24.87171496 -7 26 C-7.625 24.1875 -7.625 24.1875 -8 22 C-7.01 20.515 -7.01 20.515 -6 19 C-4.26396821 15.17148882 -3.32378971 11.35199008 -2.4375 7.25 C-1.10872675 1.10872675 -1.10872675 1.10872675 0 0 Z " fill="#DADADA" transform="translate(218,143)"/>
<path d="M0 0 C-4.98956567 3.47757607 -9.41739113 4.32869567 -15.4375 3.5625 C-16.283125 3.376875 -17.12875 3.19125 -18 3 C-17.67 2.34 -17.34 1.68 -17 1 C-13.9453125 0.33203125 -13.9453125 0.33203125 -10.125 -0.1875 C-8.86945313 -0.36667969 -7.61390625 -0.54585937 -6.3203125 -0.73046875 C-3 -1 -3 -1 0 0 Z " fill="#999897" transform="translate(160,215)"/>
<path d="M0 0 C0.66 0 1.32 0 2 0 C1.48118887 4.1724106 0.28848726 6.25416821 -2.5625 9.3125 C-3.20316406 10.00988281 -3.84382812 10.70726562 -4.50390625 11.42578125 C-4.99761719 11.94527344 -5.49132812 12.46476563 -6 13 C-6.66 12.67 -7.32 12.34 -8 12 C-7.34 10.68 -6.68 9.36 -6 8 C-5.34 8 -4.68 8 -4 8 C-4 7.34 -4 6.68 -4 6 C-4.99 6.33 -5.98 6.66 -7 7 C-6.67 6.01 -6.34 5.02 -6 4 C-5.01 3.67 -4.02 3.34 -3 3 C-2.34 3.33 -1.68 3.66 -1 4 C-0.67 2.68 -0.34 1.36 0 0 Z " fill="#D5D5D5" transform="translate(201,182)"/>
<path d="M0 0 C0.66 0.33 1.32 0.66 2 1 C0.50164772 5.66154042 -2.88463591 6.86610751 -7 9 C-6.82374165 6.62051228 -6.30280227 5.29774151 -4.59765625 3.62109375 C-3.09350908 2.37884514 -1.54870149 1.18623944 0 0 Z " fill="#BDBDBD" transform="translate(184,199)"/>
<path d="M0 0 C0.33 0 0.66 0 1 0 C1.66666667 2 2.33333333 4 3 6 C3.391875 7.051875 3.78375 8.10375 4.1875 9.1875 C5 12 5 12 4 15 C1.1496974 11.79054398 0.56548301 9.50011452 0.3125 5.25 C0.24675781 4.26515625 0.18101563 3.2803125 0.11328125 2.265625 C0.07589844 1.51796875 0.03851563 0.7703125 0 0 Z " fill="#C8C8C8" transform="translate(42,146)"/>
<path d="M0 0 C0.66 0.33 1.32 0.66 2 1 C-0.64 3.64 -3.28 6.28 -6 9 C-6.99 8.67 -7.98 8.34 -9 8 C-6.03 5.36 -3.06 2.72 0 0 Z " fill="#E1E1E1" transform="translate(75,58)"/>
<path d="M0 0 C7.42857143 -0.28571429 7.42857143 -0.28571429 11 2 C11 2.66 11 3.32 11 4 C7.0507432 3.44894091 3.65079826 2.61064629 0 1 C0 0.67 0 0.34 0 0 Z " fill="#9C9C9A" transform="translate(87,208)"/>
<path d="M0 0 C0.33 0.66 0.66 1.32 1 2 C-0.25 5.5625 -0.25 5.5625 -2 9 C-2.99 9.33 -3.98 9.66 -5 10 C-4.55090939 8.51800098 -4.09043436 7.03944764 -3.625 5.5625 C-3.36976563 4.73878906 -3.11453125 3.91507813 -2.8515625 3.06640625 C-2 1 -2 1 0 0 Z " fill="#D4D4D4" transform="translate(209,171)"/>
<path d="M0 0 C2.49415272 0.99766109 3.78740335 1.68616685 5.3125 3.9375 C6 6 6 6 5 9 C0 3.375 0 3.375 0 0 Z " fill="#C9C9C9" transform="translate(55,180)"/>
<path d="M0 0 C0.53625 0.680625 1.0725 1.36125 1.625 2.0625 C-5 1.3125 -5 1.3125 -8.375 -0.9375 C-2.95961538 -2.41442308 -2.95961538 -2.41442308 0 0 Z " fill="#8A8988" transform="translate(114.375,216.9375)"/>
<path d="M0 0 C-0.33 0.99 -0.66 1.98 -1 3 C-3.5625 4.1875 -3.5625 4.1875 -6 5 C-6.33 4.01 -6.66 3.02 -7 2 C-4.35261084 0.5393715 -3.10551666 0 0 0 Z " fill="#AEAEAE" transform="translate(177,206)"/>
<path d="M0 0 C2.86724686 0.57344937 3.8614515 0.8614515 6 3 C5.01 3.99 4.02 4.98 3 6 C3 5.34 3 4.68 3 4 C2.01 3.67 1.02 3.34 0 3 C0 2.01 0 1.02 0 0 Z " fill="#C2C2C2" transform="translate(46,162)"/>
<path d="M0 0 C2.64 0.33 5.28 0.66 8 1 C8.33 1.99 8.66 2.98 9 4 C4.545 3.01 4.545 3.01 0 2 C0 1.34 0 0.68 0 0 Z " fill="#AAA9A7" transform="translate(80,202)"/>
<path d="M0 0 C1.65 0.99 3.3 1.98 5 3 C4.67 4.32 4.34 5.64 4 7 C2 5.1875 2 5.1875 0 3 C0 2.01 0 1.02 0 0 Z " fill="#BAB9BA" transform="translate(61,187)"/>
<path d="M0 0 C0.33 0.66 0.66 1.32 1 2 C0.06421005 4.35981813 -0.93347808 6.69631264 -2 9 C-2.66 7.68 -3.32 6.36 -4 5 C-2.68 3.35 -1.36 1.7 0 0 Z " fill="#D3D3D3" transform="translate(214,160)"/>
</svg>
