<?xml version="1.0" encoding="UTF-8"?>
<!DOCTYPE svg PUBLIC "-//W3C//DTD SVG 1.1//EN" "http://www.w3.org/Graphics/SVG/1.1/DTD/svg11.dtd">
<svg xmlns="http://www.w3.org/2000/svg" version="1.1" width="512px" height="512px" style="shape-rendering:geometricPrecision; text-rendering:geometricPrecision; image-rendering:optimizeQuality; fill-rule:evenodd; clip-rule:evenodd" xmlns:xlink="http://www.w3.org/1999/xlink">
<g><path style="opacity:1" fill="#949595" d="M 232.5,-0.5 C 247.833,-0.5 263.167,-0.5 278.5,-0.5C 301.524,1.83916 323.858,7.1725 345.5,15.5C 340.696,34.0567 332.53,51.0567 321,66.5C 297.848,90.4623 274.848,90.4623 252,66.5C 251.233,55.6577 248.566,45.3244 244,35.5C 238.96,31.1567 233.96,26.8234 229,22.5C 225.756,15.8552 223.922,8.85523 223.5,1.5C 226.5,0.833333 229.5,0.166667 232.5,-0.5 Z"/></g>
<g><path style="opacity:0.998" fill="#cccccd" d="M 223.5,1.5 C 223.922,8.85523 225.756,15.8552 229,22.5C 233.96,26.8234 238.96,31.1567 244,35.5C 248.566,45.3244 251.233,55.6577 252,66.5C 274.848,90.4623 297.848,90.4623 321,66.5C 332.53,51.0567 340.696,34.0567 345.5,15.5C 373.536,25.3384 398.536,40.005 420.5,59.5C 398.49,69.6824 383.656,86.3491 376,109.5C 372.639,121.235 374.639,131.901 382,141.5C 382.667,142.833 382.667,144.167 382,145.5C 379.925,149.579 377.092,153.079 373.5,156C 366.107,161.365 358.107,165.698 349.5,169C 348.333,170.167 347.167,171.333 346,172.5C 346,176.5 346,180.5 346,184.5C 342.392,192.05 339.058,199.717 336,207.5C 333.269,226.273 341.436,235.607 360.5,235.5C 373.091,235.149 385.091,232.315 396.5,227C 408.579,225.722 420.079,222.555 431,217.5C 445.829,226.715 446.329,236.881 432.5,248C 425.772,253.059 418.772,257.726 411.5,262C 390.949,266.839 372.283,275.506 355.5,288C 339.639,301.92 335.472,318.754 343,338.5C 351.619,356.551 364.119,371.384 380.5,383C 401.212,382.596 419.545,375.762 435.5,362.5C 439.747,369.788 445.08,376.288 451.5,382C 456.597,384.676 461.93,385.176 467.5,383.5C 470.42,384.586 473.42,385.252 476.5,385.5C 430.981,459.282 364.981,501.282 278.5,511.5C 263.167,511.5 247.833,511.5 232.5,511.5C 220.017,510.002 207.684,507.669 195.5,504.5C 200.803,501.917 205.303,498.25 209,493.5C 226.361,465.719 235.028,435.386 235,402.5C 220.494,388.154 211.827,370.82 209,350.5C 207.565,340.448 208.899,330.781 213,321.5C 216.081,315.669 219.415,310.002 223,304.5C 223.238,286.067 214.404,274.567 196.5,270C 188.779,269.096 181.446,270.429 174.5,274C 170.167,276.5 165.833,279 161.5,281.5C 155.355,275.881 150.689,269.214 147.5,261.5C 147.608,260.558 147.941,259.725 148.5,259C 157.949,258.373 167.282,259.206 176.5,261.5C 182.826,260.005 186.659,256.005 188,249.5C 190.539,234.244 185.206,222.577 172,214.5C 171.333,211.167 171.333,207.833 172,204.5C 173.167,202 175,200.167 177.5,199C 187.16,199.195 196.826,199.195 206.5,199C 226.509,177.813 236.009,152.646 235,123.5C 231.155,105.333 221.988,90.5 207.5,79C 177.492,58.3232 144.159,47.4898 107.5,46.5C 142.019,21.318 180.685,6.318 223.5,1.5 Z"/></g>
<g><path style="opacity:1" fill="#949595" d="M 107.5,46.5 C 144.159,47.4898 177.492,58.3232 207.5,79C 221.988,90.5 231.155,105.333 235,123.5C 236.009,152.646 226.509,177.813 206.5,199C 196.826,199.195 187.16,199.195 177.5,199C 175,200.167 173.167,202 172,204.5C 171.333,207.833 171.333,211.167 172,214.5C 185.206,222.577 190.539,234.244 188,249.5C 186.659,256.005 182.826,260.005 176.5,261.5C 167.282,259.206 157.949,258.373 148.5,259C 147.941,259.725 147.608,260.558 147.5,261.5C 150.689,269.214 155.355,275.881 161.5,281.5C 165.833,279 170.167,276.5 174.5,274C 181.446,270.429 188.779,269.096 196.5,270C 214.404,274.567 223.238,286.067 223,304.5C 219.415,310.002 216.081,315.669 213,321.5C 208.899,330.781 207.565,340.448 209,350.5C 211.827,370.82 220.494,388.154 235,402.5C 235.028,435.386 226.361,465.719 209,493.5C 205.303,498.25 200.803,501.917 195.5,504.5C 157.55,496.024 123.883,479.358 94.5,454.5C 93.4154,452.413 91.7488,451.08 89.5,450.5C 37.4392,405.721 7.43919,349.054 -0.5,280.5C -0.5,264.167 -0.5,247.833 -0.5,231.5C 0.576605,225.311 1.57661,218.977 2.5,212.5C 8.80316,218.945 16.1365,224.111 24.5,228C 26.8333,228.333 29.1667,228.667 31.5,229C 35.7298,235.96 39.5631,243.127 43,250.5C 46.6388,254.734 51.1388,257.568 56.5,259C 78.2567,262.539 93.09,254.039 101,233.5C 104.506,224.135 106.673,214.468 107.5,204.5C 107.522,202.035 107.022,199.702 106,197.5C 99.6727,191.848 96.3394,184.848 96,176.5C 101.845,170.992 108.679,167.158 116.5,165C 126.628,147.337 130.128,128.503 127,108.5C 119.971,94.0683 108.471,88.235 92.5,91C 83.7398,95.7138 74.7398,99.8805 65.5,103.5C 61.905,100.88 58.2383,98.5465 54.5,96.5C 69.6396,77.0234 87.3062,60.3568 107.5,46.5 Z"/></g>
<g><path style="opacity:1" fill="#949595" d="M 420.5,59.5 C 473.209,105.245 503.542,162.911 511.5,232.5C 511.5,247.167 511.5,261.833 511.5,276.5C 507.674,315.314 496.007,351.647 476.5,385.5C 473.42,385.252 470.42,384.586 467.5,383.5C 461.93,385.176 456.597,384.676 451.5,382C 445.08,376.288 439.747,369.788 435.5,362.5C 419.545,375.762 401.212,382.596 380.5,383C 364.119,371.384 351.619,356.551 343,338.5C 335.472,318.754 339.639,301.92 355.5,288C 372.283,275.506 390.949,266.839 411.5,262C 418.772,257.726 425.772,253.059 432.5,248C 446.329,236.881 445.829,226.715 431,217.5C 420.079,222.555 408.579,225.722 396.5,227C 385.091,232.315 373.091,235.149 360.5,235.5C 341.436,235.607 333.269,226.273 336,207.5C 339.058,199.717 342.392,192.05 346,184.5C 346,180.5 346,176.5 346,172.5C 347.167,171.333 348.333,170.167 349.5,169C 358.107,165.698 366.107,161.365 373.5,156C 377.092,153.079 379.925,149.579 382,145.5C 382.667,144.167 382.667,142.833 382,141.5C 374.639,131.901 372.639,121.235 376,109.5C 383.656,86.3491 398.49,69.6824 420.5,59.5 Z"/></g>
<g><path style="opacity:0.999" fill="#cccccd" d="M 2.5,212.5 C 10.0255,169.187 27.3589,130.52 54.5,96.5C 58.2383,98.5465 61.905,100.88 65.5,103.5C 74.7398,99.8805 83.7398,95.7138 92.5,91C 108.471,88.235 119.971,94.0683 127,108.5C 130.128,128.503 126.628,147.337 116.5,165C 108.679,167.158 101.845,170.992 96,176.5C 96.3394,184.848 99.6727,191.848 106,197.5C 107.022,199.702 107.522,202.035 107.5,204.5C 106.673,214.468 104.506,224.135 101,233.5C 93.09,254.039 78.2567,262.539 56.5,259C 51.1388,257.568 46.6388,254.734 43,250.5C 39.5631,243.127 35.7298,235.96 31.5,229C 29.1667,228.667 26.8333,228.333 24.5,228C 16.1365,224.111 8.80316,218.945 2.5,212.5 Z"/></g>
<g><path style="opacity:0.827" fill="#bcbcbd" d="M 89.5,450.5 C 91.7488,451.08 93.4154,452.413 94.5,454.5C 92.2512,453.92 90.5846,452.587 89.5,450.5 Z"/></g>
</svg>
