<?xml version="1.0" encoding="UTF-8"?>
<!DOCTYPE svg PUBLIC "-//W3C//DTD SVG 1.1//EN" "http://www.w3.org/Graphics/SVG/1.1/DTD/svg11.dtd">
<svg xmlns="http://www.w3.org/2000/svg" version="1.1" width="512px" height="512px" style="shape-rendering:geometricPrecision; text-rendering:geometricPrecision; image-rendering:optimizeQuality; fill-rule:evenodd; clip-rule:evenodd" xmlns:xlink="http://www.w3.org/1999/xlink">
<g><path style="opacity:0.991" fill="#feeb6b" d="M 30.5,-0.5 C 33.8333,-0.5 37.1667,-0.5 40.5,-0.5C 50.531,1.17244 60.531,3.50577 70.5,6.5C 68.3888,13.891 70.7221,19.391 77.5,23C 84.4106,24.2114 89.4106,21.7114 92.5,15.5C 128.171,32.32 161.504,52.6533 192.5,76.5C 188.775,78.3473 184.775,79.6806 180.5,80.5C 163.585,68.8721 145.585,59.0387 126.5,51C 117.32,47.4105 107.987,46.7438 98.5,49C 96.1898,50.6374 94.6898,52.804 94,55.5C 93.055,66.6806 95.055,77.3472 100,87.5C 105.925,99.0203 112.092,110.354 118.5,121.5C 148.151,166.061 181.651,207.727 219,246.5C 255.936,285.284 295.103,321.284 336.5,354.5C 352.016,367.356 368.35,379.022 385.5,389.5C 400.031,399.81 415.697,408.31 432.5,415C 461.878,424.621 471.378,414.787 461,385.5C 455.861,373.888 450.194,362.554 444,351.5C 442.591,350.219 441.091,349.219 439.5,348.5C 444.85,348.878 449.85,347.878 454.5,345.5C 473.51,373.847 489.677,403.847 503,435.5C 506.181,445.195 509.014,454.862 511.5,464.5C 511.5,472.167 511.5,479.833 511.5,487.5C 510.558,490.655 509.224,493.655 507.5,496.5C 512.116,481.232 507.116,470.399 492.5,464C 485.054,463.473 477.72,463.806 470.5,465C 459.232,462.133 448.232,458.466 437.5,454C 424.224,452.051 415.057,457.218 410,469.5C 407.743,480.57 410.91,489.57 419.5,496.5C 403.064,489.451 387.397,481.118 372.5,471.5C 395.044,476.798 406.211,467.798 406,444.5C 404.292,439.588 401.458,435.421 397.5,432C 342.436,396.624 291.102,356.291 243.5,311C 214.415,281.584 185.748,251.917 157.5,222C 140.735,215.635 129.235,220.801 123,237.5C 122.292,242.629 122.792,247.629 124.5,252.5C 112.782,239.391 101.782,225.724 91.5,211.5C 101.62,216.158 111.287,215.325 120.5,209C 127.44,201.27 129.274,192.437 126,182.5C 102.172,150.863 80.8382,117.529 62,82.5C 54.6618,67.9921 49.1618,52.8254 45.5,37C 51.5923,22.2738 47.5923,11.2738 33.5,4C 27.8923,2.22599 22.2256,2.05932 16.5,3.5C 21.0087,1.54017 25.6754,0.206835 30.5,-0.5 Z"/></g>
<g><path style="opacity:0.968" fill="#d7defc" d="M 79.5,-0.5 C 80.5,-0.5 81.5,-0.5 82.5,-0.5C 90.9012,1.63139 94.2345,6.96473 92.5,15.5C 89.4106,21.7114 84.4106,24.2114 77.5,23C 70.7221,19.391 68.3888,13.891 70.5,6.5C 72.6407,2.94423 75.6407,0.610901 79.5,-0.5 Z"/></g>
<g><path style="opacity:0.97" fill="#d6deff" d="M 392.5,-0.5 C 394.167,-0.5 395.833,-0.5 397.5,-0.5C 413.78,3.35724 420.614,13.6906 418,30.5C 411.32,45.4012 400.153,50.2345 384.5,45C 371.595,36.275 368.429,24.775 375,10.5C 379.594,4.63204 385.427,0.965369 392.5,-0.5 Z"/></g>
<g><path style="opacity:0.999" fill="#fffe9c" d="M 91.5,211.5 C 89.6053,210.027 87.9387,208.36 86.5,206.5C 83.5067,201.458 79.8401,197.125 75.5,193.5C 57.6705,168.471 41.1705,142.471 26,115.5C 13.4754,93.4081 4.6421,70.0748 -0.5,45.5C -0.5,38.8333 -0.5,32.1667 -0.5,25.5C 1.39456,15.2698 7.06122,7.93651 16.5,3.5C 22.2256,2.05932 27.8923,2.22599 33.5,4C 47.5923,11.2738 51.5923,22.2738 45.5,37C 49.1618,52.8254 54.6618,67.9921 62,82.5C 80.8382,117.529 102.172,150.863 126,182.5C 129.274,192.437 127.44,201.27 120.5,209C 111.287,215.325 101.62,216.158 91.5,211.5 Z"/></g>
<g><path style="opacity:1" fill="#f98b00" d="M 180.5,80.5 C 157.164,90.1757 136.498,103.842 118.5,121.5C 112.092,110.354 105.925,99.0203 100,87.5C 95.055,77.3472 93.055,66.6806 94,55.5C 94.6898,52.804 96.1898,50.6374 98.5,49C 107.987,46.7438 117.32,47.4105 126.5,51C 145.585,59.0387 163.585,68.8721 180.5,80.5 Z"/></g>
<g><path style="opacity:0.993" fill="#fea300" d="M 218.5,70.5 C 225.28,74.4514 230.114,80.1181 233,87.5C 243.87,172.796 288.703,232.296 367.5,266C 374.141,268.269 380.808,270.436 387.5,272.5C 392.4,257.899 394.9,242.899 395,227.5C 341.244,200.078 302.244,158.745 278,103.5C 275.695,92.51 279.195,84.01 288.5,78C 275.053,73.4308 261.386,70.5975 247.5,69.5C 323.014,69.1641 380.181,101.164 419,165.5C 439.554,204.209 446.387,245.209 439.5,288.5C 435.694,284.095 431.027,280.928 425.5,279C 415.39,278.153 405.39,276.653 395.5,274.5C 375.289,278.25 368.455,289.916 375,309.5C 380.079,317.127 387.245,321.294 396.5,322C 403.77,323.444 411.104,324.277 418.5,324.5C 418.626,329.87 419.959,334.87 422.5,339.5C 412.512,357.833 400.179,374.499 385.5,389.5C 368.35,379.022 352.016,367.356 336.5,354.5C 342.41,347.749 348.577,341.082 355,334.5C 359.5,328.167 364,321.833 368.5,315.5C 271.926,282.426 212.426,216.093 190,116.5C 187.849,106.596 187.182,96.5956 188,86.5C 189.431,82.6262 191.597,79.2928 194.5,76.5C 198.686,71.8708 204.019,69.5374 210.5,69.5C 213.176,69.837 215.843,70.1703 218.5,70.5 Z"/></g>
<g><path style="opacity:0.998" fill="#ffbd00" d="M 247.5,69.5 C 261.386,70.5975 275.053,73.4308 288.5,78C 279.195,84.01 275.695,92.51 278,103.5C 302.244,158.745 341.244,200.078 395,227.5C 394.9,242.899 392.4,257.899 387.5,272.5C 380.808,270.436 374.141,268.269 367.5,266C 288.703,232.296 243.87,172.796 233,87.5C 230.114,80.1181 225.28,74.4514 218.5,70.5C 228.158,69.9711 237.825,69.6378 247.5,69.5 Z"/></g>
<g><path style="opacity:1" fill="#ffbe00" d="M 192.5,76.5 C 193.167,76.5 193.833,76.5 194.5,76.5C 191.597,79.2928 189.431,82.6262 188,86.5C 187.182,96.5956 187.849,106.596 190,116.5C 212.426,216.093 271.926,282.426 368.5,315.5C 364,321.833 359.5,328.167 355,334.5C 348.577,341.082 342.41,347.749 336.5,354.5C 295.103,321.284 255.936,285.284 219,246.5C 181.651,207.727 148.151,166.061 118.5,121.5C 136.498,103.842 157.164,90.1757 180.5,80.5C 184.775,79.6806 188.775,78.3473 192.5,76.5 Z"/></g>
<g><path style="opacity:1" fill="#ffbd00" d="M 325.5,95.5 C 352.476,112.47 371.642,135.804 383,165.5C 358.427,146.444 339.26,123.11 325.5,95.5 Z"/></g>
<g><path style="opacity:0.94" fill="#d6deff" d="M 511.5,146.5 C 511.5,149.833 511.5,153.167 511.5,156.5C 505.02,164.775 497.853,165.442 490,158.5C 485.627,145.872 490.127,139.705 503.5,140C 506.961,141.305 509.628,143.471 511.5,146.5 Z"/></g>
<g><path style="opacity:0.995" fill="#febd01" d="M 75.5,193.5 C 79.8401,197.125 83.5067,201.458 86.5,206.5C 92.047,247.299 106.88,284.633 131,318.5C 154.179,350.016 182.679,375.516 216.5,395C 160.13,391.078 117.63,364.911 89,316.5C 85.9383,311.047 83.4383,305.38 81.5,299.5C 92.9537,290.677 95.4537,279.677 89,266.5C 83.9682,260.071 77.4682,256.405 69.5,255.5C 68.3523,234.499 70.3523,213.833 75.5,193.5 Z"/></g>
<g><path style="opacity:0.987" fill="#ffa300" d="M 86.5,206.5 C 87.9387,208.36 89.6053,210.027 91.5,211.5C 101.782,225.724 112.782,239.391 124.5,252.5C 160.428,294.763 199.095,334.429 240.5,371.5C 231.741,380.292 230.241,390.292 236,401.5C 237.833,404 240,406.167 242.5,408C 263.315,418.112 284.982,424.279 307.5,426.5C 309.01,427.836 310.677,429.003 312.5,430C 313.823,430.816 314.489,431.983 314.5,433.5C 249.341,452.366 190.007,441.199 136.5,400C 105.915,374.013 85.5813,341.513 75.5,302.5C 77.2504,301.13 79.2504,300.13 81.5,299.5C 83.4383,305.38 85.9383,311.047 89,316.5C 117.63,364.911 160.13,391.078 216.5,395C 182.679,375.516 154.179,350.016 131,318.5C 106.88,284.633 92.047,247.299 86.5,206.5 Z"/></g>
<g><path style="opacity:1" fill="#fffe9c" d="M 372.5,471.5 C 352.825,459.331 333.491,446.664 314.5,433.5C 314.489,431.983 313.823,430.816 312.5,430C 310.677,429.003 309.01,427.836 307.5,426.5C 284.294,409.3 261.961,390.967 240.5,371.5C 199.095,334.429 160.428,294.763 124.5,252.5C 122.792,247.629 122.292,242.629 123,237.5C 129.235,220.801 140.735,215.635 157.5,222C 185.748,251.917 214.415,281.584 243.5,311C 291.102,356.291 342.436,396.624 397.5,432C 401.458,435.421 404.292,439.588 406,444.5C 406.211,467.798 395.044,476.798 372.5,471.5 Z"/></g>
<g><path style="opacity:0.984" fill="#d6defe" d="M 69.5,255.5 C 77.4682,256.405 83.9682,260.071 89,266.5C 95.4537,279.677 92.9537,290.677 81.5,299.5C 79.2504,300.13 77.2504,301.13 75.5,302.5C 58.1852,304.498 48.1852,296.832 45.5,279.5C 47.1821,265.151 55.1821,257.151 69.5,255.5 Z"/></g>
<g><path style="opacity:1" fill="#f98b00" d="M 439.5,288.5 C 441.681,292.903 443.014,297.569 443.5,302.5C 429.211,303.135 420.878,310.468 418.5,324.5C 411.104,324.277 403.77,323.444 396.5,322C 387.245,321.294 380.079,317.127 375,309.5C 368.455,289.916 375.289,278.25 395.5,274.5C 405.39,276.653 415.39,278.153 425.5,279C 431.027,280.928 435.694,284.095 439.5,288.5 Z"/></g>
<g><path style="opacity:0.977" fill="#d6ddfd" d="M 443.5,302.5 C 454.719,303.545 461.886,309.545 465,320.5C 466.937,331.276 463.437,339.609 454.5,345.5C 449.85,347.878 444.85,348.878 439.5,348.5C 432.576,347.871 426.909,344.871 422.5,339.5C 419.959,334.87 418.626,329.87 418.5,324.5C 420.878,310.468 429.211,303.135 443.5,302.5 Z"/></g>
<g><path style="opacity:1" fill="#f98b00" d="M 422.5,339.5 C 426.909,344.871 432.576,347.871 439.5,348.5C 441.091,349.219 442.591,350.219 444,351.5C 450.194,362.554 455.861,373.888 461,385.5C 471.378,414.787 461.878,424.621 432.5,415C 415.697,408.31 400.031,399.81 385.5,389.5C 400.179,374.499 412.512,357.833 422.5,339.5 Z"/></g>
<g><path style="opacity:1" fill="#f98b00" d="M 240.5,371.5 C 261.961,390.967 284.294,409.3 307.5,426.5C 284.982,424.279 263.315,418.112 242.5,408C 240,406.167 237.833,404 236,401.5C 230.241,390.292 231.741,380.292 240.5,371.5 Z"/></g>
<g><path style="opacity:0.938" fill="#d6deff" d="M -0.5,433.5 C -0.5,431.5 -0.5,429.5 -0.5,427.5C 3.7038,418.287 10.3705,416.121 19.5,421C 24.1597,426.451 24.6597,432.284 21,438.5C 11.7932,444.889 4.62655,443.222 -0.5,433.5 Z"/></g>
<g><path style="opacity:1" fill="#fffe9c" d="M 507.5,496.5 C 506.381,499.888 504.381,502.721 501.5,505C 497.343,507.745 493.01,509.912 488.5,511.5C 479.833,511.5 471.167,511.5 462.5,511.5C 447.555,508.296 433.221,503.296 419.5,496.5C 410.91,489.57 407.743,480.57 410,469.5C 415.057,457.218 424.224,452.051 437.5,454C 448.232,458.466 459.232,462.133 470.5,465C 477.72,463.806 485.054,463.473 492.5,464C 507.116,470.399 512.116,481.232 507.5,496.5 Z"/></g>
<g><path style="opacity:0.911" fill="#d5defe" d="M 226.5,511.5 C 222.833,511.5 219.167,511.5 215.5,511.5C 207.992,505.631 206.992,498.798 212.5,491C 226.688,485.523 233.188,490.356 232,505.5C 230.64,508.023 228.807,510.023 226.5,511.5 Z"/></g>
</svg>
