<?xml version="1.0" encoding="UTF-8"?>
<svg version="1.1" xmlns="http://www.w3.org/2000/svg" width="225" height="225">
<path d="M0 0 C22.67612332 18.8214835 36.3924135 41.29292842 39.66015625 70.796875 C41.89270096 99.72693351 32.12809429 125.40894162 13.74707031 147.40771484 C11.33013302 150.1835415 9.23086565 151.86690096 5.94140625 153.44140625 C5.61140625 154.43140625 5.28140625 155.42140625 4.94140625 156.44140625 C4.28140625 156.44140625 3.62140625 156.44140625 2.94140625 156.44140625 C2.72613281 157.01246094 2.51085937 157.58351562 2.2890625 158.171875 C-4.47197752 169.55785834 -23.65288249 175.21239967 -35.70092773 178.34643555 C-62.74891587 184.62147673 -91.18077811 180.31106051 -114.99609375 166.12890625 C-123.07234627 160.65078049 -129.56078147 153.49320264 -135.3515625 145.6953125 C-136.51180112 144.16337272 -137.72597874 142.67113838 -138.984375 141.21875 C-147.77568085 130.99352241 -153.55036512 118.4093228 -157.05859375 105.44140625 C-157.2390625 104.78978516 -157.41953125 104.13816406 -157.60546875 103.46679688 C-164.11016865 79.447753 -162.13342851 53.88181309 -149.625 32.03125 C-134.64576125 7.26507721 -114.89863005 -9.91678573 -86.6171875 -17.1003418 C-57.34938819 -24.13225633 -23.77846752 -18.71248243 0 0 Z " fill="#686868" transform="translate(173.05859375,30.55859375)"/>
<path d="M0 0 C0.99 0.33 1.98 0.66 3 1 C2.46890625 1.84820312 1.9378125 2.69640625 1.390625 3.5703125 C-4.11360364 12.6027595 -10.23744562 22.96305368 -8.75 33.9375 C-5.77771989 44.52298882 2.66624378 61.73816485 12.359375 67.37109375 C14.60640368 68.15906186 16.64741479 68.65101267 19 69 C20.39025391 69.27070313 20.39025391 69.27070313 21.80859375 69.546875 C25.37187937 70.0528005 28.77743993 70.09643925 32.375 70.0625 C33.62023437 70.05347656 34.86546875 70.04445313 36.1484375 70.03515625 C37.08945313 70.02355469 38.03046875 70.01195312 39 70 C39.25692627 69.39003174 39.51385254 68.78006348 39.77856445 68.15161133 C40.95267872 65.37025805 42.13253047 62.59137398 43.3125 59.8125 C43.71662109 58.85279297 44.12074219 57.89308594 44.53710938 56.90429688 C44.93349609 55.97294922 45.32988281 55.04160156 45.73828125 54.08203125 C46.09962158 53.22843018 46.46096191 52.3748291 46.83325195 51.49536133 C48 49 48 49 49.64868164 46.31030273 C51.19801897 44.15039662 51.19801897 44.15039662 50.8828125 41.953125 C49.81818857 39.59776232 48.46542104 37.78973282 46.875 35.75 C43.67583567 31.31074722 41.35497822 26.80797723 39.1875 21.8125 C38.89794434 21.14766602 38.60838867 20.48283203 38.31005859 19.79785156 C35.98479757 14.28784515 34 9.05074963 34 3 C33.34 2.67 32.68 2.34 32 2 C33.32 1.67 34.64 1.34 36 1 C36.29390625 2.34578125 36.29390625 2.34578125 36.59375 3.71875 C38.35400543 11.06326405 40.53609475 17.74194482 43.9375 24.5 C44.26105469 25.14517578 44.58460937 25.79035156 44.91796875 26.45507812 C48.78904692 34.35108839 48.78904692 34.35108839 55 40 C62.73965679 41.09893707 70.57112602 41.21093179 78.375 41.25 C79.42816406 41.270625 80.48132813 41.29125 81.56640625 41.3125 C88.86516828 41.49432337 88.86516828 41.49432337 95 38 C100.35691976 32.66380334 104.16702058 26.77404321 107.8125 20.1875 C108.7558623 18.51395741 109.6998464 16.84076514 110.64453125 15.16796875 C111.05034424 14.43860107 111.45615723 13.7092334 111.87426758 12.95776367 C112.84810184 11.26416641 113.91632749 9.62550877 115 8 C115.66 8 116.32 8 117 8 C114.44276938 19.76326084 105.68775672 30.9920915 98.19921875 40.21875 C96.68431049 42.01787549 96.68431049 42.01787549 97.5 44.625 C98.70747025 47.34180806 100.00130294 49.93029167 101.375 52.5625 C104.41176586 58.46481939 106.18273301 64.63927935 108 71 C112.14559093 71.11727273 116.29074862 71.18760933 120.4375 71.25 C121.60216797 71.28351563 122.76683594 71.31703125 123.96679688 71.3515625 C131.98139679 71.44186785 138.72430863 70.77686071 144.91894531 65.30493164 C152.53591359 57.51937627 160.30338994 44.77078585 160.25 33.8125 C160.17072109 28.01192647 159.41994524 22.61639055 158 17 C162.47719241 21.47719241 162.90512407 28.00147762 164 34 C166.64 33.34 169.28 32.68 172 32 C171.35833184 50.60837655 158.3478424 66.56551066 146.36328125 79.80859375 C145 81 145 81 143 81 C142.67 81.99 142.34 82.98 142 84 C141.34 84 140.68 84 140 84 C139.78472656 84.57105469 139.56945312 85.14210938 139.34765625 85.73046875 C132.58661623 97.11645209 113.40571126 102.77099342 101.35766602 105.9050293 C74.30967788 112.18007048 45.87781564 107.86965426 22.0625 93.6875 C13.98624748 88.20937424 7.49781228 81.05179639 1.70703125 73.25390625 C0.54679263 71.72196647 -0.66738499 70.22973213 -1.92578125 68.77734375 C-10.70466508 58.56656431 -18.69917692 44.75047937 -18 31 C-17.67 30.67 -17.34 30.34 -17 30 C-17.66 29.67 -18.32 29.34 -19 29 C-19 28.34 -19 27.68 -19 27 C-16.36 27.66 -13.72 28.32 -11 29 C-10.91363281 28.41734375 -10.82726563 27.8346875 -10.73828125 27.234375 C-9.05002594 17.38363759 -5.21162034 8.49301093 0 0 Z " fill="#1B1B1B" transform="translate(36,103)"/>
<path d="M0 0 C1.18190918 0.01184326 1.18190918 0.01184326 2.38769531 0.02392578 C7.9495878 0.10255867 13.507114 0.28396211 19.0625 0.5625 C20.09733521 0.6085437 20.09733521 0.6085437 21.15307617 0.65551758 C25.98694978 0.94230802 30.8500941 1.24405454 34.4296875 4.7890625 C39.10066329 12.30324094 43.03233318 20.194681 46.8125 28.1875 C47.277771 29.1151416 47.277771 29.1151416 47.75244141 30.06152344 C48.97273211 32.62115759 49.81634626 34.71748738 49.79296875 37.57421875 C48.28306709 41.59861799 46.23825304 45.26401542 44.125 49 C43.70283203 49.76892578 43.28066406 50.53785156 42.84570312 51.33007812 C32.17647822 70.39950726 32.17647822 70.39950726 23.8125 73.1875 C22.09573856 73.28126376 20.37556877 73.31820402 18.65625 73.3203125 C17.12097656 73.32224609 17.12097656 73.32224609 15.5546875 73.32421875 C13.94980469 73.31841797 13.94980469 73.31841797 12.3125 73.3125 C10.75402344 73.31830078 10.75402344 73.31830078 9.1640625 73.32421875 C-9.62192916 73.30079482 -9.62192916 73.30079482 -14 70.1875 C-14.721875 69.1975 -15.44375 68.2075 -16.1875 67.1875 C-16.66574219 66.54554688 -17.14398438 65.90359375 -17.63671875 65.2421875 C-21.65978934 59.58759458 -24.53205209 53.58061611 -27.1875 47.1875 C-27.620625 46.176875 -28.05375 45.16625 -28.5 44.125 C-30.51932197 35.49698796 -28.9657238 29.24446824 -24.625 21.6875 C-23.9431665 20.45302124 -23.9431665 20.45302124 -23.24755859 19.19360352 C-12.37556047 -0.21300901 -12.37556047 -0.21300901 0 0 Z " fill="#D9D9D9" transform="translate(102.1875,71.8125)"/>
<path d="M0 0 C1.70542969 0.19916016 1.70542969 0.19916016 3.4453125 0.40234375 C12.95669244 1.49591471 22.44163272 2.4160483 32 3 C32.36351562 4.17175781 32.72703125 5.34351562 33.1015625 6.55078125 C36.82041273 18.27965498 40.85373497 28.79769246 48.99609375 38.24609375 C50 40 50 40 49.66943359 41.87255859 C49.01534119 43.95124613 48.2357837 45.8297481 47.29296875 47.79296875 C46.95523438 48.50203369 46.6175 49.21109863 46.26953125 49.94165039 C45.91246094 50.68278076 45.55539063 51.42391113 45.1875 52.1875 C44.46152188 53.71059562 43.73625497 55.23403044 43.01171875 56.7578125 C42.66415527 57.48774414 42.3165918 58.21767578 41.95849609 58.96972656 C40.23669005 62.61683279 38.61290604 66.30375698 37 70 C15.25 70.88043478 15.25 70.88043478 7.125 64.875 C6.42375 63.92625 5.7225 62.9775 5 62 C4.48566406 61.40703125 3.97132812 60.8140625 3.44140625 60.203125 C-3.50950054 51.96730671 -12.33878504 39.21378495 -12 28 C-10.19690342 17.59564542 -5.80891777 8.71337666 0 0 Z " fill="#BFBFBF" transform="translate(38,104)"/>
<path d="M0 0 C1.26263672 -0.00257812 2.52527344 -0.00515625 3.82617188 -0.0078125 C4.48464111 -0.00362305 5.14311035 0.00056641 5.8215332 0.00488281 C7.80743059 0.01549356 9.79340615 0.00397903 11.77929688 -0.0078125 C21.54302224 0.01202239 29.18863656 0.06763 36.5546875 6.99609375 C47.36923298 18.740488 47.36923298 18.740488 49.64453125 25.265625 C49.35702237 29.12902559 48.26204556 31.15989792 45.64453125 33.953125 C45.02191406 34.62859375 44.39929688 35.3040625 43.7578125 36 C43.06042969 36.74765625 42.36304688 37.4953125 41.64453125 38.265625 C40.03957159 40.07742285 38.43541308 41.88993068 36.83203125 43.703125 C32.8969318 48.13942473 32.8969318 48.13942473 30.64453125 49.265625 C24.88618281 49.57544741 19.12693815 49.62218528 13.36108398 49.6706543 C11.43381803 49.69220338 9.50664913 49.72626965 7.57983398 49.77319336 C4.7949675 49.84038212 2.01212651 49.86768557 -0.7734375 49.88671875 C-1.62785934 49.91454941 -2.48228119 49.94238007 -3.3625946 49.97105408 C-8.98744561 49.95187873 -11.89460451 48.77692606 -15.92179871 44.82316589 C-16.39490982 44.3091774 -16.86802094 43.7951889 -17.35546875 43.265625 C-17.99170166 42.58234131 -18.62793457 41.89905762 -19.28344727 41.19506836 C-20.84774613 39.21172797 -22.39304178 37.21693115 -23.91796875 35.203125 C-24.75424805 34.16188477 -24.75424805 34.16188477 -25.60742188 33.09960938 C-27.05566968 31.19573305 -28.32232192 29.4230442 -29.35546875 27.265625 C-27.81569768 17.83623049 -16.04392172 8.44323698 -9.35546875 2.265625 C-5.79595914 -0.10738141 -4.22204354 0.0082942 0 0 Z " fill="#EAEAEA" transform="translate(102.35546875,20.734375)"/>
<path d="M0 0 C2.00663315 0.29074818 4.00608466 0.63201533 6 1 C7.90012356 1.24928831 9.80121177 1.49131739 11.703125 1.7265625 C13.88549355 2.02548086 16.067783 2.32497722 18.25 2.625 C19.33152344 2.75261719 20.41304687 2.88023437 21.52734375 3.01171875 C29.65596797 4.17855383 34.63283196 6.94429737 41 12 C47.30198747 16.23351062 53.15581948 18.93726767 60.53125 20.84765625 C63 22 63 22 64.3046875 24.4453125 C64.98719348 26.95294684 65.56088943 29.43852165 66 32 C65.38894448 28.5889179 65.48434264 26.14712906 67 23 C71.13225491 20.38593448 75.52164014 18.68857519 80.04052734 16.85595703 C85.3215424 14.54904963 90.99819578 11.32684368 94.78173828 6.92895508 C97.59776057 4.48019962 99.07071859 4.49093846 102.76171875 4.4609375 C103.88126953 4.43773437 105.00082031 4.41453125 106.15429688 4.390625 C107.32025391 4.38546875 108.48621094 4.3803125 109.6875 4.375 C117.42825324 4.28797635 124.49703949 3.99759332 132 2 C132.16852247 3.60397277 132.33474886 5.2081869 132.5 6.8125 C132.5928125 7.70582031 132.685625 8.59914062 132.78125 9.51953125 C133 12 133 12 133 15 C132.34 15 131.68 15 131 15 C130.67708984 15.85658203 130.67708984 15.85658203 130.34765625 16.73046875 C123.58661623 28.11645209 104.40571126 33.77099342 92.35766602 36.9050293 C65.30967788 43.18007048 36.87781564 38.86965426 13.0625 24.6875 C5.80838573 19.78128226 -0.72874555 13.69373398 -5 6 C-3.68 6.33 -2.36 6.66 -1 7 C-1.020625 6.030625 -1.04125 5.06125 -1.0625 4.0625 C-1 1 -1 1 0 0 Z " fill="#989898" transform="translate(45,172)"/>
<path d="M0 0 C1.08510864 0.0012085 1.08510864 0.0012085 2.19213867 0.00244141 C7.82789474 0.06408721 13.39696818 0.46436247 19 1.0625 C20.13755737 1.18008667 20.13755737 1.18008667 21.2980957 1.30004883 C24.95299802 1.73113139 28.03651434 2.21916775 31.1875 4.1875 C30.33671875 4.1153125 29.4859375 4.043125 28.609375 3.96875 C12.11896442 2.70565472 -3.63089428 2.39069866 -19.8125 6.1875 C-17.8325 7.5075 -15.8525 8.8275 -13.8125 10.1875 C-16.35114648 12.73991852 -18.8998658 15.27143221 -21.49609375 17.765625 C-27.78408314 23.84700812 -27.78408314 23.84700812 -32.6875 31.0625 C-35.78469284 36.08208839 -39.93009647 37.14718912 -45.35546875 38.9453125 C-52.233079 41.4165894 -58.8344633 45.18206309 -64.1875 50.1875 C-66.8125 52.1875 -66.8125 52.1875 -70.1875 52 C-71.05375 51.731875 -71.92 51.46375 -72.8125 51.1875 C-72.31049072 51.59307129 -71.80848145 51.99864258 -71.29125977 52.41650391 C-69.8125 54.1875 -69.8125 54.1875 -69.75366211 56.18896484 C-69.95100952 57.34452881 -69.95100952 57.34452881 -70.15234375 58.5234375 C-70.71010267 62.6657171 -70.81412852 66.54964846 -70.62890625 70.7265625 C-70.08547394 84.67498425 -70.37214121 94.57067214 -77.83789062 106.45263672 C-80.38319096 110.98342435 -81.51207328 116.19112366 -82.8125 121.1875 C-88.5625 120.3125 -88.5625 120.3125 -90.8125 119.1875 C-90.8125 119.8475 -90.8125 120.5075 -90.8125 121.1875 C-89.8225 121.5175 -88.8325 121.8475 -87.8125 122.1875 C-88.8025 122.6825 -88.8025 122.6825 -89.8125 123.1875 C-89.8125 124.8375 -89.8125 126.4875 -89.8125 128.1875 C-98.80994309 114.69133537 -97.04562342 93.35783003 -94.15527344 78.1730957 C-89.04519939 53.61186506 -73.55388892 30.52105026 -52.93359375 16.1640625 C-37.00445449 6.07627218 -18.99263542 -0.02245258 0 0 Z " fill="#DCDCDC" transform="translate(107.8125,10.8125)"/>
<path d="M0 0 C13.88949119 0 26.77599067 9.43130647 37 18 C37.50515137 18.42152344 38.01030273 18.84304687 38.53076172 19.27734375 C59.23923157 36.76247833 70.75641914 59.60903918 73.71875 86.35546875 C74.59502779 97.7105684 75.64933918 113.02599123 69 123 C69 122.01 69 121.02 69 120 C66.03 120.99 63.06 121.98 60 123 C59.85304688 122.23558594 59.70609375 121.47117187 59.5546875 120.68359375 C57.90956535 112.82671727 55.50566785 105.79338281 52.40234375 98.41015625 C50.17299657 92.98893038 48.76182902 89.43541963 49.703125 83.5859375 C50.85862807 73.52089757 50.06397977 63.03180927 49 53 C50.98 51.68 52.96 50.36 55 49 C54.46632812 49.165 53.93265625 49.33 53.3828125 49.5 C50.74809607 50.08346661 48.69307537 50.29070679 46 50 C43.40597059 48.31544895 41.25746791 46.33893355 38.953125 44.27734375 C35.40010719 41.53738425 31.79541665 39.81590749 27.6875 38.0625 C27.00550537 37.76859375 26.32351074 37.4746875 25.62084961 37.171875 C22.79956879 35.9998996 20.27398666 35.03125763 17.2265625 34.68359375 C15 34 15 34 13.26171875 31.375 C12.48248047 29.704375 12.48248047 29.704375 11.6875 28 C7.58327563 19.85414291 2.45054626 13.35508013 -5 8 C-4 5 -4 5 -2.125 3.8125 C0 3 0 3 3 3 C3 2.34 3 1.68 3 1 C2.01 0.67 1.02 0.34 0 0 Z " fill="#959595" transform="translate(139,15)"/>
<path d="M0 0 C1.578125 2.01953125 1.578125 2.01953125 3.25 4.8125 C5.11774937 7.91344287 6.97491521 10.96404832 9.046875 13.93359375 C13.86210719 20.87715857 13.86210719 20.87715857 14.4375 25.5625 C12.62207917 29.90372372 9.97197386 32.997925 6.94921875 36.57421875 C3.93632224 40.32373525 1.78738423 43.71438047 2.25 48.6875 C2.4975 49.450625 2.745 50.21375 3 51 C4.45579099 55.51764818 3.2716158 58.51194423 2 63 C1.67 63 1.34 63 1 63 C1 61.35 1 59.7 1 58 C0.01 58.33 -0.98 58.66 -2 59 C-1.67 59.66 -1.34 60.32 -1 61 C-11.23109333 61.43778054 -24.578733 61.7106335 -34 57 C-35.0243745 53.9268765 -35.12906235 51.8082726 -35.1328125 48.58984375 C-35.13410156 47.51669922 -35.13539062 46.44355469 -35.13671875 45.33789062 C-35.13285156 44.21576172 -35.12898438 43.09363281 -35.125 41.9375 C-35.12886719 40.84244141 -35.13273437 39.74738281 -35.13671875 38.61914062 C-35.12962832 32.66672714 -34.88748793 26.92525783 -33.97631836 21.0378418 C-33.79877183 18.60733489 -33.79877183 18.60733489 -36.4375 15.875 C-37.7059375 14.946875 -37.7059375 14.946875 -39 14 C-38.278125 14.350625 -37.55625 14.70125 -36.8125 15.0625 C-33.44280556 16.18573148 -32.32554181 16.23741091 -29 15 C-27.87636725 14.17160749 -26.77502 13.3127628 -25.6875 12.4375 C-19.47560474 7.5062845 -12.11356194 4.41027741 -5 1 C-3 0 -3 0 0 0 Z " fill="#535353" transform="translate(71,46)"/>
<path d="M0 0 C0.16852247 1.60397277 0.33474886 3.2081869 0.5 4.8125 C0.5928125 5.70582031 0.685625 6.59914062 0.78125 7.51953125 C1 10 1 10 1 13 C0.34 13 -0.32 13 -1 13 C-1.21527344 13.57105469 -1.43054688 14.14210937 -1.65234375 14.73046875 C-7.90772583 25.2648948 -24.6398381 30.18817377 -35.6015625 33.875 C-44.35680233 36.10248151 -54.03999742 35.16954881 -63 35 C-63.02708567 33.39592672 -63.04643483 31.7917215 -63.0625 30.1875 C-63.07410156 29.29417969 -63.08570312 28.40085938 -63.09765625 27.48046875 C-63 25 -63 25 -62 22 C-60.28515625 21.04296875 -60.28515625 21.04296875 -58.0625 20.1875 C-53.42254691 18.27649368 -49.30223744 15.84992789 -45.06640625 13.171875 C-43 12 -43 12 -41 12 C-41 11.34 -41 10.68 -41 10 C-34.04515035 5.79811167 -26.83695273 4.61281058 -18.94482422 3.3203125 C-16.20752151 2.86947881 -13.47903051 2.37318543 -10.75 1.875 C-9.91984375 1.72804687 -9.0896875 1.58109375 -8.234375 1.4296875 C-6.7564985 1.14548048 -5.28627677 0.81771817 -3.828125 0.4453125 C-2 0 -2 0 0 0 Z " fill="#B2B2B2" transform="translate(177,174)"/>
<path d="M0 0 C1.08510864 0.0012085 1.08510864 0.0012085 2.19213867 0.00244141 C7.82789474 0.06408721 13.39696818 0.46436247 19 1.0625 C20.13755737 1.18008667 20.13755737 1.18008667 21.2980957 1.30004883 C24.95299802 1.73113139 28.03651434 2.21916775 31.1875 4.1875 C30.33671875 4.1153125 29.4859375 4.043125 28.609375 3.96875 C12.11896442 2.70565472 -3.63089428 2.39069866 -19.8125 6.1875 C-16.8425 8.1675 -16.8425 8.1675 -13.8125 10.1875 C-16.35114648 12.73991852 -18.8998658 15.27143221 -21.49609375 17.765625 C-27.78408314 23.84700812 -27.78408314 23.84700812 -32.6875 31.0625 C-36.279926 36.94101528 -42.4676966 38.40873159 -48.8125 40.1875 C-52.56282444 41.07122888 -55.9558704 41.1875 -59.8125 41.1875 C-59.8125 41.8475 -59.8125 42.5075 -59.8125 43.1875 C-61.1325 43.1875 -62.4525 43.1875 -63.8125 43.1875 C-63.8125 43.8475 -63.8125 44.5075 -63.8125 45.1875 C-65.875 46.375 -65.875 46.375 -68.8125 47.1875 C-71.36062724 46.46623258 -73.43332896 45.40041073 -75.8125 44.1875 C-76.26625 44.8475 -76.72 45.5075 -77.1875 46.1875 C-77.72375 46.8475 -78.26 47.5075 -78.8125 48.1875 C-79.4725 48.1875 -80.1325 48.1875 -80.8125 48.1875 C-70.9952309 28.37282842 -54.41239741 14.27984045 -33.8125 6.1875 C-22.81788402 2.53207917 -11.62446104 -0.01374212 0 0 Z " fill="#F2F2F2" transform="translate(107.8125,10.8125)"/>
<path d="M0 0 C19.03503024 0 36.31978513 16.39340031 49 29 C50.71792365 30.9642457 52.36092212 32.96825736 54 35 C53.505 35.99 53.505 35.99 53 37 C52.01 36.505 52.01 36.505 51 36 C51 36.99 51 37.98 51 39 C52.32 39.66 53.64 40.32 55 41 C54.34 43.64 53.68 46.28 53 49 C50.24160072 49.95944323 48.84581415 50.37052191 46 50 C43.87109375 48.53125 43.87109375 48.53125 41.5625 46.5 C37.21037742 42.69021885 32.95421758 40.31512861 27.6875 38.0625 C27.0056665 37.76859375 26.32383301 37.4746875 25.62133789 37.171875 C22.79985017 36.00010202 20.27411327 35.03127208 17.2265625 34.68359375 C15 34 15 34 13.26171875 31.375 C12.48248047 29.704375 12.48248047 29.704375 11.6875 28 C7.58327563 19.85414291 2.45054626 13.35508013 -5 8 C-4 5 -4 5 -2.125 3.8125 C0 3 0 3 3 3 C3 2.34 3 1.68 3 1 C2.01 0.67 1.02 0.34 0 0 Z " fill="#B8B8B8" transform="translate(139,15)"/>
<path d="M0 0 C0.88937256 0.00008057 1.77874512 0.00016113 2.69506836 0.00024414 C11.36524253 0.07409571 20.46945747 0.42731916 28.75 3.1875 C28.75 3.8475 28.75 4.5075 28.75 5.1875 C25.285 6.6725 25.285 6.6725 21.75 8.1875 C23.13851705 11.45086748 24.64295258 13.10330443 27.4375 15.25 C33.13370449 20.06427847 37.55693233 26.30771793 39.7578125 33.46484375 C40.24894531 34.81255859 40.24894531 34.81255859 40.75 36.1875 C42.235 36.6825 42.235 36.6825 43.75 37.1875 C43.1209375 37.72117188 42.491875 38.25484375 41.84375 38.8046875 C31.741819 47.43216009 31.741819 47.43216009 24.80078125 58.55078125 C24.72685531 62.38924366 26.52183274 64.97822365 28.5 68.125 C29.22545612 69.32070713 29.949431 70.51731429 30.671875 71.71484375 C31.02314453 72.29476074 31.37441406 72.87467773 31.73632812 73.47216797 C35.75 80.2640896 35.75 80.2640896 35.75 84.1875 C35.09 84.1875 34.43 84.1875 33.75 84.1875 C33.46278076 83.66317383 33.17556152 83.13884766 32.87963867 82.59863281 C31.56875837 80.20983542 30.25318008 77.82365692 28.9375 75.4375 C28.48568359 74.6125 28.03386719 73.7875 27.56835938 72.9375 C27.12685547 72.13828125 26.68535156 71.3390625 26.23046875 70.515625 C25.82723389 69.7824707 25.42399902 69.04931641 25.00854492 68.29394531 C22.59468632 63.93194353 22.59468632 63.93194353 18.54296875 61.47265625 C8.73042769 60.47081639 -1.13992982 60.08466523 -11 59.9375 C-12.12474731 59.90547485 -12.12474731 59.90547485 -13.2722168 59.87280273 C-17.86025203 59.8441438 -20.78341956 60.11511265 -24.25 63.1875 C-26.35324745 66.19170875 -28.11746138 69.34678374 -29.875 72.5625 C-30.82543077 74.25786299 -31.77594909 75.95317691 -32.7265625 77.6484375 C-33.16387695 78.43831055 -33.60119141 79.22818359 -34.05175781 80.04199219 C-35.39987598 82.45585984 -36.80478614 84.83054049 -38.25 87.1875 C-40.24869636 84.18945546 -40.93630365 82.71135566 -41.25 79.1875 C-40.359375 76.6171875 -40.359375 76.6171875 -39 74.0625 C-38.34257813 72.79019531 -38.34257813 72.79019531 -37.671875 71.4921875 C-36.35567079 69.35877958 -35.05129473 67.90163531 -33.25 66.1875 C-32.59 65.1975 -31.93 64.2075 -31.25 63.1875 C-30.59 62.1975 -29.93 61.2075 -29.25 60.1875 C-29.3776314 54.01614619 -31.70125271 50.37381464 -35.1875 45.5625 C-41.53977979 36.61360231 -41.53977979 36.61360231 -42.25 33.1875 C-38.13780327 24.21156714 -29.28053587 16.92599823 -22.25 10.1875 C-21.59 9.5275 -20.93 8.8675 -20.25 8.1875 C-22.56 6.8675 -24.87 5.5475 -27.25 4.1875 C-27.25 3.8575 -27.25 3.5275 -27.25 3.1875 C-26.20199219 3.05472656 -25.15398437 2.92195312 -24.07421875 2.78515625 C-22.69529222 2.60692765 -21.31638707 2.42853359 -19.9375 2.25 C-18.90206055 2.11948242 -18.90206055 2.11948242 -17.84570312 1.98632812 C-2.60055896 -0.00216894 -2.60055896 -0.00216894 0 0 Z M-27.25 17.1875 C-28.26748038 18.22597172 -29.28663324 19.26281186 -30.30859375 20.296875 C-31.09363281 21.16828125 -31.87867187 22.0396875 -32.6875 22.9375 C-33.89212891 24.26007812 -33.89212891 24.26007812 -35.12109375 25.609375 C-37.16835646 28.08862892 -38.92878123 30.25145829 -40.25 33.1875 C-38.46343199 37.65505796 -35.30028669 41.36583554 -32.4375 45.1875 C-31.91607422 45.8990625 -31.39464844 46.610625 -30.85742188 47.34375 C-30.34115234 48.0346875 -29.82488281 48.725625 -29.29296875 49.4375 C-28.82914795 50.06140625 -28.36532715 50.6853125 -27.88745117 51.328125 C-24.55526291 55.11192489 -22.13372616 57.37049308 -16.99804688 57.70507812 C-15.32181433 57.73135452 -13.64511338 57.73461912 -11.96875 57.71875 C-11.07764526 57.7225769 -10.18654053 57.72640381 -9.26843262 57.73034668 C-7.38906725 57.73306217 -5.50966385 57.7257264 -3.63037109 57.70898438 C-0.75923127 57.68756886 2.10940644 57.70879761 4.98046875 57.734375 C6.80990134 57.73173166 8.63933237 57.72660655 10.46875 57.71875 C11.32408325 57.72684692 12.1794165 57.73494385 13.06066895 57.74328613 C18.24379477 57.66203615 20.97118661 57.0635322 24.75 53.1875 C26.55178391 51.29840498 28.21500876 49.33083764 29.8984375 47.3359375 C31.14977937 45.88395854 32.44917297 44.47225409 33.7890625 43.1015625 C37.61624356 39.27151951 37.61624356 39.27151951 39.0625 34.25 C35.02668465 24.83309751 27.20794266 13.78812764 17.75 9.1875 C11.03198577 7.8691132 4.32621983 7.73332632 -2.5 7.5625 C-3.77230469 7.49160156 -5.04460937 7.42070312 -6.35546875 7.34765625 C-16.30824984 7.15250368 -20.77341963 9.78899746 -27.25 17.1875 Z " fill="#2B2B2B" transform="translate(113.25,12.8125)"/>
<path d="M0 0 C0.99 0.33 1.98 0.66 3 1 C2.46890625 1.84820312 1.9378125 2.69640625 1.390625 3.5703125 C-4.11360364 12.6027595 -10.23744562 22.96305368 -8.75 33.9375 C-5.77771989 44.52298882 2.66624378 61.73816485 12.359375 67.37109375 C14.60640368 68.15906186 16.64741479 68.65101267 19 69 C19.91652344 69.18046875 20.83304688 69.3609375 21.77734375 69.546875 C25.493814 70.06943324 29.13261351 70.10964247 32.875 70.0625 C33.90753906 70.05573242 33.90753906 70.05573242 34.9609375 70.04882812 C36.64066335 70.03716336 38.32034375 70.01923271 40 70 C40.66 71.32 41.32 72.64 42 74 C39.23687356 75.38156322 37.58265319 74.76377553 34.546875 74.2578125 C33.45246094 74.07863281 32.35804687 73.89945312 31.23046875 73.71484375 C30.08191406 73.52019531 28.93335938 73.32554687 27.75 73.125 C26.61691406 72.93808594 25.48382813 72.75117188 24.31640625 72.55859375 C21.20988918 72.04508976 18.10482025 71.52364879 15 71 C13.00006261 70.6662912 11.00008035 70.33285086 9 70 C8.67 71.98 8.34 73.96 8 76 C-1.3095463 72.96214805 -6.90321353 63.34356781 -11.42578125 55.15234375 C-15.32206247 47.35011311 -19.02315468 39.86734056 -18 31 C-17.67 30.67 -17.34 30.34 -17 30 C-17.66 29.67 -18.32 29.34 -19 29 C-19 28.34 -19 27.68 -19 27 C-16.36 27.66 -13.72 28.32 -11 29 C-10.91363281 28.41734375 -10.82726563 27.8346875 -10.73828125 27.234375 C-9.05002594 17.38363759 -5.21162034 8.49301093 0 0 Z " fill="#0F0F0F" transform="translate(36,103)"/>
<path d="M0 0 C4.47719241 4.47719241 4.90512407 11.00147762 6 17 C8.64 16.34 11.28 15.68 14 15 C13.38190505 32.92475349 1.29974589 48.0064066 -10 61 C-10.49886719 61.57621094 -10.99773437 62.15242188 -11.51171875 62.74609375 C-13 64 -13 64 -17 65 C-17 61.37 -17 57.74 -17 54 C-18.25683594 54.50144531 -19.51367188 55.00289062 -20.80859375 55.51953125 C-26.35210357 57.36736786 -31.29969345 57.14066433 -37.0625 56.6875 C-38.02349609 56.62626953 -38.98449219 56.56503906 -39.97460938 56.50195312 C-42.31795064 56.35039374 -44.65892784 56.18284123 -47 56 C-47 55.67 -47 55.34 -47 55 C-46.35039307 54.9906543 -45.70078613 54.98130859 -45.03149414 54.97167969 C-42.04110661 54.91744917 -39.05219625 54.8339085 -36.0625 54.75 C-34.53012695 54.72873047 -34.53012695 54.72873047 -32.96679688 54.70703125 C-24.44045365 54.43462412 -17.52952769 52.88140709 -11.4375 46.625 C-2.50928283 35.54816982 2.86052618 24.33107062 2 10 C1.5007668 6.61726467 0.83794689 3.31437921 0 0 Z " fill="#4B4B4B" transform="translate(194,120)"/>
<path d="M0 0 C0.88937256 0.00008057 1.77874512 0.00016113 2.69506836 0.00024414 C11.36524253 0.07409571 20.46945747 0.42731916 28.75 3.1875 C28.75 3.8475 28.75 4.5075 28.75 5.1875 C23.125 7.1875 23.125 7.1875 19.75 7.1875 C19.09 6.1975 18.43 5.2075 17.75 4.1875 C16.698125 4.6515625 16.698125 4.6515625 15.625 5.125 C12.66063343 6.22052678 9.87301892 6.75172992 6.75 7.1875 C6.75 7.5175 6.75 7.8475 6.75 8.1875 C2.81254264 8.35518422 -1.12497243 8.5214732 -5.0625 8.6875 C-6.74182617 8.75904297 -6.74182617 8.75904297 -8.45507812 8.83203125 C-9.52822266 8.87714844 -10.60136719 8.92226563 -11.70703125 8.96875 C-12.69678955 9.01064453 -13.68654785 9.05253906 -14.70629883 9.09570312 C-20.13593387 9.29164734 -20.13593387 9.29164734 -21.6875 7.875 C-22.203125 7.318125 -22.71875 6.76125 -23.25 6.1875 C-24.57350987 5.17453435 -25.9058162 4.17286677 -27.25 3.1875 C-26.20199219 3.05472656 -25.15398437 2.92195312 -24.07421875 2.78515625 C-22.69529222 2.60692765 -21.31638707 2.42853359 -19.9375 2.25 C-18.90206055 2.11948242 -18.90206055 2.11948242 -17.84570312 1.98632812 C-2.60055896 -0.00216894 -2.60055896 -0.00216894 0 0 Z " fill="#141414" transform="translate(113.25,12.8125)"/>
<path d="M0 0 C1.98 0.99 3.96 1.98 6 3 C5.67 4.32 5.34 5.64 5 7 C5.64066406 7.52207031 6.28132813 8.04414063 6.94140625 8.58203125 C14.03832712 14.6212888 20.21956469 21.17881112 23 30.26953125 C23.495 31.62111328 23.495 31.62111328 24 33 C24.99 33.33 25.98 33.66 27 34 C26.3709375 34.53367188 25.741875 35.06734375 25.09375 35.6171875 C14.991819 44.24466009 14.991819 44.24466009 8.05078125 55.36328125 C7.97685531 59.20174366 9.77183274 61.79072365 11.75 64.9375 C12.47545612 66.13320713 13.199431 67.32981429 13.921875 68.52734375 C14.27314453 69.10726074 14.62441406 69.68717773 14.98632812 70.28466797 C19 77.0765896 19 77.0765896 19 81 C18.34 81 17.68 81 17 81 C16.56917114 80.21351074 16.56917114 80.21351074 16.12963867 79.41113281 C14.81875837 77.02233542 13.50318008 74.63615692 12.1875 72.25 C11.50977539 71.0125 11.50977539 71.0125 10.81835938 69.75 C10.37685547 68.95078125 9.93535156 68.1515625 9.48046875 67.328125 C9.07723389 66.5949707 8.67399902 65.86181641 8.25854492 65.10644531 C6.95067242 62.9174397 5.67866903 60.92329919 4 59 C0.59328329 58.08095346 0.59328329 58.08095346 -3.1875 57.75 C-4.45980469 57.60046875 -5.73210937 57.4509375 -7.04296875 57.296875 C-8.50669922 57.14992188 -8.50669922 57.14992188 -10 57 C-10 56.34 -10 55.68 -10 55 C-9.27554688 54.97421875 -8.55109375 54.9484375 -7.8046875 54.921875 C0.543261 54.43212869 4.84223334 52.53695526 10.4375 46.25 C11.01371094 45.55648437 11.58992188 44.86296875 12.18359375 44.1484375 C13.4154631 42.69138773 14.7027165 41.27974931 16.03515625 39.9140625 C19.86612562 36.08550749 19.86612562 36.08550749 21.3125 31.0625 C17.45941031 22.0719574 10.13020225 11.27537773 1 7 C-3.62567502 5.73568268 -8.27461846 4.80613305 -13 4 C-13 3.67 -13 3.34 -13 3 C-6.565 2.505 -6.565 2.505 0 2 C0 1.34 0 0.68 0 0 Z " fill="#0E0E0E" transform="translate(130,16)"/>
<path d="M0 0 C3.98352168 -0.04987075 7.9669195 -0.08593964 11.95068359 -0.10986328 C13.96328119 -0.12472879 15.97579188 -0.150157 17.98828125 -0.17578125 C35.47430293 -0.26365071 35.47430293 -0.26365071 42.91015625 6.73046875 C53.72470173 18.474863 53.72470173 18.474863 56 25 C55.59911732 30.82190986 51.93009651 34.03680794 48 38 C46.37458956 39.38332804 44.72614587 40.74462118 43 42 C42.566875 41.0409375 42.566875 41.0409375 42.125 40.0625 C41.17176549 37.84793921 41.17176549 37.84793921 39 37 C39.33 35.35 39.66 33.7 40 32 C40.5775 31.979375 41.155 31.95875 41.75 31.9375 C44.69681681 30.70965966 45.98282789 28.89297602 47.4140625 26.08203125 C48.34481912 22.77474274 47.66047174 20.54928534 46.39453125 17.4140625 C43.10321678 11.71649292 38.46793907 6.64529271 33 3 C28.83751828 2.09436614 24.75811569 1.82527052 20.5078125 1.68359375 C19.30898437 1.64169922 18.11015625 1.59980469 16.875 1.55664062 C15.6375 1.51732422 14.4 1.47800781 13.125 1.4375 C11.86429688 1.39431641 10.60359375 1.35113281 9.3046875 1.30664062 C6.20322577 1.20090898 3.10168855 1.09881429 0 1 C0 0.67 0 0.34 0 0 Z " fill="#AFAFAF" transform="translate(96,21)"/>
<path d="M0 0 C2.79300226 3.37347562 4.49146372 6.93811044 6.25 10.9375 C6.53101563 11.54529297 6.81203125 12.15308594 7.1015625 12.77929688 C8.79669792 16.66887742 9.48515878 19.00378963 8 23 C6.50981815 26.04700396 4.86818671 28.99209052 3.1875 31.9375 C2.74857422 32.72318359 2.30964844 33.50886719 1.85742188 34.31835938 C-0.59563301 38.6740809 -3.16489749 42.88282316 -6 47 C-7.82232327 41.53303019 -4.22964312 36.06737072 -2 31 C-1.34 31 -0.68 31 0 31 C0.66 30.01 1.32 29.02 2 28 C2.33 27.67 2.66 27.34 3 27 C1.68798827 25.43750191 1.68798827 25.43750191 0 24 C-0.99 24 -1.98 24 -3 24 C-2.814375 22.72125 -2.62875 21.4425 -2.4375 20.125 C-2.01016516 16.51259616 -2.12249383 13.34859259 -2.625 9.75 C-3.06869814 6.23328142 -3.0988991 5.21499805 -1.5625 1.875 C-1.046875 1.25625 -0.53125 0.6375 0 0 Z " fill="#AAAAAA" transform="translate(143,89)"/>
<path d="M0 0 C4.47719241 4.47719241 4.90512407 11.00147762 6 17 C8.64 16.34 11.28 15.68 14 15 C13.53478901 21.04774291 12.66426443 25.55563356 10 31 C9.01 31 8.02 31 7 31 C6.505 32.485 6.505 32.485 6 34 C6 33.34 6 32.68 6 32 C4.515 32.495 4.515 32.495 3 33 C3 31.68 3 30.36 3 29 C2.34 29 1.68 29 1 29 C0.938125 29.680625 0.87625 30.36125 0.8125 31.0625 C-0.28538855 35.03178937 -2.49023975 37.78639555 -5 41 C-5.33 40.34 -5.66 39.68 -6 39 C-5.10760503 37.25107463 -4.20423873 35.50673316 -3.24169922 33.79541016 C3.21701424 22.2499584 3.22752502 12.76601414 0 0 Z " fill="#494949" transform="translate(194,120)"/>
<path d="M0 0 C0.84046875 0.01804688 1.6809375 0.03609375 2.546875 0.0546875 C4.61507395 0.10169202 6.68268441 0.17343276 8.75 0.25 C8.75 0.58 8.75 0.91 8.75 1.25 C7.66460937 1.43175781 6.57921875 1.61351562 5.4609375 1.80078125 C4.01553863 2.05419534 2.57023082 2.30812925 1.125 2.5625 C0.41214844 2.68044922 -0.30070312 2.79839844 -1.03515625 2.91992188 C-5.57671259 3.73240214 -9.14557046 5.04987786 -13.25 7.25 C-13.91 7.25 -14.57 7.25 -15.25 7.25 C-15.25 7.91 -15.25 8.57 -15.25 9.25 C-17.28753976 10.68194595 -19.30286967 11.97889327 -21.4375 13.25 C-22.3047168 13.78367188 -22.3047168 13.78367188 -23.18945312 14.328125 C-31.31605644 19.25 -31.31605644 19.25 -36.25 19.25 C-36.58 23.54 -36.91 27.83 -37.25 32.25 C-27.35 31.755 -27.35 31.755 -17.25 31.25 C-23.32071809 35.2971454 -30.57802189 34.37160369 -37.625 34.3125 C-38.64722656 34.30798828 -39.66945313 34.30347656 -40.72265625 34.29882812 C-43.23183194 34.287103 -45.7408849 34.27069176 -48.25 34.25 C-48.25 33.59 -48.25 32.93 -48.25 32.25 C-44.785 31.755 -44.785 31.755 -41.25 31.25 C-41.29447266 29.96416016 -41.29447266 29.96416016 -41.33984375 28.65234375 C-41.16795783 24.74304093 -40.76996721 21.87159785 -39.25 18.25 C-35.15845177 15.36519954 -30.86016447 13.77760006 -26.19335938 12.04150391 C-20.9277435 9.89689 -15.0680487 6.56275583 -11.52734375 2.05859375 C-7.96087666 -0.77378063 -4.40704062 -0.17903603 0 0 Z " fill="#8E8E8E" transform="translate(151.25,176.75)"/>
<path d="M0 0 C0.66 0 1.32 0 2 0 C-0.10669549 9.69079923 -6.19255268 17.38302567 -11.80712891 25.36889648 C-14.44907727 29.14205959 -16.7658763 32.97857735 -19 37 C-19.66 37.66 -20.32 38.32 -21 39 C-21.52110352 38.67854004 -22.04220703 38.35708008 -22.57910156 38.02587891 C-25.71402187 36.69742639 -28.33289608 36.6754501 -31.734375 36.5859375 C-33.02988281 36.54726562 -34.32539062 36.50859375 -35.66015625 36.46875 C-37.02343284 36.43729733 -38.38671418 36.40604993 -39.75 36.375 C-41.12893028 36.33679531 -42.50783734 36.29774213 -43.88671875 36.2578125 C-47.25767718 36.16351996 -50.62862978 36.0779178 -54 36 C-53.67 35.34 -53.34 34.68 -53 34 C-52.17798096 33.98541748 -51.35596191 33.97083496 -50.5090332 33.95581055 C-46.77638677 33.88123667 -43.04462541 33.78460488 -39.3125 33.6875 C-37.37213867 33.65366211 -37.37213867 33.65366211 -35.39257812 33.61914062 C-34.14541016 33.58369141 -32.89824219 33.54824219 -31.61328125 33.51171875 C-29.89298706 33.47244263 -29.89298706 33.47244263 -28.13793945 33.43237305 C-21.03180777 32.45322738 -17.13469786 27.41863643 -13 22 C-10.91266812 18.80780257 -9.03395972 15.52362821 -7.1875 12.1875 C-6.2441377 10.51395741 -5.3001536 8.84076514 -4.35546875 7.16796875 C-3.94965576 6.43860107 -3.54384277 5.7092334 -3.12573242 4.95776367 C-2.15189816 3.26416641 -1.08367251 1.62550877 0 0 Z " fill="#060606" transform="translate(151,111)"/>
<path d="M0 0 C1.13169701 2.35114592 2.25541381 4.70559335 3.375 7.0625 C3.69210938 7.71927734 4.00921875 8.37605469 4.3359375 9.05273438 C7.40505878 15.54264707 9.28409666 21.48741111 9.25 28.75 C9.25515625 29.85859375 9.2603125 30.9671875 9.265625 32.109375 C9 35 9 35 7 38 C6.01 37.34 5.02 36.68 4 36 C3.76605547 32.84174879 3.68731312 30.08291216 4.57128906 27.02148438 C5.07248554 24.6582117 4.78657823 23.33619543 4.109375 21.03125 C3.89410156 20.29519531 3.67882812 19.55914062 3.45703125 18.80078125 C3.22371094 18.04152344 2.99039063 17.28226563 2.75 16.5 C2.53214844 15.74074219 2.31429687 14.98148438 2.08984375 14.19921875 C0.55468015 8.47121595 0.55468015 8.47121595 -3 4 C-5.91388903 3.52743544 -8.74587412 3.62451637 -11.6875 3.75 C-12.48478516 3.76804687 -13.28207031 3.78609375 -14.10351562 3.8046875 C-16.06952449 3.85177753 -18.03491494 3.92352101 -20 4 C-20 3.34 -20 2.68 -20 2 C-17.79248152 1.66131223 -15.58394089 1.32928311 -13.375 1 C-12.14523438 0.814375 -10.91546875 0.62875 -9.6484375 0.4375 C-6.3833973 0.04597484 -3.28287549 -0.08080924 0 0 Z " fill="#6E6E6E" transform="translate(188,108)"/>
<path d="M0 0 C1 2 1 2 0.00390625 5.01171875 C-0.95225912 7.45007 -1.91057147 9.8875805 -2.87109375 12.32421875 C-4.02924675 16.09522904 -4.20622542 19.08171708 -4 23 C-2.68 23.66 -1.36 24.32 0 25 C0 25.66 0 26.32 0 27 C0.99 27.33 1.98 27.66 3 28 C3 28.66 3 29.32 3 30 C4.299375 30.12375 5.59875 30.2475 6.9375 30.375 C9.15234375 30.5859375 9.15234375 30.5859375 11 31 C11.33 31.66 11.66 32.32 12 33 C13.485 32.7525 13.485 32.7525 15 32.5 C19.02732942 31.91525483 22.93474623 31.92867976 27 32 C27 32.99 27 33.98 27 35 C14.7780529 36.06563801 6.11233992 35.47527331 -4.19140625 28.45703125 C-7.03115526 25.97274456 -8.10256459 24.61335836 -9 21 C-8.86282741 14.27854286 -6.09686509 7.89836443 -3 2 C-2.01 1.34 -1.02 0.68 0 0 Z " fill="#090909" transform="translate(85,154)"/>
<path d="M0 0 C5.95507399 0.3916035 10.62819824 1.37124595 16 4 C14.6875 6.9375 14.6875 6.9375 13 10 C12.01 10.33 11.02 10.66 10 11 C10 12.65 10 14.3 10 16 C10.99 16.33 11.98 16.66 13 17 C12.67 17.99 12.34 18.98 12 20 C8.40163237 18.66727125 6.70395785 16.49638568 4.37109375 13.53125 C2.22259087 11.13178239 -0.25376964 9.66051138 -3 8 C-2.67 6.68 -2.34 5.36 -2 4 C-0.35 3.67 1.3 3.34 3 3 C3 2.34 3 1.68 3 1 C2.01 0.67 1.02 0.34 0 0 Z " fill="#F1F1F1" transform="translate(139,15)"/>
<path d="M0 0 C0.99 0.33 1.98 0.66 3 1 C3.66666667 2.66666667 4.33333333 4.33333333 5 6 C5.84282242 7.0882011 6.72006184 8.15037986 7.625 9.1875 C10 12 10 12 10 14 C12.31 14.33 14.62 14.66 17 15 C17 19 17 19 15 22 C15.99 22.33 16.98 22.66 18 23 C18 23.66 18 24.32 18 25 C15.03334119 25.18541618 13.67319272 25.18023981 11 24 C5.95139147 18.72277523 -2 8.68405523 -2 1 C-1.34 0.67 -0.68 0.34 0 0 Z " fill="#C0C0C0" transform="translate(78,119)"/>
<path d="M0 0 C0.66 0.33 1.32 0.66 2 1 C2.98257061 5.8830782 3.0203938 10.51194917 2.88671875 15.484375 C2.85642578 16.66773437 2.82613281 17.85109375 2.79492188 19.0703125 C2.72374403 21.50847729 2.63283714 23.946152 2.52148438 26.3828125 C2.33906957 35.47397205 4.53007521 41.19895689 9 49 C11.15265579 53.54203262 11.15265579 53.54203262 10 57 C8.515 57.495 8.515 57.495 7 58 C6.0394728 55.62586674 5.08152647 53.25074481 4.125 50.875 C3.85558594 50.20984375 3.58617187 49.5446875 3.30859375 48.859375 C-1.25109797 37.51575169 -1.25109797 37.51575169 -0.296875 31.5859375 C0.77751004 22.22747834 0.13819493 12.48986209 -0.87890625 3.16015625 C-0.91886719 2.44730469 -0.95882812 1.73445313 -1 1 C-0.67 0.67 -0.34 0.34 0 0 Z " fill="#6D6D6D" transform="translate(189,67)"/>
<path d="M0 0 C10.63432836 -0.42537313 10.63432836 -0.42537313 15 2 C18.21155623 5.93550416 20.97523133 10.33422872 23 15 C22.6875 17.4375 22.6875 17.4375 22 20 C21.23103506 23.41762195 20.89983537 26.4942379 21 30 C19.14429016 27.21643523 18.46785426 25.47072451 17.625 22.3125 C16.63708991 18.84721537 15.48513533 15.75410098 13.8125 12.5625 C12 9 12 9 12 6 C8.20458337 3.78600697 4.24370579 2.99019802 0 2 C0 1.34 0 0.68 0 0 Z " fill="#B9B9B9" transform="translate(120,73)"/>
<path d="M0 0 C0.33 0 0.66 0 1 0 C1.04898437 0.81984375 1.09796875 1.6396875 1.1484375 2.484375 C1.22320313 3.56203125 1.29796875 4.6396875 1.375 5.75 C1.44460937 6.81734375 1.51421875 7.8846875 1.5859375 8.984375 C1.97997105 11.8541288 2.69616729 13.47713671 4 16 C4 17.32 4 18.64 4 20 C4.66 20 5.32 20 6 20 C6.28875 20.639375 6.5775 21.27875 6.875 21.9375 C7.82823451 24.15206079 7.82823451 24.15206079 10 25 C11.74839516 27.65756064 12.99127482 29.97382445 14 33 C14.66 33 15.32 33 16 33 C16.33 35.31 16.66 37.62 17 40 C15.515 40.495 15.515 40.495 14 41 C6.5655338 31.4144446 -1.45258855 20.59046346 -2 8 C-1.60047387 5.14756923 -0.91661507 2.74984522 0 0 Z " fill="#949494" transform="translate(28,124)"/>
<path d="M0 0 C0.16852247 1.60397277 0.33474886 3.2081869 0.5 4.8125 C0.5928125 5.70582031 0.685625 6.59914062 0.78125 7.51953125 C1 10 1 10 1 13 C0.34 13 -0.32 13 -1 13 C-1.66 14.32 -2.32 15.64 -3 17 C-4.32 17 -5.64 17 -7 17 C-8.2077558 13.37673261 -7.54311128 12.35853631 -6 9 C-6.66 8.67 -7.32 8.34 -8 8 C-7.67 7.01 -7.34 6.02 -7 5 C-8.22589844 5.24556641 -8.22589844 5.24556641 -9.4765625 5.49609375 C-13.48768176 6.06974606 -17.33248121 6.11001604 -21.375 6.0625 C-22.11105469 6.05798828 -22.84710938 6.05347656 -23.60546875 6.04882812 C-25.40368158 6.03715142 -27.20185197 6.01922011 -29 6 C-25.29301208 3.70109277 -21.43046544 3.42312121 -17.1875 3 C-11.54239703 2.42753885 -5.50407116 0 0 0 Z " fill="#AAAAAA" transform="translate(177,174)"/>
<path d="M0 0 C2.046875 0.953125 2.046875 0.953125 3.53125 3.71875 C3.94890625 4.86859375 4.3665625 6.0184375 4.796875 7.203125 C5.43882813 8.91242188 5.43882813 8.91242188 6.09375 10.65625 C6.96930334 13.68480335 7.51010484 15.84286752 7.046875 18.953125 C6.056875 19.613125 5.066875 20.273125 4.046875 20.953125 C3.32305033 23.01237639 3.32305033 23.01237639 3.046875 24.953125 C-1.21667225 16.71894596 -4.27647339 10.33022837 -3.953125 0.953125 C-1.953125 -0.046875 -1.953125 -0.046875 0 0 Z " fill="#525252" transform="translate(21.953125,133.046875)"/>
<path d="M0 0 C5.75 1.625 5.75 1.625 8 5 C7.38253906 5.53367187 6.76507813 6.06734375 6.12890625 6.6171875 C-4.35188644 15.74484212 -4.35188644 15.74484212 -12.62890625 26.796875 C-13.08136719 27.52390625 -13.53382812 28.2509375 -14 29 C-14.66 29 -15.32 29 -16 29 C-16 28.01 -16 27.02 -16 26 C-16.66 26 -17.32 26 -18 26 C-17 24 -17 24 -14 23 C-14 21.02 -14 19.04 -14 17 C-12.35 16.67 -10.7 16.34 -9 16 C-8.896875 15.401875 -8.79375 14.80375 -8.6875 14.1875 C-7.46583515 10.30038456 -5.36947157 9.19560259 -1.8125 7.3125 C-0.884375 6.879375 0.04375 6.44625 1 6 C0.67 4.02 0.34 2.04 0 0 Z " fill="#DDDDDD" transform="translate(86,17)"/>
<path d="M0 0 C1.32 0.66 2.64 1.32 4 2 C3.52949219 3.11117187 3.05898438 4.22234375 2.57421875 5.3671875 C-0.68898205 13.14033276 -3.888875 20.8168774 -6 29 C-11.75 28.125 -11.75 28.125 -14 27 C-14 27.66 -14 28.32 -14 29 C-13.01 29.33 -12.02 29.66 -11 30 C-11.66 30.33 -12.32 30.66 -13 31 C-13 32.65 -13 34.3 -13 36 C-15.67927341 31.98108988 -15.15601248 29.75838077 -15 25 C-12.36 25 -9.72 25 -7 25 C-7.06960937 24.18917969 -7.13921875 23.37835938 -7.2109375 22.54296875 C-7.63960165 13.77576617 -5.97346918 8.21910761 -1 1 C-0.67 0.67 -0.34 0.34 0 0 Z " fill="#AFAFAF" transform="translate(31,103)"/>
<path d="M0 0 C0.99 0 1.98 0 3 0 C3.1959375 0.8971875 3.391875 1.794375 3.59375 2.71875 C5.35400543 10.06326405 7.53609475 16.74194482 10.9375 23.5 C11.26105469 24.14517578 11.58460937 24.79035156 11.91796875 25.45507812 C15.70734786 33.31466745 15.70734786 33.31466745 21.86230469 38.87866211 C23.99811788 39.52734437 23.99811788 39.52734437 27 40 C27 40.99 27 41.98 27 43 C26.071875 43.2475 25.14375 43.495 24.1875 43.75 C20.77824707 45.08696193 19.96587748 46.05118379 18 49 C17.34 49 16.68 49 16 49 C16.94672131 44.13114754 16.94672131 44.13114754 17.8125 42 C18.23936221 39.83204404 18.23936221 39.83204404 16.4375 37.875 C15.633125 36.92625 14.82875 35.9775 14 35 C8.14965423 26.54403805 2.51766378 15.93180121 1.45703125 5.6015625 C1.30621094 4.41304688 1.15539062 3.22453125 1 2 C0.34 1.67 -0.32 1.34 -1 1 C-0.67 0.67 -0.34 0.34 0 0 Z " fill="#131313" transform="translate(69,104)"/>
<path d="M0 0 C0.56847656 0.15339844 1.13695312 0.30679688 1.72265625 0.46484375 C-0.58984375 2.52734375 -0.58984375 2.52734375 -3.27734375 4.46484375 C-4.26734375 4.13484375 -5.25734375 3.80484375 -6.27734375 3.46484375 C-9.17666732 5.85993713 -9.77902651 7.77729618 -10.27734375 11.46484375 C-13.27734375 12.46484375 -13.27734375 12.46484375 -17.27734375 12.46484375 C-17.21546875 13.51671875 -17.21546875 13.51671875 -17.15234375 14.58984375 C-17.27734375 17.46484375 -17.27734375 17.46484375 -18.40234375 20.33984375 C-19.51612669 24.31763997 -18.65428333 26.64001159 -17.27734375 30.46484375 C-17.93734375 30.46484375 -18.59734375 30.46484375 -19.27734375 30.46484375 C-20.6015625 28.890625 -20.6015625 28.890625 -21.96484375 26.77734375 C-22.42246094 26.09285156 -22.88007813 25.40835938 -23.3515625 24.703125 C-24.57063018 21.75575883 -24.33197072 20.46436722 -23.27734375 17.46484375 C-20.58259678 13.54416039 -17.40713508 10.04320452 -14.27734375 6.46484375 C-13.67148438 5.70429687 -13.065625 4.94375 -12.44140625 4.16015625 C-8.48269836 -0.46762903 -5.99544735 -1.21110038 0 0 Z " fill="#787878" transform="translate(161.27734375,51.53515625)"/>
<path d="M0 0 C1.33333333 1.66666667 2.66666667 3.33333333 4 5 C5.11375 6.2065625 5.11375 6.2065625 6.25 7.4375 C8.38649628 10.56594098 8.49550575 12.28370687 8 16 C7.34 16.66 6.68 17.32 6 18 C6.3185177 20.10820797 6.3185177 20.10820797 7 22 C1.26788359 16.75920786 -3.39965071 11.00465726 -4 3 C-2.68 2.01 -1.36 1.02 0 0 Z " fill="#292929" transform="translate(29,151)"/>
<path d="M0 0 C0 0.99 0 1.98 0 3 C-6.6910397 5.01933174 -12.84749123 5.30299943 -19.8125 5.25 C-20.84826172 5.25773437 -21.88402344 5.26546875 -22.95117188 5.2734375 C-23.94310547 5.27085938 -24.93503906 5.26828125 -25.95703125 5.265625 C-26.85397705 5.26336914 -27.75092285 5.26111328 -28.67504883 5.25878906 C-31 5 -31 5 -34 3 C-22.53777438 -0.18816872 -11.8069818 -0.32071279 0 0 Z " fill="#616161" transform="translate(124,13)"/>
<path d="M0 0 C0.33 1.32 0.66 2.64 1 4 C-0.98 4.99 -0.98 4.99 -3 6 C-2 4 -1 2 0 0 Z M-4 6 C-0.00500438 10.60961033 2.92924332 15.75924193 6 21 C6.55558594 21.845625 7.11117187 22.69125 7.68359375 23.5625 C9 26 9 26 9 30 C9.66 30 10.32 30 11 30 C11 30.66 11 31.32 11 32 C12.32 32.33 13.64 32.66 15 33 C12.36 32.67 9.72 32.34 7 32 C7 32.99 7 33.98 7 35 C7.99 35.33 8.98 35.66 10 36 C8.68 36 7.36 36 6 36 C5.79246094 35.22398437 5.58492187 34.44796875 5.37109375 33.6484375 C3.13049481 25.79227888 0.19179095 19.0529772 -3.70703125 11.8984375 C-5 9 -5 9 -4 6 Z " fill="#727272" transform="translate(137,138)"/>
<path d="M0 0 C0 0.66 0 1.32 0 2 C-0.66 2 -1.32 2 -2 2 C-1.67 2.99 -1.34 3.98 -1 5 C-11.62768534 8.62896573 -21.90459258 8.29602372 -33 8 C-33 7.34 -33 6.68 -33 6 C-26.98580762 4.32939101 -21.20661893 3.54674947 -15 3 C-9.67380404 2.39865529 -5.20246827 0 0 0 Z " fill="#A6A6A6" transform="translate(147,201)"/>
<path d="M0 0 C2 1 2 1 2 1 Z M-2 1 C-0.68 1.66 0.64 2.32 2 3 C0.33857487 4.33985898 -1.33001351 5.67082708 -3 7 C-3.70125 7.61359375 -4.4025 8.2271875 -5.125 8.859375 C-11.22782597 14.01378882 -11.22782597 14.01378882 -15.5 13.9375 C-16.325 13.628125 -17.15 13.31875 -18 13 C-18.33 13 -18.66 13 -19 13 C-19.66 13.66 -20.32 14.32 -21 15 C-23.56687367 11.1496895 -22.83288724 9.41430237 -22 5 C-21.39671875 5.22816406 -20.7934375 5.45632812 -20.171875 5.69140625 C-19.37265625 5.97886719 -18.5734375 6.26632813 -17.75 6.5625 C-16.96109375 6.85253906 -16.1721875 7.14257812 -15.359375 7.44140625 C-12.80896548 8.04522837 -11.44677771 7.8473932 -9 7 C-9 6.34 -9 5.68 -9 5 C-7.68 5 -6.36 5 -5 5 C-5 4.34 -5 3.68 -5 3 C-4.01 2.34 -3.02 1.68 -2 1 Z " fill="#D8D8D8" transform="translate(53,49)"/>
<path d="M0 0 C0.99 0.33 1.98 0.66 3 1 C2.46890625 1.84820312 1.9378125 2.69640625 1.390625 3.5703125 C-4.26060295 12.84398557 -10.40620465 23.25987433 -8.4375 34.5 C-7.41301068 38.25234642 -5.8076286 41.55689791 -4 45 C-5 47 -5 47 -7 48 C-7.83698386 45.54285453 -8.66972424 43.08441143 -9.5 40.625 C-9.85771484 39.57699219 -9.85771484 39.57699219 -10.22265625 38.5078125 C-12 33.2265625 -12 33.2265625 -12 31 C-13.175625 30.7834375 -13.175625 30.7834375 -14.375 30.5625 C-17 30 -17 30 -19 29 C-19 28.34 -19 27.68 -19 27 C-16.36 27.66 -13.72 28.32 -11 29 C-10.91363281 28.41734375 -10.82726563 27.8346875 -10.73828125 27.234375 C-9.05002594 17.38363759 -5.21162034 8.49301093 0 0 Z " fill="#111111" transform="translate(36,103)"/>
<path d="M0 0 C2.60545752 2.11693423 3.85788346 3.47890603 4.75 6.75 C3.56914706 11.8670294 -0.15042532 14.61443655 -4 18 C-4.99 17.34 -5.98 16.68 -7 16 C-7 15.34 -7 14.68 -7 14 C-7.66 13.67 -8.32 13.34 -9 13 C-8.67 11.35 -8.34 9.7 -8 8 C-7.4225 7.979375 -6.845 7.95875 -6.25 7.9375 C-2.61609879 6.4233745 -1.75149584 3.44043825 0 0 Z " fill="#AEAEAE" transform="translate(144,45)"/>
<path d="M0 0 C0.75893555 0.07822998 1.51787109 0.15645996 2.29980469 0.23706055 C5.95395697 0.66922319 9.03700318 1.15697312 12.1875 3.125 C11.33671875 3.0528125 10.4859375 2.980625 9.609375 2.90625 C1.98823669 2.32250324 -5.60594111 1.99448143 -13.25 1.9375 C-14.49088379 1.91816406 -14.49088379 1.91816406 -15.75683594 1.8984375 C-21.13633922 1.88977834 -25.62154431 2.7447146 -30.8125 4.125 C-33.78125 4.3203125 -33.78125 4.3203125 -36.3125 4.25 C-37.1684375 4.23195313 -38.024375 4.21390625 -38.90625 4.1953125 C-39.5353125 4.17210937 -40.164375 4.14890625 -40.8125 4.125 C-40.8125 3.465 -40.8125 2.805 -40.8125 2.125 C-26.97507396 -1.55913245 -14.14980642 -1.47501535 0 0 Z " fill="#C3C3C3" transform="translate(126.8125,11.875)"/>
<path d="M0 0 C3 2 3 2 3.46411133 4.30664062 C3.5030249 5.24701172 3.54193848 6.18738281 3.58203125 7.15625 C3.62650391 8.17847656 3.67097656 9.20070313 3.71679688 10.25390625 C3.74837891 11.32511719 3.77996094 12.39632812 3.8125 13.5 C3.86341797 14.57121094 3.91433594 15.64242187 3.96679688 16.74609375 C4.18638477 22.64891413 4.18638477 22.64891413 4 25 C3.34 25.66 2.68 26.32 2 27 C-0.625 26.625 -0.625 26.625 -3 26 C-2.505 24.515 -2.505 24.515 -2 23 C-1.86426015 21.39753513 -1.77593767 19.79078028 -1.71875 18.18359375 C-1.68136719 17.25482422 -1.64398437 16.32605469 -1.60546875 15.36914062 C-1.5350159 13.41081234 -1.46470396 11.45247897 -1.39453125 9.49414062 C-1.35714844 8.56666016 -1.31976562 7.63917969 -1.28125 6.68359375 C-1.25095703 5.83337646 -1.22066406 4.98315918 -1.18945312 4.10717773 C-1 2 -1 2 0 0 Z " fill="#C3C3C3" transform="translate(33,78)"/>
<path d="M0 0 C2.14685901 2.07018547 4.00243521 4.00359618 5.6796875 6.48046875 C8.54853025 9.59562629 11.41687555 10.51859513 15.375 11.625 C20.15936056 13.03552861 24.58566989 14.6356684 29 17 C28.01 17.99 27.02 18.98 26 20 C21.37719788 18.54016775 16.93261143 16.77273622 12.46484375 14.90234375 C10.02665873 13.89084752 10.02665873 13.89084752 7.3984375 13.7578125 C5 13 5 13 3.19921875 10.27734375 C2.70035156 9.17519531 2.20148438 8.07304688 1.6875 6.9375 C1.17574219 5.83277344 0.66398438 4.72804688 0.13671875 3.58984375 C-0.23839844 2.73519531 -0.61351562 1.88054688 -1 1 C-0.67 0.67 -0.34 0.34 0 0 Z " fill="#8D8D8D" transform="translate(149,36)"/>
<path d="M0 0 C4.09199751 1.46196596 7.43707599 3.49399043 11.0625 5.875 C16.37837815 9.30160601 21.45313292 11.38640511 27.63671875 12.91796875 C30 14 30 14 31.32421875 16.4375 C32.02001163 19.07588225 32.15519223 21.28413591 32 24 C31.01 24 30.02 24 29 24 C28.86464844 23.44570312 28.72929688 22.89140625 28.58984375 22.3203125 C27.91009601 20.03277818 27.19780184 18.06738039 26 16 C22.803469 14.69243933 22.803469 14.69243933 19 14 C16.60810143 12.80007746 14.32068762 11.47914638 12.015625 10.12109375 C9.90408281 8.86537563 9.90408281 8.86537563 7 8 C7 7.34 7 6.68 7 6 C6.21625 5.7525 5.4325 5.505 4.625 5.25 C1.67682892 3.84610901 1.0975223 2.99324263 0 0 Z " fill="#6E6E6E" transform="translate(78,180)"/>
<path d="M0 0 C-1.07401108 2.91517292 -1.77810176 4.77810176 -4 7 C-4 6.34 -4 5.68 -4 5 C-4.61875 5.495 -5.2375 5.99 -5.875 6.5 C-8 8 -8 8 -10 8 C-10 7.34 -10 6.68 -10 6 C-11.98 6.99 -11.98 6.99 -14 8 C-14 9.98 -14 11.96 -14 14 C-14.99 14.495 -14.99 14.495 -16 15 C-16 14.01 -16 13.02 -16 12 C-17.32 11.67 -18.64 11.34 -20 11 C-19.05606421 7.22425683 -18.1209372 6.08465604 -14.875 3.8125 C-10.19068336 1.39194307 -5.29934467 0 0 0 Z " fill="#7E7E7E" transform="translate(70,48)"/>
<path d="M0 0 C0.66 0.99 1.32 1.98 2 3 C0.9507547 7.87830933 -1.39430603 11.30875017 -4.375 15.25 C-5.14585937 16.28640625 -5.91671875 17.3228125 -6.7109375 18.390625 C-8.79106523 20.76182862 -10.09434011 21.91203602 -13 23 C-13 19.77018017 -12.18469748 17.96174371 -11 15 C-11 14.01 -11 13.02 -11 12 C-10.113125 11.87625 -9.22625 11.7525 -8.3125 11.625 C-3.31873864 9.17523027 -2.07452411 4.97518613 0 0 Z " fill="#3F3F3F" transform="translate(198,154)"/>
<path d="M0 0 C0.66 0 1.32 0 2 0 C2 0.66 2 1.32 2 2 C2.66 2.33 3.32 2.66 4 3 C3.34 3 2.68 3 2 3 C2.3403125 3.8971875 2.3403125 3.8971875 2.6875 4.8125 C2.790625 5.534375 2.89375 6.25625 3 7 C1.625 8.5625 1.625 8.5625 0 10 C-0.33 10.99 -0.66 11.98 -1 13 C-5.07661762 14.80129616 -8.56829305 15.30216184 -13 15 C-13.66 14.67 -14.32 14.34 -15 14 C-15 12 -15 12 -13.875 10.3125 C-12 9 -12 9 -8.8125 9.3125 C-7.884375 9.539375 -6.95625 9.76625 -6 10 C-5.3503125 8.7934375 -5.3503125 8.7934375 -4.6875 7.5625 C-3 5 -3 5 0 4 C0 2.68 0 1.36 0 0 Z " fill="#969696" transform="translate(177,160)"/>
<path d="M0 0 C2.00728935 0.28618274 4.00668296 0.62878805 6 1 C7.99416747 1.29333774 9.98898716 1.58226945 11.984375 1.8671875 C14.2396078 2.20296073 16.49481542 2.53890309 18.75 2.875 C19.89855469 3.03613281 21.04710938 3.19726562 22.23046875 3.36328125 C23.87208984 3.61271484 23.87208984 3.61271484 25.546875 3.8671875 C27.04492676 4.08544189 27.04492676 4.08544189 28.57324219 4.30810547 C31 5 31 5 33 8 C32.38068604 7.91435791 31.76137207 7.82871582 31.12329102 7.74047852 C28.26986087 7.34659931 25.41618345 6.95453958 22.5625 6.5625 C21.58861328 6.42779297 20.61472656 6.29308594 19.61132812 6.15429688 C13.7479649 5.35029055 7.88498727 4.62683939 2 4 C1.34 5.98 0.68 7.96 0 10 C-0.33 9.34 -0.66 8.68 -1 8 C-3.02463255 7.34786708 -3.02463255 7.34786708 -5 7 C-4.34 6.67 -3.68 6.34 -3 6 C-2.34 6.33 -1.68 6.66 -1 7 C-1.020625 6.030625 -1.04125 5.06125 -1.0625 4.0625 C-1 1 -1 1 0 0 Z " fill="#767676" transform="translate(45,172)"/>
<path d="M0 0 C1.65 0 3.3 0 5 0 C4.41734728 4.42323682 2.73233789 7.5155864 0.4375 11.3125 C-0.20316406 12.38113281 -0.84382813 13.44976562 -1.50390625 14.55078125 C-2.24447266 15.76314453 -2.24447266 15.76314453 -3 17 C-4.98120645 14.02819033 -5.65962579 12.48883564 -6 9 C-5.0625 6.6875 -5.0625 6.6875 -4 5 C-3.34 5 -2.68 5 -2 5 C-1.34 3.35 -0.68 1.7 0 0 Z " fill="#252525" transform="translate(78,83)"/>
<path d="M0 0 C1 3 1 3 -0.40625 6.1875 C-1.09265682 7.46458681 -1.7913517 8.73511952 -2.5 10 C-2.86222656 10.66265869 -3.22445312 11.32531738 -3.59765625 12.00805664 C-6.81902585 17.83275868 -10.31289229 23.45781623 -14 29 C-15.82232327 23.53303019 -12.22964312 18.06737072 -10 13 C-9.34 13 -8.68 13 -8 13 C-7.34 12.01 -6.68 11.02 -6 10 C-5.67 10 -5.34 10 -5 10 C-4.67 7.36 -4.34 4.72 -4 2 C-3.01 2 -2.02 2 -1 2 C-0.67 1.34 -0.34 0.68 0 0 Z " fill="#929292" transform="translate(151,107)"/>
<path d="M0 0 C1.33998047 0.31324219 1.33998047 0.31324219 2.70703125 0.6328125 C3.60808594 0.83648437 4.50914063 1.04015625 5.4375 1.25 C6.46810547 1.50136719 6.46810547 1.50136719 7.51953125 1.7578125 C6.51953125 3.7578125 5.51953125 5.7578125 4.51953125 7.7578125 C5.50953125 8.0878125 6.49953125 8.4178125 7.51953125 8.7578125 C7.51953125 9.4178125 7.51953125 10.0778125 7.51953125 10.7578125 C4.75615199 10.7578125 3.05410465 10.73420505 0.51953125 9.7578125 C-1.85532936 7.32113339 -3.68702916 4.64176847 -5.48046875 1.7578125 C-2.48046875 -0.2421875 -2.48046875 -0.2421875 0 0 Z " fill="#B0B0B0" transform="translate(88.48046875,133.2421875)"/>
<path d="M0 0 C1.45903258 0.30921884 2.91720722 0.62248799 4.375 0.9375 C5.18710938 1.11152344 5.99921875 1.28554687 6.8359375 1.46484375 C9 2 9 2 11 3 C11 4.32 11 5.64 11 7 C13.31 7 15.62 7 18 7 C18 7.66 18 8.32 18 9 C3.57691747 7.85578886 3.57691747 7.85578886 -1 6 C-1.33 5.01 -1.66 4.02 -2 3 C-1.34 2.01 -0.68 1.02 0 0 Z " fill="#898989" transform="translate(85,202)"/>
<path d="M0 0 C1.32 0.33 2.64 0.66 4 1 C3.34 1.66 2.68 2.32 2 3 C2 3.66 2 4.32 2 5 C1.10047354 7.39873722 0.14571705 9.7085659 -1 12 C-0.34 12.66 0.32 13.32 1 14 C0.01 14.66 -0.98 15.32 -2 16 C-2.66 15.34 -3.32 14.68 -4 14 C-4.66 14 -5.32 14 -6 14 C-6.9375 11.5 -6.9375 11.5 -7 8 C-4.96679484 5.03003017 -2.56307274 2.51833083 0 0 Z " fill="#5E5E5E" transform="translate(186,164)"/>
<path d="M0 0 C3.93879717 0 6.01083454 0.13113844 9.0234375 2.77734375 C14 8.39375 14 8.39375 14 11 C11.36 10.67 8.72 10.34 6 10 C5.67 9.01 5.34 8.02 5 7 C4.34 6.71125 3.68 6.4225 3 6.125 C1 5 1 5 0.25 2.375 C0.1675 1.59125 0.085 0.8075 0 0 Z " fill="#B3B3B3" transform="translate(176,38)"/>
<path d="M0 0 C5.34111123 -0.21364445 10.06429741 -0.35033457 15 2 C18 5.2 18 5.2 18 8 C17.01 8.33 16.02 8.66 15 9 C14.01 10.485 14.01 10.485 13 12 C12.87625 10.576875 12.87625 10.576875 12.75 9.125 C12.3404226 6.01031392 12.3404226 6.01031392 10.4375 4.75 C6.98540532 3.68781702 3.51806574 2.82088201 0 2 C0 1.34 0 0.68 0 0 Z " fill="#C0C0C0" transform="translate(120,73)"/>
<path d="M0 0 C8.19256018 0.35010941 8.19256018 0.35010941 11.5625 3.0625 C12.036875 3.701875 12.51125 4.34125 13 5 C10.69 4.34 8.38 3.68 6 3 C6 3.66 6 4.32 6 5 C5.34 5 4.68 5 4 5 C4 5.99 4 6.98 4 8 C4.66 8 5.32 8 6 8 C6 8.66 6 9.32 6 10 C3.75 10.6875 3.75 10.6875 1 11 C-1.3125 9.5625 -1.3125 9.5625 -3 8 C-2.67 6.68 -2.34 5.36 -2 4 C-0.35 3.67 1.3 3.34 3 3 C3 2.34 3 1.68 3 1 C2.01 0.67 1.02 0.34 0 0 Z " fill="#E9E9E9" transform="translate(139,15)"/>
<path d="M0 0 C5.75 1.625 5.75 1.625 8 5 C6.41856529 6.43958847 4.83477221 7.87658645 3.25 9.3125 C2.36828125 10.11300781 1.4865625 10.91351563 0.578125 11.73828125 C-1.55449328 13.60916911 -3.70187943 15.34084286 -6 17 C-6.33 16.01 -6.66 15.02 -7 14 C-6.34 13.01 -5.68 12.02 -5 11 C-4.34 11 -3.68 11 -3 11 C-2.71125 10.360625 -2.4225 9.72125 -2.125 9.0625 C-1 7 -1 7 1 6 C0.67 4.02 0.34 2.04 0 0 Z " fill="#CBCBCB" transform="translate(86,17)"/>
<path d="M0 0 C0.66 0 1.32 0 2 0 C0.58944573 6.48854963 -2.45939518 11.43371907 -6 17 C-6.95872166 18.54142521 -7.91709231 20.08306882 -8.875 21.625 C-9.926875 23.295625 -9.926875 23.295625 -11 25 C-11.66 24.01 -12.32 23.02 -13 22 C-11.2099522 18.89489712 -9.41768286 15.7910822 -7.625 12.6875 C-6.86316406 11.36588867 -6.86316406 11.36588867 -6.0859375 10.01757812 C-5.59609375 9.17001953 -5.10625 8.32246094 -4.6015625 7.44921875 C-4.15119629 6.66893311 -3.70083008 5.88864746 -3.23681641 5.0847168 C-2.21165413 3.35675377 -1.11449387 1.67174081 0 0 Z " fill="#131313" transform="translate(151,111)"/>
<path d="M0 0 C0.99 0.33 1.98 0.66 3 1 C4.51849075 4.38798941 3.68667845 6.8324975 2.5625 10.25 C2.27503906 11.14203125 1.98757812 12.0340625 1.69140625 12.953125 C1.46324219 13.62859375 1.23507813 14.3040625 1 15 C-4.75 14.125 -4.75 14.125 -7 13 C-7 13.66 -7 14.32 -7 15 C-6.01 15.33 -5.02 15.66 -4 16 C-4.66 16.33 -5.32 16.66 -6 17 C-6 18.65 -6 20.3 -6 22 C-8.67927341 17.98108988 -8.15601248 15.75838077 -8 11 C-5.36 11 -2.72 11 0 11 C0 7.37 0 3.74 0 0 Z " fill="#979797" transform="translate(24,117)"/>
<path d="M0 0 C0 0.99 0 1.98 0 3 C-1.32 3.33 -2.64 3.66 -4 4 C-4.33 5.65 -4.66 7.3 -5 9 C-5.66 9 -6.32 9 -7 9 C-7.2475 9.639375 -7.495 10.27875 -7.75 10.9375 C-9 13 -9 13 -11.125 13.75 C-12.053125 13.87375 -12.053125 13.87375 -13 14 C-12.67 12.02 -12.34 10.04 -12 8 C-11.34 8 -10.68 8 -10 8 C-9.9175 7.4225 -9.835 6.845 -9.75 6.25 C-8.06807489 1.20422468 -5.18953708 -0.57661523 0 0 Z " fill="#E9E9E9" transform="translate(45,106)"/>
<path d="M0 0 C0.66 0.99 1.32 1.98 2 3 C0.45511391 7.72048528 -1.18361884 10.71001624 -5 14 C-5.33 13.34 -5.66 12.68 -6 12 C-6.99 12 -7.98 12 -9 12 C-9.66 13.65 -10.32 15.3 -11 17 C-11.33 16.01 -11.66 15.02 -12 14 C-10.81755753 12.46602057 -9.62687758 10.93329797 -8.32421875 9.5 C-6.78728071 7.82697958 -6.78728071 7.82697958 -5 5 C-3.9790625 4.505 -3.9790625 4.505 -2.9375 4 C-0.64657009 3.10301684 -0.64657009 3.10301684 0 0 Z " fill="#333333" transform="translate(87,71)"/>
<path d="M0 0 C1.55027227 0.26654879 3.09056462 0.59123361 4.625 0.9375 C11.78010844 2.34212603 18.73646705 2.1764421 26 2 C26.66 3.32 27.32 4.64 28 6 C23.82451821 8.0877409 17.96478237 5.91518552 13.5 5.1875 C12.33339844 5.00896484 11.16679688 4.83042969 9.96484375 4.64648438 C8.85238281 4.46794922 7.73992188 4.28941406 6.59375 4.10546875 C5.05750977 3.86026489 5.05750977 3.86026489 3.49023438 3.61010742 C1 3 1 3 -1 1 C-0.67 0.67 -0.34 0.34 0 0 Z " fill="#151515" transform="translate(50,171)"/>
<path d="M0 0 C3.09246438 1.06636703 4.00415447 2.00644659 5.8125 4.8125 C7.09302585 8.24970095 7.28279175 9.60976467 6 13 C4.4375 14.8125 4.4375 14.8125 3 16 C2.690625 14.865625 2.38125 13.73125 2.0625 12.5625 C1.37075469 9.21224901 1.37075469 9.21224901 0 8 C-0.14115161 5.32941149 -0.04247107 2.67567762 0 0 Z " fill="#A2A2A2" transform="translate(145,38)"/>
<path d="M0 0 C0.33 0 0.66 0 1 0 C1 1.65 1 3.3 1 5 C8.26 4.67 15.52 4.34 23 4 C16.92928191 8.0471454 9.67197811 7.12160369 2.625 7.0625 C1.60277344 7.05798828 0.58054687 7.05347656 -0.47265625 7.04882812 C-2.98183194 7.037103 -5.4908849 7.02069176 -8 7 C-8 6.34 -8 5.68 -8 5 C-4.535 4.505 -4.535 4.505 -1 4 C-0.67 2.68 -0.34 1.36 0 0 Z " fill="#727272" transform="translate(111,204)"/>
<path d="M0 0 C0.20086443 3.71599191 0.1519437 4.77208445 -2 8 C-2.33 8.66 -2.66 9.32 -3 10 C-2.01 10 -1.02 10 0 10 C-0.66 11.98 -1.32 13.96 -2 16 C-4.91707899 13.08292101 -5.88789821 9.9477686 -6.125 5.828125 C-6.125 3.88496989 -6.06696555 1.94200087 -6 0 C-3.50907189 -1.24546405 -2.58919267 -0.7767578 0 0 Z " fill="#666666" transform="translate(24,134)"/>
<path d="M0 0 C2 2 2 2 2.265625 4.93359375 C2.26046875 6.08988281 2.2553125 7.24617187 2.25 8.4375 C2.25515625 9.59121094 2.2603125 10.74492187 2.265625 11.93359375 C2 15 2 15 0 18 C-0.99 17.34 -1.98 16.68 -3 16 C-3.71711359 10.14357233 -2.05173001 5.38579128 0 0 Z " fill="#7D7D7D" transform="translate(195,128)"/>
<path d="M0 0 C-0.33 0.66 -0.66 1.32 -1 2 C-8.12906004 4.10873147 -15.55990143 5.70189609 -23 5 C-23.99 4.34 -24.98 3.68 -26 3 C-17.19421143 0.81157917 -9.08009321 -0.4490156 0 0 Z " fill="#888888" transform="translate(116,13)"/>
<path d="M0 0 C1.67542976 0.28604898 3.34385343 0.61781233 5 1 C4.67 3.31 4.34 5.62 4 8 C3.34 7.67 2.68 7.34 2 7 C1.67 8.98 1.34 10.96 1 13 C0.01 12.67 -0.98 12.34 -2 12 C-2.33 10.02 -2.66 8.04 -3 6 C-2.34 6 -1.68 6 -1 6 C-1.0309375 4.7934375 -1.0309375 4.7934375 -1.0625 3.5625 C-1 1 -1 1 0 0 Z " fill="#A2A2A2" transform="translate(146,103)"/>
<path d="M0 0 C1.98 0.99 3.96 1.98 6 3 C5.34 4.65 4.68 6.3 4 8 C-4.415 6.02 -4.415 6.02 -13 4 C-13 3.67 -13 3.34 -13 3 C-6.565 2.505 -6.565 2.505 0 2 C0 1.34 0 0.68 0 0 Z " fill="#060606" transform="translate(130,16)"/>
<path d="M0 0 C1.98 0.66 3.96 1.32 6 2 C6 2.33 6 2.66 6 3 C8.31 3.66 10.62 4.32 13 5 C13 5.66 13 6.32 13 7 C12.01 7 11.02 7 10 7 C10.66 7.66 11.32 8.32 12 9 C12.625 11.125 12.625 11.125 13 13 C9.63002746 11.5384164 7.39254873 9.6619112 4.8125 7.0625 C4.11769531 6.37285156 3.42289063 5.68320313 2.70703125 4.97265625 C1 3 1 3 0 0 Z " fill="#A6A6A6" transform="translate(42,180)"/>
<path d="M0 0 C0.7734375 0.433125 0.7734375 0.433125 1.5625 0.875 C4.62356725 2.28780027 7.74944918 3.1248517 11 4 C11 4.99 11 5.98 11 7 C9.6078125 7.37125 9.6078125 7.37125 8.1875 7.75 C4.77824707 9.08696193 3.96587748 10.05118379 2 13 C1.34 13 0.68 13 0 13 C0.93333333 8.2 0.93333333 8.2 1.6875 5.9375 C2.09872527 3.38790331 1.31345638 2.16333992 0 0 Z " fill="#070707" transform="translate(85,140)"/>
<path d="M0 0 C2.17290966 2.09530574 4.0885879 4.12107013 5.875 6.5625 C8.31235231 9.35828647 10.62167264 10.54117682 14 12 C14 12.66 14 13.32 14 14 C10.68830179 14.38268513 8.0914677 14.31198873 5 13 C2.35499572 9.25424647 0.6416667 5.26833343 -1 1 C-0.67 0.67 -0.34 0.34 0 0 Z " fill="#979797" transform="translate(149,36)"/>
<path d="M0 0 C7.71589817 -0.1567564 15.31516461 0.32546899 23 1 C23.33 2.98 23.66 4.96 24 7 C23.01 7 22.02 7 21 7 C20.67 5.68 20.34 4.36 20 3 C18.08574219 3.05220703 18.08574219 3.05220703 16.1328125 3.10546875 C14.46355479 3.13360231 12.7942829 3.16090293 11.125 3.1875 C10.28324219 3.21263672 9.44148438 3.23777344 8.57421875 3.26367188 C7.76855469 3.27333984 6.96289062 3.28300781 6.1328125 3.29296875 C5.38918457 3.3086792 4.64555664 3.32438965 3.87939453 3.34057617 C2.94909424 3.17199097 2.94909424 3.17199097 2 3 C1.34 2.01 0.68 1.02 0 0 Z " fill="#DBDBDB" transform="translate(46,106)"/>
<path d="M0 0 C2.3125 0.5625 2.3125 0.5625 5 2 C6.85395348 5.51611868 8 8.00926247 8 12 C6.02 12 4.04 12 2 12 C2.33 9.69 2.66 7.38 3 5 C1.68 4.34 0.36 3.68 -1 3 C-0.67 2.01 -0.34 1.02 0 0 Z " fill="#7A7A7A" transform="translate(190,51)"/>
<path d="M0 0 C0 0.33 0 0.66 0 1 C-1.08539063 1.18175781 -2.17078125 1.36351562 -3.2890625 1.55078125 C-4.73446137 1.80419534 -6.17976918 2.05812925 -7.625 2.3125 C-8.33785156 2.43044922 -9.05070313 2.54839844 -9.78515625 2.66992188 C-13.36246002 3.30989824 -16.04314915 4.02157458 -19.3359375 5.66796875 C-22 7 -22 7 -25 6 C-18.4099841 -2.32423061 -9.71139627 -0.55493693 0 0 Z " fill="#676767" transform="translate(160,177)"/>
<path d="M0 0 C-0.556875 0.268125 -1.11375 0.53625 -1.6875 0.8125 C-2.8321875 1.4003125 -2.8321875 1.4003125 -4 2 C-4.9075 2.309375 -5.815 2.61875 -6.75 2.9375 C-9.26622291 4.79441639 -9.26622291 4.79441639 -9.31640625 7.640625 C-9.31281317 10.44322879 -9.21346261 13.20601158 -9 16 C-9.99 16 -10.98 16 -12 16 C-13.09192822 11.08632301 -13.56228655 7.48400145 -11 3 C-10.01 3 -9.02 3 -8 3 C-8 2.34 -8 1.68 -8 1 C-5.29120665 -0.35439668 -2.99066732 -0.06501451 0 0 Z " fill="#171717" transform="translate(198,63)"/>
<path d="M0 0 C2.64 0.99 5.28 1.98 8 3 C7.67 4.98 7.34 6.96 7 9 C6.38125 8.79375 5.7625 8.5875 5.125 8.375 C4.42375 8.25125 3.7225 8.1275 3 8 C2.34 8.66 1.68 9.32 1 10 C-1.56687367 6.1496895 -0.83288724 4.41430237 0 0 Z " fill="#BFBFBF" transform="translate(31,54)"/>
<path d="M0 0 C4.67105792 1.55701931 8.08705685 4.08447373 12 7 C11.34 7.66 10.68 8.32 10 9 C9.38125 8.67 8.7625 8.34 8.125 8 C6.08981656 6.85806765 6.08981656 6.85806765 4 7 C2.68 7 1.36 7 0 7 C0 4.69 0 2.38 0 0 Z " fill="#D6D6D6" transform="translate(160,23)"/>
<path d="M0 0 C0 2.31 0 4.62 0 7 C-0.4122583 6.51104248 -0.8245166 6.02208496 -1.24926758 5.51831055 C-3.37153625 3.67778776 -4.24935371 3.64472226 -7.01171875 3.70703125 C-7.76904297 3.71669922 -8.52636719 3.72636719 -9.30664062 3.73632812 C-10.09232422 3.76146484 -10.87800781 3.78660156 -11.6875 3.8125 C-12.48478516 3.82603516 -13.28207031 3.83957031 -14.10351562 3.85351562 C-16.06929967 3.88882911 -18.03473582 3.94263553 -20 4 C-20 3.34 -20 2.68 -20 2 C-17.79248152 1.66131223 -15.58394089 1.32928311 -13.375 1 C-12.14523438 0.814375 -10.91546875 0.62875 -9.6484375 0.4375 C-6.3833973 0.04597484 -3.28287549 -0.08080924 0 0 Z " fill="#767676" transform="translate(188,108)"/>
<path d="M0 0 C0.33 1.32 0.66 2.64 1 4 C-0.98 4.99 -0.98 4.99 -3 6 C-2 4 -1 2 0 0 Z M-4 6 C-0.78119883 9.7935871 1.6163187 13.65829477 4 18 C3.34 18 2.68 18 2 18 C1.67 18.66 1.34 19.32 1 20 C-0.03307771 18.23628182 -1.05112049 16.46374967 -2.0625 14.6875 C-2.63097656 13.70136719 -3.19945312 12.71523437 -3.78515625 11.69921875 C-5 9 -5 9 -4 6 Z " fill="#858585" transform="translate(137,138)"/>
<path d="M0 0 C0.66 0.33 1.32 0.66 2 1 C-3.895742 4.76672406 -8.32975898 5.14197273 -15.25 5.0625 C-15.99507812 5.05798828 -16.74015625 5.05347656 -17.5078125 5.04882812 C-19.3385764 5.03709246 -21.16929873 5.0191585 -23 5 C-19.23815982 2.65253315 -15.24788633 2.3836696 -10.9375 1.9375 C-5.39305857 1.36636863 -5.39305857 1.36636863 0 0 Z " fill="#979797" transform="translate(171,175)"/>
<path d="M0 0 C1.93166016 0.01740234 1.93166016 0.01740234 3.90234375 0.03515625 C5.19269531 0.04417969 6.48304688 0.05320312 7.8125 0.0625 C8.81152344 0.07410156 9.81054688 0.08570312 10.83984375 0.09765625 C10.83984375 0.42765625 10.83984375 0.75765625 10.83984375 1.09765625 C10.03160156 1.14921875 9.22335938 1.20078125 8.390625 1.25390625 C2.07664921 1.74627798 2.07664921 1.74627798 -3.0703125 5.01171875 C-4.27691877 7.00279498 -5.29609085 8.93749276 -6.16015625 11.09765625 C-7.15015625 10.76765625 -8.14015625 10.43765625 -9.16015625 10.09765625 C-8.34972789 8.61735353 -7.53675277 7.13844483 -6.72265625 5.66015625 C-6.04396484 4.42458984 -6.04396484 4.42458984 -5.3515625 3.1640625 C-3.59127802 0.11097893 -3.59127802 0.11097893 0 0 Z " fill="#929292" transform="translate(157.16015625,110.90234375)"/>
<path d="M0 0 C-3.7367843 2.49118953 -5.74451819 2.2065226 -10.1875 2.125 C-11.45980469 2.10695312 -12.73210937 2.08890625 -14.04296875 2.0703125 C-15.50669922 2.03550781 -15.50669922 2.03550781 -17 2 C-17 1.34 -17 0.68 -17 0 C-10.61299527 -2.09029246 -6.41395823 -1.93012632 0 0 Z " fill="#A8A8A8" transform="translate(131,207)"/>
<path d="M0 0 C0.66 0.33 1.32 0.66 2 1 C1.21496094 1.75023438 0.42992188 2.50046875 -0.37890625 3.2734375 C-6.7093674 9.41047908 -12.2807867 15.4891394 -17 23 C-17.66 22.34 -18.32 21.68 -19 21 C-13.21998585 13.3650816 -6.86555967 6.63839041 0 0 Z " fill="#323232" transform="translate(91,23)"/>
<path d="M0 0 C2.48982535 2.27745789 4.10368997 4.62335238 5.75 7.5625 C6.19859375 8.34753906 6.6471875 9.13257812 7.109375 9.94140625 C7.40328125 10.62074219 7.6971875 11.30007812 8 12 C7.67 12.66 7.34 13.32 7 14 C4.36 12.68 1.72 11.36 -1 10 C-0.73958333 7.98177083 -0.47916667 5.96354167 -0.21875 3.9453125 C0.0372485 1.99501656 0.0372485 1.99501656 0 0 Z " fill="#AAAAAA" transform="translate(197,58)"/>
<path d="M0 0 C2.61225159 2.48163901 4.96504977 5.02025145 7 8 C6.82560493 11.05191378 6.18741485 11.81258515 4 14 C3.34 13.67 2.68 13.34 2 13 C2.66 11.35 3.32 9.7 4 8 C2.68 8 1.36 8 0 8 C-0.98120464 4.94736336 -0.98120464 3.05263664 0 0 Z " fill="#9F9F9F" transform="translate(81,136)"/>
<path d="M0 0 C2.39824692 3.02823416 4.24959666 6.15461265 6.0625 9.5625 C7.61889009 12.48122645 9.16350442 15.24525663 11 18 C10.01 18.33 9.02 18.66 8 19 C6.68417937 16.73103368 5.37224764 14.45996813 4.0625 12.1875 C3.68931641 11.54490234 3.31613281 10.90230469 2.93164062 10.24023438 C1.36533365 7.51683576 -0.00369374 4.98891878 -1 2 C-0.67 1.34 -0.34 0.68 0 0 Z " fill="#1C1C1C" transform="translate(76,122)"/>
<path d="M0 0 C1.98 0.66 3.96 1.32 6 2 C6.33 4.31 6.66 6.62 7 9 C6.01 9.33 5.02 9.66 4 10 C0.06153846 5.69230769 0.06153846 5.69230769 -0.25 2.1875 C-0.1675 1.465625 -0.085 0.74375 0 0 Z " fill="#868686" transform="translate(38,155)"/>
<path d="M0 0 C4.42496202 4.42496202 4.33901745 9.73962631 4.65625 15.671875 C4.82640625 16.82429688 4.82640625 16.82429688 5 18 C5.66 18.33 6.32 18.66 7 19 C5.68 21.31 4.36 23.62 3 26 C1.90114958 22.70344873 1.96760948 20.39894127 2.0625 16.9375 C2.12200855 11.03954194 1.44283467 5.70692642 0 0 Z " fill="#202020" transform="translate(194,120)"/>
<path d="M0 0 C0.66 0.99 1.32 1.98 2 3 C1.01658382 7.52371445 -0.78090514 10.68335681 -4 14 C-4.99 14 -5.98 14 -7 14 C-4.66666667 9.33333333 -2.33333333 4.66666667 0 0 Z " fill="#3C3C3C" transform="translate(198,154)"/>
<path d="M0 0 C0.94875 0.04125 1.8975 0.0825 2.875 0.125 C2.875 1.115 2.875 2.105 2.875 3.125 C1.885 3.62 1.885 3.62 0.875 4.125 C0.545 5.115 0.215 6.105 -0.125 7.125 C-0.785 7.125 -1.445 7.125 -2.125 7.125 C-2.125 6.465 -2.125 5.805 -2.125 5.125 C-3.775 5.785 -5.425 6.445 -7.125 7.125 C-4.56730769 0.18269231 -4.56730769 0.18269231 0 0 Z " fill="#CBCBCB" transform="translate(159.125,112.875)"/>
<path d="M0 0 C0.33 0 0.66 0 1 0 C1.33 6.6 1.66 13.2 2 20 C3.98 20.33 5.96 20.66 8 21 C8 21.66 8 22.32 8 23 C5.6739143 23.38063221 3.33944736 23.71269945 1 24 C0 23 0 23 -0.11352539 20.77514648 C-0.10828857 19.81680908 -0.10305176 18.85847168 -0.09765625 17.87109375 C-0.09443359 16.83662109 -0.09121094 15.80214844 -0.08789062 14.73632812 C-0.07951172 13.64771484 -0.07113281 12.55910156 -0.0625 11.4375 C-0.05798828 10.34501953 -0.05347656 9.25253906 -0.04882812 8.12695312 C-0.03699826 5.41791505 -0.02051543 2.70898401 0 0 Z " fill="#171717" transform="translate(36,77)"/>
<path d="M0 0 C1.85228404 3.70456808 0.04136984 8.13205488 -1 12 C-1.99 11.34 -2.98 10.68 -4 10 C-4 9.34 -4 8.68 -4 8 C-4.66 7.67 -5.32 7.34 -6 7 C-5.67 5.35 -5.34 3.7 -5 2 C-4.360625 1.855625 -3.72125 1.71125 -3.0625 1.5625 C-1.02454854 1.18992819 -1.02454854 1.18992819 0 0 Z " fill="#BFBFBF" transform="translate(141,51)"/>
<path d="M0 0 C1.32 0 2.64 0 4 0 C6 3 6 3 5.875 5.5625 C5 8 5 8 2.9375 9.3125 C2.298125 9.539375 1.65875 9.76625 1 10 C0.34 9.01 -0.32 8.02 -1 7 C-0.67 6.34 -0.34 5.68 0 5 C0.0396713 3.33380554 0.04384447 1.66608987 0 0 Z " fill="#DEDEDE" transform="translate(82,16)"/>
<path d="M0 0 C0.66 0.33 1.32 0.66 2 1 C2 1.66 2 2.32 2 3 C3.69035266 4.44503645 3.69035266 4.44503645 5.8125 5.875 C8.79791343 7.95228221 11.13296077 9.83657804 13 13 C12.67 13.99 12.34 14.98 12 16 C11.48050781 15.39671875 10.96101562 14.7934375 10.42578125 14.171875 C6.85013235 10.07408883 3.44263312 6.19314256 -1 3 C-0.67 2.01 -0.34 1.02 0 0 Z " fill="#A1A1A1" transform="translate(135,20)"/>
<path d="M0 0 C0 0.66 0 1.32 0 2 C-0.66 2 -1.32 2 -2 2 C-1.67 2.99 -1.34 3.98 -1 5 C-7.28571429 7.42857143 -7.28571429 7.42857143 -11 6 C-10.34 5.34 -9.68 4.68 -9 4 C-8.34 3.01 -7.68 2.02 -7 1 C-4 0 -4 0 0 0 Z " fill="#9B9B9B" transform="translate(147,201)"/>
<path d="M0 0 C0.66 1.32 1.32 2.64 2 4 C1.34 4.66 0.68 5.32 0 6 C-3.0390625 5.7578125 -3.0390625 5.7578125 -6.625 5.125 C-7.81351563 4.92132813 -9.00203125 4.71765625 -10.2265625 4.5078125 C-11.59941406 4.25644531 -11.59941406 4.25644531 -13 4 C-12.360625 3.87625 -11.72125 3.7525 -11.0625 3.625 C-10.0415625 3.315625 -10.0415625 3.315625 -9 3 C-8.67 2.34 -8.34 1.68 -8 1 C-7.34 1.66 -6.68 2.32 -6 3 C-5.34 2.34 -4.68 1.68 -4 1 C-1.875 0.375 -1.875 0.375 0 0 Z " fill="#7A7A7A" transform="translate(64,168)"/>
<path d="M0 0 C0.93423645 3.01031744 1.04449911 3.86650268 0 7 C0.98560611 8.34400833 1.98758315 9.67607028 3 11 C3.6875 13.75 3.6875 13.75 4 16 C3.34 16 2.68 16 2 16 C-0.74622068 12.73531878 -3.03372179 9.51748056 -2.9375 5.1875 C-2 3 -2 3 0 0 Z " fill="#676767" transform="translate(140,66)"/>
<path d="M0 0 C2.25450812 0.27025649 4.4469848 0.6215213 6.6640625 1.109375 C4.3515625 3.171875 4.3515625 3.171875 1.6640625 5.109375 C0.6740625 4.779375 -0.3159375 4.449375 -1.3359375 4.109375 C-2.3259375 4.769375 -3.3159375 5.429375 -4.3359375 6.109375 C-5.3259375 5.779375 -6.3159375 5.449375 -7.3359375 5.109375 C-3.60020811 0.16857162 -3.60020811 0.16857162 0 0 Z " fill="#6F6F6F" transform="translate(156.3359375,50.890625)"/>
<path d="M0 0 C-0.24609375 1.890625 -0.24609375 1.890625 -1 4 C-2.84765625 5.046875 -2.84765625 5.046875 -5.0625 5.75 C-6.16271484 6.11351562 -6.16271484 6.11351562 -7.28515625 6.484375 C-8.13400391 6.73960938 -8.13400391 6.73960938 -9 7 C-8.8125 4.6875 -8.8125 4.6875 -8 2 C-3.84375 -1.28125 -3.84375 -1.28125 0 0 Z " fill="#DFDFDF" transform="translate(67,44)"/>
<path d="M0 0 C1.32 0 2.64 0 4 0 C4.33 2.97 4.66 5.94 5 9 C4.01 9 3.02 9 2 9 C0.50178941 5.62902617 0 3.79557881 0 0 Z " fill="#848484" transform="translate(105,195)"/>
<path d="M0 0 C0 0.66 0 1.32 0 2 C-5.27933586 6.00464712 -10.35426532 8.71105501 -17 9 C-13.94746898 6.59124922 -10.78648153 4.67456202 -7.375 2.8125 C-6.41335937 2.28269531 -5.45171875 1.75289062 -4.4609375 1.20703125 C-2 0 -2 0 0 0 Z " fill="#838383" transform="translate(136,184)"/>
<path d="M0 0 C0.66 0 1.32 0 2 0 C1.54803755 1.60597325 1.08817673 3.20972508 0.625 4.8125 C0.36976562 5.70582031 0.11453125 6.59914062 -0.1484375 7.51953125 C-1 10 -1 10 -3 13 C-3.99 13 -4.98 13 -6 13 C-6 11.68 -6 10.36 -6 9 C-5.34 9 -4.68 9 -4 9 C-4 8.34 -4 7.68 -4 7 C-3.34 6.67 -2.68 6.34 -2 6 C-1.27306096 4.02111039 -0.60183749 2.02045442 0 0 Z " fill="#858585" transform="translate(78,161)"/>
<path d="M0 0 C0 0.66 0 1.32 0 2 C-0.66 2 -1.32 2 -2 2 C-1.67 2.99 -1.34 3.98 -1 5 C-2.3125 6.5 -2.3125 6.5 -4 8 C-4.99 8 -5.98 8 -7 8 C-6.62952882 5.25851328 -6.31412056 3.41406801 -4.625 1.1875 C-3 0 -3 0 0 0 Z " fill="#F2F2F2" transform="translate(88,31)"/>
<path d="M0 0 C6.6 0.66 13.2 1.32 20 2 C20 2.33 20 2.66 20 3 C16.37 3 12.74 3 9 3 C9.33 3.99 9.66 4.98 10 6 C7 6 7 6 5.5625 4.6875 C5.046875 4.130625 4.53125 3.57375 4 3 C2.68 2.01 1.36 1.02 0 0 Z " fill="#2A2A2A" transform="translate(86,16)"/>
<path d="M0 0 C1.79378179 2.69067269 2.97313958 5.08578257 4.1875 8.0625 C4.55230469 8.94035156 4.91710937 9.81820312 5.29296875 10.72265625 C6 13 6 13 5 15 C4.01 15.495 4.01 15.495 3 16 C2.29695778 14.27709395 1.61316509 12.54632534 0.9375 10.8125 C0.55464844 9.84957031 0.17179687 8.88664063 -0.22265625 7.89453125 C-1.05622133 4.79065325 -0.88679818 3.05080883 0 0 Z " fill="#1C1C1C" transform="translate(26,135)"/>
<path d="M0 0 C0.763125 0.495 1.52625 0.99 2.3125 1.5 C4.92363751 3.24368308 4.92363751 3.24368308 8 3 C10.1875 4 10.1875 4 12 5 C12 5.99 12 6.98 12 8 C8.04173281 7.43453326 5.240291 6.36453668 2 4 C0.6875 1.8125 0.6875 1.8125 0 0 Z " fill="#C9C9C9" transform="translate(153,40)"/>
<path d="M0 0 C2.31 0 4.62 0 7 0 C6.04578192 1.14926266 5.08647955 2.29430541 4.125 3.4375 C3.59132812 4.07558594 3.05765625 4.71367187 2.5078125 5.37109375 C1 7 1 7 -1 8 C-1.125 2.25 -1.125 2.25 0 0 Z " fill="#959595" transform="translate(129,136)"/>
<path d="M0 0 C-2.23407889 3.35111834 -3.26215824 4.81553956 -7.25 5.8125 C-8.61125 5.9053125 -8.61125 5.9053125 -10 6 C-10 5.34 -10 4.68 -10 4 C-9.34 4 -8.68 4 -8 4 C-7.67 3.01 -7.34 2.02 -7 1 C-2.55696203 -1.27848101 -2.55696203 -1.27848101 0 0 Z " fill="#BDBDBD" transform="translate(139,64)"/>
<path d="M0 0 C0.99 0.99 1.98 1.98 3 3 C3.66 2.67 4.32 2.34 5 2 C7 3.375 7 3.375 9 5 C9 5.66 9 6.32 9 7 C6.36 6.67 3.72 6.34 1 6 C0.67 5.01 0.34 4.02 0 3 C-0.99 2.67 -1.98 2.34 -3 2 C-2.01 1.34 -1.02 0.68 0 0 Z " fill="#9B9B9B" transform="translate(181,42)"/>
<path d="M0 0 C-0.33 0.66 -0.66 1.32 -1 2 C-5.29581527 3.26761762 -8.50944298 4 -13 4 C-13 3.34 -13 2.68 -13 2 C-4.738041 -1.62870159 -4.738041 -1.62870159 0 0 Z " fill="#494949" transform="translate(125,14)"/>
<path d="M0 0 C5.75 -0.125 5.75 -0.125 8 1 C8 1.66 8 2.32 8 3 C8.99 3.33 9.98 3.66 11 4 C9.02 4.99 9.02 4.99 7 6 C5.83054208 5.19152271 4.66449539 4.37810888 3.5 3.5625 C2.8503125 3.11003906 2.200625 2.65757812 1.53125 2.19140625 C1.0259375 1.79824219 0.520625 1.40507812 0 1 C0 0.67 0 0.34 0 0 Z " fill="#0E0E0E" transform="translate(77,178)"/>
<path d="M0 0 C0.33 0 0.66 0 1 0 C1.19406478 1.64507218 1.38007935 3.29109594 1.5625 4.9375 C1.66691406 5.85402344 1.77132813 6.77054687 1.87890625 7.71484375 C1.91886719 8.46894531 1.95882813 9.22304687 2 10 C1.67 10.33 1.34 10.66 1 11 C0.76636119 12.84891946 0.58696365 14.70488031 0.4375 16.5625 C0.35371094 17.57441406 0.26992187 18.58632812 0.18359375 19.62890625 C0.12300781 20.41136719 0.06242188 21.19382812 0 22 C-0.33 22 -0.66 22 -1 22 C-1.02716824 19.45826023 -1.04691969 16.91681585 -1.0625 14.375 C-1.07087891 13.66214844 -1.07925781 12.94929688 -1.08789062 12.21484375 C-1.10710296 8.02655562 -0.8267327 4.1271538 0 0 Z " fill="#C0C0C0" transform="translate(14,94)"/>
<path d="M0 0 C3.44868587 4.08733141 6.23793154 8.43805907 9 13 C6.18771639 12.64463519 5.17418516 12.19649652 3.26171875 10.0390625 C2.74222656 9.24242187 2.22273438 8.44578125 1.6875 7.625 C1.15511719 6.83351563 0.62273437 6.04203125 0.07421875 5.2265625 C-1 3 -1 3 0 0 Z " fill="#171717" transform="translate(72,45)"/>
<path d="M0 0 C5.8845041 3.94291645 10.05708355 8.1154959 14 14 C13.01 14.495 13.01 14.495 12 15 C11.46890625 14.31292969 10.9378125 13.62585937 10.390625 12.91796875 C9.68421875 12.01691406 8.9778125 11.11585937 8.25 10.1875 C7.55390625 9.29417969 6.8578125 8.40085937 6.140625 7.48046875 C4.12847738 4.97030485 4.12847738 4.97030485 1.734375 3.30078125 C1.16203125 2.87152344 0.5896875 2.44226563 0 2 C0 1.34 0 0.68 0 0 Z " fill="#2F2F2F" transform="translate(134,23)"/>
<path d="M0 0 C0 0.66 0 1.32 0 2 C0.66 2 1.32 2 2 2 C2 2.66 2 3.32 2 4 C-0.35438733 5.42944945 -1.48032433 6.08661261 -4.25 5.625 C-4.8275 5.41875 -5.405 5.2125 -6 5 C-3.74193548 0 -3.74193548 0 0 0 Z " fill="#A1A1A1" transform="translate(154,198)"/>
<path d="M0 0 C0 1.98 0 3.96 0 6 C-0.99 6 -1.98 6 -3 6 C-3 5.34 -3 4.68 -3 4 C-4.65 4.33 -6.3 4.66 -8 5 C-8 4.01 -8 3.02 -8 2 C-2.25 0 -2.25 0 0 0 Z " fill="#3C3C3C" transform="translate(208,135)"/>
<path d="M0 0 C1.98 0.99 1.98 0.99 4 2 C3.67 5.3 3.34 8.6 3 12 C-0.67952474 7.09396701 -0.29124516 5.82490317 0 0 Z " fill="#C7C7C7" transform="translate(34,63)"/>
<path d="M0 0 C1.875 0.9375 1.875 0.9375 3.875 3.9375 C-2.75 5.0625 -2.75 5.0625 -6.125 3.9375 C-2.71630435 -0.0798913 -2.71630435 -0.0798913 0 0 Z " fill="#8F8F8F" transform="translate(48.125,59.0625)"/>
<path d="M0 0 C-0.33 0.66 -0.66 1.32 -1 2 C-5.29 2 -9.58 2 -14 2 C-14 1.34 -14 0.68 -14 0 C-12.2300132 -0.19532961 -10.45895721 -0.38098882 -8.6875 -0.5625 C-7.70136719 -0.66691406 -6.71523437 -0.77132812 -5.69921875 -0.87890625 C-3 -1 -3 -1 0 0 Z " fill="#030303" transform="translate(134,71)"/>
<path d="M0 0 C5.75 1.625 5.75 1.625 8 5 C5.525 6.485 5.525 6.485 3 8 C2.01 5.36 1.02 2.72 0 0 Z " fill="#C3C3C3" transform="translate(86,17)"/>
<path d="M0 0 C4.29 1.32 8.58 2.64 13 4 C9 6 9 6 5.4375 5.3125 C2.39961146 4.15257892 0.94085729 3.51169767 -1 1 C-0.67 0.67 -0.34 0.34 0 0 Z " fill="#787878" transform="translate(95,190)"/>
<path d="M0 0 C1.98 0.495 1.98 0.495 4 1 C3.2884375 1.680625 3.2884375 1.680625 2.5625 2.375 C0.90972192 3.93258204 0.90972192 3.93258204 0 6 C0.66 6 1.32 6 2 6 C2.66 7.98 3.32 9.96 4 12 C1.525 11.01 1.525 11.01 -1 10 C-1.125 3.375 -1.125 3.375 0 0 Z " fill="#242424" transform="translate(81,167)"/>
<path d="M0 0 C3 1 3 1 3.8125 2.625 C4.08070661 6.02228377 3.04894427 8.7914646 2 12 C1.34 12 0.68 12 0 12 C0 8.04 0 4.08 0 0 Z " fill="#A0A0A0" transform="translate(24,117)"/>
<path d="M0 0 C1.32 0.66 2.64 1.32 4 2 C3.34 3.65 2.68 5.3 2 7 C0.35 6.67 -1.3 6.34 -3 6 C-1.125 1.125 -1.125 1.125 0 0 Z " fill="#B7B7B7" transform="translate(31,103)"/>
<path d="M0 0 C0 1.65 0 3.3 0 5 C-3.37503669 3.8141763 -5.64722731 2.72426311 -8 0 C-4.71023192 -1.09658936 -3.28696233 -0.79953138 0 0 Z " fill="#7E7E7E" transform="translate(184,57)"/>
<path d="M0 0 C0.99 0 1.98 0 3 0 C3.33 2.31 3.66 4.62 4 7 C3.01 7.495 3.01 7.495 2 8 C2 7.01 2 6.02 2 5 C0.68 4.67 -0.64 4.34 -2 4 C-1.34 2.68 -0.68 1.36 0 0 Z " fill="#8D8D8D" transform="translate(52,55)"/>
<path d="M0 0 C-3.3 2.31 -6.6 4.62 -10 7 C-10.66 6.67 -11.32 6.34 -12 6 C-6.4 -1.6 -6.4 -1.6 0 0 Z " fill="#E7E7E7" transform="translate(64,25)"/>
<path d="M0 0 C0.66 0.33 1.32 0.66 2 1 C2.34342449 2.33076989 2.67619874 3.66431979 3 5 C3.66 5.66 4.32 6.32 5 7 C4.67 7.66 4.34 8.32 4 9 C1.00675737 7.9024777 0.15389099 7.32317108 -1.25 4.375 C-1.4975 3.59125 -1.745 2.8075 -2 2 C-1.34 1.34 -0.68 0.68 0 0 Z " fill="#E8E8E8" transform="translate(147,26)"/>
<path d="M0 0 C-0.99 1.485 -0.99 1.485 -2 3 C-4.609621 3.38411275 -7.0058074 3.60293197 -9.625 3.6875 C-10.68460937 3.73874023 -10.68460937 3.73874023 -11.765625 3.79101562 C-13.50985688 3.87351308 -15.25490395 3.93843335 -17 4 C-17 3.67 -17 3.34 -17 3 C-11.10261508 0.70657253 -6.33393082 -0.34548714 0 0 Z " fill="#2F2F2F" transform="translate(133,14)"/>
<path d="M0 0 C0 0.99 0 1.98 0 3 C-0.66 3 -1.32 3 -2 3 C-2.66 4.32 -3.32 5.64 -4 7 C-4.66 7 -5.32 7 -6 7 C-6.1875 4.625 -6.1875 4.625 -6 2 C-3 0 -3 0 0 0 Z " fill="#BABABA" transform="translate(178,184)"/>
<path d="M0 0 C0.99 0.33 1.98 0.66 3 1 C3 1.66 3 2.32 3 3 C3.99 3.33 4.98 3.66 6 4 C6 5.98 6 7.96 6 10 C2.51668565 6.98112756 1.20842856 4.43090471 0 0 Z " fill="#575757" transform="translate(26,158)"/>
<path d="M0 0 C0.66 1.32 1.32 2.64 2 4 C1.01 5.485 1.01 5.485 0 7 C-0.99 7 -1.98 7 -3 7 C-3.33 5.68 -3.66 4.36 -4 3 C-2.68 2.01 -1.36 1.02 0 0 Z " fill="#383838" transform="translate(29,151)"/>
<path d="M0 0 C0.66 0.33 1.32 0.66 2 1 C1.67 1.99 1.34 2.98 1 4 C1.99 4.33 2.98 4.66 4 5 C4 6.32 4 7.64 4 9 C1 8 1 8 -1 5 C-1.99 4.34 -2.98 3.68 -4 3 C-2.68 2.01 -1.36 1.02 0 0 Z " fill="#6D6D6D" transform="translate(50,55)"/>
<path d="M0 0 C1.32 1.32 2.64 2.64 4 4 C2.71034824 5.37562854 1.37310707 6.70766393 0 8 C-0.66 8 -1.32 8 -2 8 C-2.20086443 4.28400809 -2.1519437 3.22791555 0 0 Z " fill="#B5B5B5" transform="translate(144,45)"/>
<path d="M0 0 C0 1.98 0 3.96 0 6 C-1.65 6.66 -3.3 7.32 -5 8 C-4.6875 5.125 -4.6875 5.125 -4 2 C-1 0 -1 0 0 0 Z " fill="#E3E3E3" transform="translate(37,112)"/>
<path d="M0 0 C2.40785992 3.2104799 3.68197635 5.35008834 5 9 C3.68 9.33 2.36 9.66 1 10 C0.67 6.7 0.34 3.4 0 0 Z " fill="#656565" transform="translate(188,110)"/>
<path d="M0 0 C3 1 3 1 4.6875 3.875 C6 7 6 7 6 10 C5.34 10 4.68 10 4 10 C3.32845067 8.71086513 2.66291141 7.41859796 2 6.125 C1.62875 5.40570313 1.2575 4.68640625 0.875 3.9453125 C0 2 0 2 0 0 Z " fill="#060606" transform="translate(143,87)"/>
<path d="M0 0 C2.5363613 1.01454452 3.79351461 1.6853556 5.3125 4 C5.539375 4.66 5.76625 5.32 6 6 C5.67 6.66 5.34 7.32 5 8 C3.68 8 2.36 8 1 8 C1.020625 7.05125 1.04125 6.1025 1.0625 5.125 C1.22551826 2.09333717 1.22551826 2.09333717 0 0 Z " fill="#DBDBDB" transform="translate(136,31)"/>
<path d="M0 0 C1.95917659 0.0868748 3.91741871 0.19504512 5.875 0.3125 C7.51082031 0.39951172 7.51082031 0.39951172 9.1796875 0.48828125 C10.11039063 0.65714844 11.04109375 0.82601562 12 1 C12.66 1.99 13.32 2.98 14 4 C11.85270859 3.71926927 9.70716807 3.42511501 7.5625 3.125 C6.36753906 2.96257812 5.17257813 2.80015625 3.94140625 2.6328125 C2.97074219 2.42398438 2.00007813 2.21515625 1 2 C0.67 1.34 0.34 0.68 0 0 Z " fill="#727272" transform="translate(64,176)"/>
<path d="M0 0 C0.99 0.33 1.98 0.66 3 1 C2.67 1.99 2.34 2.98 2 4 C2.99 4.66 3.98 5.32 5 6 C-0.75 6.125 -0.75 6.125 -3 5 C-3 3 -3 3 -1.5 1.375 C-1.005 0.92125 -0.51 0.4675 0 0 Z " fill="#848484" transform="translate(165,169)"/>
<path d="M0 0 C0.66 0 1.32 0 2 0 C2 0.66 2 1.32 2 2 C2.66 2.33 3.32 2.66 4 3 C3.34 3 2.68 3 2 3 C2.33 4.32 2.66 5.64 3 7 C0.69 7.33 -1.62 7.66 -4 8 C-3.67 7.01 -3.34 6.02 -3 5 C-2.01 4.67 -1.02 4.34 0 4 C0 2.68 0 1.36 0 0 Z " fill="#8E8E8E" transform="translate(177,160)"/>
<path d="M0 0 C0.99 0 1.98 0 3 0 C4.32 2.31 5.64 4.62 7 7 C6.01 7.33 5.02 7.66 4 8 C0 2.25 0 2.25 0 0 Z " fill="#222222" transform="translate(79,58)"/>
<path d="M0 0 C1.21236328 0.04060547 1.21236328 0.04060547 2.44921875 0.08203125 C3.06410156 0.11683594 3.67898437 0.15164063 4.3125 0.1875 C3.9825 0.8475 3.6525 1.5075 3.3125 2.1875 C0.80859375 2.6015625 0.80859375 2.6015625 -2.25 2.8125 C-3.26191406 2.88726562 -4.27382812 2.96203125 -5.31640625 3.0390625 C-6.09886719 3.08804687 -6.88132812 3.13703125 -7.6875 3.1875 C-5.26849268 0.20484049 -3.789448 -0.16475861 0 0 Z " fill="#757575" transform="translate(111.6875,12.8125)"/>
<path d="M0 0 C1.5 1.3125 1.5 1.3125 3 3 C3 3.99 3 4.98 3 6 C0.69 6.33 -1.62 6.66 -4 7 C-2.79618552 4.50638429 -1.54571278 2.31856917 0 0 Z " fill="#C0C0C0" transform="translate(140,138)"/>
<path d="M0 0 C0.99 0.33 1.98 0.66 3 1 C4.33852883 3.78002142 3.95800738 5.1647403 3.1875 8.1875 C2 11 2 11 0 12 C0 8.04 0 4.08 0 0 Z " fill="#B4B4B4" transform="translate(78,134)"/>
<path d="M0 0 C2.97 0.495 2.97 0.495 6 1 C6 1.66 6 2.32 6 3 C6.66 3.33 7.32 3.66 8 4 C5.36 4.33 2.72 4.66 0 5 C0 3.35 0 1.7 0 0 Z " fill="#F2F2F2" transform="translate(90,64)"/>
<path d="M0 0 C0 3 0 3 -2.5 5.6875 C-3.325 6.450625 -4.15 7.21375 -5 8 C-5.99 7.67 -6.98 7.34 -8 7 C-5.36 4.69 -2.72 2.38 0 0 Z " fill="#040404" transform="translate(152,51)"/>
<path d="M0 0 C1.98 0.495 1.98 0.495 4 1 C4 5 4 5 2 8 C0.4375 6.25 0.4375 6.25 -1 4 C-0.6875 1.75 -0.6875 1.75 0 0 Z " fill="#DADADA" transform="translate(74,44)"/>
<path d="M0 0 C1.65 0 3.3 0 5 0 C5.33 1.65 5.66 3.3 6 5 C4.68 5.33 3.36 5.66 2 6 C1.67 5.01 1.34 4.02 1 3 C1.66 3 2.32 3 3 3 C3 2.34 3 1.68 3 1 C2.01 1.33 1.02 1.66 0 2 C0 1.34 0 0.68 0 0 Z " fill="#ABABAB" transform="translate(144,200)"/>
<path d="M0 0 C0.33 0 0.66 0 1 0 C1.125 2.875 1.125 2.875 1 6 C0.34 6.66 -0.32 7.32 -1 8 C-1.99 8 -2.98 8 -4 8 C-2.66666667 5.33333333 -1.33333333 2.66666667 0 0 Z " fill="#2B2B2B" transform="translate(195,160)"/>
<path d="M0 0 C0.99 0.33 1.98 0.66 3 1 C4.1875 3.5625 4.1875 3.5625 5 6 C3.35 5.67 1.7 5.34 0 5 C-0.33 4.01 -0.66 3.02 -1 2 C-0.67 1.34 -0.34 0.68 0 0 Z " fill="#797979" transform="translate(139,156)"/>
<path d="M0 0 C0.66 0.33 1.32 0.66 2 1 C1.25 2.9375 1.25 2.9375 0 5 C-2.125 5.75 -2.125 5.75 -4 6 C-3.67 4.35 -3.34 2.7 -3 1 C-2.01 0.67 -1.02 0.34 0 0 Z " fill="#535353" transform="translate(202,139)"/>
<path d="M0 0 C0.99 0 1.98 0 3 0 C2.67 3.3 2.34 6.6 2 10 C-0.4294516 6.3558226 -0.16179575 4.28758728 0 0 Z " fill="#C0C0C0" transform="translate(14,120)"/>
<path d="M0 0 C0.66 0 1.32 0 2 0 C4.125 4.625 4.125 4.625 3 8 C2.01 8.33 1.02 8.66 0 9 C0 6.03 0 3.06 0 0 Z " fill="#747474" transform="translate(196,116)"/>
<path d="M0 0 C2.0625 1.75 2.0625 1.75 4 4 C3.75 6.25 3.75 6.25 3 8 C2.01 7.67 1.02 7.34 0 7 C0 4.69 0 2.38 0 0 Z " fill="#A4A4A4" transform="translate(184,111)"/>
<path d="M0 0 C0.66 0 1.32 0 2 0 C2 2.31 2 4.62 2 7 C1.01 6.67 0.02 6.34 -1 6 C-1.8125 4.0625 -1.8125 4.0625 -2 2 C-1.34 1.34 -0.68 0.68 0 0 Z " fill="#CECECE" transform="translate(76,113)"/>
<path d="M0 0 C0.66 0.99 1.32 1.98 2 3 C2.99 3.66 3.98 4.32 5 5 C4.01 5.33 3.02 5.66 2 6 C1.34 6.99 0.68 7.98 0 9 C-0.87890625 2.84765625 -0.87890625 2.84765625 -1 1 C-0.67 0.67 -0.34 0.34 0 0 Z " fill="#C6C6C6" transform="translate(133,76)"/>
<path d="M0 0 C-0.625 1.875 -0.625 1.875 -2 4 C-5.125 5.25 -5.125 5.25 -8 6 C-3.375 0 -3.375 0 0 0 Z " fill="#1E1E1E" transform="translate(146,59)"/>
<path d="M0 0 C5.75 -0.125 5.75 -0.125 8 1 C7.34 2.32 6.68 3.64 6 5 C4 4 4 4 3 2 C2.01 1.34 1.02 0.68 0 0 Z " fill="#ACACAC" transform="translate(69,179)"/>
<path d="M0 0 C0.86625 0.4640625 0.86625 0.4640625 1.75 0.9375 C3.84294184 1.92583364 5.74535275 2.5168613 8 3 C7.67 3.99 7.34 4.98 7 6 C2.32307692 4.52307692 2.32307692 4.52307692 0.6875 1.875 C0.460625 1.25625 0.23375 0.6375 0 0 Z " fill="#797979" transform="translate(43,165)"/>
<path d="M0 0 C1.65 0 3.3 0 5 0 C5 0.66 5 1.32 5 2 C4.34 2 3.68 2 3 2 C2.67 2.99 2.34 3.98 2 5 C1.01 4.67 0.02 4.34 -1 4 C-0.67 2.68 -0.34 1.36 0 0 Z " fill="#3A3A3A" transform="translate(91,147)"/>
<path d="M0 0 C0.66 0 1.32 0 2 0 C1.67 1.98 1.34 3.96 1 6 C0.34 6 -0.32 6 -1 6 C-1.33 6.66 -1.66 7.32 -2 8 C-2.33 6.68 -2.66 5.36 -3 4 C-2.34 4 -1.68 4 -1 4 C-0.67 2.68 -0.34 1.36 0 0 Z " fill="#F5F5F5" transform="translate(77,98)"/>
<path d="M0 0 C1.9375 0.8125 1.9375 0.8125 4 2 C4.33 2.99 4.66 3.98 5 5 C4.01 5.33 3.02 5.66 2 6 C1.34 5.67 0.68 5.34 0 5 C0 3.35 0 1.7 0 0 Z " fill="#9B9B9B" transform="translate(145,38)"/>
<path d="M0 0 C0.66 0.33 1.32 0.66 2 1 C1.34 2.98 0.68 4.96 0 7 C-0.33 6.34 -0.66 5.68 -1 5 C-3.02463255 4.34786708 -3.02463255 4.34786708 -5 4 C-4.34 3.67 -3.68 3.34 -3 3 C-2.34 3.33 -1.68 3.66 -1 4 C-0.67 2.68 -0.34 1.36 0 0 Z " fill="#848484" transform="translate(45,175)"/>
<path d="M0 0 C0.66 1.32 1.32 2.64 2 4 C1.34 4 0.68 4 0 4 C0 4.99 0 5.98 0 7 C-0.66 7 -1.32 7 -2 7 C-2.33 6.01 -2.66 5.02 -3 4 C-1.5625 1.8125 -1.5625 1.8125 0 0 Z " fill="#303030" transform="translate(31,154)"/>
<path d="M0 0 C0.33 0 0.66 0 1 0 C1 1.98 1 3.96 1 6 C0.34 6 -0.32 6 -1 6 C-1.33 6.99 -1.66 7.98 -2 9 C-2.125 5.625 -2.125 5.625 -2 2 C-1.34 1.34 -0.68 0.68 0 0 Z " fill="#353535" transform="translate(202,145)"/>
<path d="M0 0 C0.33 0.66 0.66 1.32 1 2 C2.32 2 3.64 2 5 2 C4.34 3.98 3.68 5.96 3 8 C0.4345406 5.4345406 0.45953913 3.52313332 0 0 Z " fill="#828282" transform="translate(19,142)"/>
<path d="M0 0 C0.33 0 0.66 0 1 0 C0.67 2.97 0.34 5.94 0 9 C-0.99 8.01 -1.98 7.02 -3 6 C-2.01 4.02 -1.02 2.04 0 0 Z " fill="#838383" transform="translate(196,137)"/>
<path d="M0 0 C0.99 0.33 1.98 0.66 3 1 C1.02 3.97 1.02 3.97 -1 7 C-1.66 6.34 -2.32 5.68 -3 5 C-2.01 3.35 -1.02 1.7 0 0 Z " fill="#222222" transform="translate(36,103)"/>
<path d="M0 0 C3.3125 -0.1875 3.3125 -0.1875 7 0 C7.99 0.99 8.98 1.98 10 3 C6.7 2.67 3.4 2.34 0 2 C0 1.34 0 0.68 0 0 Z " fill="#141414" transform="translate(44,103)"/>
<path d="M0 0 C1.5 1.25 1.5 1.25 3 3 C3 4.32 3 5.64 3 7 C2.01 7 1.02 7 0 7 C-1.125 2.25 -1.125 2.25 0 0 Z " fill="#3D3D3D" transform="translate(148,86)"/>
<path d="M0 0 C2.97 0.495 2.97 0.495 6 1 C5.34 2.32 4.68 3.64 4 5 C3.01 5 2.02 5 1 5 C0.67 3.35 0.34 1.7 0 0 Z " fill="#F8F8F8" transform="translate(90,75)"/>
<path d="M0 0 C0.99 0 1.98 0 3 0 C3 1.65 3 3.3 3 5 C0.3333581 6.33332095 -1.16680303 5.67102033 -4 5 C-2.68 4.67 -1.36 4.34 0 4 C0 2.68 0 1.36 0 0 Z " fill="#272727" transform="translate(133,69)"/>
<path d="M0 0 C0.66 0 1.32 0 2 0 C2 0.66 2 1.32 2 2 C2.66 2 3.32 2 4 2 C4 2.99 4 3.98 4 5 C2.35 5.33 0.7 5.66 -1 6 C-0.67 4.02 -0.34 2.04 0 0 Z " fill="#E9E9E9" transform="translate(66,41)"/>
<path d="M0 0 C1.32 0.99 2.64 1.98 4 3 C3.67 4.32 3.34 5.64 3 7 C1.68 5.68 0.36 4.36 -1 3 C-0.67 2.01 -0.34 1.02 0 0 Z " fill="#A4A4A4" transform="translate(137,27)"/>
<path d="M0 0 C-0.66 1.32 -1.32 2.64 -2 4 C-4.64 3.34 -7.28 2.68 -10 2 C-10 1.67 -10 1.34 -10 1 C-6.59437148 0.22157062 -3.49234244 -0.09978121 0 0 Z " fill="#111111" transform="translate(126,186)"/>
<path d="M0 0 C2.64 0 5.28 0 8 0 C8 0.99 8 1.98 8 3 C5.6568787 2.74438677 3.32156597 2.40729228 1 2 C0.67 1.34 0.34 0.68 0 0 Z " fill="#8F8F8F" transform="translate(88,141)"/>
<path d="M0 0 C-1.04874998 2.62187494 -1.64931313 3.79371361 -4.125 5.25 C-4.74375 5.4975 -5.3625 5.745 -6 6 C-5.6875 4.125 -5.6875 4.125 -5 2 C-2 0 -2 0 0 0 Z " fill="#CBCBCB" transform="translate(152,125)"/>
<path d="M0 0 C0.66 0.33 1.32 0.66 2 1 C1.67 2.65 1.34 4.3 1 6 C-0.32 6 -1.64 6 -3 6 C-3 5.01 -3 4.02 -3 3 C-2.34 3 -1.68 3 -1 3 C-0.67 2.01 -0.34 1.02 0 0 Z " fill="#9D9D9D" transform="translate(144,117)"/>
<path d="M0 0 C4.42857143 5.14285714 4.42857143 5.14285714 5 9 C4.01 8.67 3.02 8.34 2 8 C2 6.68 2 5.36 2 4 C1.01 3.67 0.02 3.34 -1 3 C-0.67 2.01 -0.34 1.02 0 0 Z " fill="#C6C6C6" transform="translate(200,63)"/>
</svg>
