<?xml version="1.0" encoding="UTF-8"?>
<svg version="1.1" xmlns="http://www.w3.org/2000/svg" width="64" height="64">
<path d="M0 0 C4.68796317 2.8950501 8.77605467 6.42344712 10.234375 11.89453125 C11.16656452 18.74158704 11.3930195 24.99387098 7.671875 31.01953125 C3.66347868 35.99068326 0.31000422 38.47580101 -6.0078125 39.3359375 C-13.1275177 39.69575056 -18.34453314 39.19135672 -23.98828125 34.640625 C-29.08369757 29.63479842 -30.03494232 26.05750776 -30.390625 19.01953125 C-30.17838344 12.13997715 -28.58962241 7.80486419 -23.765625 2.89453125 C-17.29271618 -2.6344117 -7.84970384 -3.13766411 0 0 Z " fill="#FEB044" transform="translate(41.765625,13.10546875)"/>
<path d="M0 0 C1 3 1 3 0.8125 6.6875 C0.77703568 11.51064701 2.14834558 15.12042364 5 19 C10.33107068 23.89489217 15.18875233 25.33884698 22.35546875 25.296875 C26.44649186 24.83761687 29.5318451 23.11659454 33 21 C33.66 20.67 34.32 20.34 35 20 C34.33114978 25.8524394 31.61528956 28.70074536 27.125 32.3125 C21.52814103 35.24361364 15.0922928 34.90281715 9 34 C3.8182819 31.92877652 -0.92187336 28.38710017 -3.41015625 23.25 C-5.14515684 16.63171961 -5.46659175 8.69153556 -2 2.625 C-1.34 1.75875 -0.68 0.8925 0 0 Z " fill="#FCA126" transform="translate(16,18)"/>
<path d="M0 0 C3.78520613 0.54074373 5.59177555 2.07572746 8 5 C8 5.99 8 6.98 8 8 C4.21479387 7.45925627 2.40822445 5.92427254 0 3 C0 2.01 0 1.02 0 0 Z " fill="#FFDB77" transform="translate(47,47)"/>
<path d="M0 0 C-0.54074373 3.78520613 -2.07572746 5.59177555 -5 8 C-5.99 8 -6.98 8 -8 8 C-7.32253522 3.25774652 -4.9532836 0 0 0 Z " fill="#FFDB76" transform="translate(17,47)"/>
<path d="M0 0 C-0.54074373 3.78520613 -2.07572746 5.59177555 -5 8 C-5.99 8 -6.98 8 -8 8 C-7.32253522 3.25774652 -4.9532836 0 0 0 Z " fill="#FFDB76" transform="translate(55,9)"/>
<path d="M0 0 C3.78520613 0.54074373 5.59177555 2.07572746 8 5 C8 5.99 8 6.98 8 8 C4.21479387 7.45925627 2.40822445 5.92427254 0 3 C0 2.01 0 1.02 0 0 Z " fill="#FFDB77" transform="translate(9,9)"/>
<path d="M0 0 C0.66 0 1.32 0 2 0 C2 2.97 2 5.94 2 9 C1.34 9 0.68 9 0 9 C0 6.03 0 3.06 0 0 Z " fill="#FFDB77" transform="translate(31,54)"/>
<path d="M0 0 C2.97 0 5.94 0 9 0 C9 0.66 9 1.32 9 2 C6.03 2 3.06 2 0 2 C0 1.34 0 0.68 0 0 Z " fill="#FFDB77" transform="translate(54,31)"/>
<path d="M0 0 C2.97 0 5.94 0 9 0 C9 0.66 9 1.32 9 2 C6.03 2 3.06 2 0 2 C0 1.34 0 0.68 0 0 Z " fill="#FFDB77" transform="translate(1,31)"/>
<path d="M0 0 C0.66 0 1.32 0 2 0 C2 2.97 2 5.94 2 9 C1.34 9 0.68 9 0 9 C0 6.03 0 3.06 0 0 Z " fill="#FFDB77" transform="translate(31,1)"/>
</svg>
