<?xml version="1.0" encoding="UTF-8"?>
<svg version="1.1" xmlns="http://www.w3.org/2000/svg" width="512" height="512">
<path d="M0 0 C0.77981232 0.00182281 1.55962463 0.00364563 2.36306763 0.00552368 C15.54488963 0.05708932 28.4036507 0.80938682 41.375 3.3125 C42.67268311 3.56193359 42.67268311 3.56193359 43.99658203 3.81640625 C72.37337833 9.50124023 105.18759137 20.47798484 127.2644043 39.98168945 C133.07511001 45.0410302 138.04678945 45.09543759 145.5625 45 C147.8907534 45.0321161 150.21890533 45.07259101 152.546875 45.12109375 C154.27647461 45.15565674 154.27647461 45.15565674 156.04101562 45.19091797 C176.32592059 45.93065747 196.43352998 50.85990837 214.375 60.3125 C215.41011719 60.83457031 216.44523437 61.35664062 217.51171875 61.89453125 C234.60631522 71.078687 246.84903546 85.95046543 253.4375 104.1171875 C258.74032502 122.19098277 258.2947666 142.42440962 252.375 160.3125 C252.17664551 160.94559082 251.97829102 161.57868164 251.77392578 162.23095703 C245.92132844 180.62682981 236.06009779 197.37430249 224.52905273 212.74462891 C221.65420924 216.65032912 221.0843916 218.7987986 220.8828125 223.61328125 C220.8199707 224.88961426 220.75712891 226.16594727 220.69238281 227.48095703 C220.64627869 228.49491547 220.64627869 228.49491547 220.59924316 229.52935791 C218.84081108 266.66082499 208.96103586 304.90870412 188.375 336.3125 C188.95765625 336.27769531 189.5403125 336.24289062 190.140625 336.20703125 C205.86963559 335.68767713 221.44469934 342.1414015 232.9375 352.8125 C234.78885127 354.61296653 236.58146942 356.45284848 238.375 358.3125 C239.37080078 359.26189453 239.37080078 359.26189453 240.38671875 360.23046875 C253.3899459 373.46746178 256.87396718 391.7375015 256.72265625 409.52734375 C256.25473206 429.25404253 248.42460041 444.76244093 234.375 458.3125 C233.42560547 459.30830078 233.42560547 459.30830078 232.45703125 460.32421875 C219.22003822 473.3274459 200.9499985 476.81146718 183.16015625 476.66015625 C163.43345747 476.19223206 147.92505907 468.36210041 134.375 454.3125 C133.37919922 453.36310547 133.37919922 453.36310547 132.36328125 452.39453125 C122.59475094 442.45038691 116.33189825 426.74824635 116.3125 412.9609375 C116.32843647 411.41140023 116.3476245 409.86187739 116.375 408.3125 C115.31925781 408.92996094 114.26351563 409.54742187 113.17578125 410.18359375 C78.492939 430.15045678 40.73298182 440.82088572 0.6875 440.625 C-0.48513397 440.62226578 -0.48513397 440.62226578 -1.68145752 440.61947632 C-14.53383083 440.56928578 -26.98836213 439.80016209 -39.625 437.3125 C-40.50687988 437.14621094 -41.38875977 436.97992188 -42.29736328 436.80859375 C-71.0563486 431.26914232 -104.14341258 420.40690667 -126.5144043 400.64331055 C-132.32535285 395.58375836 -137.29665442 395.53012958 -144.8125 395.625 C-147.14335962 395.59141413 -149.47411455 395.54964171 -151.8046875 395.5 C-153.53477051 395.46519531 -153.53477051 395.46519531 -155.29980469 395.4296875 C-181.11316217 394.51996565 -208.45501952 386.859717 -228.625 370.3125 C-229.78902344 369.40951172 -229.78902344 369.40951172 -230.9765625 368.48828125 C-243.89485341 357.90060983 -253.45709917 340.85599211 -255.625 324.3125 C-256.76908533 309.30450903 -256.37088406 294.65340373 -251.625 280.3125 C-251.42664551 279.67940918 -251.22829102 279.04631836 -251.02392578 278.39404297 C-245.17132844 259.99817019 -235.31009779 243.25069751 -223.77905273 227.88037109 C-220.90420924 223.97467088 -220.3343916 221.8262014 -220.1328125 217.01171875 C-220.0699707 215.73538574 -220.00712891 214.45905273 -219.94238281 213.14404297 C-219.91164673 212.46807068 -219.88091064 211.79209839 -219.84924316 211.09564209 C-218.18762416 176.00850278 -209.25599425 140.87312973 -191.3515625 110.37890625 C-189.46145663 107.60855596 -189.46145663 107.60855596 -189.625 105.3125 C-190.91705831 104.25971175 -192.26134717 103.27074253 -193.625 102.3125 C-203.61340038 94.69555946 -209.94527996 84.62357458 -212.625 72.3125 C-214.13976142 55.35100698 -212.09633063 41.60831704 -201.13671875 28.00390625 C-191.8825664 18.087715 -179.71820426 11.90155345 -166.14453125 11.109375 C-150.03471601 10.90566817 -137.84411259 14.94310506 -125.94921875 25.93359375 C-123.3325743 28.61180631 -120.98640933 31.40775755 -118.625 34.3125 C-117.65304688 33.70664063 -116.68109375 33.10078125 -115.6796875 32.4765625 C-93.8360904 19.10419635 -70.78575366 10.07724157 -45.8125 4.5 C-44.50841187 4.2074231 -44.50841187 4.2074231 -43.17797852 3.90893555 C-28.86624242 0.90284774 -14.58575807 -0.07152475 0 0 Z M184.375 98.3125 C186.58338147 102.82334197 188.86427965 107.21769568 191.42016602 111.5390625 C197.76696351 122.3299097 202.56057878 133.77608531 207.375 145.3125 C211.27424986 137.80587511 211.71117516 128.62815334 209.65625 120.453125 C205.8740746 110.38765822 199.70392263 105.33278014 190.375 100.3125 C188.39105181 99.59948245 186.39402942 98.91910089 184.375 98.3125 Z M-207.625 295.3125 C-210.62435397 306.37261775 -211.29267313 317.028113 -205.625 327.3125 C-200.6493008 335.00221695 -192.26947532 339.71533805 -183.625 342.3125 C-185.83338147 337.80165803 -188.11427965 333.40730432 -190.67016602 329.0859375 C-197.01696351 318.2950903 -201.81057878 306.84891469 -206.625 295.3125 C-206.955 295.3125 -207.285 295.3125 -207.625 295.3125 Z " fill="#2183EE" transform="translate(255.625,35.6875)"/>
<path d="M0 0 C27.94597866 -0.67821603 54.93797164 1.79589134 80 15 C81.03511719 15.52207031 82.07023437 16.04414062 83.13671875 16.58203125 C100.23131522 25.766187 112.47403546 40.63796543 119.0625 58.8046875 C124.36532502 76.87848277 123.9197666 97.11190962 118 115 C117.80164551 115.63309082 117.60329102 116.26618164 117.39892578 116.91845703 C111.54632844 135.31432981 101.68509779 152.06180249 90.15405273 167.43212891 C87.27920924 171.33782912 86.7093916 173.4862986 86.5078125 178.30078125 C86.4449707 179.57711426 86.38212891 180.85344727 86.31738281 182.16845703 C86.27127869 183.18241547 86.27127869 183.18241547 86.22424316 184.21685791 C84.46581108 221.34832499 74.58603586 259.59620412 54 291 C54.58265625 290.96519531 55.1653125 290.93039062 55.765625 290.89453125 C71.49463559 290.37517713 87.06969934 296.8289015 98.5625 307.5 C100.41385127 309.30046653 102.20646942 311.14034848 104 313 C104.99580078 313.94939453 104.99580078 313.94939453 106.01171875 314.91796875 C119.0149459 328.15496178 122.49896718 346.4250015 122.34765625 364.21484375 C121.87973206 383.94154253 114.04960041 399.44994093 100 413 C99.05060547 413.99580078 99.05060547 413.99580078 98.08203125 415.01171875 C84.84503822 428.0149459 66.5749985 431.49896718 48.78515625 431.34765625 C29.05845747 430.87973206 13.55005907 423.04960041 0 409 C-0.99580078 408.05060547 -0.99580078 408.05060547 -2.01171875 407.08203125 C-11.78024906 397.13788691 -18.04310175 381.43574635 -18.0625 367.6484375 C-18.04656353 366.09890023 -18.0273755 364.54937739 -18 363 C-19.05574219 363.61746094 -20.11148437 364.23492187 -21.19921875 364.87109375 C-55.882061 384.83795678 -93.64201818 395.50838572 -133.6875 395.3125 C-134.86013397 395.30976578 -134.86013397 395.30976578 -136.05645752 395.30697632 C-148.90883083 395.25678578 -161.36336213 394.48766209 -174 392 C-174.88187988 391.83371094 -175.76375977 391.66742188 -176.67236328 391.49609375 C-205.4313486 385.95664232 -238.51841258 375.09440667 -260.8894043 355.33081055 C-266.70035285 350.27125836 -271.67165442 350.21762958 -279.1875 350.3125 C-281.51835962 350.27891413 -283.84911455 350.23714171 -286.1796875 350.1875 C-287.90977051 350.15269531 -287.90977051 350.15269531 -289.67480469 350.1171875 C-315.48816217 349.20746565 -342.83001952 341.547217 -363 325 C-364.16402344 324.09701172 -364.16402344 324.09701172 -365.3515625 323.17578125 C-378.26985341 312.58810983 -387.83209917 295.54349211 -390 279 C-391.14408533 263.99200903 -390.74588406 249.34090373 -386 235 C-385.80164551 234.36690918 -385.60329102 233.73381836 -385.39892578 233.08154297 C-379.54632844 214.68567019 -369.68509779 197.93819751 -358.15405273 182.56787109 C-357.05719076 181.07769813 -356.0263785 179.53956775 -355 178 C-354.34 178 -353.68 178 -353 178 C-352.96036133 178.64211426 -352.92072266 179.28422852 -352.87988281 179.94580078 C-351.57939086 200.17527645 -349.18147011 219.62633042 -342.84277344 238.95019531 C-340.78720302 245.49824492 -341.14696274 249.89437462 -342.54296875 256.61328125 C-344.24331217 265.49285245 -343.50424124 274.10367585 -339 282 C-330.13954947 294.39329542 -313.9427783 298.72449574 -299.703125 301.421875 C-290.54473882 302.85166525 -281.6505846 303.15285461 -272.375 303.125 C-271.11042969 303.12886719 -269.84585938 303.13273437 -268.54296875 303.13671875 C-253.95247541 303.12184567 -239.88758676 301.93157307 -225.5625 299.3125 C-224.82001007 299.1779541 -224.07752014 299.0434082 -223.31253052 298.90478516 C-130.40467296 281.98381901 -39.4474814 234.44252424 48 146 C48.87481296 144.87745838 49.74982581 143.75507251 50.625 142.6328125 C60.54222818 129.72134427 69.17849418 115.97478304 73 100 C73.22171875 99.22785156 73.4434375 98.45570313 73.671875 97.66015625 C76.36437486 87.5996669 76.23274968 77.1734624 71 68 C68.32335449 64.22154568 65.68381036 61.85960324 61.75 59.4375 C60.77675781 58.83035156 59.80351562 58.22320312 58.80078125 57.59765625 C56.51487108 56.29369913 54.37534953 55.32332843 51.9375 54.375 C46.23193239 51.6497797 42.92803934 45.73133278 39.30322266 40.75683594 C28.71864258 26.48807644 15.87212793 13.37589915 1.84375 2.50390625 C1.2353125 2.00761719 0.626875 1.51132813 0 1 C0 0.67 0 0.34 0 0 Z " fill="#1662D5" transform="translate(390,81)"/>
<path d="M0 0 C27.94597866 -0.67821603 54.93797164 1.79589134 80 15 C81.03511719 15.52207031 82.07023437 16.04414062 83.13671875 16.58203125 C100.23131522 25.766187 112.47403546 40.63796543 119.0625 58.8046875 C124.36532502 76.87848277 123.9197666 97.11190962 118 115 C117.80164551 115.63309082 117.60329102 116.26618164 117.39892578 116.91845703 C110.53163383 138.50371599 98.38359406 159.35056462 82.921875 175.8984375 C80.68388985 178.34566516 78.63226952 180.90921953 76.5625 183.5 C72.35556928 188.6878213 67.79600895 193.36152419 63 198 C60.18410873 200.79692903 57.39369845 203.61722756 54.6171875 206.453125 C47.40330707 213.7920627 40.09065431 220.62266072 32 227 C30.10093306 228.60033731 28.20524192 230.20468697 26.3125 231.8125 C3.42151561 250.91833205 -22.03068967 267.41676117 -48 282 C-48.92345215 282.52078125 -49.8469043 283.0415625 -50.79833984 283.578125 C-75.70390015 297.54591924 -101.32762541 309.79454624 -128 320 C-129.10069824 320.4223291 -130.20139648 320.8446582 -131.33544922 321.27978516 C-166.62739124 334.67703251 -203.4395391 344.71299451 -241 349 C-241.76812012 349.0942627 -242.53624023 349.18852539 -243.32763672 349.28564453 C-265.98729219 351.74377521 -291.75916445 352.2091856 -314 347 C-314.85851562 346.80132324 -315.71703125 346.60264648 -316.6015625 346.39794922 C-333.60980751 342.30825054 -349.3686546 336.18299695 -363 325 C-364.16402344 324.09701172 -364.16402344 324.09701172 -365.3515625 323.17578125 C-378.26985341 312.58810983 -387.83209917 295.54349211 -390 279 C-391.14408533 263.99200903 -390.74588406 249.34090373 -386 235 C-385.80164551 234.36690918 -385.60329102 233.73381836 -385.39892578 233.08154297 C-379.54632844 214.68567019 -369.68509779 197.93819751 -358.15405273 182.56787109 C-357.05719076 181.07769813 -356.0263785 179.53956775 -355 178 C-354.34 178 -353.68 178 -353 178 C-352.96036133 178.64211426 -352.92072266 179.28422852 -352.87988281 179.94580078 C-351.57939086 200.17527645 -349.18147011 219.62633042 -342.84277344 238.95019531 C-340.78720302 245.49824492 -341.14696274 249.89437462 -342.54296875 256.61328125 C-344.24331217 265.49285245 -343.50424124 274.10367585 -339 282 C-330.13954947 294.39329542 -313.9427783 298.72449574 -299.703125 301.421875 C-290.54473882 302.85166525 -281.6505846 303.15285461 -272.375 303.125 C-271.11042969 303.12886719 -269.84585938 303.13273437 -268.54296875 303.13671875 C-253.95247541 303.12184567 -239.88758676 301.93157307 -225.5625 299.3125 C-224.82001007 299.1779541 -224.07752014 299.0434082 -223.31253052 298.90478516 C-130.40467296 281.98381901 -39.4474814 234.44252424 48 146 C48.87481296 144.87745838 49.74982581 143.75507251 50.625 142.6328125 C60.54222818 129.72134427 69.17849418 115.97478304 73 100 C73.22171875 99.22785156 73.4434375 98.45570313 73.671875 97.66015625 C76.36437486 87.5996669 76.23274968 77.1734624 71 68 C68.32335449 64.22154568 65.68381036 61.85960324 61.75 59.4375 C60.77675781 58.83035156 59.80351562 58.22320312 58.80078125 57.59765625 C56.51487108 56.29369913 54.37534953 55.32332843 51.9375 54.375 C46.23193239 51.6497797 42.92803934 45.73133278 39.30322266 40.75683594 C28.71864258 26.48807644 15.87212793 13.37589915 1.84375 2.50390625 C1.2353125 2.00761719 0.626875 1.51132813 0 1 C0 0.67 0 0.34 0 0 Z " fill="#CAE5FE" transform="translate(390,81)"/>
<path d="M0 0 C3.65455465 2.99795193 6.95094584 6.28367305 10.22998047 9.68359375 C10.89384766 10.31652344 11.55771484 10.94945312 12.24169922 11.6015625 C25.24492636 24.83855553 28.72894765 43.10859525 28.57763672 60.8984375 C28.10971253 80.62513628 20.27958088 96.13353468 6.22998047 109.68359375 C5.59705078 110.34746094 4.96412109 111.01132812 4.31201172 111.6953125 C-8.92498131 124.69853965 -27.19502103 128.18256093 -44.98486328 128.03125 C-64.71156206 127.56332581 -80.21996047 119.73319416 -93.77001953 105.68359375 C-94.43388672 105.05066406 -95.09775391 104.41773438 -95.78173828 103.765625 C-108.02984378 91.29732884 -112.28540984 73.57696597 -112.19238281 56.68505859 C-111.6152323 35.57945639 -102.57046866 18.69045912 -87.55517578 4.10546875 C-63.75920277 -16.58668169 -25.53865355 -18.9937131 0 0 Z " fill="#DAEDFE" transform="translate(483.77001953125,384.31640625)"/>
<path d="M0 0 C6.33591843 4.47612148 11.17014838 9.30492863 13 17 C14.01378527 24.88618228 13.2535917 32.17126089 9 39 C3.48740182 45.61054305 -2.82953247 48.67867091 -11 51 C-10.7834375 51.78761719 -10.566875 52.57523437 -10.34375 53.38671875 C-6.29550053 69.2236206 -7.0956729 83.34519551 -15.48046875 97.60546875 C-22.10878131 108.05059883 -32.78273983 115.62093285 -44.76953125 118.71484375 C-57.43757633 121.25509394 -70.42560718 119.95054485 -81.7265625 113.42578125 C-94.54437585 104.80957741 -102.63662257 93.81688717 -105.6875 78.5625 C-107.09574078 62.50855514 -103.29677972 49.24858365 -92.875 36.75 C-84.6062845 28.00878647 -73.68372218 22.2741615 -61.62109375 21.7578125 C-54.34867552 21.60281195 -47.9505536 21.68928615 -41 24 C-40.78085938 23.154375 -40.56171875 22.30875 -40.3359375 21.4375 C-37.70457778 12.02450589 -35.0642528 5.09912765 -26.375 0.0625 C-18.13110796 -4.20407571 -8.18456118 -4.73592084 0 0 Z " fill="#1F93FC" transform="translate(177,234)"/>
<path d="M0 0 C3.89096775 3.2575544 7.36548182 6.60048336 7.99609375 11.7890625 C8.2618777 18.15176907 8.06344032 22.48407521 3.74609375 27.33984375 C-10.29264955 40.36630575 -28.03245658 50.22638887 -45.3125 58.25 C-46.13057129 58.6426001 -46.94864258 59.0352002 -47.79150391 59.43969727 C-54.60570467 62.64836146 -61.4854888 65.12290549 -68.6875 67.3125 C-69.80640625 67.65684082 -70.9253125 68.00118164 -72.078125 68.35595703 C-80.29896907 70.81545276 -88.5209947 72.68650785 -96.98974609 74.05883789 C-101.61079294 74.65808118 -101.61079294 74.65808118 -105.3125 77.25 C-107.95441811 77.34215993 -110.43369519 77.29652287 -113.0625 77.125 C-113.85744873 77.07496826 -114.65239746 77.02493652 -115.47143555 76.97338867 C-143.26946951 74.90083436 -170.31537057 66.32053168 -195.3125 54.25 C-195.3125 53.92 -195.3125 53.59 -195.3125 53.25 C-194.56492432 53.15501221 -193.81734863 53.06002441 -193.04711914 52.9621582 C-166.29071999 49.52190391 -140.35657043 44.34622891 -114.3125 37.25 C-113.51972656 37.03907715 -112.72695312 36.8281543 -111.91015625 36.61083984 C-81.94470563 28.61776208 -53.25322777 15.65409714 -25.29711914 2.40112305 C-24.18071045 1.87429932 -23.06430176 1.34747559 -21.9140625 0.8046875 C-20.92744629 0.33530762 -19.94083008 -0.13407227 -18.92431641 -0.61767578 C-12.38247903 -3.45381728 -6.35458543 -3.35713947 0 0 Z " fill="#0E84F7" transform="translate(351.3125,398.75)"/>
<path d="M0 0 C3.65455465 2.99795193 6.95094584 6.28367305 10.22998047 9.68359375 C10.89384766 10.31652344 11.55771484 10.94945312 12.24169922 11.6015625 C25.24492636 24.83855553 28.72894765 43.10859525 28.57763672 60.8984375 C28.10971253 80.62513628 20.27958088 96.13353468 6.22998047 109.68359375 C5.28058594 110.67939453 5.28058594 110.67939453 4.31201172 111.6953125 C-7.37615647 123.17706713 -24.10955754 127.90632962 -40.02001953 127.87109375 C-42.93827347 127.83389415 -45.8525295 127.76599148 -48.77001953 127.68359375 C-47.73846157 125.46177661 -46.72760693 123.63140962 -45.17626953 121.72265625 C-42.61577274 118.00993591 -43.07059241 114.00505418 -43.77001953 109.68359375 C-44.86643356 107.19971034 -44.86643356 107.19971034 -46.27001953 104.80859375 C-49.7289713 98.54109141 -50.0688254 92.23705433 -48.10595703 85.35546875 C-45.3554104 79.089006 -40.51286318 75.51215618 -34.95751953 71.80859375 C-28.45650659 69.5141186 -22.78694655 69.88633639 -16.52001953 72.74609375 C-11.48947378 75.53467974 -6.79712381 79.19635946 -5.11767578 84.8984375 C-5.00294922 85.48753906 -4.88822266 86.07664062 -4.77001953 86.68359375 C-4.11001953 86.68359375 -3.45001953 86.68359375 -2.77001953 86.68359375 C-2.63595703 85.96945312 -2.50189453 85.2553125 -2.36376953 84.51953125 C-1.78114534 81.73673412 -1.05297451 79.04110661 -0.27001953 76.30859375 C4.81193744 57.66648816 2.46824491 39.52377734 -6.77001953 22.68359375 C-9.41552964 18.40044316 -12.49925573 14.50534644 -15.77001953 10.68359375 C-16.34494141 10.008125 -16.91986328 9.33265625 -17.51220703 8.63671875 C-27.68358594 -2.3619972 -42.09839343 -8.77202455 -56.77001953 -10.31640625 C-56.77001953 -10.64640625 -56.77001953 -10.97640625 -56.77001953 -11.31640625 C-37.22817939 -15.31506661 -16.16586395 -12.02294323 0 0 Z " fill="#B6DBFD" transform="translate(483.77001953125,384.31640625)"/>
<path d="M0 0 C5.16092399 4.09597142 10.32043169 8.4893669 14 14 C13.753217 16.42328429 13.36909504 17.62951365 11.63989258 19.36523438 C11.06392334 19.77064453 10.4879541 20.17605469 9.89453125 20.59375 C9.24774414 21.06039062 8.60095703 21.52703125 7.93457031 22.0078125 C7.23428711 22.50023438 6.53400391 22.99265625 5.8125 23.5 C-11.77192865 36.28867538 -26.99137584 50.56149479 -40 68 C-40.75539062 69.00675781 -41.51078125 70.01351562 -42.2890625 71.05078125 C-46.11385586 76.22929361 -49.67262667 81.48903792 -53 87 C-64.37078184 83.09508737 -71.17196667 72.64470751 -76.31640625 62.37109375 C-81.01124459 50.87119355 -80.82222071 36.1996818 -77.0625 24.4375 C-71.16902405 10.52097275 -61.4544463 1.05998156 -47.6875 -4.9375 C-32.16501237 -11.18461303 -14.00604841 -8.92693195 0 0 Z " fill="#D1E8FE" transform="translate(122,55)"/>
<path d="M0 0 C5.56281979 3.8610361 9.12109167 8.82761661 10.4375 15.5 C11.23234247 22.31479696 10.05681825 27.67554252 6.4375 33.5 C0.81399578 39.99109044 -5.76015854 42.45537915 -13.8125 44.875 C-14.88757813 45.21660156 -15.96265625 45.55820313 -17.0703125 45.91015625 C-27.12309413 49.08142028 -35.70480107 51.59246272 -45.5625 46.5 C-51.10632362 42.66196826 -54.36532112 38.49059625 -56.3125 32 C-57.1350567 23.774433 -55.9600795 18.20535014 -51.5 11.3125 C-40.9917918 -0.05352111 -13.85278259 -7.41531303 0 0 Z " fill="#2797FD" transform="translate(127.5625,165.5)"/>
<path d="M0 0 C6.38175313 4.5531354 10.85940057 10.16239384 12.6953125 17.83984375 C13.70688438 25.69716952 12.51411686 32.86030705 8.03125 39.44921875 C1.97247156 46.46464641 -4.59723994 50.01603245 -13.84375 50.76171875 C-21.34303782 50.52963247 -28.55123106 47.66408736 -33.96875 42.44921875 C-39.27278326 35.89303971 -41.30530548 29.31491181 -40.84375 20.94921875 C-39.72222773 11.91473383 -36.1212382 7.08976482 -29.3828125 1.11328125 C-21.28511232 -4.46862858 -8.62158174 -4.58423656 0 0 Z " fill="#C8E4FE" transform="translate(434.96875,2.55078125)"/>
<path d="M0 0 C5.92503406 4.00942155 9.76445023 9.32881649 11.4375 16.33203125 C12.7019108 24.25988697 11.45292854 30.61718401 7.828125 37.78125 C5.78866935 40.57969294 3.57926071 42.6894774 0.828125 44.78125 C-0.01492187 45.4309375 -0.01492187 45.4309375 -0.875 46.09375 C-7.27397997 50.10006789 -14.91848409 49.65441427 -22.171875 48.78125 C-30.70609142 46.25342181 -35.46743815 41.10834897 -40.046875 33.78125 C-42.4984249 27.30739668 -42.24812245 18.88764651 -40.515625 12.27734375 C-39.58088121 10.21848997 -38.55115151 8.57102547 -37.171875 6.78125 C-36.6975 6.15734375 -36.223125 5.5334375 -35.734375 4.890625 C-26.35378057 -5.84293978 -11.95572958 -6.70897056 0 0 Z " fill="#C8E4FE" transform="translate(41.171875,463.21875)"/>
<path d="M0 0 C5.81215419 3.72855174 8.95708208 8.4817068 11 15 C12.27030611 23.94336477 11.41045818 31.618395 6 39 C0.38141214 45.15431368 -6.01888431 48.4705519 -14.3515625 49.05859375 C-22.49083163 48.87852142 -29.15995926 45.54263126 -35 40 C-39.95839378 33.8672498 -41.50926697 27.38442147 -41.30859375 19.6171875 C-40.45669604 12.39223225 -37.44502062 6.34486934 -32.04296875 1.47265625 C-21.80575 -5.90675382 -10.90711111 -5.72765107 0 0 Z " fill="#0B6FE6" transform="translate(360,85)"/>
<path d="M0 0 C5.28690667 4.85574146 8.61874075 10.39605306 9.25 17.546875 C9.46089747 26.03827314 7.77719292 31.50191113 3.26171875 38.59765625 C-2.64660081 44.50597581 -8.52336026 46.97014784 -16.80078125 47.09765625 C-25.02880035 46.98794933 -30.20359372 44.29363012 -36.19140625 38.81640625 C-41.8579544 32.60784045 -43.48934234 25.06778865 -43.390625 16.86328125 C-42.4329384 9.68528068 -38.58319286 3.70802832 -32.92578125 -0.71484375 C-22.26445121 -7.75496302 -10.40621157 -7.60382066 0 0 Z " fill="#0B87FC" transform="translate(214.98828125,65.15234375)"/>
<path d="M0 0 C4.32343243 3.55482222 6.86496431 6.13849712 7.75 11.75 C8.03721031 16.07969549 7.36061499 18.69582066 4.8125 22.3125 C1.06598247 26.07943452 -2.11934922 28.11739144 -7.5 28.625 C-12.92005838 28.16567302 -15.64158295 25.77485397 -19.5 22.125 C-21.84826394 18.21122676 -22.48301731 14.85892014 -22.1875 10.3125 C-21.1895099 6.34845541 -19.65262879 3.43830242 -16.3828125 0.92578125 C-10.79360037 -2.17329551 -5.83943953 -3.09146799 0 0 Z " fill="#BCDEFE" transform="translate(459.1875,397.6875)"/>
</svg>
