<?xml version="1.0" encoding="UTF-8"?>
<!DOCTYPE svg PUBLIC "-//W3C//DTD SVG 1.1//EN" "http://www.w3.org/Graphics/SVG/1.1/DTD/svg11.dtd">
<svg xmlns="http://www.w3.org/2000/svg" version="1.1" width="512px" height="512px" style="shape-rendering:geometricPrecision; text-rendering:geometricPrecision; image-rendering:optimizeQuality; fill-rule:evenodd; clip-rule:evenodd" xmlns:xlink="http://www.w3.org/1999/xlink">
<g><path style="opacity:1" fill="#ffc85f" d="M 233.5,-0.5 C 243.833,-0.5 254.167,-0.5 264.5,-0.5C 224.759,17.7243 192.425,44.8909 167.5,81C 259.499,81.5 351.499,81.6667 443.5,81.5C 466.141,105.18 483.141,132.513 494.5,163.5C 374.001,164.5 253.334,164.833 132.5,164.5C 132.5,164.167 132.5,163.833 132.5,163.5C 138.446,134.639 149.446,107.972 165.5,83.5C 166.043,83.44 166.376,83.1067 166.5,82.5C 133.507,81.5001 100.507,81.1668 67.5,81.5C 112.402,33.3831 167.735,6.04974 233.5,-0.5 Z"/></g>
<g><path style="opacity:0.992" fill="#ffdb6d" d="M 264.5,-0.5 C 268.833,-0.5 273.167,-0.5 277.5,-0.5C 343.265,6.04974 398.598,33.3831 443.5,81.5C 351.499,81.6667 259.499,81.5 167.5,81C 192.425,44.8909 224.759,17.7243 264.5,-0.5 Z"/></g>
<g><path style="opacity:1" fill="#ffb658" d="M 66.5,82.5 C 66.5,81.8333 66.8333,81.5 67.5,81.5C 100.507,81.1668 133.507,81.5001 166.5,82.5C 166.376,83.1067 166.043,83.44 165.5,83.5C 132.671,82.5017 99.6709,82.1684 66.5,82.5 Z"/></g>
<g><path style="opacity:1" fill="#ffaf55" d="M 66.5,82.5 C 99.6709,82.1684 132.671,82.5017 165.5,83.5C 149.446,107.972 138.446,134.639 132.5,163.5C 94.1667,163.5 55.8333,163.5 17.5,163.5C 17.5,162.5 17.5,161.5 17.5,160.5C 28.809,131.187 45.1423,105.187 66.5,82.5 Z"/></g>
<g><path style="opacity:1" fill="#ffba59" d="M 17.5,160.5 C 17.5,161.5 17.5,162.5 17.5,163.5C 55.8333,163.5 94.1667,163.5 132.5,163.5C 132.5,163.833 132.5,164.167 132.5,164.5C 132.167,164.5 131.833,164.5 131.5,164.5C 92.9964,164.832 54.663,164.499 16.5,163.5C 16.2627,162.209 16.596,161.209 17.5,160.5 Z"/></g>
<g><path style="opacity:1" fill="#ffc85f" d="M 16.5,163.5 C 54.663,164.499 92.9964,164.832 131.5,164.5C 129.327,176.392 128.327,188.392 128.5,200.5C 128.167,200.5 127.833,200.5 127.5,200.5C 86.8333,200.5 46.1667,200.5 5.5,200.5C 7.47859,187.569 11.1453,175.236 16.5,163.5 Z"/></g>
<g><path style="opacity:0.998" fill="#ffdb6d" d="M 494.5,163.5 C 499.855,175.236 503.521,187.569 505.5,200.5C 478.498,200.333 451.498,200.5 424.5,201C 420.007,203.079 415.674,205.412 411.5,208C 405.142,209.883 398.809,209.883 392.5,208C 387.393,204.279 381.726,201.946 375.5,201C 345.833,200.333 316.167,200.333 286.5,201C 279.187,205.636 271.854,210.302 264.5,215C 244.724,222.684 227.391,219.017 212.5,204C 210.283,202.725 207.949,201.725 205.5,201C 179.835,200.5 154.169,200.333 128.5,200.5C 128.327,188.392 129.327,176.392 131.5,164.5C 131.833,164.5 132.167,164.5 132.5,164.5C 253.334,164.833 374.001,164.5 494.5,163.5 Z"/></g>
<g><path style="opacity:1" fill="#e19648" d="M 5.5,200.5 C 46.1667,200.5 86.8333,200.5 127.5,200.5C 127.5,200.833 127.5,201.167 127.5,201.5C 86.8333,201.5 46.1667,201.5 5.5,201.5C 5.73731,202.791 5.40397,203.791 4.5,204.5C 4.23219,202.901 4.56552,201.568 5.5,200.5 Z"/></g>
<g><path style="opacity:1" fill="#feaf55" d="M 127.5,200.5 C 127.833,200.5 128.167,200.5 128.5,200.5C 154.169,200.333 179.835,200.5 205.5,201C 207.949,201.725 210.283,202.725 212.5,204C 227.391,219.017 244.724,222.684 264.5,215C 271.854,210.302 279.187,205.636 286.5,201C 316.167,200.333 345.833,200.333 375.5,201C 381.726,201.946 387.393,204.279 392.5,208C 398.809,209.883 405.142,209.883 411.5,208C 415.674,205.412 420.007,203.079 424.5,201C 451.498,200.5 478.498,200.333 505.5,200.5C 508.708,211.136 510.375,222.136 510.5,233.5C 510.5,237.833 510.5,242.167 510.5,246.5C 383.833,246.5 257.167,246.5 130.5,246.5C 130.802,243.941 130.468,241.607 129.5,239.5C 127.937,226.891 127.271,214.225 127.5,201.5C 127.5,201.167 127.5,200.833 127.5,200.5 Z"/></g>
<g><path style="opacity:1" fill="#dc9146" d="M 127.5,201.5 C 127.271,214.225 127.937,226.891 129.5,239.5C 129.5,241.5 129.5,243.5 129.5,245.5C 86.5,245.5 43.5,245.5 0.5,245.5C 0.5,241.5 0.5,237.5 0.5,233.5C 0.61913,223.533 1.95246,213.866 4.5,204.5C 5.40397,203.791 5.73731,202.791 5.5,201.5C 46.1667,201.5 86.8333,201.5 127.5,201.5 Z"/></g>
<g><path style="opacity:1" fill="#e29748" d="M -0.5,233.5 C -0.166667,233.5 0.166667,233.5 0.5,233.5C 0.5,237.5 0.5,241.5 0.5,245.5C 43.5,245.5 86.5,245.5 129.5,245.5C 129.5,243.5 129.5,241.5 129.5,239.5C 130.468,241.607 130.802,243.941 130.5,246.5C 86.8333,246.5 43.1667,246.5 -0.5,246.5C -0.5,242.167 -0.5,237.833 -0.5,233.5 Z"/></g>
<g><path style="opacity:1" fill="#ffaf55" d="M -0.5,246.5 C 43.1667,246.5 86.8333,246.5 130.5,246.5C 133.949,268.514 140.616,289.514 150.5,309.5C 102.171,310.5 53.8379,310.833 5.5,310.5C 2.603,299.653 0.603,288.653 -0.5,277.5C -0.5,267.167 -0.5,256.833 -0.5,246.5 Z"/></g>
<g><path style="opacity:1" fill="#ffc85f" d="M 510.5,233.5 C 510.833,233.5 511.167,233.5 511.5,233.5C 511.5,248.167 511.5,262.833 511.5,277.5C 510.397,288.653 508.397,299.653 505.5,310.5C 387.498,310.167 269.498,310.5 151.5,311.5C 157.757,323.692 164.757,335.358 172.5,346.5C 120.331,346.168 68.3307,346.501 16.5,347.5C 11.1453,335.764 7.47859,323.431 5.5,310.5C 53.8379,310.833 102.171,310.5 150.5,309.5C 140.616,289.514 133.949,268.514 130.5,246.5C 257.167,246.5 383.833,246.5 510.5,246.5C 510.5,242.167 510.5,237.833 510.5,233.5 Z"/></g>
<g><path style="opacity:0.998" fill="#ffdb6d" d="M 505.5,310.5 C 503.521,323.431 499.855,335.764 494.5,347.5C 387.668,346.501 280.668,346.167 173.5,346.5C 173.167,346.5 172.833,346.5 172.5,346.5C 164.757,335.358 157.757,323.692 151.5,311.5C 269.498,310.5 387.498,310.167 505.5,310.5 Z"/></g>
<g><path style="opacity:1" fill="#ffba59" d="M 172.5,346.5 C 172.833,346.5 173.167,346.5 173.5,346.5C 173.5,346.833 173.5,347.167 173.5,347.5C 121.5,347.5 69.5,347.5 17.5,347.5C 17.5,348.5 17.5,349.5 17.5,350.5C 16.596,349.791 16.2627,348.791 16.5,347.5C 68.3307,346.501 120.331,346.168 172.5,346.5 Z"/></g>
<g><path style="opacity:1" fill="#ffaf55" d="M 173.5,347.5 C 197.626,378.627 227.626,402.294 263.5,418.5C 195.335,419.499 127.002,419.833 58.5,419.5C 41.0327,398.921 27.3661,375.921 17.5,350.5C 17.5,349.5 17.5,348.5 17.5,347.5C 69.5,347.5 121.5,347.5 173.5,347.5 Z"/></g>
<g><path style="opacity:1" fill="#ffba59" d="M 263.5,418.5 C 264.289,418.783 264.956,419.283 265.5,420C 196.834,420.5 128.167,420.667 59.5,420.5C 58.8333,420.5 58.5,420.167 58.5,419.5C 127.002,419.833 195.335,419.499 263.5,418.5 Z"/></g>
<g><path style="opacity:1" fill="#ffc85f" d="M 173.5,347.5 C 173.5,347.167 173.5,346.833 173.5,346.5C 280.668,346.167 387.668,346.501 494.5,347.5C 471.772,405.751 433.105,450.251 378.5,481C 346.722,497.855 313.055,508.022 277.5,511.5C 262.833,511.5 248.167,511.5 233.5,511.5C 163.183,504.345 105.183,474.012 59.5,420.5C 128.167,420.667 196.834,420.5 265.5,420C 264.956,419.283 264.289,418.783 263.5,418.5C 227.626,402.294 197.626,378.627 173.5,347.5 Z"/></g>
<g><path style="opacity:1" fill="#ffd166" d="M 442.5,421.5 C 384.833,420.167 327.167,420.167 269.5,421.5C 268.527,421.013 267.527,420.513 266.5,420C 326.167,419.333 385.833,419.333 445.5,420C 444.756,421.039 443.756,421.539 442.5,421.5 Z"/></g>
<g><path style="opacity:1" fill="#ffdb6d" d="M 269.5,421.5 C 327.167,420.167 384.833,420.167 442.5,421.5C 384.819,444.166 327.153,444.166 269.5,421.5 Z"/></g>
</svg>
